<?xml version="1.0" encoding="UTF-8" standalone="no"?>
<svg
   width="304.8mm"
   height="304.8mm"
   viewBox="0 0 304.8 304.8"
   version="1.1"
   id="svg36"
   sodipodi:docname="svg_3_1x1.svg"
   inkscape:version="1.3.2 (091e20e, 2023-11-25, custom)"
   xmlns:inkscape="http://www.inkscape.org/namespaces/inkscape"
   xmlns:sodipodi="http://sodipodi.sourceforge.net/DTD/sodipodi-0.dtd"
   xmlns="http://www.w3.org/2000/svg"
   xmlns:svg="http://www.w3.org/2000/svg">
  <defs
     id="defs36" />
  <sodipodi:namedview
     id="namedview36"
     pagecolor="#ffffff"
     bordercolor="#666666"
     borderopacity="1.0"
     inkscape:showpageshadow="2"
     inkscape:pageopacity="0.0"
     inkscape:pagecheckerboard="0"
     inkscape:deskcolor="#d1d1d1"
     inkscape:document-units="mm"
     inkscape:zoom="0.71267364"
     inkscape:cx="577.40314"
     inkscape:cy="351.49329"
     inkscape:window-width="1920"
     inkscape:window-height="1017"
     inkscape:window-x="-8"
     inkscape:window-y="-8"
     inkscape:window-maximized="1"
     inkscape:current-layer="svg36" />
  <desc
     id="desc1">Output from Flights of Ideas SVG Sketchup Plugin</desc>
  <path
     style="fill:none;stroke:#0000FF;stroke-width:1;stroke-miterlimit:4;stroke-dasharray:none;stroke-linejoin:round;stroke-linecap:round"
     d="M 136.2363,186.75386"
     id="path9612" />
  <path
     style="fill:none;stroke:#0000FF;stroke-width:1;stroke-miterlimit:4;stroke-dasharray:none;stroke-linejoin:round;stroke-linecap:round"
     d="M 135.45631,186.84587"
     id="path9611" />
  <path
     style="fill:none;stroke:#0000FF;stroke-width:1;stroke-miterlimit:4;stroke-dasharray:none;stroke-linejoin:round;stroke-linecap:round"
     d="M 16.728137,273.48148"
     id="path5793" />
  <path
     style="fill:none;stroke:#0000FF;stroke-width:1;stroke-miterlimit:4;stroke-dasharray:none;stroke-linejoin:round;stroke-linecap:round"
     d="M 16.551756,273.44036"
     id="path5792" />
  <path
     style="fill:none;stroke:#000000;stroke-width:1;stroke-miterlimit:4;stroke-dasharray:none;stroke-linejoin:round;stroke-linecap:round"
     d="m 136.2363,185.8 h -8.35717 v 0.95313 l 0.87994,0.10806 0.46405,0.32419 0.2561,1.45691 0.032,18.28344 -0.068,0.88056 -0.20407,0.59234 -0.47604,0.33618 -0.88394,0.11206 V 209.8 h 8.38379 l 4.5437,-15.58398 4.38378,15.58398 h 7.96778 v -0.98438 l -0.8801,-0.10806 -0.46402,-0.32419 -0.25598,-1.45691 v -18.25219 l 0.048,-0.88049 0.20801,-0.59241 0.4801,-0.33618 0.86402,-0.11206 V 185.8 h -5.46631 v 0.92188 l 0.77997,0.092 0.48395,0.27603 0.25994,0.57199 0.10797,0.97989 v 17.56811 L 143.27585,185.8 h -2.46386 l -6.17578,21.4978 v -18.62402 l 0.084,-0.97989 0.25205,-0.57199 0.48404,-0.27603 0.77999,-0.092 V 185.8"
     id="face0-interior" />
  <path
     style="fill:none;stroke:#000000;stroke-width:1;stroke-miterlimit:4;stroke-dasharray:none;stroke-linejoin:round;stroke-linecap:round"
     d="m 240.87057,197.79438 -0.3042,3.98316 -0.38025,1.64764 -0.53235,1.39167 -0.67245,1.11972 -0.80057,0.83181 -0.92862,0.5159 -1.05661,0.17197 -1.07278,-0.17197 -0.97666,-0.5159 -0.86453,-0.83181 -0.73642,-1.11972 -0.59634,-1.39167 -0.44431,-1.64764 -0.27621,-1.88361 -0.0921,-2.09955 0.0921,-2.10754 0.27621,-1.90759 0.44431,-1.67963 0.59634,-1.42364 0.73642,-1.15171 0.86453,-0.8638 0.97666,-0.53988 1.07278,-0.17996 1.05661,0.17996 0.92862,0.53988 0.80057,0.8638 0.67245,1.15171 0.53235,1.42364 0.38025,1.67963 0.3042,4.01513"
     id="path5791" />
  <path
     style="fill:none;stroke:#000000;stroke-width:1;stroke-miterlimit:4;stroke-dasharray:none;stroke-linejoin:round;stroke-linecap:round"
     d="m 246.37057,197.8 -0.18405,-2.57199 -0.55216,-2.34 -0.88427,-2.05999 -1.18042,-1.732 -1.46454,-1.392 -1.73663,-1.04001 -1.98075,-0.64801 -2.19687,-0.216 -2.19686,0.216 -1.98075,0.64801 -1.73663,1.04001 -1.46454,1.392 -1.18042,1.732 -0.88428,2.05999 -0.55215,2.34 -0.18405,2.57199 0.18405,2.57199 0.55215,2.34 0.88428,2.05999 1.18042,1.732 1.46454,1.392 1.73663,1.04001 1.98075,0.64801 2.19686,0.216 2.19687,-0.216 1.98075,-0.64801 1.73663,-1.04001 1.46454,-1.392 1.18042,-1.732 0.88427,-2.05999 0.55216,-2.34 0.18405,-2.57199"
     id="face1-interior" />
  <path
     style="fill:none;stroke:#000000;stroke-width:1;stroke-miterlimit:4;stroke-dasharray:none;stroke-linejoin:round;stroke-linecap:round"
     d="m 169.93308,205.57148 -0.23975,1.39222 -0.43555,0.37997 -0.82714,0.14798 -2.31787,-0.224 -1.03907,-0.30801 -0.91113,-0.47605 -0.76324,-0.66803 -0.5954,-0.88397 -0.38361,-1.12799 -0.12787,-1.40008 0.28772,-1.83997 0.37964,-0.86398 0.56348,-0.76798 0.76327,-0.65198 0.97904,-0.51599 1.21478,-0.336 1.47052,-0.11199 1.98218,0 v 8.25585"
     id="path5790" />
  <path
     style="fill:none;stroke:#000000;stroke-width:1;stroke-miterlimit:4;stroke-dasharray:none;stroke-linejoin:round;stroke-linecap:round"
     d="m 176.65817,209.64375 v -0.95313 l -0.86401,-0.11206 -0.4801,-0.3363 -0.20801,-0.59253 -0.048,-0.88074 v -18.09423 l 0.084,-0.98087 0.25205,-0.57248 0.48404,-0.27621 0.77999,-0.0921 V 185.8 h -8.32519 v 0.95313 l 0.8801,0.10809 0.46402,0.32428 0.25598,1.45752 v 6.43823 h -1.02344 L 161.77634,185.8 h -7.32788 v 0.95313 l 0.92795,0.15606 0.73599,0.34027 1.40808,1.29712 5.56787,7.01343 -1.60425,0.56021 -1.29223,0.72019 -1.02017,0.83618 -0.78806,0.9082 -0.57202,0.95224 -0.37207,0.96829 -0.2721,1.77637 0.10801,1.38843 0.324,1.34839 0.60806,1.25234 0.96018,1.10032 1.34424,0.92425 1.76025,0.72418 2.24432,0.46811 2.79645,0.15604 h 9.34521"
     id="face2-interior" />
  <path
     style="fill:none;stroke:#000000;stroke-width:1;stroke-miterlimit:4;stroke-dasharray:none;stroke-linejoin:round;stroke-linecap:round"
     d="m 113.38157,197.00313 h 4.70386 l -2.59204,7.87206 -2.11182,-7.87206"
     id="path5789" />
  <path
     style="fill:none;stroke:#000000;stroke-width:1;stroke-miterlimit:4;stroke-dasharray:none;stroke-linejoin:round;stroke-linecap:round"
     d="m 116.8054,209.8 7.29614,-22.05542 0.23993,-0.58008 0.39996,-0.26806 1.21607,-0.11206 v -0.95313 l -7.04004,0 v 0.95313 l 1.80798,0.19238 0.30795,0.36877 -0.13205,0.72156 -2.11181,6.70166 h -6.30396 l -1.79223,-6.70166 -0.0159,-0.70557 0.38403,-0.38476 0.68799,-0.16028 0.896,-0.0321 v -0.95313 l -9.43996,-0.0312 2e-5,0.98438 1.16784,0.11206 0.36405,0.18805 0.22812,0.34002 6.75195,22.37549 h 5.08789"
     id="face3-interior" />
  <path
     style="fill:none;stroke:#000000;stroke-width:1;stroke-miterlimit:4;stroke-dasharray:none;stroke-linejoin:round;stroke-linecap:round"
     d="m 292.35176,277.8 0,-200 -0.98105,-0.03212 -0.97685,-0.09621 -0.96846,-0.159894 -0.95593,-0.222892 -0.93931,-0.284935 -0.1784,-0.06715 -0.74026,-0.278611 -0.89407,-0.405102 -0.86567,-0.46271 -0.83356,-0.518337 -0.79787,-0.571744 -0.75876,-0.622703 -0.71642,-0.670995 -0.67099,-0.716415 -0.6227,-0.758766 -0.57175,-0.797868 L 279.36138,70.3 278.89867,69.43433 278.49356,68.540251 278.21495,67.8 l -0.0671,-0.178408 -0.28493,-0.939306 -0.22289,-0.955931 -0.1599,-0.968462 -0.0962,-0.976846 L 277.35176,62.8 h -25.4 v 5 h 21.04035 l 0.0411,0.176381 0.37991,1.252408 0.46102,1.22488 0.54013,1.192105 0.61695,1.154226 0.69111,1.111405 0.76233,1.063824 0.83027,1.011687 0.89466,0.95522 0.95522,0.89466 1.01169,0.830271 1.06382,0.762325 1.11141,0.691116 1.15422,0.616947 1.19211,0.540136 1.22488,0.461012 1.25241,0.379914 0.17638,0.04113 0,191.280717 -0.17638,0.0411 -1.25241,0.37992 -1.22488,0.46101 -1.19211,0.54014 -1.15422,0.61694 -1.11141,0.69112 -1.06382,0.76232 -1.01169,0.83027 -0.95522,0.89466 -0.89466,0.95522 -0.83027,1.01169 -0.76233,1.06383 -0.69111,1.1114 -0.61695,1.15423 -0.54013,1.1921 -0.46102,1.22488 -0.37991,1.25241 -0.0411,0.17638 -21.04035,0 v 5 l 25.4,0 0.0321,-0.98105 0.0962,-0.97684 0.1599,-0.96846 0.22289,-0.95594 0.28493,-0.9393 0.0671,-0.17841 0.27861,-0.74025 0.40511,-0.89408 0.46271,-0.86567 0.51833,-0.83355 0.57175,-0.79787 0.6227,-0.75877 0.67099,-0.71641 0.71642,-0.671 0.75876,-0.6227 0.79787,-0.57174 0.83356,-0.51834 0.86567,-0.46271 0.89407,-0.4051 0.74026,-0.27861 0.1784,-0.0672 0.93931,-0.28494 0.95593,-0.22289 0.96846,-0.15989 0.97685,-0.0962 0.98105,-0.0321"
     id="face4-interior" />
  <path
     style="fill:none;stroke:#000000;stroke-width:1;stroke-miterlimit:4;stroke-dasharray:none;stroke-linejoin:round;stroke-linecap:round"
     d="m 88.06126,208.51875 -0.859924,-0.064 -0.340027,-0.19198 0.07593,-0.37601 0.387939,-0.61606 7.264159,-10.11181 v 9.76001 l -0.08008,0.97595 -0.271972,0.578 -0.495972,0.29199 -0.784058,0.082 V 209.8 h 8.325195 v -0.98438 l -0.86401,-0.0961 -0.480106,-0.32019 -0.192017,-0.5924 -0.03198,-0.8805 v -18.25219 l 0.08002,-0.9805 0.240048,-0.57236 0.47205,-0.27621 0.776,-0.0921 V 185.8 h -8.325195 v 0.95313 l 0.884095,0.104 0.476013,0.31201 0.203979,0.57599 0.06799,0.89594 v 4.41601 l -1.50415,2.08008 L 85.725323,185.8 h -7.552002 v 0.95313 l 0.927948,0.156 0.735993,0.34009 1.408081,1.29639 8.703856,10.91479 -4.895995,6.72168 -0.927979,1.15246 -0.848022,0.7201 -0.975952,0.36804 -1.312012,0.0961 V 209.8 h 7.072021 v -1.28125"
     id="face5-interior" />
  <path
     style="fill:none;stroke:#000000;stroke-width:1;stroke-miterlimit:4;stroke-dasharray:none;stroke-linejoin:round;stroke-linecap:round"
     d="M 162.80393,204.93159"
     id="path5788" />
  <path
     style="fill:none;stroke:#000000;stroke-width:1;stroke-miterlimit:4;stroke-dasharray:none;stroke-linejoin:round;stroke-linecap:round"
     d="M 162.42032,203.8036"
     id="path5787" />
  <path
     style="fill:none;stroke:#000000;stroke-width:1;stroke-miterlimit:4;stroke-dasharray:none;stroke-linejoin:round;stroke-linecap:round"
     d="M 162.29245,202.40352"
     id="path5786" />
  <path
     style="fill:none;stroke:#000000;stroke-width:1;stroke-miterlimit:4;stroke-dasharray:none;stroke-linejoin:round;stroke-linecap:round"
     d="M 162.58017,200.56355"
     id="path5785" />
  <path
     style="fill:none;stroke:#000000;stroke-width:1;stroke-miterlimit:4;stroke-dasharray:none;stroke-linejoin:round;stroke-linecap:round"
     d="M 162.95981,199.69957"
     id="path5784" />
  <path
     style="fill:none;stroke:#000000;stroke-width:1;stroke-miterlimit:4;stroke-dasharray:none;stroke-linejoin:round;stroke-linecap:round"
     d="M 163.52329,198.93159"
     id="path5783" />
  <path
     style="fill:none;stroke:#000000;stroke-width:1;stroke-miterlimit:4;stroke-dasharray:none;stroke-linejoin:round;stroke-linecap:round"
     d="M 164.28656,198.27961"
     id="path5782" />
  <path
     style="fill:none;stroke:#000000;stroke-width:1;stroke-miterlimit:4;stroke-dasharray:none;stroke-linejoin:round;stroke-linecap:round"
     d="M 165.2656,197.76362"
     id="path5781" />
  <path
     style="fill:none;stroke:#000000;stroke-width:1;stroke-miterlimit:4;stroke-dasharray:none;stroke-linejoin:round;stroke-linecap:round"
     d="M 166.48038,197.42762"
     id="path5780" />
  <path
     style="fill:none;stroke:#000000;stroke-width:1;stroke-miterlimit:4;stroke-dasharray:none;stroke-linejoin:round;stroke-linecap:round"
     d="M 167.9509,197.31563"
     id="path5779" />
  <path
     style="fill:none;stroke:#000000;stroke-width:1;stroke-miterlimit:4;stroke-dasharray:none;stroke-linejoin:round;stroke-linecap:round"
     d="M 169.93308,197.31563"
     id="path5778" />
  <path
     style="fill:none;stroke:#000000;stroke-width:1;stroke-miterlimit:4;stroke-dasharray:none;stroke-linejoin:round;stroke-linecap:round"
     d="M 169.93308,205.57148"
     id="path5777" />
  <path
     style="fill:none;stroke:#000000;stroke-width:1;stroke-miterlimit:4;stroke-dasharray:none;stroke-linejoin:round;stroke-linecap:round"
     d="M 169.69333,206.9637"
     id="path5776" />
  <path
     style="fill:none;stroke:#000000;stroke-width:1;stroke-miterlimit:4;stroke-dasharray:none;stroke-linejoin:round;stroke-linecap:round"
     d="M 169.25778,207.34367"
     id="path5775" />
  <path
     style="fill:none;stroke:#000000;stroke-width:1;stroke-miterlimit:4;stroke-dasharray:none;stroke-linejoin:round;stroke-linecap:round"
     d="M 168.43064,207.49165"
     id="path5774" />
  <path
     style="fill:none;stroke:#000000;stroke-width:1;stroke-miterlimit:4;stroke-dasharray:none;stroke-linejoin:round;stroke-linecap:round"
     d="M 166.11277,207.26765"
     id="path5773" />
  <path
     style="fill:none;stroke:#000000;stroke-width:1;stroke-miterlimit:4;stroke-dasharray:none;stroke-linejoin:round;stroke-linecap:round"
     d="M 165.0737,206.95964"
     id="path5772" />
  <path
     style="fill:none;stroke:#000000;stroke-width:1;stroke-miterlimit:4;stroke-dasharray:none;stroke-linejoin:round;stroke-linecap:round"
     d="M 164.16257,206.48359"
     id="path5771" />
  <path
     style="fill:none;stroke:#000000;stroke-width:1;stroke-miterlimit:4;stroke-dasharray:none;stroke-linejoin:round;stroke-linecap:round"
     d="M 163.39933,205.81556"
     id="face6-interior" />
  <path
     style="fill:none;stroke:#000000;stroke-width:1;stroke-miterlimit:4;stroke-dasharray:none;stroke-linejoin:round;stroke-linecap:round"
     d="m 70.133727,156.03995 3.973388,-4.7467 2.37325,-2.47986 0.620066,-0.41997 0.420176,0.1801 -0.213419,1.59973 -1.146647,2.2933 -1.546631,2.37345 -1.466674,1.89351 -1.093547,1.06649 -1.813151,1.51998 -1.999918,1.33341 -1.706746,0.45309 3.599853,-5.06653"
     id="path5770" />
  <path
     style="fill:none;stroke:#000000;stroke-width:1;stroke-miterlimit:4;stroke-dasharray:none;stroke-linejoin:round;stroke-linecap:round"
     d="m 131.56515,159.00661 -2.19355,0.44663 0.16672,-1.47334 0.60679,-1.43336 2.05343,-2.58667 2.58647,-2.07987 2.42675,-1.33342 0.31983,-0.15991 -0.5599,2.05322 -0.50659,2.05363 -1.39338,1.80649 -1.61993,1.57995 -1.88664,1.12665"
     id="path5769" />
  <path
     style="fill:none;stroke:#000000;stroke-width:1;stroke-miterlimit:4;stroke-dasharray:none;stroke-linejoin:round;stroke-linecap:round"
     d="m 159.34311,150.1999 3.03996,-2.26644 5.97351,-3.92008 3.16004,-1.72668 3.2932,-1.39344 1.8333,-0.54329 0.85998,0.0767 -0.11332,0.69664 -1.08663,1.3166 -1.7866,1.59994 -2.15993,1.49333 -4.58659,2.50691 -5.3068,2.41323 -5.89356,2.33327 2.77344,-2.58667"
     id="path5768" />
  <path
     style="fill:none;stroke:#000000;stroke-width:1;stroke-miterlimit:4;stroke-dasharray:none;stroke-linejoin:round;stroke-linecap:round"
     d="m 116.5355,158.59997 2.37345,-2.72014 -0.85327,1.54663 -0.58696,0.98694 -0.79996,1.25326 -0.93323,1.2266 -0.98674,0.90658 1.78671,-3.19987"
     id="path5767" />
  <path
     style="fill:none;stroke:#000000;stroke-width:1;stroke-miterlimit:4;stroke-dasharray:none;stroke-linejoin:round;stroke-linecap:round"
     d="m 51.840272,165.95999 -2.58667,3.68002 1.62679,-3.89344 2.799886,-4.00004 -1.840006,4.21346"
     id="path5766" />
  <path
     style="fill:none;stroke:#000000;stroke-width:1;stroke-miterlimit:4;stroke-dasharray:none;stroke-linejoin:round;stroke-linecap:round"
     d="m 93.323218,152.32006 -1.14685,1.25305 -2.173665,2.09351 -1.386719,1.06689 1.066691,-2.42676 0.799967,-2.4001 0.399984,-2.10673 -0.186564,-1.54663 -0.95988,-0.96008 -1.466674,-0.58655 -1.466675,-0.23987 -0.959879,0.13326 -1.866862,1.35986 -2.58667,2.26665 -1.525317,1.52544 0.216317,-1.28537 -0.426433,-1.94682 -1.0201,-1.49666 -1.246745,-0.75666 -1.473389,-0.0166 -1.700032,0.72334 -2.079874,1.86686 -2.133179,2.82674 0.09318,-1.24008 -0.360107,-1.05342 -0.920003,-0.83999 -1.586507,-0.59983 -1.053467,-0.14017 -1.026611,0.21993 -1.946614,1.14664 -1.733399,1.65345 -1.440022,1.60013 -1.122347,1.36572 -0.477995,-2.2727 -1.333211,-1.8398 -2.133382,-1.49333 -2.37325,-0.90678 -1.999919,-0.18636 -0.999908,0.35324 -1.079966,0.7399 -2.080078,2.13318 -1.600138,2.40011 -0.693359,1.94681 -0.106609,0.95988 -0.26652,1.1202 -0.426839,1.25326 1.066488,-0.82683 1.866862,-2.02657 1.946614,-2.08007 1.97347,-1.81336 1.946614,-1.28011 0.799968,-0.15991 0.960082,0.16011 0.879924,0.5068 0.559896,0.87972 0.106811,1.97347 -0.266723,2.23999 -3.119914,3.22672 -2.960001,4.13331 -2.133382,4.72005 -0.573324,2.5 -0.120035,2.53987 0.346679,0.77352 0.799968,0.77332 0.933227,0.45328 0.800171,-0.13326 2.15332,-2.0935 2.086588,-2.6534 1.89326,-3.02002 1.573333,-3.19336 1.19339,-3.25999 0.753428,-3.21991 0.02039,-0.35291 0.03332,-0.0202 1.519775,-1.2268 2.10673,-1.6801 2.293294,-1.7334 2.079875,-1.33341 v 0.32023 l -0.0533,0.26652 -0.799968,2.50692 -1.41337,3.11991 -1.466675,2.79989 -0.959879,1.54683 -0.166575,0.40655 0.139923,0.47337 0.853271,0.88013 1.173502,0.47994 0.879924,-0.26693 0.799967,-1.2264 1.866659,1.41317 0.940043,0.24002 1.006571,-0.0799 2.293294,-1.12 2.906697,-2.48006 2.889152,-3.35427 1.353198,-1.17901 2.799886,-2.40011 2.693481,-2.16003 2.37325,-1.57308 0.0799,0.94665 -0.293324,1.45325 -1.253255,3.67981 -1.573283,3.81327 -1.173503,2.80029 -0.01989,0.71996 0.473379,0.66656 0.926666,0.45324 1.339976,0.08 0.906575,-0.31982 1.306763,-1.36007 1.786702,-2.13318 1.97347,-2.58667 0.522266,-0.76105 2.211295,-1.83904 3.306681,-2.2933 3.600059,-1.7334 1.88003,-0.53334 1.90679,-0.21332 0.21317,1.97983 -0.21337,2.09996 -1.38672,4.08 -2.31995,3.38664 -1.393226,1.23336 -1.459961,0.76676 0.319825,-1.12 0.426635,-1.01318 0.34668,-0.90678 0.07996,-0.79997 -0.13326,-0.5601 -0.07996,-0.50659 0.07996,-0.6134 0.293172,-0.93343 0.05351,-1.11979 -0.346731,0.0267 -0.506744,0.50669 -1.253052,1.70655 -1.226806,1.75984 -0.933431,1.62659 -0.373332,1.36007 0.506795,1.14685 1.280111,1.11999 1.626587,0.77332 1.493326,0.0531 1.900078,-0.81309 1.75328,-1.15997 1.54658,-1.48006 1.27996,-1.77332 1.00667,-2.02667 0.72673,-2.24009 1.10555,-1.13322 2.48006,-2.32015 2.58667,-2.05323 2.58667,-1.57328 1.44002,-0.42663 0.62663,0.1332 0.49316,0.50665 0.34689,0.96008 0.0799,1.1733 -1.76005,0.82682 -1.89331,1.41317 -1.7865,1.70675 -1.44002,1.76005 -0.82682,1.30676 -0.74667,1.46667 -0.24007,1.49333 0.58675,1.33301 1.65345,1.04024 1.86666,0.45308 1.51997,-0.6665 1.54663,-1.35986 1.41338,-1.65344 1.01318,-1.54684 1.44002,-3.33333 0.54301,-0.21322 1.57328,-1.06669 2.23999,-1.36007 3.28003,-1.44002 -2.56002,2.32015 -0.82667,1.45996 -0.34662,1.66016 0.39998,1.33321 1.2266,1.52018 1.76005,1.19995 1.99992,0.37333 1.86676,-0.44016 1.75995,-0.89325 -0.37333,1.67989 -0.47994,1.67989 0.32003,0.74687 0.90657,0.69336 1.06669,0.34668 0.74667,-0.23987 3.70666,-5.28015 1.35562,-1.7209 0.74908,0.12076 3.65356,-0.37333 4.02669,-0.85307 1.67989,2.29309 2.74679,1.81335 2.47986,0.80018 3.35998,1.01318 2.9067,1.38672 0.91995,0.88007 0.30665,1.03989 -0.21332,1.26007 -0.63995,1.21999 -2.02657,2.26664 -2.42676,1.94662 -2.16003,1.46667 -1.33321,0.77332 -2.13338,1.06669 -2.42676,0.98653 -2.2933,0.53345 -1.65324,-0.26652 -0.4334,-0.5334 -0.0734,-0.85352 0.66671,-1.81316 1.51998,-2.07987 1.97326,-2.10673 2.02657,-1.89331 0.93364,-0.96008 -0.18677,-0.21342 -0.66671,0.13346 -0.45329,0.13346 -1.86665,0.58655 -1.06669,0.32003 -2.47986,1.76005 -2.42676,2.47986 -0.83338,1.3799 -0.47338,1.41998 0.06,1.40005 0.76681,1.32009 1.40004,1.20666 1.53331,0.73995 3.27982,0.42664 3.33334,-0.6132 2.98685,-1.1733 3.35999,-1.81336 3.54655,-2.50671 2.93335,-3.06681 0.9934,-1.71336 0.47327,-1.77989 -5e-5,-1.15341 -0.31998,-1.00662 -1.36006,-1.65324 -2.02678,-1.28011 -2.34659,-0.98674 -2.31995,-0.74666 -1.91996,-0.58655 -1.36007,-0.45328 -1.41337,-0.58676 -1.2266,-0.85327 -0.69316,-1.30656 -0.0266,-0.42684 0.08,-0.48014 6.69311,-2.23979 6.05347,-2.4534 5.28015,-2.42656 4.95992,-3.06661 1.25325,-0.96008 1.22661,-1.1733 0.90677,-1.36007 0.34668,-1.51998 -0.53344,-1.67989 -1.30677,-1.28011 -1.70654,-0.77331 -1.73319,-0.15991 -3.17342,0.69315 -3.09347,1.30656 -2.98665,1.65344 -2.80009,1.6801 -5.99996,4.05314 -2.78,2.3467 -2.41999,2.66673 -0.87993,1.32008 -0.50679,1.40005 -5.65308,1.49333 -0.75853,0.14883 1.29361,-1.64216 1.68009,-2.24019 0.0867,-0.25996 -0.21998,0.0734 -1.06669,0.79997 -1.1735,0.77352 -0.93323,0.29317 -0.87992,0.0267 -1.7334,1.2266 -2.48006,2.71993 0.32023,-1.333 0.6132,-0.90678 0.5599,-0.96009 4.32006,-8.48002 1.56006,-4.19998 0.83985,-4.06682 -0.13327,-1.70654 -0.6665,-1.19995 -0.88013,-0.53325 -0.77331,0.23987 -2.16004,3.14677 -1.70654,3.54675 -1.41337,3.68001 -1.28011,3.59986 -0.21322,0.58675 -0.77351,-0.74687 -1.25326,-0.63985 -1.33341,-0.42664 -0.95988,-0.10681 -2.14005,0.40019 -2.15337,0.77332 -4.1333,2.37325 -2.277,1.97787 0.0275,-0.4579 -0.24663,-1.69321 -0.63329,-1.55996 -1.12666,-1.30666 -1.72674,-0.93333 -1.38005,-0.36011 -1.36673,-0.0134 -2.56002,0.77331 -2.21334,1.51998 -1.7867,1.81335 -1.24996,1.64079 -0.0157,-0.74743 -0.6665,-1.43901 -1.44002,-1.38326 -1.76005,-1.00972 -1.62659,-0.37212 -2.13318,0.29236 -1.919961,0.61096 -2.026978,1.00993 -1.946614,1.35763 -1.653239,1.44002"
     id="face7-interior" />
  <path
     style="fill:none;stroke:#000000;stroke-width:1;stroke-miterlimit:4;stroke-dasharray:none;stroke-linejoin:round;stroke-linecap:round"
     d="m 261.04244,205.95405 -0.10981,0.65721 -0.26549,0.46944 -0.42116,0.28166 -0.57683,0.0939 -1.61267,-0.048 -1.64477,-0.35157 -0.71457,-0.38748 -0.61075,-0.55527 -0.42712,-0.77502 -0.1637,-1.04675 0.17566,-1.67798 0.29144,-0.775 0.45905,-0.69509 0.63867,-0.58725 0.83032,-0.45145 1.04593,-0.28766 1.28549,-0.0959 h 1.82031 v 6.23218"
     id="path5765" />
  <path
     style="fill:none;stroke:#000000;stroke-width:1;stroke-miterlimit:4;stroke-dasharray:none;stroke-linejoin:round;stroke-linecap:round"
     d="m 253.40182,193.03438 0.10791,-1.09726 0.32373,-0.98514 0.52753,-0.86499 0.7193,-0.73682 0.89111,-0.59665 1.04297,-0.44449 1.19085,-0.2763 1.33478,-0.0921 0.82715,0.14813 0.43555,0.38043 0.23974,1.39355 v 7.62476 h -2.62158 l -1.24667,-0.0921 -1.05496,-0.27631 -0.87119,-0.42447 -0.69534,-0.53659 -0.5235,-0.64471 -0.35565,-0.74884 -0.27173,-1.7301"
     id="path5764" />
  <path
     style="fill:none;stroke:#000000;stroke-width:1;stroke-miterlimit:4;stroke-dasharray:none;stroke-linejoin:round;stroke-linecap:round"
     d="m 267.76754,209.8 v -0.95313 l -0.78406,-0.0801 -0.47998,-0.28821 -0.25598,-0.5763 -0.0801,-0.97656 v -18.25146 l 0.048,-0.88049 0.208,-0.59241 0.48011,-0.33618 0.86401,-0.11206 V 185.8 h -9.34521 l -2.57239,0.16806 -2.14832,0.50418 -1.75225,0.76828 -1.38422,0.96036 -1.03616,1.12039 -0.7081,1.24838 -0.40805,1.30442 -0.13602,1.28848 0.092,1.00021 0.27603,0.9523 0.46805,0.88434 0.66806,0.79633 0.8761,0.69226 1.09216,0.57214 1.30823,0.4241 1.52429,0.24814 -1.0032,0.0959 -0.96323,0.28784 -0.8873,0.47177 -0.77542,0.64774 -0.64352,0.8157 -0.49161,0.97568 -0.31174,1.12762 -0.10391,1.27155 0.11197,1.00748 0.33591,0.97555 0.5639,0.90763 0.79596,0.80368 1.03192,0.67974 1.27179,0.53583 1.51572,0.3479 1.7637,0.11597 h 10.97485"
     id="face8-interior" />
  <path
     style="fill:none;stroke:#000000;stroke-width:1;stroke-miterlimit:4;stroke-dasharray:none;stroke-linejoin:round;stroke-linecap:round"
     d="m 150.81095,116.40758 1.14081,3.47512 1.1408,-3.47512 1.46633,-2.79142 1.67176,-2.28528 1.73123,-1.95668 1.64476,-1.80563 1.41234,-1.83214 1.03397,-2.03618 0.50967,-2.41778 -0.19066,-2.7729 -0.85395,-2.663122 -1.30496,-2.591697 -1.5437,-2.55863 -1.57016,-2.563922 -1.38436,-2.607568 -0.98628,-2.689574 -0.37594,-2.809934 16.21585,10.884605 5.93307,3.902522 5.01231,2.845449 2.28488,1.01916 2.20352,0.7463 2.17175,0.470573 2.1896,0.191978 2.25704,-0.08947 2.3741,-0.37379 5.29779,-1.611994 3.03031,-1.675652 3.09269,-2.605242 2.8926,-3.227432 2.43006,-3.542224 1.70505,-3.549616 0.49863,-1.681517 0.21895,-1.568091 -0.0935,-1.41624 -0.43882,-1.225963 -0.81692,-0.997263 -1.22782,-0.730135 -0.44338,-0.07031 0.43131,0.59794 0.66364,1.151905 0.25364,1.591579 -0.34272,1.798164 -0.66969,1.827607 -0.95504,1.822695 -1.19877,1.783426 -2.96229,3.311629 -3.43787,2.742293 -3.58055,1.898115 -1.73974,0.546602 -1.65057,0.232492 -1.51978,-0.115974 -1.34739,-0.498797 -1.13337,-0.915971 -0.87775,-1.367503 -0.6852,-1.983668 -1.12378,-2.877784 -0.70426,-1.237686 -0.78737,-0.817414 -0.86164,-0.182542 -0.92708,0.66693 -1.66134,1.545525 -1.89499,0.951826 -2.08759,0.41401 -2.23914,-0.06793 -2.34964,-0.493987 -2.41909,-0.864162 -2.44749,-1.178459 -2.43484,-1.436875 -4.66753,-3.425476 -4.12433,-3.788577 -3.25274,-3.704634 -2.05275,-3.173648 3.33861,1.975593 3.25104,1.464264 3.17262,0.997307 3.10331,0.574722 3.04314,0.196509 2.9921,-0.13733 2.95017,-0.426801 2.91739,-0.6719 5.77291,-1.901601 5.75128,-2.349528 5.80267,-2.44248 5.92708,-2.180457 3.5447,-0.824617 3.6277,-0.273736 3.61515,0.233011 3.50703,0.695623 3.30336,1.114105 3.00413,1.488455 2.60935,1.818666 2.11899,2.104751 1.36061,2.155064 0.4096,1.829455 -0.32597,1.489255 -0.84609,1.134461 -1.15077,0.765077 -1.24001,0.381099 -1.11382,-0.01747 -0.77217,-0.430629 -0.61538,-0.574737 -0.40388,-0.04987 -0.20124,0.352615 -0.007,0.63271 0.531,1.616151 0.52075,0.738666 0.6791,0.529207 2.21246,0.562062 2.71793,-0.225634 1.40463,-0.44422 1.35834,-0.684363 1.25448,-0.938914 1.09307,-1.20787 0.70733,-1.517124 0.18258,-1.789792 -0.27174,-1.961607 -0.65564,-2.032565 -0.96912,-2.002666 -1.21218,-1.871911 -1.38482,-1.640301 -1.48702,-1.307832 -1.89556,-1.2385 -2.00656,-1.036744 -4.29409,-1.509548 -4.58199,-0.826516 -4.76584,-0.226144 -4.8456,0.291562 -4.82129,0.72661 -4.69292,1.078995 -4.46046,1.348714 -5.26316,1.63855 -6.3513,1.627004 -6.87808,1.276015 -6.84352,0.585582 -3.23338,-0.0722 -3.01424,-0.372098 -2.72492,-0.714427 -2.36544,-1.099188 -1.93579,-1.526381 -1.43598,-1.996001 -0.86598,-2.508054 -0.25205,-3.062536 -0.25206,3.062536 -0.86598,2.508054 -1.43598,1.996001 -1.93579,1.526381 -2.36544,1.099188 -2.72492,0.714427 -3.01424,0.372098 -3.23338,0.0722 -6.84352,-0.585582 -6.87808,-1.276015 -6.35129,-1.627004 -5.26316,-1.63855 -4.46047,-1.348714 -4.69291,-1.078995 -4.821299,-0.72661 -4.845599,-0.291562 -4.765834,0.226145 -4.581999,0.826515 -4.294091,1.509548 -2.006558,1.036744 -1.895554,1.2385 -1.487028,1.307832 -1.384815,1.640301 -1.21218,1.871911 -0.969122,2.002666 -0.655642,2.032565 -0.27174,1.961607 0.182584,1.789792 0.707332,1.517124 1.093069,1.20787 1.254479,0.938914 1.358333,0.684363 1.404633,0.44422 2.717935,0.225634 2.212458,-0.562062 0.679102,-0.529207 0.520746,-0.738666 0.531005,-1.616151 -0.0075,-0.63271 -0.201242,-0.352615 -0.403884,0.04987 -0.615382,0.574737 -0.77217,0.430629 -1.113812,0.01747 -1.240013,-0.381099 -1.150774,-0.765077 -0.846091,-1.134461 -0.325966,-1.489255 0.409601,-1.829455 1.360609,-2.155064 2.118996,-2.104751 2.609342,-1.818666 3.004132,-1.488455 3.303361,-1.114105 3.507034,-0.695623 3.615147,-0.233011 3.627701,0.273736 3.544696,0.824617 5.92709,2.180457 5.80267,2.44248 5.75128,2.349528 5.77291,1.901601 2.91738,0.6719 2.95018,0.426801 2.99209,0.13733 3.04314,-0.196509 3.10332,-0.574722 3.17261,-0.997307 3.25105,-1.464264 3.3386,-1.975593 -2.05275,3.173648 -3.25274,3.704634 -4.12433,3.788577 -4.66753,3.425476 -2.43484,1.436875 -2.44749,1.178459 -2.41909,0.864162 -2.34964,0.493987 -2.23914,0.06793 -2.08759,-0.41401 -1.89499,-0.951826 -1.66134,-1.545525 -0.92708,-0.66693 -0.86164,0.182542 -0.78737,0.817414 -0.70426,1.237686 -1.12378,2.877784 -0.6852,1.983668 -0.87775,1.367503 -1.13337,0.915971 -1.34738,0.498797 -1.51979,0.115974 -1.65057,-0.232492 -1.73974,-0.546602 -3.58054,-1.898115 -3.437878,-2.742293 -2.962293,-3.311629 -1.198771,-1.783426 -0.955035,-1.822695 -0.669686,-1.827607 -0.342725,-1.798164 0.253639,-1.591579 0.663646,-1.151905 0.431307,-0.59794 -0.443379,0.07031 -1.227823,0.730135 -0.816917,0.997263 -0.438819,1.225963 -0.09353,1.41624 0.218954,1.568091 0.498629,1.681517 1.705052,3.549616 2.43006,3.542224 2.892605,3.227432 3.092693,2.605242 3.03031,1.675652 5.29779,1.611994 2.3741,0.37379 2.25704,0.08947 2.18959,-0.191978 2.17175,-0.470573 2.20352,-0.7463 2.28488,-1.01916 5.01231,-2.845449 5.93307,-3.902522 16.21585,-10.884605 -0.37593,2.809934 -0.98629,2.689574 -1.38436,2.607568 -1.57016,2.563922 -1.5437,2.55863 -1.30496,2.591697 -0.85395,2.663122 -0.19066,2.7729 0.50967,2.41778 1.03397,2.03618 1.41235,1.83214 1.64475,1.80563 1.73123,1.95668 1.67176,2.28528 1.46633,2.79142"
     id="face9-interior" />
  <path
     style="fill:none;stroke:#000000;stroke-width:1;stroke-miterlimit:4;stroke-dasharray:none;stroke-linejoin:round;stroke-linecap:round"
     d="m 44.49144,204.93159 0.595398,0.88397 0.763244,0.66803 0.911133,0.47605 1.039063,0.30801 2.31787,0.224 0.827149,-0.14798 0.435547,-0.37997 0.239746,-1.39222 v -8.25585 l -1.982178,0 -1.47052,0.11199 -1.214782,0.336 -0.979035,0.51599 -0.763275,0.65198 -0.563476,0.76798 -0.379639,0.86398 -0.28772,1.83997 0.127869,1.40008 0.383606,1.12799"
     id="face10-interior" />
  <path
     style="fill:none;stroke:#000000;stroke-width:1;stroke-miterlimit:4;stroke-dasharray:none;stroke-linejoin:round;stroke-linecap:round"
     d="M 118.90895,155.87983"
     id="path5763" />
  <path
     style="fill:none;stroke:#000000;stroke-width:1;stroke-miterlimit:4;stroke-dasharray:none;stroke-linejoin:round;stroke-linecap:round"
     d="M 118.05568,157.42646"
     id="path5762" />
  <path
     style="fill:none;stroke:#000000;stroke-width:1;stroke-miterlimit:4;stroke-dasharray:none;stroke-linejoin:round;stroke-linecap:round"
     d="M 117.46872,158.4134"
     id="path5761" />
  <path
     style="fill:none;stroke:#000000;stroke-width:1;stroke-miterlimit:4;stroke-dasharray:none;stroke-linejoin:round;stroke-linecap:round"
     d="M 116.66876,159.66666"
     id="path5760" />
  <path
     style="fill:none;stroke:#000000;stroke-width:1;stroke-miterlimit:4;stroke-dasharray:none;stroke-linejoin:round;stroke-linecap:round"
     d="M 115.73553,160.89326"
     id="path5759" />
  <path
     style="fill:none;stroke:#000000;stroke-width:1;stroke-miterlimit:4;stroke-dasharray:none;stroke-linejoin:round;stroke-linecap:round"
     d="M 114.74879,161.79984"
     id="path5758" />
  <path
     style="fill:none;stroke:#000000;stroke-width:1;stroke-miterlimit:4;stroke-dasharray:none;stroke-linejoin:round;stroke-linecap:round"
     d="M 116.5355,158.59997"
     id="face11-interior" />
  <path
     style="fill:none;stroke:#000000;stroke-width:1;stroke-miterlimit:4;stroke-dasharray:none;stroke-linejoin:round;stroke-linecap:round"
     d="m 205.45798,209.8 h 8.35717 v -0.95313 l -0.78405,-0.0801 -0.49598,-0.28821 -0.27197,-0.5763 -0.0801,-0.97656 v -18.25146 l 0.084,-0.9805 0.25204,-0.57236 0.48404,-0.27621 0.78,-0.0921 V 185.8 h -16.66259 v 5.75366 h 0.95312 l 0.3197,-1.3761 0.27573,-0.596 0.44363,-0.508 0.6395,-0.41598 0.86331,-0.31998 2.70178,-0.27197 h 2.14209 l 0.85932,0.12408 0.46759,0.37225 0.27172,1.42481 v 16.97021 l -0.084,0.98065 -0.25205,0.57233 -0.48403,0.27612 -0.78,0.092 V 209.8"
     id="face12-interior" />
  <path
     style="fill:none;stroke:#000000;stroke-width:1;stroke-miterlimit:4;stroke-dasharray:none;stroke-linejoin:round;stroke-linecap:round"
     d="m 16.728137,273.48148 -0.176381,-0.0411 0,-191.280717 0.176381,-0.04113 1.252409,-0.379914 1.224879,-0.461012 1.192105,-0.540136 1.154226,-0.616947 1.111405,-0.691116 1.063824,-0.762325 1.011688,-0.830271 0.955219,-0.89466 0.894661,-0.95522 0.83027,-1.011687 0.762326,-1.063824 0.691115,-1.111405 0.616947,-1.154226 0.540136,-1.192105 0.461012,-1.22488 0.379914,-1.252408 L 30.911399,67.8 h 21.040357 v -5 h -25.4 l -0.03212,0.981047 -0.09621,0.976846 -0.159893,0.968462 -0.222892,0.955931 -0.284936,0.939306 L 25.68856,67.8 25.409949,68.540251 25.004848,69.43433 24.542137,70.3 l -0.518336,0.833553 -0.571745,0.797868 -0.622702,0.758766 -0.670996,0.716415 -0.716414,0.670995 -0.758766,0.622703 -0.797868,0.571744 -0.833554,0.518337 -0.865669,0.46271 -0.894079,0.405102 -0.740252,0.278611 -0.178408,0.06715 -0.939306,0.284935 -0.955931,0.222892 -0.968462,0.159894 -0.976846,0.09621 -0.981047,0.03212 0,200 0.981047,0.0321 0.976846,0.0962 0.968462,0.15989 0.955931,0.22289 0.939306,0.28494 0.178408,0.0672 0.740252,0.27861 0.894079,0.4051 0.865669,0.46271 0.833554,0.51834 0.797868,0.57174 0.758766,0.6227 0.716414,0.671 0.670996,0.71641 0.622702,0.75877 0.571745,0.79787 0.518336,0.83355 0.462711,0.86567 0.405101,0.89408 0.278611,0.74025 0.06715,0.17841 0.284936,0.9393 0.222892,0.95594 0.159893,0.96846 0.09621,0.97684 0.03212,0.98105 h 25.4 v -5 H 30.911399 l -0.04113,-0.17638 -0.379914,-1.25241 -0.461012,-1.22488 -0.540136,-1.1921 -0.616947,-1.15423 -0.691115,-1.1114 -0.762326,-1.06383 -0.83027,-1.01169 -0.894661,-0.95522 -0.955219,-0.89466 -1.011688,-0.83027 -1.063824,-0.76232 -1.111405,-0.69112 -1.154226,-0.61694 -1.192105,-0.54014 -1.224879,-0.46101 -1.252409,-0.37992"
     id="face13-interior" />
  <path
     style="fill:none;stroke:#000000;stroke-width:1;stroke-miterlimit:4;stroke-dasharray:none;stroke-linejoin:round;stroke-linecap:round"
     d="m 81.629494,170.36002 0.26652,-0.34689 0.639954,-1.5332 0.213317,-1.39974 -0.26652,-0.50679 -0.640055,0.29317 -1.333415,1.04004 -1.253255,0.6667 -0.959879,0.72002 -0.506592,1.14664 0.186564,0.82662 0.799968,0.0266 1.146647,-0.37333 1.173299,-0.32003 0.533447,-0.23986"
     id="face14-interior" />
  <path
     style="fill:none;stroke:#000000;stroke-width:1;stroke-miterlimit:4;stroke-dasharray:none;stroke-linejoin:round;stroke-linecap:round"
     d="m 195.89503,169.71023 -0.32505,0.4841 -0.10835,0.4841 0.10058,0.66196 0.30175,0.65133 1.20698,1.27076 1.6878,0.96657 1.84482,0.40069 1.29529,0.0785 1.09904,-6.93441 h -0.5626 l -3.06324,0.24205 -1.19921,0.30257 -0.97761,0.42358 -1.3002,0.9682"
     id="face15-interior" />
  <path
     style="fill:none;stroke:#000000;stroke-width:1;stroke-miterlimit:4;stroke-dasharray:none;stroke-linejoin:round;stroke-linecap:round"
     d="m 224.0964,208.81562 -0.88,-0.0961 -0.4961,-0.33618 -0.208,-0.5924 -0.048,-0.89649 v -18.22021 l 0.088,-0.9805 0.26403,-0.57236 0.49604,-0.27621 0.78399,-0.0921 V 185.8 h -8.35717 v 0.95313 l 0.87994,0.10806 0.46405,0.32419 0.2561,1.45691 v 18.28344 l -0.0801,0.97656 -0.2561,0.5763 -0.47998,0.28821 -0.78393,0.0801 V 209.8 h 8.35717 v -0.98438"
     id="face16-interior" />
  <path
     style="fill:none;stroke:#000000;stroke-width:1;stroke-miterlimit:4;stroke-dasharray:none;stroke-linejoin:round;stroke-linecap:round"
     d="m 151.95176,235.7173 -1.14081,3.47512 -1.46633,2.79142 -1.67176,2.28528 -1.73123,1.95668 -1.64475,1.80563 -1.41235,1.83214 -1.03397,2.03618 -0.50967,2.41778 0.19066,2.7729 0.85395,2.66312 1.30496,2.5917 1.5437,2.55863 1.57016,2.56392 1.38436,2.60757 0.98629,2.68957 0.37593,2.80994 -16.21585,-10.88461 -5.93307,-3.90252 -5.01231,-2.84545 -2.28488,-1.01916 -2.20352,-0.7463 -2.17175,-0.47057 -2.18959,-0.19198 -2.25704,0.0895 -2.3741,0.37379 -5.29779,1.61199 -3.03031,1.67565 -3.092693,2.60524 -2.892605,3.22744 -2.43006,3.54222 -1.705052,3.54962 -0.498629,1.68151 -0.218954,1.56809 0.09353,1.41624 0.438819,1.22597 0.816917,0.99726 1.227823,0.73013 0.443379,0.0703 -0.431307,-0.59794 -0.663646,-1.15191 -0.253639,-1.59158 0.342725,-1.79816 0.669686,-1.82761 0.955035,-1.82269 1.198771,-1.78343 2.962293,-3.31163 3.437878,-2.74229 3.58054,-1.89811 1.73974,-0.54661 1.65057,-0.23249 1.51979,0.11598 1.34738,0.49879 1.13337,0.91597 0.87775,1.36751 0.6852,1.98366 1.12378,2.87779 0.70426,1.23768 0.78737,0.81742 0.86164,0.18254 0.92708,-0.66693 1.66134,-1.54552 1.89499,-0.95183 2.08759,-0.41401 2.23914,0.0679 2.34964,0.49398 2.41909,0.86417 2.44749,1.17846 2.43484,1.43687 4.66753,3.42548 4.12433,3.78857 3.25274,3.70464 2.05275,3.17365 -3.3386,-1.9756 -3.25105,-1.46426 -3.17261,-0.99731 -3.10332,-0.57472 -3.04314,-0.19651 -2.99209,0.13733 -2.95018,0.4268 -2.91738,0.6719 -5.77291,1.9016 -5.75128,2.34953 -5.80267,2.44248 -5.92709,2.18046 -3.544696,0.82461 -3.627701,0.27374 -3.615147,-0.23301 -3.507034,-0.69562 -3.303361,-1.11411 -3.004132,-1.48845 -2.609342,-1.81867 -2.118996,-2.10475 -1.360609,-2.15506 -0.409601,-1.82946 0.325966,-1.48925 0.846091,-1.13446 1.150774,-0.76508 1.240013,-0.3811 1.113812,0.0175 0.77217,0.43063 0.615382,0.57473 0.403884,0.0499 0.201242,-0.35262 0.0075,-0.63271 -0.531005,-1.61615 -0.520746,-0.73866 -0.679102,-0.52921 -2.212458,-0.56206 -2.717935,0.22563 -1.404633,0.44422 -1.358333,0.68437 -1.254479,0.93891 -1.093069,1.20787 -0.707332,1.51712 -0.182584,1.7898 0.27174,1.9616 0.655642,2.03257 0.969122,2.00266 1.21218,1.87191 1.384815,1.64031 1.487028,1.30783 1.895554,1.2385 2.006558,1.03674 4.294091,1.50955 4.581999,0.82652 4.765834,0.22614 4.845599,-0.29156 4.821299,-0.72661 4.69291,-1.079 4.46047,-1.34871 5.26316,-1.63855 6.35129,-1.62701 6.87808,-1.27601 6.84352,-0.58558 3.23338,0.0722 3.01424,0.3721 2.72492,0.71443 2.36544,1.09919 1.93579,1.52638 1.43598,1.996 0.86598,2.50805 0.25206,3.06254 0.25205,-3.06254 0.86598,-2.50805 1.43598,-1.996 1.93579,-1.52638 2.36544,-1.09919 2.72492,-0.71443 3.01424,-0.3721 3.23338,-0.0722 6.84352,0.58558 6.87808,1.27601 6.3513,1.62701 5.26316,1.63855 4.46046,1.34871 4.69292,1.079 4.82129,0.72661 4.8456,0.29156 4.76584,-0.22614 4.58199,-0.82652 4.29409,-1.50955 2.00656,-1.03674 1.89556,-1.2385 1.48702,-1.30783 1.38482,-1.64031 1.21218,-1.87191 0.96912,-2.00266 0.65564,-2.03257 0.27174,-1.9616 -0.18258,-1.7898 -0.70733,-1.51712 -1.09307,-1.20787 -1.25448,-0.93891 -1.35834,-0.68437 -1.40463,-0.44422 -2.71793,-0.22563 -2.21246,0.56206 -0.6791,0.52921 -0.52075,0.73866 -0.531,1.61615 0.007,0.63271 0.20124,0.35262 0.40388,-0.0499 0.61538,-0.57473 0.77217,-0.43063 1.11382,-0.0175 1.24001,0.3811 1.15077,0.76508 0.84609,1.13446 0.32597,1.48925 -0.4096,1.82946 -1.36061,2.15506 -2.11899,2.10475 -2.60935,1.81867 -3.00413,1.48845 -3.30336,1.11411 -3.50703,0.69562 -3.61515,0.23301 -3.6277,-0.27374 -3.5447,-0.82461 -5.92708,-2.18046 -5.80267,-2.44248 -5.75128,-2.34953 -5.77291,-1.9016 -2.91739,-0.6719 -2.95017,-0.4268 -2.9921,-0.13733 -3.04314,0.19651 -3.10331,0.57472 -3.17262,0.99731 -3.25104,1.46426 -3.33861,1.9756 2.05275,-3.17365 3.25274,-3.70464 4.12433,-3.78857 4.66753,-3.42548 2.43484,-1.43687 2.44749,-1.17846 2.41909,-0.86417 2.34964,-0.49398 2.23914,-0.0679 2.08759,0.41401 1.89499,0.95183 1.66134,1.54552 0.92708,0.66693 0.86164,-0.18254 0.78737,-0.81742 0.70426,-1.23768 1.12378,-2.87779 0.6852,-1.98366 0.87775,-1.36751 1.13337,-0.91597 1.34739,-0.49879 1.51978,-0.11598 1.65057,0.23249 1.73974,0.54661 3.58055,1.89811 3.43787,2.74229 2.96229,3.31163 1.19877,1.78343 0.95504,1.82269 0.66969,1.82761 0.34272,1.79816 -0.25364,1.59158 -0.66364,1.15191 -0.43131,0.59794 0.44338,-0.0703 1.22782,-0.73013 0.81692,-0.99726 0.43882,-1.22597 0.0935,-1.41624 -0.21895,-1.56809 -0.49863,-1.68151 -1.70505,-3.54962 -2.43006,-3.54222 -2.8926,-3.22744 -3.09269,-2.60524 -3.03031,-1.67565 -5.29779,-1.61199 -2.3741,-0.37379 -2.25704,-0.0895 -2.1896,0.19198 -2.17175,0.47057 -2.20352,0.7463 -2.28488,1.01916 -5.01231,2.84545 -5.93307,3.90252 -16.21585,10.88461 0.37594,-2.80994 0.98628,-2.68957 1.38436,-2.60757 1.57016,-2.56392 1.5437,-2.55863 1.30496,-2.5917 0.85395,-2.66312 0.19066,-2.7729 -0.50967,-2.41778 -1.03397,-2.03618 -1.41234,-1.83214 -1.64476,-1.80563 -1.73123,-1.95668 -1.67176,-2.28528 -1.46633,-2.79142 -1.1408,-3.47512"
     id="face17-interior" />
  <path
     style="fill:none;stroke:#000000;stroke-width:1;stroke-miterlimit:4;stroke-dasharray:none;stroke-linejoin:round;stroke-linecap:round"
     d="m 182.19467,166.57012 -3.5588,4.7625 -0.157,-4.42232 1.81865,-0.13084 1.89715,-0.20934"
     id="path5757" />
  <path
     style="fill:none;stroke:#000000;stroke-width:1;stroke-miterlimit:4;stroke-dasharray:none;stroke-linejoin:round;stroke-linecap:round"
     d="m 181.39655,163.62627 -3.21861,0.28784 -0.39415,-2.62738 -0.51517,-1.87671 -0.6362,-1.12602 -0.36349,-0.28151 -0.39374,-0.0938 -0.79647,0.15374 -0.7147,0.4612 -0.50537,0.66073 -0.16845,0.75232 0.22243,1.42613 0.34017,1.34764 0.45794,5.67836 0.32709,7.53626 0.20198,0.76132 0.34427,0.54379 0.48655,0.32628 0.62884,0.10876 0.42563,-0.18174 0.66196,-0.54523 2.0329,-2.1809 2.97819,-3.63484 3.92351,-5.08878 1.08922,-0.55606 0.27231,-0.38107 0.0908,-0.44975 -0.0785,-0.35327 2.01164,-3.25459 0.67054,-1.54716 -0.11612,-0.56914 -0.34835,-0.47756 -0.52499,-0.32382 -0.64601,-0.10795 -0.84227,0.17009 -0.69508,0.51027 -2.98964,4.6055 -3.21862,0.32709"
     id="face18-interior" />
  <path
     style="fill:none;stroke:#000000;stroke-width:1;stroke-miterlimit:4;stroke-dasharray:none;stroke-linejoin:round;stroke-linecap:round"
     d="M 178.47887,166.9103"
     id="path5756" />
  <path
     style="fill:none;stroke:#000000;stroke-width:1;stroke-miterlimit:4;stroke-dasharray:none;stroke-linejoin:round;stroke-linecap:round"
     d="M 180.29752,166.77946"
     id="path5755" />
  <path
     style="fill:none;stroke:#000000;stroke-width:1;stroke-miterlimit:4;stroke-dasharray:none;stroke-linejoin:round;stroke-linecap:round"
     d="M 182.19467,166.57012"
     id="path5754" />
  <path
     style="fill:none;stroke:#000000;stroke-width:1;stroke-miterlimit:4;stroke-dasharray:none;stroke-linejoin:round;stroke-linecap:round"
     d="M 178.63587,171.33262"
     id="face19-interior" />
  <path
     style="fill:none;stroke:#000000;stroke-width:1;stroke-miterlimit:4;stroke-dasharray:none;stroke-linejoin:round;stroke-linecap:round"
     d="m 215.37516,168.21868 -0.61494,6.12322 -0.71961,0 -5.62603,-0.0523 -0.7425,0.16355 -0.68363,0.49064 -0.49064,0.69671 -0.16355,0.78176 0.085,0.52171 0.25514,0.41378 0.6411,0.41214 1.33455,0.0523 4.10831,0.0785 3.16628,-0.14392 3.3102,-0.14393 3.70271,0.23551 0.86517,-0.16845 0.68526,-0.50536 0.44648,-0.71798 0.14883,-0.80629 -0.0871,-0.48287 -0.26126,-0.38883 -1.04507,-0.49555 -1.64038,-0.20771 -2.13429,-0.008 -1.39997,0.0523 0.77194,-7.49701 0.45139,-4.66437 0.25514,-1.44576 0.17009,-0.79811 -0.11285,-0.57242 -0.33854,-0.48737 -0.51845,-0.33364 -0.65255,-0.11121 -0.75069,0.20607 -0.78666,0.61821 -0.36185,0.51436 -0.28089,0.71879 -0.31892,2.05088 -0.13084,1.30838 -0.53643,4.59241"
     id="face20-interior" />
  <path
     style="fill:none;stroke:#000000;stroke-width:1;stroke-miterlimit:4;stroke-dasharray:none;stroke-linejoin:round;stroke-linecap:round"
     d="m 181.57297,203.65767 h 0.95386 l 0.032,-1.03992 0.27209,-1.07202 0.73621,-0.83203 0.60406,-0.23996 0.82001,-0.08 h 3.48877 v 5.21948 l -0.064,0.97656 -0.25586,0.5763 -0.49561,0.28821 -0.78345,0.0801 h -2.07836 l -1.96644,-0.0961 -1.55078,-0.46398 -0.61154,-0.44794 -0.49161,-0.60797 -0.65551,-1.84009 H 178.5737 V 209.8 h 16.63135 v -0.64063 l -0.78406,-0.0799 -0.49597,-0.28797 -0.25598,-0.57605 -0.0641,-0.97595 v -18.8789 l 0.084,-0.98004 0.25204,-0.57196 0.48404,-0.27594 0.78,-0.092 V 185.8 h -16.02197 l -0.032,5.72461 h 0.98511 l 0.0999,-1.04007 0.29974,-0.81601 0.46356,-0.62399 0.59137,-0.46402 1.50244,-0.51196 1.77417,-0.12793 h 2.2378 l 0.75137,0.17212 0.39963,0.38842 0.22375,1.36157 v 8.29663 h -3.48535 l -0.81552,-0.088 -0.59158,-0.26404 -0.71949,-0.88 -0.27185,-1.13599 -0.032,-1.08801 h -0.95923 l -0.032,8.95435"
     id="face21-interior" />
  <path
     style="fill:none;stroke:#000000;stroke-width:1;stroke-miterlimit:4;stroke-dasharray:none;stroke-linejoin:round;stroke-linecap:round"
     d="M 50.880392,165.74657"
     id="path5753" />
  <path
     style="fill:none;stroke:#000000;stroke-width:1;stroke-miterlimit:4;stroke-dasharray:none;stroke-linejoin:round;stroke-linecap:round"
     d="M 53.680278,161.74653"
     id="path5752" />
  <path
     style="fill:none;stroke:#000000;stroke-width:1;stroke-miterlimit:4;stroke-dasharray:none;stroke-linejoin:round;stroke-linecap:round"
     d="M 51.840272,165.95999"
     id="path5751" />
  <path
     style="fill:none;stroke:#000000;stroke-width:1;stroke-miterlimit:4;stroke-dasharray:none;stroke-linejoin:round;stroke-linecap:round"
     d="M 49.253602,169.64001"
     id="face22-interior" />
  <path
     style="fill:none;stroke:#000000;stroke-width:1;stroke-miterlimit:4;stroke-dasharray:none;stroke-linejoin:round;stroke-linecap:round"
     d="M 162.38307,147.93346"
     id="path5750" />
  <path
     style="fill:none;stroke:#000000;stroke-width:1;stroke-miterlimit:4;stroke-dasharray:none;stroke-linejoin:round;stroke-linecap:round"
     d="M 168.35658,144.01338"
     id="path5749" />
  <path
     style="fill:none;stroke:#000000;stroke-width:1;stroke-miterlimit:4;stroke-dasharray:none;stroke-linejoin:round;stroke-linecap:round"
     d="M 171.51662,142.2867"
     id="path5748" />
  <path
     style="fill:none;stroke:#000000;stroke-width:1;stroke-miterlimit:4;stroke-dasharray:none;stroke-linejoin:round;stroke-linecap:round"
     d="M 174.80982,140.89326"
     id="path5747" />
  <path
     style="fill:none;stroke:#000000;stroke-width:1;stroke-miterlimit:4;stroke-dasharray:none;stroke-linejoin:round;stroke-linecap:round"
     d="M 176.64312,140.34997"
     id="path5746" />
  <path
     style="fill:none;stroke:#000000;stroke-width:1;stroke-miterlimit:4;stroke-dasharray:none;stroke-linejoin:round;stroke-linecap:round"
     d="M 177.5031,140.42665"
     id="path5745" />
  <path
     style="fill:none;stroke:#000000;stroke-width:1;stroke-miterlimit:4;stroke-dasharray:none;stroke-linejoin:round;stroke-linecap:round"
     d="M 177.38978,141.12329"
     id="path5744" />
  <path
     style="fill:none;stroke:#000000;stroke-width:1;stroke-miterlimit:4;stroke-dasharray:none;stroke-linejoin:round;stroke-linecap:round"
     d="M 176.30315,142.43989"
     id="path5743" />
  <path
     style="fill:none;stroke:#000000;stroke-width:1;stroke-miterlimit:4;stroke-dasharray:none;stroke-linejoin:round;stroke-linecap:round"
     d="M 174.51655,144.03983"
     id="path5742" />
  <path
     style="fill:none;stroke:#000000;stroke-width:1;stroke-miterlimit:4;stroke-dasharray:none;stroke-linejoin:round;stroke-linecap:round"
     d="M 172.35662,145.53316"
     id="path5741" />
  <path
     style="fill:none;stroke:#000000;stroke-width:1;stroke-miterlimit:4;stroke-dasharray:none;stroke-linejoin:round;stroke-linecap:round"
     d="M 167.77003,148.04007"
     id="path5740" />
  <path
     style="fill:none;stroke:#000000;stroke-width:1;stroke-miterlimit:4;stroke-dasharray:none;stroke-linejoin:round;stroke-linecap:round"
     d="M 162.46323,150.4533"
     id="path5739" />
  <path
     style="fill:none;stroke:#000000;stroke-width:1;stroke-miterlimit:4;stroke-dasharray:none;stroke-linejoin:round;stroke-linecap:round"
     d="M 156.56967,152.78657"
     id="path5738" />
  <path
     style="fill:none;stroke:#000000;stroke-width:1;stroke-miterlimit:4;stroke-dasharray:none;stroke-linejoin:round;stroke-linecap:round"
     d="M 159.34311,150.1999"
     id="face23-interior" />
  <path
     style="fill:none;stroke:#000000;stroke-width:1;stroke-miterlimit:4;stroke-dasharray:none;stroke-linejoin:round;stroke-linecap:round"
     d="M 66.533874,161.10648"
     id="path5737" />
  <path
     style="fill:none;stroke:#000000;stroke-width:1;stroke-miterlimit:4;stroke-dasharray:none;stroke-linejoin:round;stroke-linecap:round"
     d="M 70.133727,156.03995"
     id="path5736" />
  <path
     style="fill:none;stroke:#000000;stroke-width:1;stroke-miterlimit:4;stroke-dasharray:none;stroke-linejoin:round;stroke-linecap:round"
     d="M 74.107115,151.29325"
     id="path5735" />
  <path
     style="fill:none;stroke:#000000;stroke-width:1;stroke-miterlimit:4;stroke-dasharray:none;stroke-linejoin:round;stroke-linecap:round"
     d="M 76.480365,148.81339"
     id="path5734" />
  <path
     style="fill:none;stroke:#000000;stroke-width:1;stroke-miterlimit:4;stroke-dasharray:none;stroke-linejoin:round;stroke-linecap:round"
     d="M 77.100431,148.39342"
     id="path5733" />
  <path
     style="fill:none;stroke:#000000;stroke-width:1;stroke-miterlimit:4;stroke-dasharray:none;stroke-linejoin:round;stroke-linecap:round"
     d="M 77.520607,148.57352"
     id="path5732" />
  <path
     style="fill:none;stroke:#000000;stroke-width:1;stroke-miterlimit:4;stroke-dasharray:none;stroke-linejoin:round;stroke-linecap:round"
     d="M 77.307188,150.17325"
     id="path5731" />
  <path
     style="fill:none;stroke:#000000;stroke-width:1;stroke-miterlimit:4;stroke-dasharray:none;stroke-linejoin:round;stroke-linecap:round"
     d="M 76.160541,152.46655"
     id="path5730" />
  <path
     style="fill:none;stroke:#000000;stroke-width:1;stroke-miterlimit:4;stroke-dasharray:none;stroke-linejoin:round;stroke-linecap:round"
     d="M 74.61391,154.84"
     id="path5729" />
  <path
     style="fill:none;stroke:#000000;stroke-width:1;stroke-miterlimit:4;stroke-dasharray:none;stroke-linejoin:round;stroke-linecap:round"
     d="M 73.147236,156.73351"
     id="path5728" />
  <path
     style="fill:none;stroke:#000000;stroke-width:1;stroke-miterlimit:4;stroke-dasharray:none;stroke-linejoin:round;stroke-linecap:round"
     d="M 51.380844,206.9637"
     id="path5671" />
  <path
     style="fill:none;stroke:#000000;stroke-width:1;stroke-miterlimit:4;stroke-dasharray:none;stroke-linejoin:round;stroke-linecap:round"
     d="M 51.62059,205.57148"
     id="path5670" />
  <path
     style="fill:none;stroke:#000000;stroke-width:1;stroke-miterlimit:4;stroke-dasharray:none;stroke-linejoin:round;stroke-linecap:round"
     d="m 58.345687,209.64375 v -0.95313 l -0.864014,-0.11206 -0.480102,-0.3363 -0.208008,-0.59253 -0.04797,-0.88074 v -18.09423 l 0.08402,-0.98087 0.252045,-0.57248 0.484039,-0.27621 0.779999,-0.0921 V 185.8 h -8.325195 v 0.95313 l 0.880097,0.10809 0.464019,0.32428 0.255982,1.45752 v 6.43823 H 50.597152 L 43.463852,185.8 h -7.32788 v 0.95313 l 0.927948,0.15606 0.735992,0.34027 1.408081,1.29712 5.567871,7.01343 -1.604248,0.56021 -1.292236,0.72019 -1.020172,0.83618 -0.788056,0.9082 -0.572021,0.95224 -0.37207,0.96829 -0.272095,1.77637 0.108002,1.38843 0.324005,1.34839 0.608062,1.25234 0.960175,1.10032 1.344238,0.92425 1.760254,0.72418 2.244323,0.46811 2.796448,0.15604 9.345214,0"
     id="face27-interior" />
  <path
     style="fill:none;stroke:#000000;stroke-width:1;stroke-miterlimit:4;stroke-dasharray:none;stroke-linejoin:round;stroke-linecap:round"
     d="M 115.49339,204.87519"
     id="path5669" />
  <path
     style="fill:none;stroke:#000000;stroke-width:1;stroke-miterlimit:4;stroke-dasharray:none;stroke-linejoin:round;stroke-linecap:round"
     d="M 113.38157,197.00313"
     id="path5668" />
  <path
     style="fill:none;stroke:#000000;stroke-width:1;stroke-miterlimit:4;stroke-dasharray:none;stroke-linejoin:round;stroke-linecap:round"
     d="M 118.08543,197.00313"
     id="face28-interior" />
  <path
     style="fill:none;stroke:#000000;stroke-width:1;stroke-miterlimit:4;stroke-dasharray:none;stroke-linejoin:round;stroke-linecap:round"
     d="m 255.52931,171.84289 -0.37943,2.27658 -0.40559,2.57751 0.11939,0.57405 0.35817,0.46611 0.52171,0.3091 0.61003,0.10304 0.7883,-0.24859 0.69017,-0.74578 0.52662,-1.05324 0.29766,-1.171 0.27476,-1.53081 0.57569,-3.00927 0.52989,-3.27749 0.17663,-2.40087 -0.10896,-1.72032 -0.32689,-1.49094 -0.54482,-1.26156 -0.76274,-1.03219 -0.98067,-0.80281 -1.1986,-0.57344 -1.41653,-0.34406 -1.63445,-0.11469 -1.80638,0.19912 -1.69026,0.59735 -1.57415,0.9956 -1.45802,1.39383 -1.30961,1.76141 -1.12888,2.09831 -0.94817,2.43522 -0.76744,2.77213 -1.01563,4.63657 -0.33855,2.14737 0.0891,0.59532 0.2674,0.42522 0.44566,0.25513 0.62394,0.085 0.86843,-0.17009 0.74741,-0.51027 0.5577,-0.74577 0.29929,-0.87662 0.69917,-3.86094 0.77603,-3.19613 0.8529,-2.5313 0.92977,-1.86649 0.996,-1.34231 1.05161,-0.9588 1.10722,-0.57528 1.16282,-0.19176 1.67718,0.27395 0.65889,0.34242 0.53909,0.4794 0.4193,0.61637 0.29949,0.75334 0.2396,1.91759 -0.26168,2.73452 -0.157,0.78502 -0.19626,1.09904 -0.36635,1.89715"
     id="face29-interior" />
  <path
     style="fill:none;stroke:#000000;stroke-width:1;stroke-miterlimit:4;stroke-dasharray:none;stroke-linejoin:round;stroke-linecap:round"
     d="m 63.260481,203.65767 h 0.953857 l 0.03198,-1.03992 0.272095,-1.07202 0.736206,-0.83203 0.604064,-0.23996 0.820008,-0.08 h 3.488769 v 5.21948 l -0.06396,0.97656 -0.255859,0.5763 -0.495606,0.28821 -0.783447,0.0801 h -2.078369 l -1.96643,-0.0961 -1.550781,-0.46398 -0.611542,-0.44794 -0.491608,-0.60797 -0.655517,-1.84009 H 60.261214 V 209.8 H 76.89256 v -0.64063 l -0.784058,-0.0799 -0.495971,-0.28797 -0.255982,-0.57605 -0.06409,-0.97595 v -18.8789 l 0.08401,-0.98004 0.252045,-0.57196 0.484039,-0.27594 0.779999,-0.092 V 185.8 H 60.870589 l -0.03198,5.72461 h 0.985108 l 0.09991,-1.04007 0.299744,-0.81601 0.463562,-0.62399 0.591369,-0.46402 1.502442,-0.51196 1.774169,-0.12793 2.237793,0 0.751373,0.17212 0.399628,0.38842 0.223755,1.36157 v 8.29663 h -3.485351 l -0.815522,-0.088 -0.591583,-0.26404 -0.719482,-0.88 -0.271851,-1.13599 -0.03198,-1.08801 h -0.959228 l -0.03198,8.95435"
     id="face30-interior" />
  <path
     style="fill:none;stroke:#000000;stroke-width:1;stroke-miterlimit:4;stroke-dasharray:none;stroke-linejoin:round;stroke-linecap:round"
     d="M 133.45179,157.87996"
     id="path5667" />
  <path
     style="fill:none;stroke:#000000;stroke-width:1;stroke-miterlimit:4;stroke-dasharray:none;stroke-linejoin:round;stroke-linecap:round"
     d="M 131.56515,159.00661"
     id="path5666" />
  <path
     style="fill:none;stroke:#000000;stroke-width:1;stroke-miterlimit:4;stroke-dasharray:none;stroke-linejoin:round;stroke-linecap:round"
     d="M 129.3716,159.45324"
     id="path5665" />
  <path
     style="fill:none;stroke:#000000;stroke-width:1;stroke-miterlimit:4;stroke-dasharray:none;stroke-linejoin:round;stroke-linecap:round"
     d="M 129.53832,157.9799"
     id="path5664" />
  <path
     style="fill:none;stroke:#000000;stroke-width:1;stroke-miterlimit:4;stroke-dasharray:none;stroke-linejoin:round;stroke-linecap:round"
     d="M 130.14511,156.54654"
     id="path5663" />
  <path
     style="fill:none;stroke:#000000;stroke-width:1;stroke-miterlimit:4;stroke-dasharray:none;stroke-linejoin:round;stroke-linecap:round"
     d="M 132.19854,153.95987"
     id="path5662" />
  <path
     style="fill:none;stroke:#000000;stroke-width:1;stroke-miterlimit:4;stroke-dasharray:none;stroke-linejoin:round;stroke-linecap:round"
     d="M 134.78501,151.88"
     id="path5661" />
  <path
     style="fill:none;stroke:#000000;stroke-width:1;stroke-miterlimit:4;stroke-dasharray:none;stroke-linejoin:round;stroke-linecap:round"
     d="M 137.21176,150.54658"
     id="path5660" />
  <path
     style="fill:none;stroke:#000000;stroke-width:1;stroke-miterlimit:4;stroke-dasharray:none;stroke-linejoin:round;stroke-linecap:round"
     d="M 137.53159,150.38667"
     id="path5659" />
  <path
     style="fill:none;stroke:#000000;stroke-width:1;stroke-miterlimit:4;stroke-dasharray:none;stroke-linejoin:round;stroke-linecap:round"
     d="M 136.97169,152.43989"
     id="path5658" />
  <path
     style="fill:none;stroke:#000000;stroke-width:1;stroke-miterlimit:4;stroke-dasharray:none;stroke-linejoin:round;stroke-linecap:round"
     d="M 136.4651,154.49352"
     id="path5657" />
  <path
     style="fill:none;stroke:#000000;stroke-width:1;stroke-miterlimit:4;stroke-dasharray:none;stroke-linejoin:round;stroke-linecap:round"
     d="M 135.07172,156.30001"
     id="face31-interior" />
  <path
     style="fill:none;stroke:#000000;stroke-width:1;stroke-miterlimit:4;stroke-dasharray:none;stroke-linejoin:round;stroke-linecap:round"
     d="M 202.43529,167.77383"
     id="path5656" />
  <path
     style="fill:none;stroke:#000000;stroke-width:1;stroke-miterlimit:4;stroke-dasharray:none;stroke-linejoin:round;stroke-linecap:round"
     d="M 199.37205,168.01588"
     id="path5655" />
  <path
     style="fill:none;stroke:#000000;stroke-width:1;stroke-miterlimit:4;stroke-dasharray:none;stroke-linejoin:round;stroke-linecap:round"
     d="M 198.17284,168.31845"
     id="path5654" />
  <path
     style="fill:none;stroke:#000000;stroke-width:1;stroke-miterlimit:4;stroke-dasharray:none;stroke-linejoin:round;stroke-linecap:round"
     d="M 197.19523,168.74203"
     id="path5653" />
  <path
     style="fill:none;stroke:#000000;stroke-width:1;stroke-miterlimit:4;stroke-dasharray:none;stroke-linejoin:round;stroke-linecap:round"
     d="M 195.89503,169.71023"
     id="path5652" />
  <path
     style="fill:none;stroke:#000000;stroke-width:1;stroke-miterlimit:4;stroke-dasharray:none;stroke-linejoin:round;stroke-linecap:round"
     d="M 195.56998,170.19433"
     id="path5651" />
  <path
     style="fill:none;stroke:#000000;stroke-width:1;stroke-miterlimit:4;stroke-dasharray:none;stroke-linejoin:round;stroke-linecap:round"
     d="M 195.46163,170.67843"
     id="path5650" />
  <path
     style="fill:none;stroke:#000000;stroke-width:1;stroke-miterlimit:4;stroke-dasharray:none;stroke-linejoin:round;stroke-linecap:round"
     d="M 195.56221,171.34039"
     id="path5649" />
  <path
     style="fill:none;stroke:#000000;stroke-width:1;stroke-miterlimit:4;stroke-dasharray:none;stroke-linejoin:round;stroke-linecap:round"
     d="M 195.86396,171.99172"
     id="path5648" />
  <path
     style="fill:none;stroke:#000000;stroke-width:1;stroke-miterlimit:4;stroke-dasharray:none;stroke-linejoin:round;stroke-linecap:round"
     d="M 197.07094,173.26248"
     id="path5647" />
  <path
     style="fill:none;stroke:#000000;stroke-width:1;stroke-miterlimit:4;stroke-dasharray:none;stroke-linejoin:round;stroke-linecap:round"
     d="M 198.75874,174.22905"
     id="path5646" />
  <path
     style="fill:none;stroke:#000000;stroke-width:1;stroke-miterlimit:4;stroke-dasharray:none;stroke-linejoin:round;stroke-linecap:round"
     d="M 200.60356,174.62974"
     id="path5645" />
  <path
     style="fill:none;stroke:#000000;stroke-width:1;stroke-miterlimit:4;stroke-dasharray:none;stroke-linejoin:round;stroke-linecap:round"
     d="M 201.89885,174.70824"
     id="path5644" />
  <path
     style="fill:none;stroke:#000000;stroke-width:1;stroke-miterlimit:4;stroke-dasharray:none;stroke-linejoin:round;stroke-linecap:round"
     d="M 202.99789,167.77383"
     id="path5643" />
  <path
     style="fill:none;stroke:#000000;stroke-width:1;stroke-miterlimit:4;stroke-dasharray:none;stroke-linejoin:round;stroke-linecap:round"
     d="m 204.18852,159.83197 -0.47102,4.02981 -2.17681,-0.85127 -2.04271,-1.14074 -1.9086,-1.43022 -1.77449,-1.7197 -0.56914,-0.42195 -0.66073,-0.14065 -0.79157,0.16191 -0.69999,0.48573 -0.49064,0.68527 -0.16355,0.76049 0.10427,0.48942 0.31278,0.56546 1.25114,1.35908 1.64365,1.35581 1.59459,1.04507 -2.44994,1.14401 -0.96248,0.67443 -0.78748,0.74271 -0.61249,0.81099 -0.43749,0.87927 -0.26249,0.94755 -0.0875,1.01584 0.19135,1.4245 0.57405,1.31655 0.90769,1.18572 1.19226,1.03199 2.24387,1.33454 2.71489,0.64111 2.91769,0.19625 1.04833,-0.17499 0.81611,-0.52499 0.56096,-0.75722 0.28294,-0.87171 2.19808,-13.50247 0.53643,-3.25787 -0.10957,-0.55933 -0.32873,-0.47429 -0.50537,-0.32382 -0.63947,-0.10794 -0.75395,0.13247 -0.66564,0.39742 -0.49555,0.62639 -0.24368,0.81937"
     id="face32-interior" />
  <path
     style="fill:none;stroke:#000000;stroke-width:1;stroke-miterlimit:4;stroke-dasharray:none;stroke-linejoin:round;stroke-linecap:round"
     d="M 238.18075,206.76838"
     id="path5642" />
  <path
     style="fill:none;stroke:#000000;stroke-width:1;stroke-miterlimit:4;stroke-dasharray:none;stroke-linejoin:round;stroke-linecap:round"
     d="M 237.25213,207.28428"
     id="path5641" />
  <path
     style="fill:none;stroke:#000000;stroke-width:1;stroke-miterlimit:4;stroke-dasharray:none;stroke-linejoin:round;stroke-linecap:round"
     d="M 236.19552,207.45625"
     id="path5640" />
  <path
     style="fill:none;stroke:#000000;stroke-width:1;stroke-miterlimit:4;stroke-dasharray:none;stroke-linejoin:round;stroke-linecap:round"
     d="M 235.12274,207.28428"
     id="path5639" />
  <path
     style="fill:none;stroke:#000000;stroke-width:1;stroke-miterlimit:4;stroke-dasharray:none;stroke-linejoin:round;stroke-linecap:round"
     d="M 234.14608,206.76838"
     id="path5638" />
  <path
     style="fill:none;stroke:#000000;stroke-width:1;stroke-miterlimit:4;stroke-dasharray:none;stroke-linejoin:round;stroke-linecap:round"
     d="M 233.28155,205.93657"
     id="path5637" />
  <path
     style="fill:none;stroke:#000000;stroke-width:1;stroke-miterlimit:4;stroke-dasharray:none;stroke-linejoin:round;stroke-linecap:round"
     d="M 232.54513,204.81685"
     id="path5636" />
  <path
     style="fill:none;stroke:#000000;stroke-width:1;stroke-miterlimit:4;stroke-dasharray:none;stroke-linejoin:round;stroke-linecap:round"
     d="M 231.94879,203.42518"
     id="path5635" />
  <path
     style="fill:none;stroke:#000000;stroke-width:1;stroke-miterlimit:4;stroke-dasharray:none;stroke-linejoin:round;stroke-linecap:round"
     d="M 231.50448,201.77754"
     id="path5634" />
  <path
     style="fill:none;stroke:#000000;stroke-width:1;stroke-miterlimit:4;stroke-dasharray:none;stroke-linejoin:round;stroke-linecap:round"
     d="M 231.22827,199.89393"
     id="path5633" />
  <path
     style="fill:none;stroke:#000000;stroke-width:1;stroke-miterlimit:4;stroke-dasharray:none;stroke-linejoin:round;stroke-linecap:round"
     d="M 231.1362,197.79438"
     id="path5632" />
  <path
     style="fill:none;stroke:#000000;stroke-width:1;stroke-miterlimit:4;stroke-dasharray:none;stroke-linejoin:round;stroke-linecap:round"
     d="M 231.22827,195.68684"
     id="path5631" />
  <path
     style="fill:none;stroke:#000000;stroke-width:1;stroke-miterlimit:4;stroke-dasharray:none;stroke-linejoin:round;stroke-linecap:round"
     d="M 231.50448,193.77925"
     id="path5630" />
  <path
     style="fill:none;stroke:#000000;stroke-width:1;stroke-miterlimit:4;stroke-dasharray:none;stroke-linejoin:round;stroke-linecap:round"
     d="M 231.94879,192.09962"
     id="path5629" />
  <path
     style="fill:none;stroke:#000000;stroke-width:1;stroke-miterlimit:4;stroke-dasharray:none;stroke-linejoin:round;stroke-linecap:round"
     d="M 232.54513,190.67598"
     id="path5628" />
  <path
     style="fill:none;stroke:#000000;stroke-width:1;stroke-miterlimit:4;stroke-dasharray:none;stroke-linejoin:round;stroke-linecap:round"
     d="M 233.28155,189.52427"
     id="path5627" />
  <path
     style="fill:none;stroke:#000000;stroke-width:1;stroke-miterlimit:4;stroke-dasharray:none;stroke-linejoin:round;stroke-linecap:round"
     d="M 234.14608,188.66047"
     id="path5626" />
  <path
     style="fill:none;stroke:#000000;stroke-width:1;stroke-miterlimit:4;stroke-dasharray:none;stroke-linejoin:round;stroke-linecap:round"
     d="M 235.12274,188.12059"
     id="path5625" />
  <path
     style="fill:none;stroke:#000000;stroke-width:1;stroke-miterlimit:4;stroke-dasharray:none;stroke-linejoin:round;stroke-linecap:round"
     d="M 236.19552,187.94063"
     id="path5624" />
  <path
     style="fill:none;stroke:#000000;stroke-width:1;stroke-miterlimit:4;stroke-dasharray:none;stroke-linejoin:round;stroke-linecap:round"
     d="M 237.25213,188.12059"
     id="path5623" />
  <path
     style="fill:none;stroke:#000000;stroke-width:1;stroke-miterlimit:4;stroke-dasharray:none;stroke-linejoin:round;stroke-linecap:round"
     d="M 238.18075,188.66047"
     id="path5622" />
  <path
     style="fill:none;stroke:#000000;stroke-width:1;stroke-miterlimit:4;stroke-dasharray:none;stroke-linejoin:round;stroke-linecap:round"
     d="M 238.98132,189.52427"
     id="path5621" />
  <path
     style="fill:none;stroke:#000000;stroke-width:1;stroke-miterlimit:4;stroke-dasharray:none;stroke-linejoin:round;stroke-linecap:round"
     d="M 239.65377,190.67598"
     id="path5620" />
  <path
     style="fill:none;stroke:#000000;stroke-width:1;stroke-miterlimit:4;stroke-dasharray:none;stroke-linejoin:round;stroke-linecap:round"
     d="M 240.18612,192.09962"
     id="path5619" />
  <path
     style="fill:none;stroke:#000000;stroke-width:1;stroke-miterlimit:4;stroke-dasharray:none;stroke-linejoin:round;stroke-linecap:round"
     d="M 240.56637,193.77925"
     id="path5618" />
  <path
     style="fill:none;stroke:#000000;stroke-width:1;stroke-miterlimit:4;stroke-dasharray:none;stroke-linejoin:round;stroke-linecap:round"
     d="M 240.87057,197.79438"
     id="path5617" />
  <path
     style="fill:none;stroke:#000000;stroke-width:1;stroke-miterlimit:4;stroke-dasharray:none;stroke-linejoin:round;stroke-linecap:round"
     d="M 240.56637,201.77754"
     id="path5616" />
  <path
     style="fill:none;stroke:#000000;stroke-width:1;stroke-miterlimit:4;stroke-dasharray:none;stroke-linejoin:round;stroke-linecap:round"
     d="M 240.18612,203.42518"
     id="path5615" />
  <path
     style="fill:none;stroke:#000000;stroke-width:1;stroke-miterlimit:4;stroke-dasharray:none;stroke-linejoin:round;stroke-linecap:round"
     d="M 239.65377,204.81685"
     id="path5614" />
  <path
     style="fill:none;stroke:#000000;stroke-width:1;stroke-miterlimit:4;stroke-dasharray:none;stroke-linejoin:round;stroke-linecap:round"
     d="M 238.98132,205.93657"
     id="face33-interior" />
  <path
     style="fill:none;stroke:#000000;stroke-width:1;stroke-miterlimit:4;stroke-dasharray:none;stroke-linejoin:round;stroke-linecap:round"
     d="m 241.09789,164.04495 0.91587,-4.10831 0.0523,-0.68036 -0.17417,-0.93876 -0.52254,-0.67054 -0.87089,-0.40233 -1.21924,-0.13411 -2.5726,0.1521 -3.11231,0.4563 -2.81956,0.61167 -1.69435,0.61821 -0.84881,0.76376 -0.28294,1.04834 0.0916,0.51354 0.27476,0.49391 0.47429,0.36308 0.69017,0.12102 0.58877,-0.0785 4.59895,-1.12848 3.5915,-0.40232 -1.4523,6.58114 -1.03362,5.5737 -0.66727,4.18681 0.10794,0.60513 0.32382,0.48083 0.49719,0.31401 0.62802,0.10467 0.74904,-0.13738 0.65092,-0.41214 0.47756,-0.5855 0.22897,-0.65746 1.15137,-6.79376 1.17754,-5.85827"
     id="face34-interior" />
  <path
     style="fill:none;stroke:#000000;stroke-width:1;stroke-miterlimit:4;stroke-dasharray:none;stroke-linejoin:round;stroke-linecap:round"
     d="M 254.74429,176.69698"
     id="path5613" />
  <path
     style="fill:none;stroke:#000000;stroke-width:1;stroke-miterlimit:4;stroke-dasharray:none;stroke-linejoin:round;stroke-linecap:round"
     d="M 254.86368,177.27103"
     id="path5612" />
</svg>
