<?xml version="1.0" encoding="UTF-8" standalone="no"?>
<svg
   width="304.8mm"
   height="609.599999999999mm"
   viewBox="0 0 304.8 609.599999999999"
   version="1.1"
   id="svg18"
   sodipodi:docname="svg_1_extra_2x1.svg"
   inkscape:version="1.3.2 (091e20e, 2023-11-25, custom)"
   xmlns:inkscape="http://www.inkscape.org/namespaces/inkscape"
   xmlns:sodipodi="http://sodipodi.sourceforge.net/DTD/sodipodi-0.dtd"
   xmlns="http://www.w3.org/2000/svg"
   xmlns:svg="http://www.w3.org/2000/svg">
  <defs
     id="defs18" />
  <sodipodi:namedview
     id="namedview18"
     pagecolor="#ffffff"
     bordercolor="#666666"
     borderopacity="1.0"
     inkscape:showpageshadow="2"
     inkscape:pageopacity="0.0"
     inkscape:pagecheckerboard="0"
     inkscape:deskcolor="#d1d1d1"
     inkscape:document-units="in"
     inkscape:zoom="0.71267364"
     inkscape:cx="504.43847"
     inkscape:cy="491.80997"
     inkscape:window-width="1920"
     inkscape:window-height="1017"
     inkscape:window-x="-8"
     inkscape:window-y="-8"
     inkscape:window-maximized="1"
     inkscape:current-layer="svg18" />
  <desc
     id="desc1">Output from Flights of Ideas SVG Sketchup Plugin</desc>
  <path
     style="fill:none;stroke:#fa0000;stroke-width:1;stroke-linecap:round;stroke-linejoin:round;stroke-miterlimit:4;stroke-dasharray:none;stroke-opacity:1"
     d="M 245.43511,9.4002299 V 14.400229 H 24.394758 l -0.0411,0.17638 -0.37991,1.25241 -0.46101,1.22488 -0.54014,1.19211 -0.61695,1.15422 -0.69111,1.11141 -0.76233,1.06382 -0.83027,1.01169 -0.89466,0.95522 -0.95522,0.89466 -1.01168,0.83027 -1.06383,0.76232 -1.1114,0.69112 -1.15423,0.61695 -1.1921,0.54013 -1.22488,0.46102 -1.252411,0.37991 -0.17638,0.0411 v 61.04039 H 5.0351478 v -65.4 l 0.98105,-0.0321 0.97684,-0.0962 0.96846,-0.1599 0.9559296,-0.22289 0.93931,-0.28493 0.1784096,-0.0671 0.740251,-0.27861 0.89408,-0.40511 0.86567,-0.46271 0.83355,-0.51833 0.79787,-0.57175 0.75876,-0.6227 0.71642,-0.671 0.67099,-0.71641 0.62271,-0.75877 0.57174,-0.79786 0.51834,-0.83356 0.46271,-0.86567 0.4051,-0.89408 0.27861,-0.74025 0.0671,-0.17841 0.28493,-0.9393 0.2229,-0.955929 0.15989,-0.96847 0.0962,-0.97684 0.0321,-0.9810501 H 245.43506"
     id="path2170-0-6-1"
     inkscape:label="ExtraEdge" />
  <path
     style="fill:none;stroke:#fa0000;stroke-width:1;stroke-linecap:round;stroke-linejoin:round;stroke-miterlimit:4;stroke-dasharray:none;stroke-opacity:1"
     d="m 253.26513,16.585763 v 5 H 32.224768 l -0.0411,0.17638 -0.37991,1.25241 -0.46101,1.22488 -0.54014,1.19211 -0.61695,1.15422 -0.69111,1.11141 -0.76233,1.06382 -0.83027,1.01169 -0.89466,0.95522 -0.95522,0.89466 -1.01168,0.83027 -1.06383,0.76232 -1.1114,0.69112 -1.15423,0.61695 -1.1921,0.54013 -1.22488,0.46102 -1.25241,0.37991 -0.17638,0.0411 v 61.040389 h -5 V 31.585773 l 0.98105,-0.0321 0.97684,-0.0962 0.96846,-0.1599 0.95593,-0.22289 0.93931,-0.28493 0.17841,-0.0671 0.74025,-0.27861 0.89408,-0.40511 0.86567,-0.46271 0.83355,-0.51833 0.79787,-0.57175 0.75876,-0.6227 0.71642,-0.671 0.67099,-0.71641 0.62271,-0.75877 0.57174,-0.79786 0.51834,-0.83356 0.46271,-0.86567 0.4051,-0.89408 0.27861,-0.74025 0.0671,-0.17841 0.28493,-0.9393 0.2229,-0.95593 0.15989,-0.96847 0.0962,-0.97684 0.0321,-0.98105 H 253.26508"
     id="path2170-0-6-1-5"
     inkscape:label="ExtraEdge" />
  <path
     style="fill:none;stroke:#fa0000;stroke-width:1;stroke-linecap:round;stroke-linejoin:round;stroke-miterlimit:4;stroke-dasharray:none;stroke-opacity:1"
     d="m 260.67024,23.487488 v 5 H 39.62988 l -0.0411,0.17638 -0.37991,1.25241 -0.46101,1.22488 -0.54014,1.19211 -0.61695,1.15422 -0.69111,1.11141 -0.76233,1.06382 -0.83027,1.01169 -0.89466,0.95522 -0.95522,0.89466 -1.01168,0.83027 -1.06383,0.76232 -1.1114,0.69112 -1.15423,0.61695 -1.1921,0.54013 -1.22488,0.46102 -1.25241,0.37991 -0.17638,0.0411 V 103.8875 h -5 V 38.487498 l 0.98105,-0.0321 0.97684,-0.0962 0.96846,-0.1599 0.95593,-0.22289 0.93931,-0.28493 0.17841,-0.0671 0.74025,-0.27861 0.89408,-0.40511 0.86567,-0.46271 0.83355,-0.51833 0.79787,-0.57175 0.75876,-0.6227 0.71642,-0.671 0.67099,-0.71641 0.62271,-0.75877 0.57174,-0.79786 0.51834,-0.83356 0.46271,-0.86567 0.4051,-0.89408 0.27861,-0.74025 0.0671,-0.17841 0.28493,-0.9393 0.2229,-0.95593 0.15989,-0.96847 0.0962,-0.97684 0.0321,-0.98105 h 225.4"
     id="path2170-0-6-1-5-6"
     inkscape:label="ExtraEdge" />
  <path
     style="fill:none;stroke:#fa0000;stroke-width:1;stroke-linecap:round;stroke-linejoin:round;stroke-miterlimit:4;stroke-dasharray:none;stroke-opacity:1"
     d="m 268.23197,30.753055 v 5 H 47.191611 l -0.0411,0.17638 -0.37991,1.25241 -0.46101,1.22488 -0.54014,1.19211 -0.61695,1.15422 -0.69111,1.11141 -0.76233,1.06382 -0.83027,1.01169 -0.89466,0.95522 -0.95522,0.89466 -1.01168,0.83027 -1.06383,0.76232 -1.1114,0.69112 -1.15423,0.61695 -1.1921,0.54013 -1.22488,0.46102 -1.25241,0.37991 -0.17638,0.0411 V 111.15307 H 27.832005 V 45.753065 l 0.98105,-0.0321 0.976836,-0.0962 0.96846,-0.1599 0.95593,-0.22289 0.93931,-0.28493 0.17841,-0.0671 0.74025,-0.27861 0.89408,-0.40511 0.86567,-0.46271 0.83355,-0.51833 0.79787,-0.57175 0.75876,-0.6227 0.71642,-0.671 0.67099,-0.71641 0.62271,-0.75877 0.57174,-0.79786 0.51834,-0.83356 0.46271,-0.86567 0.4051,-0.89408 0.27861,-0.74025 0.0671,-0.17841 0.28493,-0.9393 0.2229,-0.95593 0.15989,-0.96847 0.0962,-0.97684 0.0321,-0.98105 H 268.23192"
     id="path2170-0-6-1-5-6-9"
     inkscape:label="ExtraEdge" />
  <path
     style="fill:none;stroke:#fa0000;stroke-width:1;stroke-linecap:round;stroke-linejoin:round;stroke-miterlimit:4;stroke-dasharray:none;stroke-opacity:1"
     d="m 275.92132,38.343795 v 5 H 54.880967 l -0.0411,0.17638 -0.37991,1.25241 -0.46101,1.22488 -0.54014,1.19211 -0.61695,1.15422 -0.69111,1.11141 -0.76233,1.06382 -0.83027,1.01169 -0.89466,0.95522 -0.95522,0.89466 -1.01168,0.83027 -1.06383,0.76232 -1.1114,0.69112 -1.15423,0.61695 -1.1921,0.54013 -1.22488,0.46102 -1.25241,0.37991 -0.17638,0.0411 V 118.7438 H 35.521358 V 53.343805 l 0.98105,-0.0321 0.97684,-0.0962 0.96846,-0.1599 0.955929,-0.22289 0.93931,-0.28493 0.17841,-0.0671 0.74025,-0.27861 0.89408,-0.40511 0.86567,-0.46271 0.83355,-0.51833 0.79787,-0.57175 0.75876,-0.6227 0.71642,-0.671 0.67099,-0.71641 0.62271,-0.75877 0.57174,-0.79786 0.51834,-0.83356 0.46271,-0.86567 0.4051,-0.89408 0.27861,-0.74025 0.0671,-0.17841 0.28493,-0.9393 0.2229,-0.95593 0.15989,-0.96847 0.0962,-0.97684 0.0321,-0.98105 H 275.92127"
     id="path2170-0-6-1-3"
     inkscape:label="ExtraEdge" />
  <path
     style="fill:none;stroke:#fa0000;stroke-width:1;stroke-linecap:round;stroke-linejoin:round;stroke-miterlimit:4;stroke-dasharray:none;stroke-opacity:1"
     d="m 50.739403,170.38063 v -5 H 271.77976 l 0.0411,-0.17638 0.37991,-1.25241 0.46101,-1.22488 0.54014,-1.19211 0.61695,-1.15422 0.69111,-1.11141 0.76233,-1.06382 0.83027,-1.01169 0.89466,-0.95522 0.95522,-0.89466 1.01168,-0.83027 1.06383,-0.76232 1.1114,-0.69112 1.15423,-0.61695 1.1921,-0.54013 1.22488,-0.46102 1.25241,-0.37991 0.17638,-0.0411 V 89.980612 h 5 v 65.400008 l -0.98105,0.0321 -0.97684,0.0962 -0.96846,0.1599 -0.95593,0.22289 -0.93931,0.28493 -0.17841,0.0671 -0.74025,0.27861 -0.89408,0.40511 -0.86567,0.46271 -0.83355,0.51833 -0.79787,0.57175 -0.75876,0.6227 -0.71642,0.671 -0.67099,0.71641 -0.62271,0.75877 -0.57174,0.79786 -0.51834,0.83356 -0.46271,0.86567 -0.4051,0.89408 -0.27861,0.74025 -0.0671,0.17841 -0.28493,0.9393 -0.2229,0.95593 -0.15989,0.96847 -0.0962,0.97684 -0.0321,0.98105 H 50.739453"
     id="path2170-0-6-1-4"
     inkscape:label="ExtraEdge" />
  <path
     style="fill:none;stroke:#fa0000;stroke-width:1;stroke-linecap:round;stroke-linejoin:round;stroke-miterlimit:4;stroke-dasharray:none;stroke-opacity:1"
     d="m 42.909383,163.1951 v -5 H 263.94975 l 0.0411,-0.17638 0.37991,-1.25241 0.46101,-1.22488 0.54014,-1.19211 0.61695,-1.15422 0.69111,-1.11141 0.76233,-1.06382 0.83027,-1.01169 0.89466,-0.95522 0.95522,-0.89466 1.01168,-0.83027 1.06383,-0.76232 1.1114,-0.69112 1.15423,-0.61695 1.1921,-0.54013 1.22488,-0.46102 1.25241,-0.37991 0.17638,-0.0411 V 82.795082 h 5 v 65.400008 l -0.98105,0.0321 -0.97684,0.0962 -0.96846,0.1599 -0.95593,0.22289 -0.93931,0.28493 -0.17841,0.0671 -0.74025,0.27861 -0.89408,0.40511 -0.86567,0.46271 -0.83355,0.51833 -0.79787,0.57175 -0.75876,0.6227 -0.71642,0.671 -0.67099,0.71641 -0.62271,0.75877 -0.57174,0.79786 -0.51834,0.83356 -0.46271,0.86567 -0.4051,0.89408 -0.27861,0.74025 -0.0671,0.17841 -0.28493,0.9393 -0.2229,0.95593 -0.15989,0.96847 -0.0962,0.97684 -0.0321,0.98105 H 42.909433"
     id="path2170-0-6-1-5-68"
     inkscape:label="ExtraEdge" />
  <path
     style="fill:none;stroke:#fa0000;stroke-width:1;stroke-linecap:round;stroke-linejoin:round;stroke-miterlimit:4;stroke-dasharray:none;stroke-opacity:1"
     d="m 35.504273,156.29337 v -5 H 256.54464 l 0.0411,-0.17638 0.37991,-1.25241 0.46101,-1.22488 0.54014,-1.19211 0.61695,-1.15422 0.69111,-1.11141 0.76233,-1.06382 0.83027,-1.01169 0.89466,-0.95522 0.95522,-0.89466 1.01168,-0.83027 1.06383,-0.76232 1.1114,-0.69112 1.15423,-0.61695 1.1921,-0.54013 1.22488,-0.46102 1.25241,-0.37991 0.17638,-0.0411 V 75.893362 h 5 v 65.399998 l -0.98105,0.0321 -0.97684,0.0962 -0.96846,0.1599 -0.95593,0.22289 -0.93931,0.28493 -0.17841,0.0671 -0.74025,0.27861 -0.89408,0.40511 -0.86567,0.46271 -0.83355,0.51833 -0.79787,0.57175 -0.75876,0.6227 -0.71642,0.671 -0.67099,0.71641 -0.62271,0.75877 -0.57174,0.79786 -0.51834,0.83356 -0.46271,0.86567 -0.4051,0.89408 -0.27861,0.74025 -0.0671,0.17841 -0.28493,0.9393 -0.2229,0.95593 -0.15989,0.96847 -0.0962,0.97684 -0.0321,0.98105 H 35.504323"
     id="path2170-0-6-1-5-6-2"
     inkscape:label="ExtraEdge" />
  <path
     style="fill:none;stroke:#fa0000;stroke-width:1;stroke-linecap:round;stroke-linejoin:round;stroke-miterlimit:4;stroke-dasharray:none;stroke-opacity:1"
     d="m 27.942543,149.02781 v -5 H 248.98291 l 0.0411,-0.17638 0.37991,-1.25241 0.46101,-1.22488 0.54014,-1.19211 0.61695,-1.15422 0.69111,-1.11141 0.76233,-1.06382 0.83027,-1.01169 0.89466,-0.95522 0.95522,-0.89466 1.01168,-0.83027 1.06383,-0.76232 1.1114,-0.69112 1.15423,-0.61695 1.1921,-0.54013 1.22488,-0.46102 1.25241,-0.37991 0.17638,-0.0411 V 68.627792 h 4.99999 V 134.0278 l -0.98105,0.0321 -0.97683,0.0962 -0.96846,0.1599 -0.95593,0.22289 -0.93931,0.28493 -0.17841,0.0671 -0.74025,0.27861 -0.89408,0.40511 -0.86567,0.46271 -0.83355,0.51833 -0.79787,0.57175 -0.75876,0.6227 -0.71642,0.671 -0.67099,0.71641 -0.62271,0.75877 -0.57174,0.79786 -0.51834,0.83356 -0.46271,0.86567 -0.4051,0.89408 -0.27861,0.74025 -0.0671,0.17841 -0.28493,0.9393 -0.2229,0.95593 -0.15989,0.96847 -0.0962,0.97684 -0.0321,0.98105 H 27.942593"
     id="path2170-0-6-1-5-6-9-7"
     inkscape:label="ExtraEdge" />
  <path
     style="fill:none;stroke:#fa0000;stroke-width:1;stroke-linecap:round;stroke-linejoin:round;stroke-miterlimit:4;stroke-dasharray:none;stroke-opacity:1"
     d="m 283.75134,45.529329 v 5 H 62.710977 l -0.0411,0.17638 -0.37991,1.25241 -0.46101,1.22488 -0.54014,1.19211 -0.61695,1.15422 -0.69111,1.11141 -0.76233,1.06382 -0.83027,1.01169 -0.89466,0.95522 -0.95522,0.89466 -1.01168,0.83027 -1.06383,0.76232 -1.1114,0.69112 -1.15423,0.61695 -1.1921,0.54013 -1.22488,0.46102 -1.25241,0.37991 -0.17638,0.0411 v 61.040381 h -5 V 60.529339 l 0.98105,-0.0321 0.97684,-0.0962 0.96846,-0.1599 0.95593,-0.22289 0.93931,-0.28493 0.17841,-0.0671 0.74025,-0.27861 0.89408,-0.40511 0.86567,-0.46271 0.83355,-0.51833 0.79787,-0.57175 0.75876,-0.6227 0.71642,-0.671 0.67099,-0.71641 0.62271,-0.75877 0.57174,-0.79786 0.51834,-0.83356 0.46271,-0.86567 0.4051,-0.89408 0.27861,-0.74025 0.0671,-0.17841 0.28493,-0.9393 0.2229,-0.95593 0.15989,-0.96847 0.0962,-0.97684 0.0321,-0.98105 H 283.75129"
     id="path2170-0-6-1-5-4"
     inkscape:label="ExtraEdge" />
  <path
     style="fill:none;stroke:#fa0000;stroke-width:1;stroke-linecap:round;stroke-linejoin:round;stroke-miterlimit:4;stroke-dasharray:none;stroke-opacity:1"
     d="m 291.15645,52.431054 v 5 H 70.116089 l -0.0411,0.17638 -0.37991,1.25241 -0.46101,1.22488 -0.54014,1.19211 -0.61695,1.15422 -0.69111,1.11141 -0.76233,1.06382 -0.83027,1.01169 -0.89466,0.95522 -0.95522,0.89466 -1.01168,0.83027 -1.06383,0.76232 -1.1114,0.69112 -1.15423,0.61695 -1.1921,0.54013 -1.22488,0.46102 -1.25241,0.37991 -0.17638,0.0411 v 61.040386 h -5 V 67.431064 l 0.98105,-0.0321 0.97684,-0.0962 0.96846,-0.1599 0.95593,-0.22289 0.93931,-0.28493 0.17841,-0.0671 0.74025,-0.27861 0.89408,-0.40511 0.86567,-0.46271 0.83355,-0.51833 0.79787,-0.57175 0.75876,-0.6227 0.71642,-0.671 0.67099,-0.71641 0.62271,-0.75877 0.57174,-0.79786 0.51834,-0.83356 0.46271,-0.86567 0.4051,-0.89408 0.27861,-0.74025 0.0671,-0.17841 0.28493,-0.9393 0.2229,-0.95593 0.15989,-0.96847 0.0962,-0.97684 0.0321,-0.98105 H 291.1564"
     id="path2170-0-6-1-5-6-94"
     inkscape:label="ExtraEdge" />
  <path
     style="fill:none;stroke:#fa0000;stroke-width:1;stroke-linecap:round;stroke-linejoin:round;stroke-miterlimit:4;stroke-dasharray:none;stroke-opacity:1"
     d="m 298.71818,59.696621 v 5 H 77.67782 l -0.0411,0.17638 -0.37991,1.25241 -0.46101,1.22488 -0.54014,1.19211 -0.61695,1.15422 -0.69111,1.11141 -0.76233,1.06382 -0.83027,1.01169 -0.89466,0.95522 -0.95522,0.89466 -1.01168,0.83027 -1.06383,0.76232 -1.1114,0.69112 -1.15423,0.61695 -1.1921,0.54013 -1.22488,0.46102 -1.25241,0.37991 -0.17638,0.0411 V 140.09663 H 58.318214 V 74.696631 l 0.98105,-0.0321 0.976836,-0.0962 0.96846,-0.1599 0.95593,-0.22289 0.93931,-0.28493 0.17841,-0.0671 0.74025,-0.27861 0.89408,-0.40511 0.86567,-0.46271 0.83355,-0.51833 0.79787,-0.57175 0.75876,-0.6227 0.71642,-0.671 0.67099,-0.71641 0.62271,-0.75877 0.57174,-0.79786 0.51834,-0.83356 0.46271,-0.86567 0.4051,-0.89408 0.27861,-0.74025 0.0671,-0.17841 0.28493,-0.9393 0.2229,-0.95593 0.15989,-0.96847 0.0962,-0.97684 0.0321,-0.98105 h 225.4"
     id="path2170-0-6-1-5-6-9-5"
     inkscape:label="ExtraEdge" />
</svg>
