<?xml version="1.0" encoding="UTF-8" standalone="no"?>
<!-- Created with Inkscape (http://www.inkscape.org/) -->

<svg
   width="210mm"
   height="297mm"
   viewBox="0 0 210 297"
   version="1.1"
   id="svg1"
   inkscape:version="1.3.2 (091e20e, 2023-11-25, custom)"
   sodipodi:docname="Swirls.svg"
   xmlns:inkscape="http://www.inkscape.org/namespaces/inkscape"
   xmlns:sodipodi="http://sodipodi.sourceforge.net/DTD/sodipodi-0.dtd"
   xmlns:xlink="http://www.w3.org/1999/xlink"
   xmlns="http://www.w3.org/2000/svg"
   xmlns:svg="http://www.w3.org/2000/svg">
  <sodipodi:namedview
     id="namedview1"
     pagecolor="#ffffff"
     bordercolor="#666666"
     borderopacity="1.0"
     inkscape:showpageshadow="2"
     inkscape:pageopacity="0.0"
     inkscape:pagecheckerboard="0"
     inkscape:deskcolor="#d1d1d1"
     inkscape:document-units="mm"
     inkscape:zoom="2.8284271"
     inkscape:cx="327.74399"
     inkscape:cy="203.11642"
     inkscape:window-width="2560"
     inkscape:window-height="1377"
     inkscape:window-x="1912"
     inkscape:window-y="-8"
     inkscape:window-maximized="1"
     inkscape:current-layer="layer1" />
  <defs
     id="defs1">
    <inkscape:path-effect
       effect="simplify"
       id="path-effect1"
       is_visible="true"
       lpeversion="1.3"
       threshold="79.056149"
       steps="1"
       smooth_angles="360"
       helper_size="0"
       simplify_individual_paths="false"
       simplify_just_coalesce="false" />
    <filter
       style="color-interpolation-filters:sRGB"
       id="filter1"
       inkscape:label="filter1" />
  </defs>
  <g
     inkscape:label="Layer 1"
     inkscape:groupmode="layer"
     id="layer1">
    <g
       id="g2"
       transform="matrix(3.1168237,0,0,3.1168237,-409.38822,-303.80405)">
      <use
         x="0"
         y="0"
         xlink:href="#path1"
         id="use2"
         transform="matrix(-1,0,0,1,319.8898,0)" />
      <path
         style="fill:none;stroke:#000000;stroke-width:0.1;stroke-linecap:butt;stroke-linejoin:miter;stroke-dasharray:none;stroke-opacity:1"
         d="m 159.93946,102.96038 c -0.5,2.17607 -2.11677,2.41813 -2.22841,3.91581 -0.11887,1.5947 1.72841,2.85674 1.72841,4.4752 -5.58855,-3.61873 -6.43592,-5.01807 -9.67149,-3.78636 -1.63459,0.62225 -3.99864,4.02228 -2.37708,4.67773 0.30732,0.12422 -0.23702,-0.19088 -0.19057,-0.68865 0.18568,-1.98959 3.68205,-4.55224 4.5085,-2.75046 0.12416,0.27069 0.53426,2.00715 1.07143,1.35413 1.71882,-2.08953 5.90509,1.65571 6.65921,3.20469 -3.80115,-2.52186 -6.73384,-0.0522 -10.10989,1.03193 -1.94881,0.62583 -4.2986,-0.0845 -5.33268,-1.33815 -1.07111,-1.29852 0.47716,-1.89862 0.77444,-1.53816 0.4065,0.49289 0.31817,-0.4677 -0.10587,-0.6831 -0.50701,-0.25754 -1.55629,-0.13757 -2.11386,0.61872 -0.55757,0.7563 0.22137,2.35139 1.0717,2.97341 2.06114,1.50772 5.23621,1.11037 7.65559,0.29296 2.54425,-0.8596 8.79257,-2.45553 8.66049,1.31025"
         id="path1"
         sodipodi:nodetypes="cacasssscsssszasc" />
    </g>
  </g>
</svg>
