999
"DXF R12 Output" (www.mydxf.blogspot.com)
 0 
SECTION
 2 
HEADER
 9 
$ACADVER
 1 
AC1009
 9 
$EXTMIN
 10 
 0 
 20 
 0 
 9 
$EXTMAX
 10 
 8.5 
 20 
 11 
 0 
ENDSEC
 0 
SECTION
 2 
ENTITIES
0
LINE
8
Layer 1
10
89.148419
20
279.895028
11
89.880023
21
277.614765
0
LINE
8
Layer 1
10
89.880023
20
277.614765
11
90.842183
21
275.783121
0
LINE
8
Layer 1
10
90.842183
20
275.783121
11
91.939135
21
274.283595
0
LINE
8
Layer 1
10
91.939135
20
274.283595
11
93.075113
21
272.999684
0
LINE
8
Layer 1
10
93.075113
20
272.999684
11
94.154351
21
271.814886
0
LINE
8
Layer 1
10
94.154351
20
271.814886
11
95.081084
21
270.612700
0
LINE
8
Layer 1
10
95.081084
20
270.612700
11
95.759546
21
269.276623
0
LINE
8
Layer 1
10
95.759546
20
269.276623
11
96.093972
21
267.690153
0
LINE
8
Layer 1
10
96.093972
20
267.690153
11
95.968866
21
265.870663
0
LINE
8
Layer 1
10
95.968866
20
265.870663
11
95.408534
21
264.123208
0
LINE
8
Layer 1
10
95.408534
20
264.123208
11
94.552262
21
262.422619
0
LINE
8
Layer 1
10
94.552262
20
262.422619
11
93.539336
21
260.743728
0
LINE
8
Layer 1
10
93.539336
20
260.743728
11
92.509044
21
259.061365
0
LINE
8
Layer 1
10
92.509044
20
259.061365
11
91.600671
21
257.350362
0
LINE
8
Layer 1
10
91.600671
20
257.350362
11
90.953504
21
255.585550
0
LINE
8
Layer 1
10
90.953504
20
255.585550
11
90.706829
21
253.741761
0
LINE
8
Layer 1
10
90.706829
20
253.741761
11
101.347147
21
260.883890
0
LINE
8
Layer 1
10
101.347147
20
260.883890
11
105.240239
21
263.444600
0
LINE
8
Layer 1
10
105.240239
20
263.444600
11
108.529156
21
265.311693
0
LINE
8
Layer 1
10
108.529156
20
265.311693
11
110.028425
21
265.980433
0
LINE
8
Layer 1
10
110.028425
20
265.980433
11
111.474301
21
266.470131
0
LINE
8
Layer 1
10
111.474301
20
266.470131
11
112.899334
21
266.778906
0
LINE
8
Layer 1
10
112.899334
20
266.778906
11
114.336075
21
266.904879
0
LINE
8
Layer 1
10
114.336075
20
266.904879
11
115.817074
21
266.846171
0
LINE
8
Layer 1
10
115.817074
20
266.846171
11
117.374882
21
266.600902
0
LINE
8
Layer 1
10
117.374882
20
266.600902
11
120.851122
21
265.543163
0
LINE
8
Layer 1
10
120.851122
20
265.543163
11
122.839515
21
264.443654
0
LINE
8
Layer 1
10
122.839515
20
264.443654
11
124.868838
21
262.734178
0
LINE
8
Layer 1
10
124.868838
20
262.734178
11
126.766873
21
260.616440
0
LINE
8
Layer 1
10
126.766873
20
260.616440
11
128.361400
21
258.292146
0
LINE
8
Layer 1
10
128.361400
20
258.292146
11
129.480201
21
255.963002
0
LINE
8
Layer 1
10
129.480201
20
255.963002
11
129.807385
21
254.859644
0
LINE
8
Layer 1
10
129.807385
20
254.859644
11
129.951056
21
253.830713
0
LINE
8
Layer 1
10
129.951056
20
253.830713
11
129.889685
21
252.901422
0
LINE
8
Layer 1
10
129.889685
20
252.901422
11
129.601746
21
252.096984
0
LINE
8
Layer 1
10
129.601746
20
252.096984
11
129.065711
21
251.442612
0
LINE
8
Layer 1
10
129.065711
20
251.442612
11
128.260053
21
250.963521
0
LINE
8
Layer 1
10
128.260053
20
250.963521
11
127.969122
21
250.917384
0
LINE
8
Layer 1
10
127.969122
20
250.917384
11
128.252132
21
251.309733
0
LINE
8
Layer 1
10
128.252132
20
251.309733
11
128.687595
21
252.065576
0
LINE
8
Layer 1
10
128.687595
20
252.065576
11
128.854025
21
253.109919
0
LINE
8
Layer 1
10
128.854025
20
253.109919
11
128.629140
21
254.289817
0
LINE
8
Layer 1
10
128.629140
20
254.289817
11
128.189713
21
255.489034
0
LINE
8
Layer 1
10
128.189713
20
255.489034
11
127.563050
21
256.685028
0
LINE
8
Layer 1
10
127.563050
20
256.685028
11
126.776455
21
257.855255
0
LINE
8
Layer 1
10
126.776455
20
257.855255
11
124.832693
21
260.028240
0
LINE
8
Layer 1
10
124.832693
20
260.028240
11
122.576870
21
261.827645
0
LINE
8
Layer 1
10
122.576870
20
261.827645
11
120.227431
21
263.073127
0
LINE
8
Layer 1
10
120.227431
20
263.073127
11
119.085868
21
263.431790
0
LINE
8
Layer 1
10
119.085868
20
263.431790
11
118.002818
21
263.584344
0
LINE
8
Layer 1
10
118.002818
20
263.584344
11
117.005584
21
263.508245
0
LINE
8
Layer 1
10
117.005584
20
263.508245
11
116.121474
21
263.180951
0
LINE
8
Layer 1
10
116.121474
20
263.180951
11
115.377791
21
262.579920
0
LINE
8
Layer 1
10
115.377791
20
262.579920
11
114.801842
21
261.682608
0
LINE
8
Layer 1
10
114.801842
20
261.682608
11
114.352236
21
260.380989
0
LINE
8
Layer 1
10
114.352236
20
260.380989
11
113.614844
21
258.492679
0
LINE
8
Layer 1
10
113.614844
20
258.492679
11
113.152735
21
257.680549
0
LINE
8
Layer 1
10
113.152735
20
257.680549
11
112.636087
21
257.144188
0
LINE
8
Layer 1
10
112.636087
20
257.144188
11
112.070704
21
257.024410
0
LINE
8
Layer 1
10
112.070704
20
257.024410
11
111.462388
21
257.462028
0
LINE
8
Layer 1
10
111.462388
20
257.462028
11
110.372268
21
258.476152
0
LINE
8
Layer 1
10
110.372268
20
258.476152
11
109.128835
21
259.100710
0
LINE
8
Layer 1
10
109.128835
20
259.100710
11
107.759025
21
259.372370
0
LINE
8
Layer 1
10
107.759025
20
259.372370
11
106.289774
21
259.327797
0
LINE
8
Layer 1
10
106.289774
20
259.327797
11
104.748016
21
259.003659
0
LINE
8
Layer 1
10
104.748016
20
259.003659
11
103.160687
21
258.436623
0
LINE
8
Layer 1
10
103.160687
20
258.436623
11
101.554723
21
257.663356
0
LINE
8
Layer 1
10
101.554723
20
257.663356
11
99.957060
21
256.720525
0
LINE
8
Layer 1
10
99.957060
20
256.720525
11
96.894376
21
254.472837
0
LINE
8
Layer 1
10
96.894376
20
254.472837
11
94.188120
21
251.986894
0
LINE
8
Layer 1
10
94.188120
20
251.986894
11
92.053776
21
249.556032
0
LINE
8
Layer 1
10
92.053776
20
249.556032
11
90.706829
21
247.473586
0
LINE
8
Layer 1
10
90.706829
20
247.473586
11
92.897513
21
248.769907
0
LINE
8
Layer 1
10
92.897513
20
248.769907
11
95.030744
21
249.730710
0
LINE
8
Layer 1
10
95.030744
20
249.730710
11
97.112513
21
250.385111
0
LINE
8
Layer 1
10
97.112513
20
250.385111
11
99.148809
21
250.762225
0
LINE
8
Layer 1
10
99.148809
20
250.762225
11
101.145620
21
250.891168
0
LINE
8
Layer 1
10
101.145620
20
250.891168
11
103.108937
21
250.801056
0
LINE
8
Layer 1
10
103.108937
20
250.801056
11
105.044748
21
250.521003
0
LINE
8
Layer 1
10
105.044748
20
250.521003
11
106.959042
21
250.080124
0
LINE
8
Layer 1
10
106.959042
20
250.080124
11
110.747041
21
248.832354
0
LINE
8
Layer 1
10
110.747041
20
248.832354
11
114.520846
21
247.290669
0
LINE
8
Layer 1
10
114.520846
20
247.290669
11
118.328373
21
245.687992
0
LINE
8
Layer 1
10
118.328373
20
245.687992
11
122.217536
21
244.257246
0
LINE
8
Layer 1
10
122.217536
20
244.257246
11
124.543453
21
243.716159
0
LINE
8
Layer 1
10
124.543453
20
243.716159
11
126.923834
21
243.536542
0
LINE
8
Layer 1
10
126.923834
20
243.536542
11
129.295978
21
243.689436
0
LINE
8
Layer 1
10
129.295978
20
243.689436
11
131.597181
21
244.145882
0
LINE
8
Layer 1
10
131.597181
20
244.145882
11
133.764741
21
244.876922
0
LINE
8
Layer 1
10
133.764741
20
244.876922
11
135.735956
21
245.853598
0
LINE
8
Layer 1
10
135.735956
20
245.853598
11
137.448123
21
247.046949
0
LINE
8
Layer 1
10
137.448123
20
247.046949
11
138.838540
21
248.428019
0
LINE
8
Layer 1
10
138.838540
20
248.428019
11
139.731328
21
249.842103
0
LINE
8
Layer 1
10
139.731328
20
249.842103
11
140.000095
21
251.042533
0
LINE
8
Layer 1
10
140.000095
20
251.042533
11
139.786207
21
252.019734
0
LINE
8
Layer 1
10
139.786207
20
252.019734
11
139.231029
21
252.764131
0
LINE
8
Layer 1
10
139.231029
20
252.764131
11
138.475928
21
253.266150
0
LINE
8
Layer 1
10
138.475928
20
253.266150
11
137.662271
21
253.516215
0
LINE
8
Layer 1
10
137.662271
20
253.516215
11
136.931423
21
253.504752
0
LINE
8
Layer 1
10
136.931423
20
253.504752
11
136.424750
21
253.222187
0
LINE
8
Layer 1
10
136.424750
20
253.222187
11
136.020956
21
252.845063
0
LINE
8
Layer 1
10
136.020956
20
252.845063
11
135.755940
21
252.812343
0
LINE
8
Layer 1
10
135.755940
20
252.812343
11
135.623892
21
253.043718
0
LINE
8
Layer 1
10
135.623892
20
253.043718
11
135.618997
21
253.458882
0
LINE
8
Layer 1
10
135.618997
20
253.458882
11
135.967425
21
254.519348
0
LINE
8
Layer 1
10
135.967425
20
254.519348
11
136.309122
21
255.004037
0
LINE
8
Layer 1
10
136.309122
20
255.004037
11
136.754727
21
255.351286
0
LINE
8
Layer 1
10
136.754727
20
255.351286
11
138.206471
21
255.720093
0
LINE
8
Layer 1
10
138.206471
20
255.720093
11
139.989893
21
255.572039
0
LINE
8
Layer 1
10
139.989893
20
255.572039
11
140.911568
21
255.280556
0
LINE
8
Layer 1
10
140.911568
20
255.280556
11
141.802863
21
254.831499
0
LINE
8
Layer 1
10
141.802863
20
254.831499
11
142.626012
21
254.215414
0
LINE
8
Layer 1
10
142.626012
20
254.215414
11
143.343249
21
253.422848
0
LINE
8
Layer 1
10
143.343249
20
253.422848
11
143.807377
21
252.427360
0
LINE
8
Layer 1
10
143.807377
20
252.427360
11
143.927183
21
251.252956
0
LINE
8
Layer 1
10
143.927183
20
251.252956
11
143.748876
21
249.965812
0
LINE
8
Layer 1
10
143.748876
20
249.965812
11
143.318665
21
248.632108
0
LINE
8
Layer 1
10
143.318665
20
248.632108
11
142.682758
21
247.318023
0
LINE
8
Layer 1
10
142.682758
20
247.318023
11
141.887364
21
246.089735
0
LINE
8
Layer 1
10
141.887364
20
246.089735
11
140.978693
21
245.013422
0
LINE
8
Layer 1
10
140.978693
20
245.013422
11
140.002953
21
244.155264
0
LINE
8
Layer 1
10
140.002953
20
244.155264
11
138.759151
21
243.342600
0
LINE
8
Layer 1
10
138.759151
20
243.342600
11
137.442512
21
242.662322
0
LINE
8
Layer 1
10
137.442512
20
242.662322
11
134.624867
21
241.671805
0
LINE
8
Layer 1
10
134.624867
20
241.671805
11
131.618306
21
241.129472
0
LINE
8
Layer 1
10
131.618306
20
241.129472
11
128.491118
21
240.981083
0
LINE
8
Layer 1
10
128.491118
20
240.981083
11
125.311591
21
241.172397
0
LINE
8
Layer 1
10
125.311591
20
241.172397
11
122.148012
21
241.649175
0
LINE
8
Layer 1
10
122.148012
20
241.649175
11
119.068672
21
242.357177
0
LINE
8
Layer 1
10
119.068672
20
242.357177
11
116.141857
21
243.242160
0
LINE
8
Layer 1
10
116.141857
20
243.242160
11
112.688340
21
244.317324
0
LINE
8
Layer 1
10
112.688340
20
244.317324
11
108.520824
21
245.384912
0
LINE
8
Layer 1
10
108.520824
20
245.384912
11
104.007648
21
246.222192
0
LINE
8
Layer 1
10
104.007648
20
246.222192
11
99.517148
21
246.606432
0
LINE
8
Layer 1
10
99.517148
20
246.606432
11
97.395507
21
246.559059
0
LINE
8
Layer 1
10
97.395507
20
246.559059
11
95.417662
21
246.314900
0
LINE
8
Layer 1
10
95.417662
20
246.314900
11
93.629655
21
245.846116
0
LINE
8
Layer 1
10
93.629655
20
245.846116
11
92.077529
21
245.124864
0
LINE
8
Layer 1
10
92.077529
20
245.124864
11
90.807324
21
244.123302
0
LINE
8
Layer 1
10
90.807324
20
244.123302
11
89.865085
21
242.813590
0
LINE
8
Layer 1
10
89.865085
20
242.813590
11
89.296852
21
241.167885
0
LINE
8
Layer 1
10
89.296852
20
241.167885
11
89.148668
21
239.158347
0
LINE
8
Layer 1
10
89.114508
20
279.895028
11
88.382904
21
277.614765
0
LINE
8
Layer 1
10
88.382904
20
277.614765
11
87.420743
21
275.783121
0
LINE
8
Layer 1
10
87.420743
20
275.783121
11
86.323791
21
274.283595
0
LINE
8
Layer 1
10
86.323791
20
274.283595
11
85.187813
21
272.999684
0
LINE
8
Layer 1
10
85.187813
20
272.999684
11
84.108575
21
271.814886
0
LINE
8
Layer 1
10
84.108575
20
271.814886
11
83.181842
21
270.612700
0
LINE
8
Layer 1
10
83.181842
20
270.612700
11
82.503381
21
269.276623
0
LINE
8
Layer 1
10
82.503381
20
269.276623
11
82.168955
21
267.690153
0
LINE
8
Layer 1
10
82.168955
20
267.690153
11
82.294061
21
265.870663
0
LINE
8
Layer 1
10
82.294061
20
265.870663
11
82.854393
21
264.123208
0
LINE
8
Layer 1
10
82.854393
20
264.123208
11
83.710665
21
262.422619
0
LINE
8
Layer 1
10
83.710665
20
262.422619
11
84.723590
21
260.743728
0
LINE
8
Layer 1
10
84.723590
20
260.743728
11
85.753883
21
259.061365
0
LINE
8
Layer 1
10
85.753883
20
259.061365
11
86.662256
21
257.350362
0
LINE
8
Layer 1
10
86.662256
20
257.350362
11
87.309423
21
255.585550
0
LINE
8
Layer 1
10
87.309423
20
255.585550
11
87.556098
21
253.741761
0
LINE
8
Layer 1
10
87.556098
20
253.741761
11
76.915780
21
260.883890
0
LINE
8
Layer 1
10
76.915780
20
260.883890
11
73.022688
21
263.444600
0
LINE
8
Layer 1
10
73.022688
20
263.444600
11
69.733770
21
265.311693
0
LINE
8
Layer 1
10
69.733770
20
265.311693
11
68.234502
21
265.980433
0
LINE
8
Layer 1
10
68.234502
20
265.980433
11
66.788626
21
266.470131
0
LINE
8
Layer 1
10
66.788626
20
266.470131
11
65.363592
21
266.778906
0
LINE
8
Layer 1
10
65.363592
20
266.778906
11
63.926851
21
266.904879
0
LINE
8
Layer 1
10
63.926851
20
266.904879
11
62.445852
21
266.846171
0
LINE
8
Layer 1
10
62.445852
20
266.846171
11
60.888045
21
266.600902
0
LINE
8
Layer 1
10
60.888045
20
266.600902
11
57.411804
21
265.543163
0
LINE
8
Layer 1
10
57.411804
20
265.543163
11
55.423412
21
264.443654
0
LINE
8
Layer 1
10
55.423412
20
264.443654
11
53.394088
21
262.734178
0
LINE
8
Layer 1
10
53.394088
20
262.734178
11
51.496054
21
260.616440
0
LINE
8
Layer 1
10
51.496054
20
260.616440
11
49.901526
21
258.292146
0
LINE
8
Layer 1
10
49.901526
20
258.292146
11
48.782726
21
255.963002
0
LINE
8
Layer 1
10
48.782726
20
255.963002
11
48.455541
21
254.859644
0
LINE
8
Layer 1
10
48.455541
20
254.859644
11
48.311871
21
253.830713
0
LINE
8
Layer 1
10
48.311871
20
253.830713
11
48.373241
21
252.901422
0
LINE
8
Layer 1
10
48.373241
20
252.901422
11
48.661180
21
252.096984
0
LINE
8
Layer 1
10
48.661180
20
252.096984
11
49.197215
21
251.442612
0
LINE
8
Layer 1
10
49.197215
20
251.442612
11
50.002874
21
250.963521
0
LINE
8
Layer 1
10
50.002874
20
250.963521
11
50.293804
21
250.917384
0
LINE
8
Layer 1
10
50.293804
20
250.917384
11
50.010794
21
251.309733
0
LINE
8
Layer 1
10
50.010794
20
251.309733
11
49.575331
21
252.065576
0
LINE
8
Layer 1
10
49.575331
20
252.065576
11
49.408901
21
253.109919
0
LINE
8
Layer 1
10
49.408901
20
253.109919
11
49.633786
21
254.289817
0
LINE
8
Layer 1
10
49.633786
20
254.289817
11
50.073213
21
255.489034
0
LINE
8
Layer 1
10
50.073213
20
255.489034
11
50.699877
21
256.685028
0
LINE
8
Layer 1
10
50.699877
20
256.685028
11
51.486472
21
257.855255
0
LINE
8
Layer 1
10
51.486472
20
257.855255
11
53.430234
21
260.028240
0
LINE
8
Layer 1
10
53.430234
20
260.028240
11
55.686056
21
261.827645
0
LINE
8
Layer 1
10
55.686056
20
261.827645
11
58.035495
21
263.073127
0
LINE
8
Layer 1
10
58.035495
20
263.073127
11
59.177058
21
263.431790
0
LINE
8
Layer 1
10
59.177058
20
263.431790
11
60.260109
21
263.584344
0
LINE
8
Layer 1
10
60.260109
20
263.584344
11
61.257342
21
263.508245
0
LINE
8
Layer 1
10
61.257342
20
263.508245
11
62.141453
21
263.180951
0
LINE
8
Layer 1
10
62.141453
20
263.180951
11
62.885135
21
262.579920
0
LINE
8
Layer 1
10
62.885135
20
262.579920
11
63.461084
21
261.682608
0
LINE
8
Layer 1
10
63.461084
20
261.682608
11
63.910690
21
260.380989
0
LINE
8
Layer 1
10
63.910690
20
260.380989
11
64.648082
21
258.492679
0
LINE
8
Layer 1
10
64.648082
20
258.492679
11
65.110192
21
257.680549
0
LINE
8
Layer 1
10
65.110192
20
257.680549
11
65.626839
21
257.144188
0
LINE
8
Layer 1
10
65.626839
20
257.144188
11
66.192223
21
257.024410
0
LINE
8
Layer 1
10
66.192223
20
257.024410
11
66.800539
21
257.462028
0
LINE
8
Layer 1
10
66.800539
20
257.462028
11
67.890659
21
258.476152
0
LINE
8
Layer 1
10
67.890659
20
258.476152
11
69.134091
21
259.100710
0
LINE
8
Layer 1
10
69.134091
20
259.100710
11
70.503901
21
259.372370
0
LINE
8
Layer 1
10
70.503901
20
259.372370
11
71.973153
21
259.327797
0
LINE
8
Layer 1
10
71.973153
20
259.327797
11
73.514911
21
259.003659
0
LINE
8
Layer 1
10
73.514911
20
259.003659
11
75.102240
21
258.436623
0
LINE
8
Layer 1
10
75.102240
20
258.436623
11
76.708203
21
257.663356
0
LINE
8
Layer 1
10
76.708203
20
257.663356
11
78.305867
21
256.720525
0
LINE
8
Layer 1
10
78.305867
20
256.720525
11
81.368551
21
254.472837
0
LINE
8
Layer 1
10
81.368551
20
254.472837
11
84.074807
21
251.986894
0
LINE
8
Layer 1
10
84.074807
20
251.986894
11
86.209150
21
249.556032
0
LINE
8
Layer 1
10
86.209150
20
249.556032
11
87.556098
21
247.473586
0
LINE
8
Layer 1
10
87.556098
20
247.473586
11
85.365414
21
248.769907
0
LINE
8
Layer 1
10
85.365414
20
248.769907
11
83.232182
21
249.730710
0
LINE
8
Layer 1
10
83.232182
20
249.730710
11
81.150413
21
250.385111
0
LINE
8
Layer 1
10
81.150413
20
250.385111
11
79.114118
21
250.762225
0
LINE
8
Layer 1
10
79.114118
20
250.762225
11
77.117306
21
250.891168
0
LINE
8
Layer 1
10
77.117306
20
250.891168
11
75.153990
21
250.801056
0
LINE
8
Layer 1
10
75.153990
20
250.801056
11
73.218179
21
250.521003
0
LINE
8
Layer 1
10
73.218179
20
250.521003
11
71.303884
21
250.080124
0
LINE
8
Layer 1
10
71.303884
20
250.080124
11
67.515886
21
248.832354
0
LINE
8
Layer 1
10
67.515886
20
248.832354
11
63.742080
21
247.290669
0
LINE
8
Layer 1
10
63.742080
20
247.290669
11
59.934553
21
245.687992
0
LINE
8
Layer 1
10
59.934553
20
245.687992
11
56.045390
21
244.257246
0
LINE
8
Layer 1
10
56.045390
20
244.257246
11
53.719473
21
243.716159
0
LINE
8
Layer 1
10
53.719473
20
243.716159
11
51.339092
21
243.536542
0
LINE
8
Layer 1
10
51.339092
20
243.536542
11
48.966948
21
243.689436
0
LINE
8
Layer 1
10
48.966948
20
243.689436
11
46.665745
21
244.145882
0
LINE
8
Layer 1
10
46.665745
20
244.145882
11
44.498185
21
244.876922
0
LINE
8
Layer 1
10
44.498185
20
244.876922
11
42.526970
21
245.853598
0
LINE
8
Layer 1
10
42.526970
20
245.853598
11
40.814803
21
247.046949
0
LINE
8
Layer 1
10
40.814803
20
247.046949
11
39.424387
21
248.428019
0
LINE
8
Layer 1
10
39.424387
20
248.428019
11
38.531598
21
249.842103
0
LINE
8
Layer 1
10
38.531598
20
249.842103
11
38.262831
21
251.042533
0
LINE
8
Layer 1
10
38.262831
20
251.042533
11
38.476720
21
252.019734
0
LINE
8
Layer 1
10
38.476720
20
252.019734
11
39.031897
21
252.764131
0
LINE
8
Layer 1
10
39.031897
20
252.764131
11
39.786998
21
253.266150
0
LINE
8
Layer 1
10
39.786998
20
253.266150
11
40.600656
21
253.516215
0
LINE
8
Layer 1
10
40.600656
20
253.516215
11
41.331504
21
253.504752
0
LINE
8
Layer 1
10
41.331504
20
253.504752
11
41.838177
21
253.222187
0
LINE
8
Layer 1
10
41.838177
20
253.222187
11
42.241971
21
252.845063
0
LINE
8
Layer 1
10
42.241971
20
252.845063
11
42.506986
21
252.812343
0
LINE
8
Layer 1
10
42.506986
20
252.812343
11
42.639035
21
253.043718
0
LINE
8
Layer 1
10
42.639035
20
253.043718
11
42.643929
21
253.458882
0
LINE
8
Layer 1
10
42.643929
20
253.458882
11
42.295502
21
254.519348
0
LINE
8
Layer 1
10
42.295502
20
254.519348
11
41.953804
21
255.004037
0
LINE
8
Layer 1
10
41.953804
20
255.004037
11
41.508199
21
255.351286
0
LINE
8
Layer 1
10
41.508199
20
255.351286
11
40.056455
21
255.720093
0
LINE
8
Layer 1
10
40.056455
20
255.720093
11
38.273033
21
255.572039
0
LINE
8
Layer 1
10
38.273033
20
255.572039
11
37.351359
21
255.280556
0
LINE
8
Layer 1
10
37.351359
20
255.280556
11
36.460064
21
254.831499
0
LINE
8
Layer 1
10
36.460064
20
254.831499
11
35.636915
21
254.215414
0
LINE
8
Layer 1
10
35.636915
20
254.215414
11
34.919678
21
253.422848
0
LINE
8
Layer 1
10
34.919678
20
253.422848
11
34.455550
21
252.427360
0
LINE
8
Layer 1
10
34.455550
20
252.427360
11
34.335744
21
251.252956
0
LINE
8
Layer 1
10
34.335744
20
251.252956
11
34.514051
21
249.965812
0
LINE
8
Layer 1
10
34.514051
20
249.965812
11
34.944262
21
248.632108
0
LINE
8
Layer 1
10
34.944262
20
248.632108
11
35.580169
21
247.318023
0
LINE
8
Layer 1
10
35.580169
20
247.318023
11
36.375562
21
246.089735
0
LINE
8
Layer 1
10
36.375562
20
246.089735
11
37.284233
21
245.013422
0
LINE
8
Layer 1
10
37.284233
20
245.013422
11
38.259974
21
244.155264
0
LINE
8
Layer 1
10
38.259974
20
244.155264
11
39.503776
21
243.342600
0
LINE
8
Layer 1
10
39.503776
20
243.342600
11
40.820415
21
242.662322
0
LINE
8
Layer 1
10
40.820415
20
242.662322
11
43.638059
21
241.671805
0
LINE
8
Layer 1
10
43.638059
20
241.671805
11
46.644620
21
241.129472
0
LINE
8
Layer 1
10
46.644620
20
241.129472
11
49.771808
21
240.981083
0
LINE
8
Layer 1
10
49.771808
20
240.981083
11
52.951336
21
241.172397
0
LINE
8
Layer 1
10
52.951336
20
241.172397
11
56.114914
21
241.649175
0
LINE
8
Layer 1
10
56.114914
20
241.649175
11
59.194255
21
242.357177
0
LINE
8
Layer 1
10
59.194255
20
242.357177
11
62.121070
21
243.242160
0
LINE
8
Layer 1
10
62.121070
20
243.242160
11
65.574587
21
244.317324
0
LINE
8
Layer 1
10
65.574587
20
244.317324
11
69.742102
21
245.384912
0
LINE
8
Layer 1
10
69.742102
20
245.384912
11
74.255279
21
246.222192
0
LINE
8
Layer 1
10
74.255279
20
246.222192
11
78.745779
21
246.606432
0
LINE
8
Layer 1
10
78.745779
20
246.606432
11
80.867419
21
246.559059
0
LINE
8
Layer 1
10
80.867419
20
246.559059
11
82.845264
21
246.314900
0
LINE
8
Layer 1
10
82.845264
20
246.314900
11
84.633271
21
245.846116
0
LINE
8
Layer 1
10
84.633271
20
245.846116
11
86.185398
21
245.124864
0
LINE
8
Layer 1
10
86.185398
20
245.124864
11
87.455602
21
244.123302
0
LINE
8
Layer 1
10
87.455602
20
244.123302
11
88.397842
21
242.813590
0
LINE
8
Layer 1
10
88.397842
20
242.813590
11
88.966075
21
241.167885
0
LINE
8
Layer 1
10
88.966075
20
241.167885
11
89.114258
21
239.158347
 0 
ENDSEC
 0 
EOF