solid UltraSpecial
facet normal -1.0 -4.51194637207668e-014 -2.85129944346503e-013
  outer loop
    vertex 527.69757759658 -1348.09074177223 506.984000000001
    vertex 527.697577596584 -1348.09074177223 492.584
    vertex 527.69757759658 -1353.09074177223 506.984000000001
  endloop
endfacet
facet normal -1.0 -4.51194637207668e-014 -2.85129944346503e-013
  outer loop
    vertex 527.697577596584 -1353.09074177223 492.584
    vertex 527.69757759658 -1353.09074177223 506.984000000001
    vertex 527.697577596584 -1348.09074177223 492.584
  endloop
endfacet
facet normal 0.0 0.0 1.0
  outer loop
    vertex 527.69757759658 -1348.09074177223 506.984000000001
    vertex 527.69757759658 -1353.09074177223 506.984000000001
    vertex 541.69757759658 -1348.09074177223 506.984000000001
  endloop
endfacet
facet normal 0.0 0.0 1.0
  outer loop
    vertex 541.69757759658 -1353.09074177223 506.984000000001
    vertex 541.69757759658 -1348.09074177223 506.984000000001
    vertex 527.69757759658 -1353.09074177223 506.984000000001
  endloop
endfacet
facet normal 1.0 8.12150346973774e-014 1.62361706570935e-013
  outer loop
    vertex 541.69757759658 -1348.09074177223 506.984000000001
    vertex 541.69757759658 -1353.09074177223 506.984000000001
    vertex 541.697577596584 -1348.09074177223 480.584
  endloop
endfacet
facet normal 1.0 8.12150346973774e-014 1.62361706570935e-013
  outer loop
    vertex 541.697577596584 -1353.09074177223 480.584
    vertex 541.697577596584 -1348.09074177223 480.584
    vertex 541.69757759658 -1353.09074177223 506.984000000001
  endloop
endfacet
facet normal -0.793353340291148 -7.15909079471989e-014 0.608761429008834
  outer loop
    vertex 536.213122053206 -1348.09074177223 485.109000000001
    vertex 535.935014463659 -1348.09074177223 484.746563132924
    vertex 536.213122053206 -1353.09074177223 485.109000000001
  endloop
endfacet
facet normal -0.793353340291148 -7.15909079471989e-014 0.608761429008834
  outer loop
    vertex 535.93501446366 -1353.09074177223 484.746563132924
    vertex 536.213122053206 -1353.09074177223 485.109000000001
    vertex 535.935014463659 -1348.09074177223 484.746563132924
  endloop
endfacet
facet normal -0.991444861373799 -8.94669898238053e-014 -0.13052619222014
  outer loop
    vertex 536.387947792589 -1348.09074177223 486.43693332893
    vertex 536.447577596583 -1348.09074177223 485.984000000001
    vertex 536.387947792589 -1353.09074177223 486.43693332893
  endloop
endfacet
facet normal -0.991444861373799 -8.94669898238053e-014 -0.13052619222014
  outer loop
    vertex 536.447577596583 -1353.09074177223 485.984000000001
    vertex 536.387947792589 -1353.09074177223 486.43693332893
    vertex 536.447577596583 -1348.09074177223 485.984000000001
  endloop
endfacet
facet normal 0.13052619222014 1.1778555091456e-014 0.991444861373799
  outer loop
    vertex 534.244644267653 -1348.09074177223 484.293629803995
    vertex 534.244644267654 -1353.09074177223 484.293629803995
    vertex 534.697577596583 -1348.09074177223 484.234000000001
  endloop
endfacet
facet normal 0.13052619222014 1.1778555091456e-014 0.991444861373799
  outer loop
    vertex 534.697577596583 -1353.09074177223 484.234000000001
    vertex 534.697577596583 -1348.09074177223 484.234000000001
    vertex 534.244644267654 -1353.09074177223 484.293629803995
  endloop
endfacet
facet normal -0.923879532511348 -8.33699795149214e-014 -0.382683432364942
  outer loop
    vertex 536.213122053206 -1348.09074177223 486.859
    vertex 536.387947792589 -1348.09074177223 486.43693332893
    vertex 536.213122053206 -1353.09074177223 486.859
  endloop
endfacet
facet normal -0.923879532511348 -8.33699795149214e-014 -0.382683432364942
  outer loop
    vertex 536.387947792589 -1353.09074177223 486.43693332893
    vertex 536.213122053206 -1353.09074177223 486.859
    vertex 536.387947792589 -1348.09074177223 486.43693332893
  endloop
endfacet
facet normal -0.793353340291148 -7.15909079471989e-014 -0.608761429008834
  outer loop
    vertex 535.935014463659 -1348.09074177223 487.221436867077
    vertex 536.213122053206 -1348.09074177223 486.859
    vertex 535.93501446366 -1353.09074177223 487.221436867077
  endloop
endfacet
facet normal -0.793353340291148 -7.15909079471989e-014 -0.608761429008834
  outer loop
    vertex 536.213122053206 -1353.09074177223 486.859
    vertex 535.93501446366 -1353.09074177223 487.221436867077
    vertex 536.213122053206 -1348.09074177223 486.859
  endloop
endfacet
facet normal -0.608761429008834 -5.49335480273253e-014 -0.793353340291148
  outer loop
    vertex 535.572577596583 -1348.09074177223 487.499544456623
    vertex 535.935014463659 -1348.09074177223 487.221436867077
    vertex 535.572577596583 -1353.09074177223 487.499544456623
  endloop
endfacet
facet normal -0.608761429008834 -5.49335480273253e-014 -0.793353340291148
  outer loop
    vertex 535.93501446366 -1353.09074177223 487.221436867077
    vertex 535.572577596583 -1353.09074177223 487.499544456623
    vertex 535.935014463659 -1348.09074177223 487.221436867077
  endloop
endfacet
facet normal -0.382683432364942 -3.45329762098316e-014 -0.923879532511348
  outer loop
    vertex 535.150510925512 -1348.09074177223 487.674370196006
    vertex 535.572577596583 -1348.09074177223 487.499544456623
    vertex 535.150510925513 -1353.09074177223 487.674370196006
  endloop
endfacet
facet normal -0.382683432364942 -3.45329762098316e-014 -0.923879532511348
  outer loop
    vertex 535.572577596583 -1353.09074177223 487.499544456623
    vertex 535.150510925513 -1353.09074177223 487.674370196006
    vertex 535.572577596583 -1348.09074177223 487.499544456623
  endloop
endfacet
facet normal -0.13052619222014 -1.17785550914561e-014 -0.991444861373799
  outer loop
    vertex 534.697577596583 -1348.09074177223 487.734
    vertex 535.150510925512 -1348.09074177223 487.674370196006
    vertex 534.697577596583 -1353.09074177223 487.734
  endloop
endfacet
facet normal -0.13052619222014 -1.17785550914561e-014 -0.991444861373799
  outer loop
    vertex 535.150510925513 -1353.09074177223 487.674370196006
    vertex 534.697577596583 -1353.09074177223 487.734
    vertex 535.150510925512 -1348.09074177223 487.674370196006
  endloop
endfacet
facet normal 0.13052619222014 1.17785550914561e-014 -0.991444861373799
  outer loop
    vertex 534.244644267653 -1348.09074177223 487.674370196006
    vertex 534.697577596583 -1348.09074177223 487.734
    vertex 534.244644267654 -1353.09074177223 487.674370196006
  endloop
endfacet
facet normal 0.13052619222014 1.17785550914561e-014 -0.991444861373799
  outer loop
    vertex 534.697577596583 -1353.09074177223 487.734
    vertex 534.244644267654 -1353.09074177223 487.674370196006
    vertex 534.697577596583 -1348.09074177223 487.734
  endloop
endfacet
facet normal 0.793353340291148 7.15875013967784e-014 -0.608761429008834
  outer loop
    vertex 533.18203313996 -1348.09074177223 486.859
    vertex 533.460140729506 -1348.09074177223 487.221436867077
    vertex 533.18203313996 -1353.09074177223 486.859
  endloop
endfacet
facet normal 0.793353340291148 7.15875013967784e-014 -0.608761429008834
  outer loop
    vertex 533.460140729507 -1353.09074177223 487.221436867077
    vertex 533.18203313996 -1353.09074177223 486.859
    vertex 533.460140729506 -1348.09074177223 487.221436867077
  endloop
endfacet
facet normal -0.923879532511348 -8.33699795149214e-014 0.382683432364942
  outer loop
    vertex 536.387947792589 -1348.09074177223 485.531066671071
    vertex 536.213122053206 -1348.09074177223 485.109000000001
    vertex 536.387947792589 -1353.09074177223 485.531066671071
  endloop
endfacet
facet normal -0.923879532511348 -8.33699795149214e-014 0.382683432364942
  outer loop
    vertex 536.213122053206 -1353.09074177223 485.109000000001
    vertex 536.387947792589 -1353.09074177223 485.531066671071
    vertex 536.213122053206 -1348.09074177223 485.109000000001
  endloop
endfacet
facet normal 0.382683432364942 3.45329762098316e-014 -0.923879532511348
  outer loop
    vertex 533.822577596583 -1348.09074177223 487.499544456623
    vertex 534.244644267653 -1348.09074177223 487.674370196006
    vertex 533.822577596583 -1353.09074177223 487.499544456623
  endloop
endfacet
facet normal 0.382683432364942 3.45329762098316e-014 -0.923879532511348
  outer loop
    vertex 534.244644267654 -1353.09074177223 487.674370196006
    vertex 533.822577596583 -1353.09074177223 487.499544456623
    vertex 534.244644267653 -1348.09074177223 487.674370196006
  endloop
endfacet
facet normal -0.13052619222014 -1.17785550914561e-014 0.991444861373799
  outer loop
    vertex 534.697577596583 -1348.09074177223 484.234000000001
    vertex 534.697577596583 -1353.09074177223 484.234000000001
    vertex 535.150510925512 -1348.09074177223 484.293629803995
  endloop
endfacet
facet normal -0.13052619222014 -1.17785550914561e-014 0.991444861373799
  outer loop
    vertex 535.150510925513 -1353.09074177223 484.293629803995
    vertex 535.150510925512 -1348.09074177223 484.293629803995
    vertex 534.697577596583 -1353.09074177223 484.234000000001
  endloop
endfacet
facet normal 0.608761429008834 5.49335480273253e-014 -0.793353340291148
  outer loop
    vertex 533.460140729506 -1348.09074177223 487.221436867077
    vertex 533.822577596583 -1348.09074177223 487.499544456623
    vertex 533.460140729507 -1353.09074177223 487.221436867077
  endloop
endfacet
facet normal 0.608761429008834 5.49335480273253e-014 -0.793353340291148
  outer loop
    vertex 533.822577596583 -1353.09074177223 487.499544456623
    vertex 533.460140729507 -1353.09074177223 487.221436867077
    vertex 533.822577596583 -1348.09074177223 487.499544456623
  endloop
endfacet
facet normal 0.923879532511348 8.33699795149209e-014 -0.382683432364942
  outer loop
    vertex 533.007207400577 -1348.09074177223 486.43693332893
    vertex 533.18203313996 -1348.09074177223 486.859
    vertex 533.007207400578 -1353.09074177223 486.43693332893
  endloop
endfacet
facet normal 0.923879532511348 8.33699795149209e-014 -0.382683432364942
  outer loop
    vertex 533.18203313996 -1353.09074177223 486.859
    vertex 533.007207400578 -1353.09074177223 486.43693332893
    vertex 533.18203313996 -1348.09074177223 486.859
  endloop
endfacet
facet normal 0.991444861373799 8.9467026731847e-014 -0.13052619222014
  outer loop
    vertex 532.947577596583 -1348.09074177223 485.984000000001
    vertex 533.007207400577 -1348.09074177223 486.43693332893
    vertex 532.947577596583 -1353.09074177223 485.984000000001
  endloop
endfacet
facet normal 0.991444861373799 8.9467026731847e-014 -0.13052619222014
  outer loop
    vertex 533.007207400578 -1353.09074177223 486.43693332893
    vertex 532.947577596583 -1353.09074177223 485.984000000001
    vertex 533.007207400577 -1348.09074177223 486.43693332893
  endloop
endfacet
facet normal 0.991444861373799 8.94677202315378e-014 0.13052619222014
  outer loop
    vertex 533.007207400577 -1348.09074177223 485.531066671071
    vertex 532.947577596583 -1348.09074177223 485.984000000001
    vertex 533.007207400578 -1353.09074177223 485.531066671071
  endloop
endfacet
facet normal 0.991444861373799 8.94677202315378e-014 0.13052619222014
  outer loop
    vertex 532.947577596583 -1353.09074177223 485.984000000001
    vertex 533.007207400578 -1353.09074177223 485.531066671071
    vertex 532.947577596583 -1348.09074177223 485.984000000001
  endloop
endfacet
facet normal -0.382683432364942 -3.45329762098316e-014 0.923879532511348
  outer loop
    vertex 535.150510925512 -1348.09074177223 484.293629803995
    vertex 535.150510925513 -1353.09074177223 484.293629803995
    vertex 535.572577596583 -1348.09074177223 484.468455543378
  endloop
endfacet
facet normal -0.382683432364942 -3.45329762098316e-014 0.923879532511348
  outer loop
    vertex 535.572577596583 -1353.09074177223 484.468455543378
    vertex 535.572577596583 -1348.09074177223 484.468455543378
    vertex 535.150510925513 -1353.09074177223 484.293629803995
  endloop
endfacet
facet normal -0.608761429008834 -5.49335480273253e-014 0.793353340291148
  outer loop
    vertex 535.572577596583 -1348.09074177223 484.468455543378
    vertex 535.572577596583 -1353.09074177223 484.468455543378
    vertex 535.935014463659 -1348.09074177223 484.746563132924
  endloop
endfacet
facet normal -0.608761429008834 -5.49335480273253e-014 0.793353340291148
  outer loop
    vertex 535.93501446366 -1353.09074177223 484.746563132924
    vertex 535.935014463659 -1348.09074177223 484.746563132924
    vertex 535.572577596583 -1353.09074177223 484.468455543378
  endloop
endfacet
facet normal -0.991444861373799 -8.94662963241145e-014 0.13052619222014
  outer loop
    vertex 536.447577596583 -1348.09074177223 485.984000000001
    vertex 536.387947792589 -1348.09074177223 485.531066671071
    vertex 536.447577596583 -1353.09074177223 485.984000000001
  endloop
endfacet
facet normal -0.991444861373799 -8.94662963241145e-014 0.13052619222014
  outer loop
    vertex 536.387947792589 -1353.09074177223 485.531066671071
    vertex 536.447577596583 -1353.09074177223 485.984000000001
    vertex 536.387947792589 -1348.09074177223 485.531066671071
  endloop
endfacet
facet normal 0.608761429008834 5.49335480273253e-014 0.793353340291148
  outer loop
    vertex 533.460140729506 -1348.09074177223 484.746563132924
    vertex 533.460140729507 -1353.09074177223 484.746563132924
    vertex 533.822577596583 -1348.09074177223 484.468455543378
  endloop
endfacet
facet normal 0.608761429008834 5.49335480273253e-014 0.793353340291148
  outer loop
    vertex 533.822577596583 -1353.09074177223 484.468455543378
    vertex 533.822577596583 -1348.09074177223 484.468455543378
    vertex 533.460140729507 -1353.09074177223 484.746563132924
  endloop
endfacet
facet normal 0.923879532511348 8.33699795149209e-014 0.382683432364942
  outer loop
    vertex 533.18203313996 -1348.09074177223 485.109000000001
    vertex 533.007207400577 -1348.09074177223 485.531066671071
    vertex 533.18203313996 -1353.09074177223 485.109000000001
  endloop
endfacet
facet normal 0.923879532511348 8.33699795149209e-014 0.382683432364942
  outer loop
    vertex 533.007207400578 -1353.09074177223 485.531066671071
    vertex 533.18203313996 -1353.09074177223 485.109000000001
    vertex 533.007207400577 -1348.09074177223 485.531066671071
  endloop
endfacet
facet normal 0.793353340291148 7.15875013967784e-014 0.608761429008834
  outer loop
    vertex 533.460140729506 -1348.09074177223 484.746563132924
    vertex 533.18203313996 -1348.09074177223 485.109000000001
    vertex 533.460140729507 -1353.09074177223 484.746563132924
  endloop
endfacet
facet normal 0.793353340291148 7.15875013967784e-014 0.608761429008834
  outer loop
    vertex 533.18203313996 -1353.09074177223 485.109000000001
    vertex 533.460140729507 -1353.09074177223 484.746563132924
    vertex 533.18203313996 -1348.09074177223 485.109000000001
  endloop
endfacet
facet normal 0.991444861373799 8.94669898238053e-014 0.13052619222014
  outer loop
    vertex 533.007207400577 -1348.09074177223 499.531066671071
    vertex 532.947577596583 -1348.09074177223 499.984
    vertex 533.007207400578 -1353.09074177223 499.531066671071
  endloop
endfacet
facet normal 0.991444861373799 8.94669898238053e-014 0.13052619222014
  outer loop
    vertex 532.947577596583 -1353.09074177223 499.984
    vertex 533.007207400578 -1353.09074177223 499.531066671071
    vertex 532.947577596583 -1348.09074177223 499.984
  endloop
endfacet
facet normal 0.382683432364942 3.45329762098316e-014 -0.923879532511348
  outer loop
    vertex 533.822577596583 -1348.09074177223 501.499544456623
    vertex 534.244644267653 -1348.09074177223 501.674370196006
    vertex 533.822577596583 -1353.09074177223 501.499544456623
  endloop
endfacet
facet normal 0.382683432364942 3.45329762098316e-014 -0.923879532511348
  outer loop
    vertex 534.244644267654 -1353.09074177223 501.674370196006
    vertex 533.822577596583 -1353.09074177223 501.499544456623
    vertex 534.244644267653 -1348.09074177223 501.674370196006
  endloop
endfacet
facet normal -0.608761429008834 -5.49335480273263e-014 0.793353340291148
  outer loop
    vertex 535.572577596583 -1348.09074177223 498.468455543378
    vertex 535.572577596583 -1353.09074177223 498.468455543378
    vertex 535.935014463659 -1348.09074177223 498.746563132924
  endloop
endfacet
facet normal -0.608761429008834 -5.49335480273263e-014 0.793353340291148
  outer loop
    vertex 535.93501446366 -1353.09074177223 498.746563132924
    vertex 535.935014463659 -1348.09074177223 498.746563132924
    vertex 535.572577596583 -1353.09074177223 498.468455543378
  endloop
endfacet
facet normal 0.382683432364942 3.45329762098316e-014 0.923879532511348
  outer loop
    vertex 533.822577596583 -1348.09074177223 484.468455543378
    vertex 533.822577596583 -1353.09074177223 484.468455543378
    vertex 534.244644267653 -1348.09074177223 484.293629803995
  endloop
endfacet
facet normal 0.382683432364942 3.45329762098316e-014 0.923879532511348
  outer loop
    vertex 534.244644267654 -1353.09074177223 484.293629803995
    vertex 534.244644267653 -1348.09074177223 484.293629803995
    vertex 533.822577596583 -1353.09074177223 484.468455543378
  endloop
endfacet
facet normal 0.923879532511348 8.33699795149214e-014 0.382683432364942
  outer loop
    vertex 533.18203313996 -1348.09074177223 499.109000000001
    vertex 533.007207400577 -1348.09074177223 499.531066671071
    vertex 533.18203313996 -1353.09074177223 499.109000000001
  endloop
endfacet
facet normal 0.923879532511348 8.33699795149214e-014 0.382683432364942
  outer loop
    vertex 533.007207400578 -1353.09074177223 499.531066671071
    vertex 533.18203313996 -1353.09074177223 499.109000000001
    vertex 533.007207400577 -1348.09074177223 499.531066671071
  endloop
endfacet
facet normal 0.793353340291148 7.15909079471989e-014 0.608761429008834
  outer loop
    vertex 533.460140729506 -1348.09074177223 498.746563132924
    vertex 533.18203313996 -1348.09074177223 499.109000000001
    vertex 533.460140729507 -1353.09074177223 498.746563132924
  endloop
endfacet
facet normal 0.793353340291148 7.15909079471989e-014 0.608761429008834
  outer loop
    vertex 533.18203313996 -1353.09074177223 499.109000000001
    vertex 533.460140729507 -1353.09074177223 498.746563132924
    vertex 533.18203313996 -1348.09074177223 499.109000000001
  endloop
endfacet
facet normal -0.382683432364942 -3.45329762098316e-014 0.923879532511348
  outer loop
    vertex 535.150510925512 -1348.09074177223 498.293629803995
    vertex 535.150510925513 -1353.09074177223 498.293629803995
    vertex 535.572577596583 -1348.09074177223 498.468455543378
  endloop
endfacet
facet normal -0.382683432364942 -3.45329762098316e-014 0.923879532511348
  outer loop
    vertex 535.572577596583 -1353.09074177223 498.468455543378
    vertex 535.572577596583 -1348.09074177223 498.468455543378
    vertex 535.150510925513 -1353.09074177223 498.293629803995
  endloop
endfacet
facet normal -0.793353340291148 -7.15909079471989e-014 0.608761429008834
  outer loop
    vertex 536.213122053206 -1348.09074177223 499.109000000001
    vertex 535.935014463659 -1348.09074177223 498.746563132924
    vertex 536.213122053206 -1353.09074177223 499.109000000001
  endloop
endfacet
facet normal -0.793353340291148 -7.15909079471989e-014 0.608761429008834
  outer loop
    vertex 535.93501446366 -1353.09074177223 498.746563132924
    vertex 536.213122053206 -1353.09074177223 499.109000000001
    vertex 535.935014463659 -1348.09074177223 498.746563132924
  endloop
endfacet
facet normal -0.991444861373799 -8.94662963241145e-014 -0.13052619222014
  outer loop
    vertex 536.387947792589 -1348.09074177223 500.43693332893
    vertex 536.447577596583 -1348.09074177223 499.984
    vertex 536.387947792589 -1353.09074177223 500.43693332893
  endloop
endfacet
facet normal -0.991444861373799 -8.94662963241145e-014 -0.13052619222014
  outer loop
    vertex 536.447577596583 -1353.09074177223 499.984
    vertex 536.387947792589 -1353.09074177223 500.43693332893
    vertex 536.447577596583 -1348.09074177223 499.984
  endloop
endfacet
facet normal -0.382683432364942 -3.45329762098316e-014 -0.923879532511348
  outer loop
    vertex 535.150510925512 -1348.09074177223 501.674370196006
    vertex 535.572577596583 -1348.09074177223 501.499544456623
    vertex 535.150510925513 -1353.09074177223 501.674370196006
  endloop
endfacet
facet normal -0.382683432364942 -3.45329762098316e-014 -0.923879532511348
  outer loop
    vertex 535.572577596583 -1353.09074177223 501.499544456623
    vertex 535.150510925513 -1353.09074177223 501.674370196006
    vertex 535.572577596583 -1348.09074177223 501.499544456623
  endloop
endfacet
facet normal -0.13052619222014 -1.17785550914561e-014 -0.991444861373799
  outer loop
    vertex 534.697577596583 -1348.09074177223 501.734
    vertex 535.150510925512 -1348.09074177223 501.674370196006
    vertex 534.697577596583 -1353.09074177223 501.734
  endloop
endfacet
facet normal -0.13052619222014 -1.17785550914561e-014 -0.991444861373799
  outer loop
    vertex 535.150510925513 -1353.09074177223 501.674370196006
    vertex 534.697577596583 -1353.09074177223 501.734
    vertex 535.150510925512 -1348.09074177223 501.674370196006
  endloop
endfacet
facet normal -0.13052619222014 -1.17785550914561e-014 0.991444861373799
  outer loop
    vertex 534.697577596583 -1348.09074177223 498.234000000001
    vertex 534.697577596583 -1353.09074177223 498.234000000001
    vertex 535.150510925512 -1348.09074177223 498.293629803995
  endloop
endfacet
facet normal -0.13052619222014 -1.17785550914561e-014 0.991444861373799
  outer loop
    vertex 535.150510925513 -1353.09074177223 498.293629803995
    vertex 535.150510925512 -1348.09074177223 498.293629803995
    vertex 534.697577596583 -1353.09074177223 498.234000000001
  endloop
endfacet
facet normal 0.382683432364942 3.45329762098316e-014 0.923879532511348
  outer loop
    vertex 533.822577596583 -1348.09074177223 498.468455543378
    vertex 533.822577596583 -1353.09074177223 498.468455543378
    vertex 534.244644267653 -1348.09074177223 498.293629803995
  endloop
endfacet
facet normal 0.382683432364942 3.45329762098316e-014 0.923879532511348
  outer loop
    vertex 534.244644267654 -1353.09074177223 498.293629803995
    vertex 534.244644267653 -1348.09074177223 498.293629803995
    vertex 533.822577596583 -1353.09074177223 498.468455543378
  endloop
endfacet
facet normal 0.13052619222014 1.17785550914561e-014 -0.991444861373799
  outer loop
    vertex 534.244644267653 -1348.09074177223 501.674370196006
    vertex 534.697577596583 -1348.09074177223 501.734
    vertex 534.244644267654 -1353.09074177223 501.674370196006
  endloop
endfacet
facet normal 0.13052619222014 1.17785550914561e-014 -0.991444861373799
  outer loop
    vertex 534.697577596583 -1353.09074177223 501.734
    vertex 534.244644267654 -1353.09074177223 501.674370196006
    vertex 534.697577596583 -1348.09074177223 501.734
  endloop
endfacet
facet normal -0.923879532511348 -8.33699795149202e-014 0.382683432364942
  outer loop
    vertex 536.387947792589 -1348.09074177223 499.531066671071
    vertex 536.213122053206 -1348.09074177223 499.109000000001
    vertex 536.387947792589 -1353.09074177223 499.531066671071
  endloop
endfacet
facet normal -0.923879532511348 -8.33699795149202e-014 0.382683432364942
  outer loop
    vertex 536.213122053206 -1353.09074177223 499.109000000001
    vertex 536.387947792589 -1353.09074177223 499.531066671071
    vertex 536.213122053206 -1348.09074177223 499.109000000001
  endloop
endfacet
facet normal -0.923879532511348 -8.33699795149202e-014 -0.382683432364942
  outer loop
    vertex 536.213122053206 -1348.09074177223 500.859
    vertex 536.387947792589 -1348.09074177223 500.43693332893
    vertex 536.213122053206 -1353.09074177223 500.859
  endloop
endfacet
facet normal -0.923879532511348 -8.33699795149202e-014 -0.382683432364942
  outer loop
    vertex 536.387947792589 -1353.09074177223 500.43693332893
    vertex 536.213122053206 -1353.09074177223 500.859
    vertex 536.387947792589 -1348.09074177223 500.43693332893
  endloop
endfacet
facet normal 0.793353340291148 7.15909079471989e-014 -0.608761429008834
  outer loop
    vertex 533.18203313996 -1348.09074177223 500.859
    vertex 533.460140729506 -1348.09074177223 501.221436867077
    vertex 533.18203313996 -1353.09074177223 500.859
  endloop
endfacet
facet normal 0.793353340291148 7.15909079471989e-014 -0.608761429008834
  outer loop
    vertex 533.460140729507 -1353.09074177223 501.221436867077
    vertex 533.18203313996 -1353.09074177223 500.859
    vertex 533.460140729506 -1348.09074177223 501.221436867077
  endloop
endfacet
facet normal 0.13052619222014 1.1778555091456e-014 0.991444861373799
  outer loop
    vertex 534.244644267653 -1348.09074177223 498.293629803995
    vertex 534.244644267654 -1353.09074177223 498.293629803995
    vertex 534.697577596583 -1348.09074177223 498.234000000001
  endloop
endfacet
facet normal 0.13052619222014 1.1778555091456e-014 0.991444861373799
  outer loop
    vertex 534.697577596583 -1353.09074177223 498.234000000001
    vertex 534.697577596583 -1348.09074177223 498.234000000001
    vertex 534.244644267654 -1353.09074177223 498.293629803995
  endloop
endfacet
facet normal 0.991444861373799 8.94662963241145e-014 -0.13052619222014
  outer loop
    vertex 532.947577596583 -1348.09074177223 499.984
    vertex 533.007207400577 -1348.09074177223 500.43693332893
    vertex 532.947577596583 -1353.09074177223 499.984
  endloop
endfacet
facet normal 0.991444861373799 8.94662963241145e-014 -0.13052619222014
  outer loop
    vertex 533.007207400578 -1353.09074177223 500.43693332893
    vertex 532.947577596583 -1353.09074177223 499.984
    vertex 533.007207400577 -1348.09074177223 500.43693332893
  endloop
endfacet
facet normal 0.923879532511348 8.33699795149214e-014 -0.382683432364942
  outer loop
    vertex 533.007207400577 -1348.09074177223 500.43693332893
    vertex 533.18203313996 -1348.09074177223 500.859
    vertex 533.007207400578 -1353.09074177223 500.43693332893
  endloop
endfacet
facet normal 0.923879532511348 8.33699795149214e-014 -0.382683432364942
  outer loop
    vertex 533.18203313996 -1353.09074177223 500.859
    vertex 533.007207400578 -1353.09074177223 500.43693332893
    vertex 533.18203313996 -1348.09074177223 500.859
  endloop
endfacet
facet normal 0.608761429008834 5.49335480273253e-014 -0.793353340291148
  outer loop
    vertex 533.460140729506 -1348.09074177223 501.221436867077
    vertex 533.822577596583 -1348.09074177223 501.499544456623
    vertex 533.460140729507 -1353.09074177223 501.221436867077
  endloop
endfacet
facet normal 0.608761429008834 5.49335480273253e-014 -0.793353340291148
  outer loop
    vertex 533.822577596583 -1353.09074177223 501.499544456623
    vertex 533.460140729507 -1353.09074177223 501.221436867077
    vertex 533.822577596583 -1348.09074177223 501.499544456623
  endloop
endfacet
facet normal 0.608761429008834 5.49335480273253e-014 0.793353340291148
  outer loop
    vertex 533.460140729506 -1348.09074177223 498.746563132924
    vertex 533.460140729507 -1353.09074177223 498.746563132924
    vertex 533.822577596583 -1348.09074177223 498.468455543378
  endloop
endfacet
facet normal 0.608761429008834 5.49335480273253e-014 0.793353340291148
  outer loop
    vertex 533.822577596583 -1353.09074177223 498.468455543378
    vertex 533.822577596583 -1348.09074177223 498.468455543378
    vertex 533.460140729507 -1353.09074177223 498.746563132924
  endloop
endfacet
facet normal -0.991444861373799 -8.94669898238053e-014 0.13052619222014
  outer loop
    vertex 536.447577596583 -1348.09074177223 499.984
    vertex 536.387947792589 -1348.09074177223 499.531066671071
    vertex 536.447577596583 -1353.09074177223 499.984
  endloop
endfacet
facet normal -0.991444861373799 -8.94669898238053e-014 0.13052619222014
  outer loop
    vertex 536.387947792589 -1353.09074177223 499.531066671071
    vertex 536.447577596583 -1353.09074177223 499.984
    vertex 536.387947792589 -1348.09074177223 499.531066671071
  endloop
endfacet
facet normal -0.793353340291148 -7.15909079471989e-014 -0.608761429008834
  outer loop
    vertex 535.935014463659 -1348.09074177223 501.221436867077
    vertex 536.213122053206 -1348.09074177223 500.859
    vertex 535.93501446366 -1353.09074177223 501.221436867077
  endloop
endfacet
facet normal -0.793353340291148 -7.15909079471989e-014 -0.608761429008834
  outer loop
    vertex 536.213122053206 -1353.09074177223 500.859
    vertex 535.93501446366 -1353.09074177223 501.221436867077
    vertex 536.213122053206 -1348.09074177223 500.859
  endloop
endfacet
facet normal -0.608761429008834 -5.49335480273253e-014 -0.793353340291148
  outer loop
    vertex 535.572577596583 -1348.09074177223 501.499544456623
    vertex 535.935014463659 -1348.09074177223 501.221436867077
    vertex 535.572577596583 -1353.09074177223 501.499544456623
  endloop
endfacet
facet normal -0.608761429008834 -5.49335480273253e-014 -0.793353340291148
  outer loop
    vertex 535.93501446366 -1353.09074177223 501.221436867077
    vertex 535.572577596583 -1353.09074177223 501.499544456623
    vertex 535.935014463659 -1348.09074177223 501.221436867077
  endloop
endfacet
facet normal 5.70648446333554e-014 -1.0 -4.00761802688189e-014
  outer loop
    vertex 529.697577596584 -1353.09074177223 469.584
    vertex 529.697577596583 -1353.09074177223 480.584
    vertex 500.697577596584 -1353.09074177223 469.584
  endloop
endfacet
facet normal 5.70648446333554e-014 -1.0 -4.00761802688189e-014
  outer loop
    vertex 517.697577596584 -1353.09074177223 477.584
    vertex 500.697577596584 -1353.09074177223 469.584
    vertex 529.697577596583 -1353.09074177223 480.584
  endloop
endfacet
facet normal 5.70648446333554e-014 -1.0 -4.00761802688189e-014
  outer loop
    vertex 500.697577596584 -1353.09074177223 477.584
    vertex 500.697577596584 -1353.09074177223 469.584
    vertex 517.697577596584 -1353.09074177223 477.584
  endloop
endfacet
facet normal 5.70648446333554e-014 -1.0 -4.00761802688189e-014
  outer loop
    vertex 517.697577596584 -1353.09074177223 487.584
    vertex 517.697577596584 -1353.09074177223 477.584
    vertex 529.697577596583 -1353.09074177223 480.584
  endloop
endfacet
facet normal 5.70648446333554e-014 -1.0 -4.00761802688189e-014
  outer loop
    vertex 541.697577596584 -1353.09074177223 480.584
    vertex 517.697577596584 -1353.09074177223 487.584
    vertex 529.697577596583 -1353.09074177223 480.584
  endloop
endfacet
facet normal 5.70648446333554e-014 -1.0 -4.00761802688189e-014
  outer loop
    vertex 534.244644267654 -1353.09074177223 484.293629803995
    vertex 517.697577596584 -1353.09074177223 487.584
    vertex 541.697577596584 -1353.09074177223 480.584
  endloop
endfacet
facet normal 5.70648446333554e-014 -1.0 -4.00761802688189e-014
  outer loop
    vertex 534.697577596583 -1353.09074177223 484.234000000001
    vertex 534.244644267654 -1353.09074177223 484.293629803995
    vertex 541.697577596584 -1353.09074177223 480.584
  endloop
endfacet
facet normal 5.70648446333554e-014 -1.0 -4.00761802688189e-014
  outer loop
    vertex 533.822577596583 -1353.09074177223 484.468455543378
    vertex 517.697577596584 -1353.09074177223 487.584
    vertex 534.244644267654 -1353.09074177223 484.293629803995
  endloop
endfacet
facet normal 5.70648446333554e-014 -1.0 -4.00761802688189e-014
  outer loop
    vertex 533.460140729507 -1353.09074177223 484.746563132924
    vertex 517.697577596584 -1353.09074177223 487.584
    vertex 533.822577596583 -1353.09074177223 484.468455543378
  endloop
endfacet
facet normal 5.70648446333554e-014 -1.0 -4.00761802688189e-014
  outer loop
    vertex 533.18203313996 -1353.09074177223 485.109000000001
    vertex 517.697577596584 -1353.09074177223 487.584
    vertex 533.460140729507 -1353.09074177223 484.746563132924
  endloop
endfacet
facet normal 5.70648446333554e-014 -1.0 -4.00761802688189e-014
  outer loop
    vertex 533.007207400578 -1353.09074177223 485.531066671071
    vertex 517.697577596584 -1353.09074177223 487.584
    vertex 533.18203313996 -1353.09074177223 485.109000000001
  endloop
endfacet
facet normal 5.70648446333554e-014 -1.0 -4.00761802688189e-014
  outer loop
    vertex 532.947577596583 -1353.09074177223 485.984000000001
    vertex 517.697577596584 -1353.09074177223 487.584
    vertex 533.007207400578 -1353.09074177223 485.531066671071
  endloop
endfacet
facet normal 5.70648446333554e-014 -1.0 -4.00761802688189e-014
  outer loop
    vertex 533.007207400578 -1353.09074177223 486.43693332893
    vertex 517.697577596584 -1353.09074177223 487.584
    vertex 532.947577596583 -1353.09074177223 485.984000000001
  endloop
endfacet
facet normal 5.70648446333554e-014 -1.0 -4.00761802688189e-014
  outer loop
    vertex 533.18203313996 -1353.09074177223 486.859
    vertex 517.697577596584 -1353.09074177223 487.584
    vertex 533.007207400578 -1353.09074177223 486.43693332893
  endloop
endfacet
facet normal 5.70648446333554e-014 -1.0 -4.00761802688189e-014
  outer loop
    vertex 533.460140729507 -1353.09074177223 487.221436867077
    vertex 517.697577596584 -1353.09074177223 487.584
    vertex 533.18203313996 -1353.09074177223 486.859
  endloop
endfacet
facet normal 5.70648446333554e-014 -1.0 -4.00761802688189e-014
  outer loop
    vertex 533.822577596583 -1353.09074177223 487.499544456623
    vertex 517.697577596584 -1353.09074177223 487.584
    vertex 533.460140729507 -1353.09074177223 487.221436867077
  endloop
endfacet
facet normal 5.70648446333554e-014 -1.0 -4.00761802688189e-014
  outer loop
    vertex 522.697577596584 -1353.09074177223 487.584
    vertex 517.697577596584 -1353.09074177223 487.584
    vertex 533.822577596583 -1353.09074177223 487.499544456623
  endloop
endfacet
facet normal 5.70648446333554e-014 -1.0 -4.00761802688189e-014
  outer loop
    vertex 534.244644267654 -1353.09074177223 487.674370196006
    vertex 522.697577596584 -1353.09074177223 487.584
    vertex 533.822577596583 -1353.09074177223 487.499544456623
  endloop
endfacet
facet normal 5.70648446333554e-014 -1.0 -4.00761802688189e-014
  outer loop
    vertex 527.697577596584 -1353.09074177223 492.584
    vertex 522.697577596584 -1353.09074177223 487.584
    vertex 534.244644267654 -1353.09074177223 487.674370196006
  endloop
endfacet
facet normal 5.70648446333554e-014 -1.0 -4.00761802688189e-014
  outer loop
    vertex 534.697577596583 -1353.09074177223 487.734
    vertex 527.697577596584 -1353.09074177223 492.584
    vertex 534.244644267654 -1353.09074177223 487.674370196006
  endloop
endfacet
facet normal 5.70648446333554e-014 -1.0 -4.00761802688189e-014
  outer loop
    vertex 534.697577596583 -1353.09074177223 498.234000000001
    vertex 534.244644267654 -1353.09074177223 498.293629803995
    vertex 527.697577596584 -1353.09074177223 492.584
  endloop
endfacet
facet normal 5.70648446333554e-014 -1.0 -4.00761802688189e-014
  outer loop
    vertex 533.822577596583 -1353.09074177223 498.468455543378
    vertex 527.697577596584 -1353.09074177223 492.584
    vertex 534.244644267654 -1353.09074177223 498.293629803995
  endloop
endfacet
facet normal 5.70648446333554e-014 -1.0 -4.00761802688189e-014
  outer loop
    vertex 533.460140729507 -1353.09074177223 498.746563132924
    vertex 527.697577596584 -1353.09074177223 492.584
    vertex 533.822577596583 -1353.09074177223 498.468455543378
  endloop
endfacet
facet normal 5.70648446333554e-014 -1.0 -4.00761802688189e-014
  outer loop
    vertex 533.18203313996 -1353.09074177223 499.109000000001
    vertex 527.697577596584 -1353.09074177223 492.584
    vertex 533.460140729507 -1353.09074177223 498.746563132924
  endloop
endfacet
facet normal 5.70648446333554e-014 -1.0 -4.00761802688189e-014
  outer loop
    vertex 527.69757759658 -1353.09074177223 506.984000000001
    vertex 527.697577596584 -1353.09074177223 492.584
    vertex 533.18203313996 -1353.09074177223 499.109000000001
  endloop
endfacet
facet normal 5.70648446333554e-014 -1.0 -4.00761802688189e-014
  outer loop
    vertex 533.007207400578 -1353.09074177223 499.531066671071
    vertex 527.69757759658 -1353.09074177223 506.984000000001
    vertex 533.18203313996 -1353.09074177223 499.109000000001
  endloop
endfacet
facet normal 5.70648446333554e-014 -1.0 -4.00761802688189e-014
  outer loop
    vertex 532.947577596583 -1353.09074177223 499.984
    vertex 527.69757759658 -1353.09074177223 506.984000000001
    vertex 533.007207400578 -1353.09074177223 499.531066671071
  endloop
endfacet
facet normal 5.70648446333554e-014 -1.0 -4.00761802688189e-014
  outer loop
    vertex 533.007207400578 -1353.09074177223 500.43693332893
    vertex 527.69757759658 -1353.09074177223 506.984000000001
    vertex 532.947577596583 -1353.09074177223 499.984
  endloop
endfacet
facet normal 5.70648446333554e-014 -1.0 -4.00761802688189e-014
  outer loop
    vertex 533.18203313996 -1353.09074177223 500.859
    vertex 527.69757759658 -1353.09074177223 506.984000000001
    vertex 533.007207400578 -1353.09074177223 500.43693332893
  endloop
endfacet
facet normal 5.70648446333554e-014 -1.0 -4.00761802688189e-014
  outer loop
    vertex 533.460140729507 -1353.09074177223 501.221436867077
    vertex 527.69757759658 -1353.09074177223 506.984000000001
    vertex 533.18203313996 -1353.09074177223 500.859
  endloop
endfacet
facet normal 5.70648446333554e-014 -1.0 -4.00761802688189e-014
  outer loop
    vertex 533.822577596583 -1353.09074177223 501.499544456623
    vertex 527.69757759658 -1353.09074177223 506.984000000001
    vertex 533.460140729507 -1353.09074177223 501.221436867077
  endloop
endfacet
facet normal 5.70648446333554e-014 -1.0 -4.00761802688189e-014
  outer loop
    vertex 534.244644267654 -1353.09074177223 501.674370196006
    vertex 527.69757759658 -1353.09074177223 506.984000000001
    vertex 533.822577596583 -1353.09074177223 501.499544456623
  endloop
endfacet
facet normal 5.70648446333554e-014 -1.0 -4.00761802688189e-014
  outer loop
    vertex 534.697577596583 -1353.09074177223 501.734
    vertex 527.69757759658 -1353.09074177223 506.984000000001
    vertex 534.244644267654 -1353.09074177223 501.674370196006
  endloop
endfacet
facet normal 5.70648446333554e-014 -1.0 -4.00761802688189e-014
  outer loop
    vertex 541.69757759658 -1353.09074177223 506.984000000001
    vertex 536.387947792589 -1353.09074177223 485.531066671071
    vertex 541.697577596584 -1353.09074177223 480.584
  endloop
endfacet
facet normal 5.70648446333554e-014 -1.0 -4.00761802688189e-014
  outer loop
    vertex 536.213122053206 -1353.09074177223 485.109000000001
    vertex 541.697577596584 -1353.09074177223 480.584
    vertex 536.387947792589 -1353.09074177223 485.531066671071
  endloop
endfacet
facet normal 5.70648446333554e-014 -1.0 -4.00761802688189e-014
  outer loop
    vertex 535.93501446366 -1353.09074177223 484.746563132924
    vertex 541.697577596584 -1353.09074177223 480.584
    vertex 536.213122053206 -1353.09074177223 485.109000000001
  endloop
endfacet
facet normal 5.70648446333554e-014 -1.0 -4.00761802688189e-014
  outer loop
    vertex 535.572577596583 -1353.09074177223 484.468455543378
    vertex 541.697577596584 -1353.09074177223 480.584
    vertex 535.93501446366 -1353.09074177223 484.746563132924
  endloop
endfacet
facet normal 5.70648446333554e-014 -1.0 -4.00761802688189e-014
  outer loop
    vertex 535.150510925513 -1353.09074177223 484.293629803995
    vertex 541.697577596584 -1353.09074177223 480.584
    vertex 535.572577596583 -1353.09074177223 484.468455543378
  endloop
endfacet
facet normal 5.70648446333554e-014 -1.0 -4.00761802688189e-014
  outer loop
    vertex 534.697577596583 -1353.09074177223 484.234000000001
    vertex 541.697577596584 -1353.09074177223 480.584
    vertex 535.150510925513 -1353.09074177223 484.293629803995
  endloop
endfacet
facet normal 5.70648446333554e-014 -1.0 -4.00761802688189e-014
  outer loop
    vertex 536.447577596583 -1353.09074177223 485.984000000001
    vertex 536.387947792589 -1353.09074177223 485.531066671071
    vertex 541.69757759658 -1353.09074177223 506.984000000001
  endloop
endfacet
facet normal 5.70648446333554e-014 -1.0 -4.00761802688189e-014
  outer loop
    vertex 536.387947792589 -1353.09074177223 486.43693332893
    vertex 536.447577596583 -1353.09074177223 485.984000000001
    vertex 541.69757759658 -1353.09074177223 506.984000000001
  endloop
endfacet
facet normal 5.70648446333554e-014 -1.0 -4.00761802688189e-014
  outer loop
    vertex 536.213122053206 -1353.09074177223 486.859
    vertex 536.387947792589 -1353.09074177223 486.43693332893
    vertex 541.69757759658 -1353.09074177223 506.984000000001
  endloop
endfacet
facet normal 5.70648446333554e-014 -1.0 -4.00761802688189e-014
  outer loop
    vertex 535.93501446366 -1353.09074177223 487.221436867077
    vertex 536.213122053206 -1353.09074177223 486.859
    vertex 541.69757759658 -1353.09074177223 506.984000000001
  endloop
endfacet
facet normal 5.70648446333554e-014 -1.0 -4.00761802688189e-014
  outer loop
    vertex 535.572577596583 -1353.09074177223 487.499544456623
    vertex 535.93501446366 -1353.09074177223 487.221436867077
    vertex 541.69757759658 -1353.09074177223 506.984000000001
  endloop
endfacet
facet normal 5.70648446333554e-014 -1.0 -4.00761802688189e-014
  outer loop
    vertex 535.150510925513 -1353.09074177223 487.674370196006
    vertex 535.572577596583 -1353.09074177223 487.499544456623
    vertex 541.69757759658 -1353.09074177223 506.984000000001
  endloop
endfacet
facet normal 5.70648446333554e-014 -1.0 -4.00761802688189e-014
  outer loop
    vertex 534.697577596583 -1353.09074177223 487.734
    vertex 535.150510925513 -1353.09074177223 487.674370196006
    vertex 541.69757759658 -1353.09074177223 506.984000000001
  endloop
endfacet
facet normal 5.70648446333554e-014 -1.0 -4.00761802688189e-014
  outer loop
    vertex 536.213122053206 -1353.09074177223 499.109000000001
    vertex 534.697577596583 -1353.09074177223 487.734
    vertex 541.69757759658 -1353.09074177223 506.984000000001
  endloop
endfacet
facet normal 5.70648446333554e-014 -1.0 -4.00761802688189e-014
  outer loop
    vertex 535.93501446366 -1353.09074177223 498.746563132924
    vertex 534.697577596583 -1353.09074177223 487.734
    vertex 536.213122053206 -1353.09074177223 499.109000000001
  endloop
endfacet
facet normal 5.70648446333554e-014 -1.0 -4.00761802688189e-014
  outer loop
    vertex 535.572577596583 -1353.09074177223 498.468455543378
    vertex 534.697577596583 -1353.09074177223 487.734
    vertex 535.93501446366 -1353.09074177223 498.746563132924
  endloop
endfacet
facet normal 5.70648446333554e-014 -1.0 -4.00761802688189e-014
  outer loop
    vertex 527.697577596584 -1353.09074177223 492.584
    vertex 534.697577596583 -1353.09074177223 487.734
    vertex 535.572577596583 -1353.09074177223 498.468455543378
  endloop
endfacet
facet normal 5.70648446333554e-014 -1.0 -4.00761802688189e-014
  outer loop
    vertex 535.150510925513 -1353.09074177223 498.293629803995
    vertex 527.697577596584 -1353.09074177223 492.584
    vertex 535.572577596583 -1353.09074177223 498.468455543378
  endloop
endfacet
facet normal 5.70648446333554e-014 -1.0 -4.00761802688189e-014
  outer loop
    vertex 534.697577596583 -1353.09074177223 498.234000000001
    vertex 527.697577596584 -1353.09074177223 492.584
    vertex 535.150510925513 -1353.09074177223 498.293629803995
  endloop
endfacet
facet normal 5.70648446333554e-014 -1.0 -4.00761802688189e-014
  outer loop
    vertex 536.387947792589 -1353.09074177223 499.531066671071
    vertex 536.213122053206 -1353.09074177223 499.109000000001
    vertex 541.69757759658 -1353.09074177223 506.984000000001
  endloop
endfacet
facet normal 5.70648446333554e-014 -1.0 -4.00761802688189e-014
  outer loop
    vertex 536.447577596583 -1353.09074177223 499.984
    vertex 536.387947792589 -1353.09074177223 499.531066671071
    vertex 541.69757759658 -1353.09074177223 506.984000000001
  endloop
endfacet
facet normal 5.70648446333554e-014 -1.0 -4.00761802688189e-014
  outer loop
    vertex 536.387947792589 -1353.09074177223 500.43693332893
    vertex 536.447577596583 -1353.09074177223 499.984
    vertex 541.69757759658 -1353.09074177223 506.984000000001
  endloop
endfacet
facet normal 5.70648446333554e-014 -1.0 -4.00761802688189e-014
  outer loop
    vertex 536.213122053206 -1353.09074177223 500.859
    vertex 536.387947792589 -1353.09074177223 500.43693332893
    vertex 541.69757759658 -1353.09074177223 506.984000000001
  endloop
endfacet
facet normal 5.70648446333554e-014 -1.0 -4.00761802688189e-014
  outer loop
    vertex 535.93501446366 -1353.09074177223 501.221436867077
    vertex 536.213122053206 -1353.09074177223 500.859
    vertex 541.69757759658 -1353.09074177223 506.984000000001
  endloop
endfacet
facet normal 5.70648446333554e-014 -1.0 -4.00761802688189e-014
  outer loop
    vertex 535.572577596583 -1353.09074177223 501.499544456623
    vertex 535.93501446366 -1353.09074177223 501.221436867077
    vertex 541.69757759658 -1353.09074177223 506.984000000001
  endloop
endfacet
facet normal 5.70648446333554e-014 -1.0 -4.00761802688189e-014
  outer loop
    vertex 535.150510925513 -1353.09074177223 501.674370196006
    vertex 535.572577596583 -1353.09074177223 501.499544456623
    vertex 541.69757759658 -1353.09074177223 506.984000000001
  endloop
endfacet
facet normal 5.70648446333554e-014 -1.0 -4.00761802688189e-014
  outer loop
    vertex 534.697577596583 -1353.09074177223 501.734
    vertex 535.150510925513 -1353.09074177223 501.674370196006
    vertex 541.69757759658 -1353.09074177223 506.984000000001
  endloop
endfacet
facet normal 5.70648446333554e-014 -1.0 -4.00761802688189e-014
  outer loop
    vertex 527.69757759658 -1353.09074177223 506.984000000001
    vertex 534.697577596583 -1353.09074177223 501.734
    vertex 541.69757759658 -1353.09074177223 506.984000000001
  endloop
endfacet
facet normal -1.0 0.0 0.0
  outer loop
    vertex 500.697577596584 -1341.09074177223 477.584
    vertex 500.697577596584 -1341.09074177223 469.584
    vertex 500.697577596584 -1353.09074177223 477.584
  endloop
endfacet
facet normal -1.0 0.0 0.0
  outer loop
    vertex 500.697577596584 -1353.09074177223 469.584
    vertex 500.697577596584 -1353.09074177223 477.584
    vertex 500.697577596584 -1341.09074177223 469.584
  endloop
endfacet
facet normal 1.20576625836087e-014 1.0 1.05141656477451e-014
  outer loop
    vertex 500.697577596584 -1341.09074177223 469.584
    vertex 517.697577596584 -1341.09074177223 477.584
    vertex 529.697577596584 -1341.09074177223 469.584
  endloop
endfacet
facet normal 1.20576625836087e-014 1.0 1.05141656477451e-014
  outer loop
    vertex 529.697577596584 -1341.09074177223 485.584
    vertex 529.697577596584 -1341.09074177223 469.584
    vertex 517.697577596584 -1341.09074177223 477.584
  endloop
endfacet
facet normal 1.20576625836087e-014 1.0 1.05141656477451e-014
  outer loop
    vertex 517.697577596584 -1341.09074177223 485.584
    vertex 529.697577596584 -1341.09074177223 485.584
    vertex 517.697577596584 -1341.09074177223 477.584
  endloop
endfacet
facet normal 1.20576625836087e-014 1.0 1.05141656477451e-014
  outer loop
    vertex 517.697577596584 -1341.09074177223 477.584
    vertex 500.697577596584 -1341.09074177223 469.584
    vertex 500.697577596584 -1341.09074177223 477.584
  endloop
endfacet
facet normal 0.991444861373802 0.130526192220114 3.32150981341224e-029
  outer loop
    vertex 505.947577596584 -1347.09074177223 469.584
    vertex 505.947577596584 -1347.09074177223 477.584
    vertex 506.007207400578 -1347.54367510116 469.584
  endloop
endfacet
facet normal 0.991444861373802 0.130526192220114 3.32150981341224e-029
  outer loop
    vertex 506.007207400578 -1347.54367510116 477.584
    vertex 506.007207400578 -1347.54367510116 469.584
    vertex 505.947577596584 -1347.09074177223 477.584
  endloop
endfacet
facet normal 0.991444861373802 -0.130526192220114 -3.32150981341224e-029
  outer loop
    vertex 506.007207400578 -1346.6378084433 469.584
    vertex 506.007207400578 -1346.6378084433 477.584
    vertex 505.947577596584 -1347.09074177223 469.584
  endloop
endfacet
facet normal 0.991444861373802 -0.130526192220114 -3.32150981341224e-029
  outer loop
    vertex 505.947577596584 -1347.09074177223 477.584
    vertex 505.947577596584 -1347.09074177223 469.584
    vertex 506.007207400578 -1346.6378084433 477.584
  endloop
endfacet
facet normal 0.923879532511319 -0.382683432365012 0.0
  outer loop
    vertex 506.182033139961 -1346.21574177223 469.584
    vertex 506.182033139961 -1346.21574177223 477.584
    vertex 506.007207400578 -1346.6378084433 469.584
  endloop
endfacet
facet normal 0.923879532511319 -0.382683432365012 0.0
  outer loop
    vertex 506.007207400578 -1346.6378084433 477.584
    vertex 506.007207400578 -1346.6378084433 469.584
    vertex 506.182033139961 -1346.21574177223 477.584
  endloop
endfacet
facet normal 0.793353340291221 -0.608761429008739 8.67090418227404e-019
  outer loop
    vertex 506.460140729507 -1345.85330490515 469.584
    vertex 506.460140729507 -1345.85330490515 477.584
    vertex 506.182033139961 -1346.21574177223 469.584
  endloop
endfacet
facet normal 0.793353340291221 -0.608761429008739 8.67090418227404e-019
  outer loop
    vertex 506.182033139961 -1346.21574177223 477.584
    vertex 506.182033139961 -1346.21574177223 469.584
    vertex 506.460140729507 -1345.85330490515 477.584
  endloop
endfacet
facet normal 0.60876142900871 -0.793353340291243 7.74559889508405e-029
  outer loop
    vertex 506.460140729507 -1345.85330490515 469.584
    vertex 506.822577596584 -1345.57519731561 469.584
    vertex 506.460140729507 -1345.85330490515 477.584
  endloop
endfacet
facet normal 0.60876142900871 -0.793353340291243 7.74559889508405e-029
  outer loop
    vertex 506.822577596584 -1345.57519731561 477.584
    vertex 506.460140729507 -1345.85330490515 477.584
    vertex 506.822577596584 -1345.57519731561 469.584
  endloop
endfacet
facet normal 0.382683432364942 -0.923879532511348 4.86908701774938e-029
  outer loop
    vertex 506.822577596584 -1345.57519731561 469.584
    vertex 507.244644267655 -1345.40037157622 469.584
    vertex 506.822577596584 -1345.57519731561 477.584
  endloop
endfacet
facet normal 0.382683432364942 -0.923879532511348 4.86908701774938e-029
  outer loop
    vertex 507.244644267655 -1345.40037157622 477.584
    vertex 506.822577596584 -1345.57519731561 477.584
    vertex 507.244644267655 -1345.40037157622 469.584
  endloop
endfacet
facet normal 0.13052619222014 -0.991444861373799 -2.70898317493599e-019
  outer loop
    vertex 507.244644267655 -1345.40037157622 469.584
    vertex 507.697577596584 -1345.34074177223 469.584
    vertex 507.244644267655 -1345.40037157622 477.584
  endloop
endfacet
facet normal 0.13052619222014 -0.991444861373799 -2.70898317493599e-019
  outer loop
    vertex 507.697577596584 -1345.34074177223 477.584
    vertex 507.244644267655 -1345.40037157622 477.584
    vertex 507.697577596584 -1345.34074177223 469.584
  endloop
endfacet
facet normal -0.13052619222014 -0.991444861373799 -2.70898317493599e-019
  outer loop
    vertex 507.697577596584 -1345.34074177223 469.584
    vertex 508.150510925513 -1345.40037157622 469.584
    vertex 507.697577596584 -1345.34074177223 477.584
  endloop
endfacet
facet normal -0.13052619222014 -0.991444861373799 -2.70898317493599e-019
  outer loop
    vertex 508.150510925513 -1345.40037157622 477.584
    vertex 507.697577596584 -1345.34074177223 477.584
    vertex 508.150510925513 -1345.40037157622 469.584
  endloop
endfacet
facet normal -0.382683432364942 -0.923879532511348 4.86908701774938e-029
  outer loop
    vertex 508.150510925513 -1345.40037157622 469.584
    vertex 508.572577596584 -1345.57519731561 469.584
    vertex 508.150510925513 -1345.40037157622 477.584
  endloop
endfacet
facet normal -0.382683432364942 -0.923879532511348 4.86908701774938e-029
  outer loop
    vertex 508.572577596584 -1345.57519731561 477.584
    vertex 508.150510925513 -1345.40037157622 477.584
    vertex 508.572577596584 -1345.57519731561 469.584
  endloop
endfacet
facet normal -0.60876142900871 -0.793353340291243 7.74559889508405e-029
  outer loop
    vertex 508.572577596584 -1345.57519731561 469.584
    vertex 508.93501446366 -1345.85330490515 469.584
    vertex 508.572577596584 -1345.57519731561 477.584
  endloop
endfacet
facet normal -0.60876142900871 -0.793353340291243 7.74559889508405e-029
  outer loop
    vertex 508.93501446366 -1345.85330490515 477.584
    vertex 508.572577596584 -1345.57519731561 477.584
    vertex 508.93501446366 -1345.85330490515 469.584
  endloop
endfacet
facet normal -0.793353340291221 -0.608761429008739 8.67090418227404e-019
  outer loop
    vertex 508.93501446366 -1345.85330490515 477.584
    vertex 508.93501446366 -1345.85330490515 469.584
    vertex 509.213122053207 -1346.21574177223 477.584
  endloop
endfacet
facet normal -0.793353340291221 -0.608761429008739 8.67090418227404e-019
  outer loop
    vertex 509.213122053207 -1346.21574177223 469.584
    vertex 509.213122053207 -1346.21574177223 477.584
    vertex 508.93501446366 -1345.85330490515 469.584
  endloop
endfacet
facet normal -0.923879532511319 -0.382683432365012 0.0
  outer loop
    vertex 509.213122053207 -1346.21574177223 477.584
    vertex 509.213122053207 -1346.21574177223 469.584
    vertex 509.38794779259 -1346.6378084433 477.584
  endloop
endfacet
facet normal -0.923879532511319 -0.382683432365012 0.0
  outer loop
    vertex 509.38794779259 -1346.6378084433 469.584
    vertex 509.38794779259 -1346.6378084433 477.584
    vertex 509.213122053207 -1346.21574177223 469.584
  endloop
endfacet
facet normal -0.991444861373802 -0.130526192220114 3.32150981341224e-029
  outer loop
    vertex 509.38794779259 -1346.6378084433 477.584
    vertex 509.38794779259 -1346.6378084433 469.584
    vertex 509.447577596584 -1347.09074177223 477.584
  endloop
endfacet
facet normal -0.991444861373802 -0.130526192220114 3.32150981341224e-029
  outer loop
    vertex 509.447577596584 -1347.09074177223 469.584
    vertex 509.447577596584 -1347.09074177223 477.584
    vertex 509.38794779259 -1346.6378084433 469.584
  endloop
endfacet
facet normal -0.991444861373802 0.130526192220114 3.32150981341224e-029
  outer loop
    vertex 509.447577596584 -1347.09074177223 477.584
    vertex 509.447577596584 -1347.09074177223 469.584
    vertex 509.38794779259 -1347.54367510116 477.584
  endloop
endfacet
facet normal -0.991444861373802 0.130526192220114 3.32150981341224e-029
  outer loop
    vertex 509.38794779259 -1347.54367510116 469.584
    vertex 509.38794779259 -1347.54367510116 477.584
    vertex 509.447577596584 -1347.09074177223 469.584
  endloop
endfacet
facet normal -0.923879532511319 0.382683432365012 0.0
  outer loop
    vertex 509.38794779259 -1347.54367510116 477.584
    vertex 509.38794779259 -1347.54367510116 469.584
    vertex 509.213122053207 -1347.96574177223 477.584
  endloop
endfacet
facet normal -0.923879532511319 0.382683432365012 0.0
  outer loop
    vertex 509.213122053207 -1347.96574177223 469.584
    vertex 509.213122053207 -1347.96574177223 477.584
    vertex 509.38794779259 -1347.54367510116 469.584
  endloop
endfacet
facet normal -0.793353340291221 0.608761429008739 8.67090418227404e-019
  outer loop
    vertex 509.213122053207 -1347.96574177223 477.584
    vertex 509.213122053207 -1347.96574177223 469.584
    vertex 508.93501446366 -1348.32817863931 477.584
  endloop
endfacet
facet normal -0.793353340291221 0.608761429008739 8.67090418227404e-019
  outer loop
    vertex 508.93501446366 -1348.32817863931 469.584
    vertex 508.93501446366 -1348.32817863931 477.584
    vertex 509.213122053207 -1347.96574177223 469.584
  endloop
endfacet
facet normal -0.60876142900871 0.793353340291243 7.74559889508405e-029
  outer loop
    vertex 508.93501446366 -1348.32817863931 469.584
    vertex 508.572577596584 -1348.60628622885 469.584
    vertex 508.93501446366 -1348.32817863931 477.584
  endloop
endfacet
facet normal -0.60876142900871 0.793353340291243 7.74559889508405e-029
  outer loop
    vertex 508.572577596584 -1348.60628622885 477.584
    vertex 508.93501446366 -1348.32817863931 477.584
    vertex 508.572577596584 -1348.60628622885 469.584
  endloop
endfacet
facet normal -0.382683432364942 0.923879532511348 4.86908701774938e-029
  outer loop
    vertex 508.572577596584 -1348.60628622885 469.584
    vertex 508.150510925513 -1348.78111196823 469.584
    vertex 508.572577596584 -1348.60628622885 477.584
  endloop
endfacet
facet normal -0.382683432364942 0.923879532511348 4.86908701774938e-029
  outer loop
    vertex 508.150510925513 -1348.78111196823 477.584
    vertex 508.572577596584 -1348.60628622885 477.584
    vertex 508.150510925513 -1348.78111196823 469.584
  endloop
endfacet
facet normal -0.13052619222014 0.991444861373799 -2.70898317493599e-019
  outer loop
    vertex 508.150510925513 -1348.78111196823 469.584
    vertex 507.697577596584 -1348.84074177223 469.584
    vertex 508.150510925513 -1348.78111196823 477.584
  endloop
endfacet
facet normal -0.13052619222014 0.991444861373799 -2.70898317493599e-019
  outer loop
    vertex 507.697577596584 -1348.84074177223 477.584
    vertex 508.150510925513 -1348.78111196823 477.584
    vertex 507.697577596584 -1348.84074177223 469.584
  endloop
endfacet
facet normal 0.13052619222014 0.991444861373799 -2.70898317493599e-019
  outer loop
    vertex 507.697577596584 -1348.84074177223 469.584
    vertex 507.244644267655 -1348.78111196823 469.584
    vertex 507.697577596584 -1348.84074177223 477.584
  endloop
endfacet
facet normal 0.13052619222014 0.991444861373799 -2.70898317493599e-019
  outer loop
    vertex 507.244644267655 -1348.78111196823 477.584
    vertex 507.697577596584 -1348.84074177223 477.584
    vertex 507.244644267655 -1348.78111196823 469.584
  endloop
endfacet
facet normal 0.382683432364942 0.923879532511348 4.86908701774938e-029
  outer loop
    vertex 507.244644267655 -1348.78111196823 469.584
    vertex 506.822577596584 -1348.60628622885 469.584
    vertex 507.244644267655 -1348.78111196823 477.584
  endloop
endfacet
facet normal 0.382683432364942 0.923879532511348 4.86908701774938e-029
  outer loop
    vertex 506.822577596584 -1348.60628622885 477.584
    vertex 507.244644267655 -1348.78111196823 477.584
    vertex 506.822577596584 -1348.60628622885 469.584
  endloop
endfacet
facet normal 0.60876142900871 0.793353340291243 7.74559889508405e-029
  outer loop
    vertex 506.822577596584 -1348.60628622885 469.584
    vertex 506.460140729507 -1348.32817863931 469.584
    vertex 506.822577596584 -1348.60628622885 477.584
  endloop
endfacet
facet normal 0.60876142900871 0.793353340291243 7.74559889508405e-029
  outer loop
    vertex 506.460140729507 -1348.32817863931 477.584
    vertex 506.822577596584 -1348.60628622885 477.584
    vertex 506.460140729507 -1348.32817863931 469.584
  endloop
endfacet
facet normal 0.793353340291221 0.608761429008739 8.67090418227404e-019
  outer loop
    vertex 506.182033139961 -1347.96574177223 469.584
    vertex 506.182033139961 -1347.96574177223 477.584
    vertex 506.460140729507 -1348.32817863931 469.584
  endloop
endfacet
facet normal 0.793353340291221 0.608761429008739 8.67090418227404e-019
  outer loop
    vertex 506.460140729507 -1348.32817863931 477.584
    vertex 506.460140729507 -1348.32817863931 469.584
    vertex 506.182033139961 -1347.96574177223 477.584
  endloop
endfacet
facet normal 0.923879532511319 0.382683432365012 0.0
  outer loop
    vertex 506.007207400578 -1347.54367510116 469.584
    vertex 506.007207400578 -1347.54367510116 477.584
    vertex 506.182033139961 -1347.96574177223 469.584
  endloop
endfacet
facet normal 0.923879532511319 0.382683432365012 0.0
  outer loop
    vertex 506.182033139961 -1347.96574177223 477.584
    vertex 506.182033139961 -1347.96574177223 469.584
    vertex 506.007207400578 -1347.54367510116 477.584
  endloop
endfacet
facet normal 0.0 0.0 1.0
  outer loop
    vertex 500.697577596584 -1353.09074177223 477.584
    vertex 506.460140729507 -1345.85330490515 477.584
    vertex 500.697577596584 -1341.09074177223 477.584
  endloop
endfacet
facet normal 0.0 0.0 1.0
  outer loop
    vertex 506.822577596584 -1345.57519731561 477.584
    vertex 500.697577596584 -1341.09074177223 477.584
    vertex 506.460140729507 -1345.85330490515 477.584
  endloop
endfacet
facet normal 0.0 0.0 1.0
  outer loop
    vertex 507.244644267655 -1345.40037157622 477.584
    vertex 500.697577596584 -1341.09074177223 477.584
    vertex 506.822577596584 -1345.57519731561 477.584
  endloop
endfacet
facet normal 0.0 0.0 1.0
  outer loop
    vertex 517.697577596584 -1341.09074177223 477.584
    vertex 500.697577596584 -1341.09074177223 477.584
    vertex 507.244644267655 -1345.40037157622 477.584
  endloop
endfacet
facet normal 0.0 0.0 1.0
  outer loop
    vertex 506.182033139961 -1346.21574177223 477.584
    vertex 506.460140729507 -1345.85330490515 477.584
    vertex 500.697577596584 -1353.09074177223 477.584
  endloop
endfacet
facet normal 0.0 0.0 1.0
  outer loop
    vertex 506.007207400578 -1346.6378084433 477.584
    vertex 506.182033139961 -1346.21574177223 477.584
    vertex 500.697577596584 -1353.09074177223 477.584
  endloop
endfacet
facet normal 0.0 0.0 1.0
  outer loop
    vertex 505.947577596584 -1347.09074177223 477.584
    vertex 506.007207400578 -1346.6378084433 477.584
    vertex 500.697577596584 -1353.09074177223 477.584
  endloop
endfacet
facet normal 0.0 0.0 1.0
  outer loop
    vertex 507.697577596584 -1345.34074177223 477.584
    vertex 517.697577596584 -1341.09074177223 477.584
    vertex 507.244644267655 -1345.40037157622 477.584
  endloop
endfacet
facet normal 0.0 0.0 1.0
  outer loop
    vertex 508.150510925513 -1345.40037157622 477.584
    vertex 517.697577596584 -1341.09074177223 477.584
    vertex 507.697577596584 -1345.34074177223 477.584
  endloop
endfacet
facet normal 0.0 0.0 1.0
  outer loop
    vertex 508.572577596584 -1345.57519731561 477.584
    vertex 517.697577596584 -1341.09074177223 477.584
    vertex 508.150510925513 -1345.40037157622 477.584
  endloop
endfacet
facet normal 0.0 0.0 1.0
  outer loop
    vertex 508.93501446366 -1345.85330490515 477.584
    vertex 517.697577596584 -1341.09074177223 477.584
    vertex 508.572577596584 -1345.57519731561 477.584
  endloop
endfacet
facet normal 0.0 0.0 1.0
  outer loop
    vertex 509.213122053207 -1346.21574177223 477.584
    vertex 517.697577596584 -1341.09074177223 477.584
    vertex 508.93501446366 -1345.85330490515 477.584
  endloop
endfacet
facet normal 0.0 0.0 1.0
  outer loop
    vertex 509.38794779259 -1346.6378084433 477.584
    vertex 517.697577596584 -1341.09074177223 477.584
    vertex 509.213122053207 -1346.21574177223 477.584
  endloop
endfacet
facet normal 0.0 0.0 1.0
  outer loop
    vertex 509.447577596584 -1347.09074177223 477.584
    vertex 517.697577596584 -1341.09074177223 477.584
    vertex 509.38794779259 -1346.6378084433 477.584
  endloop
endfacet
facet normal 0.0 0.0 1.0
  outer loop
    vertex 517.697577596584 -1353.09074177223 477.584
    vertex 507.244644267655 -1348.78111196823 477.584
    vertex 500.697577596584 -1353.09074177223 477.584
  endloop
endfacet
facet normal 0.0 0.0 1.0
  outer loop
    vertex 506.822577596584 -1348.60628622885 477.584
    vertex 500.697577596584 -1353.09074177223 477.584
    vertex 507.244644267655 -1348.78111196823 477.584
  endloop
endfacet
facet normal 0.0 0.0 1.0
  outer loop
    vertex 506.460140729507 -1348.32817863931 477.584
    vertex 500.697577596584 -1353.09074177223 477.584
    vertex 506.822577596584 -1348.60628622885 477.584
  endloop
endfacet
facet normal 0.0 0.0 1.0
  outer loop
    vertex 506.182033139961 -1347.96574177223 477.584
    vertex 500.697577596584 -1353.09074177223 477.584
    vertex 506.460140729507 -1348.32817863931 477.584
  endloop
endfacet
facet normal 0.0 0.0 1.0
  outer loop
    vertex 506.007207400578 -1347.54367510116 477.584
    vertex 500.697577596584 -1353.09074177223 477.584
    vertex 506.182033139961 -1347.96574177223 477.584
  endloop
endfacet
facet normal 0.0 0.0 1.0
  outer loop
    vertex 505.947577596584 -1347.09074177223 477.584
    vertex 500.697577596584 -1353.09074177223 477.584
    vertex 506.007207400578 -1347.54367510116 477.584
  endloop
endfacet
facet normal 0.0 0.0 1.0
  outer loop
    vertex 507.697577596584 -1348.84074177223 477.584
    vertex 507.244644267655 -1348.78111196823 477.584
    vertex 517.697577596584 -1353.09074177223 477.584
  endloop
endfacet
facet normal 0.0 0.0 1.0
  outer loop
    vertex 508.150510925513 -1348.78111196823 477.584
    vertex 507.697577596584 -1348.84074177223 477.584
    vertex 517.697577596584 -1353.09074177223 477.584
  endloop
endfacet
facet normal 0.0 0.0 1.0
  outer loop
    vertex 508.572577596584 -1348.60628622885 477.584
    vertex 508.150510925513 -1348.78111196823 477.584
    vertex 517.697577596584 -1353.09074177223 477.584
  endloop
endfacet
facet normal 0.0 0.0 1.0
  outer loop
    vertex 508.93501446366 -1348.32817863931 477.584
    vertex 508.572577596584 -1348.60628622885 477.584
    vertex 517.697577596584 -1353.09074177223 477.584
  endloop
endfacet
facet normal 0.0 0.0 1.0
  outer loop
    vertex 509.213122053207 -1347.96574177223 477.584
    vertex 508.93501446366 -1348.32817863931 477.584
    vertex 517.697577596584 -1353.09074177223 477.584
  endloop
endfacet
facet normal 0.0 0.0 1.0
  outer loop
    vertex 509.38794779259 -1347.54367510116 477.584
    vertex 509.213122053207 -1347.96574177223 477.584
    vertex 517.697577596584 -1353.09074177223 477.584
  endloop
endfacet
facet normal 0.0 0.0 1.0
  outer loop
    vertex 509.447577596584 -1347.09074177223 477.584
    vertex 509.38794779259 -1347.54367510116 477.584
    vertex 517.697577596584 -1353.09074177223 477.584
  endloop
endfacet
facet normal 0.0 0.0 1.0
  outer loop
    vertex 517.697577596584 -1341.09074177223 477.584
    vertex 509.447577596584 -1347.09074177223 477.584
    vertex 517.697577596584 -1353.09074177223 477.584
  endloop
endfacet
facet normal -3.11168715315634e-015 -2.1632451277014e-031 -1.0
  outer loop
    vertex 500.697577596584 -1341.09074177223 469.584
    vertex 506.460140729507 -1348.32817863931 469.584
    vertex 500.697577596584 -1353.09074177223 469.584
  endloop
endfacet
facet normal -3.11168715315634e-015 -2.1632451277014e-031 -1.0
  outer loop
    vertex 506.822577596584 -1348.60628622885 469.584
    vertex 500.697577596584 -1353.09074177223 469.584
    vertex 506.460140729507 -1348.32817863931 469.584
  endloop
endfacet
facet normal -3.11168715315634e-015 -2.1632451277014e-031 -1.0
  outer loop
    vertex 507.244644267655 -1348.78111196823 469.584
    vertex 500.697577596584 -1353.09074177223 469.584
    vertex 506.822577596584 -1348.60628622885 469.584
  endloop
endfacet
facet normal -3.11168715315634e-015 -2.1632451277014e-031 -1.0
  outer loop
    vertex 529.697577596584 -1353.09074177223 469.584
    vertex 500.697577596584 -1353.09074177223 469.584
    vertex 507.244644267655 -1348.78111196823 469.584
  endloop
endfacet
facet normal -3.11168715315634e-015 -2.1632451277014e-031 -1.0
  outer loop
    vertex 506.182033139961 -1347.96574177223 469.584
    vertex 506.460140729507 -1348.32817863931 469.584
    vertex 500.697577596584 -1341.09074177223 469.584
  endloop
endfacet
facet normal -3.11168715315634e-015 -2.1632451277014e-031 -1.0
  outer loop
    vertex 506.007207400578 -1347.54367510116 469.584
    vertex 506.182033139961 -1347.96574177223 469.584
    vertex 500.697577596584 -1341.09074177223 469.584
  endloop
endfacet
facet normal -3.11168715315634e-015 -2.1632451277014e-031 -1.0
  outer loop
    vertex 505.947577596584 -1347.09074177223 469.584
    vertex 506.007207400578 -1347.54367510116 469.584
    vertex 500.697577596584 -1341.09074177223 469.584
  endloop
endfacet
facet normal -3.11168715315634e-015 -2.1632451277014e-031 -1.0
  outer loop
    vertex 507.697577596584 -1348.84074177223 469.584
    vertex 529.697577596584 -1353.09074177223 469.584
    vertex 507.244644267655 -1348.78111196823 469.584
  endloop
endfacet
facet normal -3.11168715315634e-015 -2.1632451277014e-031 -1.0
  outer loop
    vertex 508.150510925513 -1348.78111196823 469.584
    vertex 529.697577596584 -1353.09074177223 469.584
    vertex 507.697577596584 -1348.84074177223 469.584
  endloop
endfacet
facet normal -3.11168715315634e-015 -2.1632451277014e-031 -1.0
  outer loop
    vertex 508.572577596584 -1348.60628622885 469.584
    vertex 529.697577596584 -1353.09074177223 469.584
    vertex 508.150510925513 -1348.78111196823 469.584
  endloop
endfacet
facet normal -3.11168715315634e-015 -2.1632451277014e-031 -1.0
  outer loop
    vertex 508.93501446366 -1348.32817863931 469.584
    vertex 529.697577596584 -1353.09074177223 469.584
    vertex 508.572577596584 -1348.60628622885 469.584
  endloop
endfacet
facet normal -3.11168715315634e-015 -2.1632451277014e-031 -1.0
  outer loop
    vertex 509.213122053207 -1347.96574177223 469.584
    vertex 529.697577596584 -1353.09074177223 469.584
    vertex 508.93501446366 -1348.32817863931 469.584
  endloop
endfacet
facet normal -3.11168715315634e-015 -2.1632451277014e-031 -1.0
  outer loop
    vertex 509.38794779259 -1347.54367510116 469.584
    vertex 529.697577596584 -1353.09074177223 469.584
    vertex 509.213122053207 -1347.96574177223 469.584
  endloop
endfacet
facet normal -3.11168715315634e-015 -2.1632451277014e-031 -1.0
  outer loop
    vertex 509.447577596584 -1347.09074177223 469.584
    vertex 529.697577596584 -1353.09074177223 469.584
    vertex 509.38794779259 -1347.54367510116 469.584
  endloop
endfacet
facet normal -3.11168715315634e-015 -2.1632451277014e-031 -1.0
  outer loop
    vertex 529.697577596584 -1341.09074177223 469.584
    vertex 507.244644267655 -1345.40037157622 469.584
    vertex 500.697577596584 -1341.09074177223 469.584
  endloop
endfacet
facet normal -3.11168715315634e-015 -2.1632451277014e-031 -1.0
  outer loop
    vertex 506.822577596584 -1345.57519731561 469.584
    vertex 500.697577596584 -1341.09074177223 469.584
    vertex 507.244644267655 -1345.40037157622 469.584
  endloop
endfacet
facet normal -3.11168715315634e-015 -2.1632451277014e-031 -1.0
  outer loop
    vertex 506.460140729507 -1345.85330490515 469.584
    vertex 500.697577596584 -1341.09074177223 469.584
    vertex 506.822577596584 -1345.57519731561 469.584
  endloop
endfacet
facet normal -3.11168715315634e-015 -2.1632451277014e-031 -1.0
  outer loop
    vertex 506.182033139961 -1346.21574177223 469.584
    vertex 500.697577596584 -1341.09074177223 469.584
    vertex 506.460140729507 -1345.85330490515 469.584
  endloop
endfacet
facet normal -3.11168715315634e-015 -2.1632451277014e-031 -1.0
  outer loop
    vertex 506.007207400578 -1346.6378084433 469.584
    vertex 500.697577596584 -1341.09074177223 469.584
    vertex 506.182033139961 -1346.21574177223 469.584
  endloop
endfacet
facet normal -3.11168715315634e-015 -2.1632451277014e-031 -1.0
  outer loop
    vertex 505.947577596584 -1347.09074177223 469.584
    vertex 500.697577596584 -1341.09074177223 469.584
    vertex 506.007207400578 -1346.6378084433 469.584
  endloop
endfacet
facet normal -3.11168715315634e-015 -2.1632451277014e-031 -1.0
  outer loop
    vertex 507.697577596584 -1345.34074177223 469.584
    vertex 507.244644267655 -1345.40037157622 469.584
    vertex 529.697577596584 -1341.09074177223 469.584
  endloop
endfacet
facet normal -3.11168715315634e-015 -2.1632451277014e-031 -1.0
  outer loop
    vertex 508.150510925513 -1345.40037157622 469.584
    vertex 507.697577596584 -1345.34074177223 469.584
    vertex 529.697577596584 -1341.09074177223 469.584
  endloop
endfacet
facet normal -3.11168715315634e-015 -2.1632451277014e-031 -1.0
  outer loop
    vertex 508.572577596584 -1345.57519731561 469.584
    vertex 508.150510925513 -1345.40037157622 469.584
    vertex 529.697577596584 -1341.09074177223 469.584
  endloop
endfacet
facet normal -3.11168715315634e-015 -2.1632451277014e-031 -1.0
  outer loop
    vertex 508.93501446366 -1345.85330490515 469.584
    vertex 508.572577596584 -1345.57519731561 469.584
    vertex 529.697577596584 -1341.09074177223 469.584
  endloop
endfacet
facet normal -3.11168715315634e-015 -2.1632451277014e-031 -1.0
  outer loop
    vertex 509.213122053207 -1346.21574177223 469.584
    vertex 508.93501446366 -1345.85330490515 469.584
    vertex 529.697577596584 -1341.09074177223 469.584
  endloop
endfacet
facet normal -3.11168715315634e-015 -2.1632451277014e-031 -1.0
  outer loop
    vertex 509.38794779259 -1346.6378084433 469.584
    vertex 509.213122053207 -1346.21574177223 469.584
    vertex 529.697577596584 -1341.09074177223 469.584
  endloop
endfacet
facet normal -3.11168715315634e-015 -2.1632451277014e-031 -1.0
  outer loop
    vertex 509.447577596584 -1347.09074177223 469.584
    vertex 509.38794779259 -1346.6378084433 469.584
    vertex 529.697577596584 -1341.09074177223 469.584
  endloop
endfacet
facet normal -3.11168715315634e-015 -2.1632451277014e-031 -1.0
  outer loop
    vertex 529.697577596584 -1353.09074177223 469.584
    vertex 509.447577596584 -1347.09074177223 469.584
    vertex 529.697577596584 -1341.09074177223 469.584
  endloop
endfacet
facet normal 3.75995531006401e-015 9.02389274415301e-015 -1.0
  outer loop
    vertex 529.697577596583 -1353.09074177223 480.584
    vertex 529.697577596584 -1348.09074177223 480.584
    vertex 541.697577596584 -1353.09074177223 480.584
  endloop
endfacet
facet normal 3.75995531006401e-015 9.02389274415301e-015 -1.0
  outer loop
    vertex 541.697577596584 -1348.09074177223 480.584
    vertex 541.697577596584 -1353.09074177223 480.584
    vertex 529.697577596584 -1348.09074177223 480.584
  endloop
endfacet
facet normal 1.0 -1.28660301139889e-014 -1.86164541250545e-014
  outer loop
    vertex 529.697577596584 -1341.09074177223 469.584
    vertex 529.697577596584 -1341.09074177223 485.584
    vertex 529.697577596584 -1353.09074177223 469.584
  endloop
endfacet
facet normal 1.0 -1.28660301139889e-014 -1.86164541250545e-014
  outer loop
    vertex 529.697577596584 -1343.09074177223 487.584
    vertex 529.697577596584 -1353.09074177223 469.584
    vertex 529.697577596584 -1341.09074177223 485.584
  endloop
endfacet
facet normal 1.0 -1.28660301139889e-014 -1.86164541250545e-014
  outer loop
    vertex 529.697577596584 -1348.09074177223 480.584
    vertex 529.697577596584 -1353.09074177223 469.584
    vertex 529.697577596584 -1343.09074177223 487.584
  endloop
endfacet
facet normal 1.0 -1.28660301139889e-014 -1.86164541250545e-014
  outer loop
    vertex 529.697577596583 -1353.09074177223 480.584
    vertex 529.697577596584 -1353.09074177223 469.584
    vertex 529.697577596584 -1348.09074177223 480.584
  endloop
endfacet
facet normal 1.0 -1.28660301139889e-014 -1.86164541250545e-014
  outer loop
    vertex 529.697577596584 -1348.09074177223 480.584
    vertex 529.697577596584 -1343.09074177223 487.584
    vertex 529.697577596584 -1348.09074177223 487.584
  endloop
endfacet
facet normal -0.707106781186548 0.0 0.707106781186548
  outer loop
    vertex 527.697577596584 -1348.09074177223 492.584
    vertex 522.697577596584 -1348.09074177223 487.584
    vertex 527.697577596584 -1353.09074177223 492.584
  endloop
endfacet
facet normal -0.707106781186548 0.0 0.707106781186548
  outer loop
    vertex 522.697577596584 -1353.09074177223 487.584
    vertex 527.697577596584 -1353.09074177223 492.584
    vertex 522.697577596584 -1348.09074177223 487.584
  endloop
endfacet
facet normal -8.97849361427065e-014 1.0 -3.03970685754379e-014
  outer loop
    vertex 529.697577596584 -1348.09074177223 487.584
    vertex 533.822577596583 -1348.09074177223 484.468455543378
    vertex 529.697577596584 -1348.09074177223 480.584
  endloop
endfacet
facet normal -8.97849361427065e-014 1.0 -3.03970685754379e-014
  outer loop
    vertex 534.244644267653 -1348.09074177223 484.293629803995
    vertex 529.697577596584 -1348.09074177223 480.584
    vertex 533.822577596583 -1348.09074177223 484.468455543378
  endloop
endfacet
facet normal -8.97849361427065e-014 1.0 -3.03970685754379e-014
  outer loop
    vertex 534.697577596583 -1348.09074177223 484.234000000001
    vertex 529.697577596584 -1348.09074177223 480.584
    vertex 534.244644267653 -1348.09074177223 484.293629803995
  endloop
endfacet
facet normal -8.97849361427065e-014 1.0 -3.03970685754379e-014
  outer loop
    vertex 533.460140729506 -1348.09074177223 484.746563132924
    vertex 533.822577596583 -1348.09074177223 484.468455543378
    vertex 529.697577596584 -1348.09074177223 487.584
  endloop
endfacet
facet normal -8.97849361427065e-014 1.0 -3.03970685754379e-014
  outer loop
    vertex 533.18203313996 -1348.09074177223 485.109000000001
    vertex 533.460140729506 -1348.09074177223 484.746563132924
    vertex 529.697577596584 -1348.09074177223 487.584
  endloop
endfacet
facet normal -8.97849361427065e-014 1.0 -3.03970685754379e-014
  outer loop
    vertex 533.007207400577 -1348.09074177223 485.531066671071
    vertex 533.18203313996 -1348.09074177223 485.109000000001
    vertex 529.697577596584 -1348.09074177223 487.584
  endloop
endfacet
facet normal -8.97849361427065e-014 1.0 -3.03970685754379e-014
  outer loop
    vertex 532.947577596583 -1348.09074177223 485.984000000001
    vertex 533.007207400577 -1348.09074177223 485.531066671071
    vertex 529.697577596584 -1348.09074177223 487.584
  endloop
endfacet
facet normal -8.97849361427065e-014 1.0 -3.03970685754379e-014
  outer loop
    vertex 533.007207400577 -1348.09074177223 486.43693332893
    vertex 532.947577596583 -1348.09074177223 485.984000000001
    vertex 529.697577596584 -1348.09074177223 487.584
  endloop
endfacet
facet normal -8.97849361427065e-014 1.0 -3.03970685754379e-014
  outer loop
    vertex 533.18203313996 -1348.09074177223 486.859
    vertex 533.007207400577 -1348.09074177223 486.43693332893
    vertex 529.697577596584 -1348.09074177223 487.584
  endloop
endfacet
facet normal -8.97849361427065e-014 1.0 -3.03970685754379e-014
  outer loop
    vertex 533.460140729506 -1348.09074177223 487.221436867077
    vertex 533.18203313996 -1348.09074177223 486.859
    vertex 529.697577596584 -1348.09074177223 487.584
  endloop
endfacet
facet normal -8.97849361427065e-014 1.0 -3.03970685754379e-014
  outer loop
    vertex 533.822577596583 -1348.09074177223 487.499544456623
    vertex 533.460140729506 -1348.09074177223 487.221436867077
    vertex 529.697577596584 -1348.09074177223 487.584
  endloop
endfacet
facet normal -8.97849361427065e-014 1.0 -3.03970685754379e-014
  outer loop
    vertex 534.244644267653 -1348.09074177223 487.674370196006
    vertex 533.822577596583 -1348.09074177223 487.499544456623
    vertex 529.697577596584 -1348.09074177223 487.584
  endloop
endfacet
facet normal -8.97849361427065e-014 1.0 -3.03970685754379e-014
  outer loop
    vertex 522.697577596584 -1348.09074177223 487.584
    vertex 534.244644267653 -1348.09074177223 487.674370196006
    vertex 529.697577596584 -1348.09074177223 487.584
  endloop
endfacet
facet normal -8.97849361427065e-014 1.0 -3.03970685754379e-014
  outer loop
    vertex 527.697577596584 -1348.09074177223 492.584
    vertex 534.244644267653 -1348.09074177223 487.674370196006
    vertex 522.697577596584 -1348.09074177223 487.584
  endloop
endfacet
facet normal -8.97849361427065e-014 1.0 -3.03970685754379e-014
  outer loop
    vertex 534.697577596583 -1348.09074177223 487.734
    vertex 534.244644267653 -1348.09074177223 487.674370196006
    vertex 527.697577596584 -1348.09074177223 492.584
  endloop
endfacet
facet normal -8.97849361427065e-014 1.0 -3.03970685754379e-014
  outer loop
    vertex 529.697577596584 -1348.09074177223 480.584
    vertex 535.572577596583 -1348.09074177223 484.468455543378
    vertex 541.697577596584 -1348.09074177223 480.584
  endloop
endfacet
facet normal -8.97849361427065e-014 1.0 -3.03970685754379e-014
  outer loop
    vertex 535.935014463659 -1348.09074177223 484.746563132924
    vertex 541.697577596584 -1348.09074177223 480.584
    vertex 535.572577596583 -1348.09074177223 484.468455543378
  endloop
endfacet
facet normal -8.97849361427065e-014 1.0 -3.03970685754379e-014
  outer loop
    vertex 536.213122053206 -1348.09074177223 485.109000000001
    vertex 541.697577596584 -1348.09074177223 480.584
    vertex 535.935014463659 -1348.09074177223 484.746563132924
  endloop
endfacet
facet normal -8.97849361427065e-014 1.0 -3.03970685754379e-014
  outer loop
    vertex 536.387947792589 -1348.09074177223 485.531066671071
    vertex 541.697577596584 -1348.09074177223 480.584
    vertex 536.213122053206 -1348.09074177223 485.109000000001
  endloop
endfacet
facet normal -8.97849361427065e-014 1.0 -3.03970685754379e-014
  outer loop
    vertex 541.69757759658 -1348.09074177223 506.984000000001
    vertex 541.697577596584 -1348.09074177223 480.584
    vertex 536.387947792589 -1348.09074177223 485.531066671071
  endloop
endfacet
facet normal -8.97849361427065e-014 1.0 -3.03970685754379e-014
  outer loop
    vertex 535.150510925512 -1348.09074177223 484.293629803995
    vertex 535.572577596583 -1348.09074177223 484.468455543378
    vertex 529.697577596584 -1348.09074177223 480.584
  endloop
endfacet
facet normal -8.97849361427065e-014 1.0 -3.03970685754379e-014
  outer loop
    vertex 534.697577596583 -1348.09074177223 484.234000000001
    vertex 535.150510925512 -1348.09074177223 484.293629803995
    vertex 529.697577596584 -1348.09074177223 480.584
  endloop
endfacet
facet normal -8.97849361427065e-014 1.0 -3.03970685754379e-014
  outer loop
    vertex 536.447577596583 -1348.09074177223 485.984000000001
    vertex 541.69757759658 -1348.09074177223 506.984000000001
    vertex 536.387947792589 -1348.09074177223 485.531066671071
  endloop
endfacet
facet normal -8.97849361427065e-014 1.0 -3.03970685754379e-014
  outer loop
    vertex 536.387947792589 -1348.09074177223 486.43693332893
    vertex 541.69757759658 -1348.09074177223 506.984000000001
    vertex 536.447577596583 -1348.09074177223 485.984000000001
  endloop
endfacet
facet normal -8.97849361427065e-014 1.0 -3.03970685754379e-014
  outer loop
    vertex 536.213122053206 -1348.09074177223 486.859
    vertex 541.69757759658 -1348.09074177223 506.984000000001
    vertex 536.387947792589 -1348.09074177223 486.43693332893
  endloop
endfacet
facet normal -8.97849361427065e-014 1.0 -3.03970685754379e-014
  outer loop
    vertex 535.935014463659 -1348.09074177223 487.221436867077
    vertex 541.69757759658 -1348.09074177223 506.984000000001
    vertex 536.213122053206 -1348.09074177223 486.859
  endloop
endfacet
facet normal -8.97849361427065e-014 1.0 -3.03970685754379e-014
  outer loop
    vertex 535.572577596583 -1348.09074177223 487.499544456623
    vertex 541.69757759658 -1348.09074177223 506.984000000001
    vertex 535.935014463659 -1348.09074177223 487.221436867077
  endloop
endfacet
facet normal -8.97849361427065e-014 1.0 -3.03970685754379e-014
  outer loop
    vertex 535.150510925512 -1348.09074177223 487.674370196006
    vertex 541.69757759658 -1348.09074177223 506.984000000001
    vertex 535.572577596583 -1348.09074177223 487.499544456623
  endloop
endfacet
facet normal -8.97849361427065e-014 1.0 -3.03970685754379e-014
  outer loop
    vertex 534.697577596583 -1348.09074177223 487.734
    vertex 541.69757759658 -1348.09074177223 506.984000000001
    vertex 535.150510925512 -1348.09074177223 487.674370196006
  endloop
endfacet
facet normal -8.97849361427065e-014 1.0 -3.03970685754379e-014
  outer loop
    vertex 536.213122053206 -1348.09074177223 499.109000000001
    vertex 541.69757759658 -1348.09074177223 506.984000000001
    vertex 534.697577596583 -1348.09074177223 487.734
  endloop
endfacet
facet normal -8.97849361427065e-014 1.0 -3.03970685754379e-014
  outer loop
    vertex 535.935014463659 -1348.09074177223 498.746563132924
    vertex 536.213122053206 -1348.09074177223 499.109000000001
    vertex 534.697577596583 -1348.09074177223 487.734
  endloop
endfacet
facet normal -8.97849361427065e-014 1.0 -3.03970685754379e-014
  outer loop
    vertex 535.572577596583 -1348.09074177223 498.468455543378
    vertex 535.935014463659 -1348.09074177223 498.746563132924
    vertex 534.697577596583 -1348.09074177223 487.734
  endloop
endfacet
facet normal -8.97849361427065e-014 1.0 -3.03970685754379e-014
  outer loop
    vertex 527.697577596584 -1348.09074177223 492.584
    vertex 535.572577596583 -1348.09074177223 498.468455543378
    vertex 534.697577596583 -1348.09074177223 487.734
  endloop
endfacet
facet normal -8.97849361427065e-014 1.0 -3.03970685754379e-014
  outer loop
    vertex 535.150510925512 -1348.09074177223 498.293629803995
    vertex 535.572577596583 -1348.09074177223 498.468455543378
    vertex 527.697577596584 -1348.09074177223 492.584
  endloop
endfacet
facet normal -8.97849361427065e-014 1.0 -3.03970685754379e-014
  outer loop
    vertex 534.697577596583 -1348.09074177223 498.234000000001
    vertex 535.150510925512 -1348.09074177223 498.293629803995
    vertex 527.697577596584 -1348.09074177223 492.584
  endloop
endfacet
facet normal -8.97849361427065e-014 1.0 -3.03970685754379e-014
  outer loop
    vertex 536.387947792589 -1348.09074177223 499.531066671071
    vertex 541.69757759658 -1348.09074177223 506.984000000001
    vertex 536.213122053206 -1348.09074177223 499.109000000001
  endloop
endfacet
facet normal -8.97849361427065e-014 1.0 -3.03970685754379e-014
  outer loop
    vertex 536.447577596583 -1348.09074177223 499.984
    vertex 541.69757759658 -1348.09074177223 506.984000000001
    vertex 536.387947792589 -1348.09074177223 499.531066671071
  endloop
endfacet
facet normal -8.97849361427065e-014 1.0 -3.03970685754379e-014
  outer loop
    vertex 536.387947792589 -1348.09074177223 500.43693332893
    vertex 541.69757759658 -1348.09074177223 506.984000000001
    vertex 536.447577596583 -1348.09074177223 499.984
  endloop
endfacet
facet normal -8.97849361427065e-014 1.0 -3.03970685754379e-014
  outer loop
    vertex 536.213122053206 -1348.09074177223 500.859
    vertex 541.69757759658 -1348.09074177223 506.984000000001
    vertex 536.387947792589 -1348.09074177223 500.43693332893
  endloop
endfacet
facet normal -8.97849361427065e-014 1.0 -3.03970685754379e-014
  outer loop
    vertex 535.935014463659 -1348.09074177223 501.221436867077
    vertex 541.69757759658 -1348.09074177223 506.984000000001
    vertex 536.213122053206 -1348.09074177223 500.859
  endloop
endfacet
facet normal -8.97849361427065e-014 1.0 -3.03970685754379e-014
  outer loop
    vertex 535.572577596583 -1348.09074177223 501.499544456623
    vertex 541.69757759658 -1348.09074177223 506.984000000001
    vertex 535.935014463659 -1348.09074177223 501.221436867077
  endloop
endfacet
facet normal -8.97849361427065e-014 1.0 -3.03970685754379e-014
  outer loop
    vertex 535.150510925512 -1348.09074177223 501.674370196006
    vertex 541.69757759658 -1348.09074177223 506.984000000001
    vertex 535.572577596583 -1348.09074177223 501.499544456623
  endloop
endfacet
facet normal -8.97849361427065e-014 1.0 -3.03970685754379e-014
  outer loop
    vertex 534.697577596583 -1348.09074177223 501.734
    vertex 541.69757759658 -1348.09074177223 506.984000000001
    vertex 535.150510925512 -1348.09074177223 501.674370196006
  endloop
endfacet
facet normal -8.97849361427065e-014 1.0 -3.03970685754379e-014
  outer loop
    vertex 527.69757759658 -1348.09074177223 506.984000000001
    vertex 533.18203313996 -1348.09074177223 499.109000000001
    vertex 527.697577596584 -1348.09074177223 492.584
  endloop
endfacet
facet normal -8.97849361427065e-014 1.0 -3.03970685754379e-014
  outer loop
    vertex 533.460140729506 -1348.09074177223 498.746563132924
    vertex 527.697577596584 -1348.09074177223 492.584
    vertex 533.18203313996 -1348.09074177223 499.109000000001
  endloop
endfacet
facet normal -8.97849361427065e-014 1.0 -3.03970685754379e-014
  outer loop
    vertex 533.822577596583 -1348.09074177223 498.468455543378
    vertex 527.697577596584 -1348.09074177223 492.584
    vertex 533.460140729506 -1348.09074177223 498.746563132924
  endloop
endfacet
facet normal -8.97849361427065e-014 1.0 -3.03970685754379e-014
  outer loop
    vertex 534.244644267653 -1348.09074177223 498.293629803995
    vertex 527.697577596584 -1348.09074177223 492.584
    vertex 533.822577596583 -1348.09074177223 498.468455543378
  endloop
endfacet
facet normal -8.97849361427065e-014 1.0 -3.03970685754379e-014
  outer loop
    vertex 534.697577596583 -1348.09074177223 498.234000000001
    vertex 527.697577596584 -1348.09074177223 492.584
    vertex 534.244644267653 -1348.09074177223 498.293629803995
  endloop
endfacet
facet normal -8.97849361427065e-014 1.0 -3.03970685754379e-014
  outer loop
    vertex 533.007207400577 -1348.09074177223 499.531066671071
    vertex 533.18203313996 -1348.09074177223 499.109000000001
    vertex 527.69757759658 -1348.09074177223 506.984000000001
  endloop
endfacet
facet normal -8.97849361427065e-014 1.0 -3.03970685754379e-014
  outer loop
    vertex 532.947577596583 -1348.09074177223 499.984
    vertex 533.007207400577 -1348.09074177223 499.531066671071
    vertex 527.69757759658 -1348.09074177223 506.984000000001
  endloop
endfacet
facet normal -8.97849361427065e-014 1.0 -3.03970685754379e-014
  outer loop
    vertex 533.007207400577 -1348.09074177223 500.43693332893
    vertex 532.947577596583 -1348.09074177223 499.984
    vertex 527.69757759658 -1348.09074177223 506.984000000001
  endloop
endfacet
facet normal -8.97849361427065e-014 1.0 -3.03970685754379e-014
  outer loop
    vertex 533.18203313996 -1348.09074177223 500.859
    vertex 533.007207400577 -1348.09074177223 500.43693332893
    vertex 527.69757759658 -1348.09074177223 506.984000000001
  endloop
endfacet
facet normal -8.97849361427065e-014 1.0 -3.03970685754379e-014
  outer loop
    vertex 533.460140729506 -1348.09074177223 501.221436867077
    vertex 533.18203313996 -1348.09074177223 500.859
    vertex 527.69757759658 -1348.09074177223 506.984000000001
  endloop
endfacet
facet normal -8.97849361427065e-014 1.0 -3.03970685754379e-014
  outer loop
    vertex 533.822577596583 -1348.09074177223 501.499544456623
    vertex 533.460140729506 -1348.09074177223 501.221436867077
    vertex 527.69757759658 -1348.09074177223 506.984000000001
  endloop
endfacet
facet normal -8.97849361427065e-014 1.0 -3.03970685754379e-014
  outer loop
    vertex 534.244644267653 -1348.09074177223 501.674370196006
    vertex 533.822577596583 -1348.09074177223 501.499544456623
    vertex 527.69757759658 -1348.09074177223 506.984000000001
  endloop
endfacet
facet normal -8.97849361427065e-014 1.0 -3.03970685754379e-014
  outer loop
    vertex 534.697577596583 -1348.09074177223 501.734
    vertex 534.244644267653 -1348.09074177223 501.674370196006
    vertex 527.69757759658 -1348.09074177223 506.984000000001
  endloop
endfacet
facet normal -8.97849361427065e-014 1.0 -3.03970685754379e-014
  outer loop
    vertex 541.69757759658 -1348.09074177223 506.984000000001
    vertex 534.697577596583 -1348.09074177223 501.734
    vertex 527.69757759658 -1348.09074177223 506.984000000001
  endloop
endfacet
facet normal -1.0 0.0 0.0
  outer loop
    vertex 517.697577596584 -1341.09074177223 485.584
    vertex 517.697577596584 -1341.09074177223 477.584
    vertex 517.697577596584 -1343.09074177223 487.584
  endloop
endfacet
facet normal -1.0 0.0 0.0
  outer loop
    vertex 517.697577596584 -1353.09074177223 477.584
    vertex 517.697577596584 -1343.09074177223 487.584
    vertex 517.697577596584 -1341.09074177223 477.584
  endloop
endfacet
facet normal -1.0 0.0 0.0
  outer loop
    vertex 517.697577596584 -1353.09074177223 487.584
    vertex 517.697577596584 -1343.09074177223 487.584
    vertex 517.697577596584 -1353.09074177223 477.584
  endloop
endfacet
facet normal 0.0 0.0 1.0
  outer loop
    vertex 517.697577596584 -1353.09074177223 487.584
    vertex 522.697577596584 -1348.09074177223 487.584
    vertex 517.697577596584 -1343.09074177223 487.584
  endloop
endfacet
facet normal 0.0 0.0 1.0
  outer loop
    vertex 529.697577596584 -1343.09074177223 487.584
    vertex 517.697577596584 -1343.09074177223 487.584
    vertex 522.697577596584 -1348.09074177223 487.584
  endloop
endfacet
facet normal 0.0 0.0 1.0
  outer loop
    vertex 529.697577596584 -1348.09074177223 487.584
    vertex 529.697577596584 -1343.09074177223 487.584
    vertex 522.697577596584 -1348.09074177223 487.584
  endloop
endfacet
facet normal 0.0 0.0 1.0
  outer loop
    vertex 522.697577596584 -1348.09074177223 487.584
    vertex 517.697577596584 -1353.09074177223 487.584
    vertex 522.697577596584 -1353.09074177223 487.584
  endloop
endfacet
facet normal -5.31980307847101e-015 0.707106781186548 0.707106781186547
  outer loop
    vertex 529.697577596584 -1341.09074177223 485.584
    vertex 517.697577596584 -1341.09074177223 485.584
    vertex 529.697577596584 -1343.09074177223 487.584
  endloop
endfacet
facet normal -5.31980307847101e-015 0.707106781186548 0.707106781186547
  outer loop
    vertex 517.697577596584 -1343.09074177223 487.584
    vertex 529.697577596584 -1343.09074177223 487.584
    vertex 517.697577596584 -1341.09074177223 485.584
  endloop
endfacet
endsolid UltraSpecial
