solid UltraSpecial
facet normal -0.793353340291148 6.06013762932642e-014 0.608761429008834
  outer loop
    vertex 620.213122053206 -1348.09074177223 485.109000000001
    vertex 619.93501446366 -1353.09074177223 484.746563132924
    vertex 620.213122053206 -1353.09074177223 485.109000000001
  endloop
endfacet
facet normal -0.793353340291148 6.06013762932642e-014 0.608761429008834
  outer loop
    vertex 619.93501446366 -1353.09074177223 484.746563132924
    vertex 620.213122053206 -1348.09074177223 485.109000000001
    vertex 619.93501446366 -1348.09074177223 484.746563132924
  endloop
endfacet
facet normal -0.382683432364942 1.78587218113145e-014 0.923879532511348
  outer loop
    vertex 619.572577596583 -1353.09074177223 484.468455543378
    vertex 619.150510925513 -1348.09074177223 484.293629803995
    vertex 619.150510925512 -1353.09074177223 484.293629803995
  endloop
endfacet
facet normal -0.382683432364942 1.78587218113145e-014 0.923879532511348
  outer loop
    vertex 619.150510925513 -1348.09074177223 484.293629803995
    vertex 619.572577596583 -1353.09074177223 484.468455543378
    vertex 619.572577596584 -1348.09074177223 484.468455543378
  endloop
endfacet
facet normal -0.13052619222014 -6.11477721414053e-015 0.991444861373799
  outer loop
    vertex 619.150510925512 -1353.09074177223 484.293629803995
    vertex 618.697577596584 -1348.09074177223 484.234000000001
    vertex 618.697577596583 -1353.09074177223 484.234000000001
  endloop
endfacet
facet normal -0.13052619222014 -6.11477721414053e-015 0.991444861373799
  outer loop
    vertex 618.697577596584 -1348.09074177223 484.234000000001
    vertex 619.150510925512 -1353.09074177223 484.293629803995
    vertex 619.150510925513 -1348.09074177223 484.293629803995
  endloop
endfacet
facet normal -0.608761429008834 4.06139312917512e-014 0.793353340291148
  outer loop
    vertex 619.93501446366 -1353.09074177223 484.746563132924
    vertex 619.572577596584 -1348.09074177223 484.468455543378
    vertex 619.572577596583 -1353.09074177223 484.468455543378
  endloop
endfacet
facet normal -0.608761429008834 4.06139312917512e-014 0.793353340291148
  outer loop
    vertex 619.572577596584 -1348.09074177223 484.468455543378
    vertex 619.93501446366 -1353.09074177223 484.746563132924
    vertex 619.93501446366 -1348.09074177223 484.746563132924
  endloop
endfacet
facet normal -0.923879532511348 7.64638125623771e-014 0.382683432364942
  outer loop
    vertex 620.387947792589 -1348.09074177223 485.531066671071
    vertex 620.213122053206 -1353.09074177223 485.109000000001
    vertex 620.387947792589 -1353.09074177223 485.531066671071
  endloop
endfacet
facet normal -0.923879532511348 7.64638125623771e-014 0.382683432364942
  outer loop
    vertex 620.213122053206 -1353.09074177223 485.109000000001
    vertex 620.387947792589 -1348.09074177223 485.531066671071
    vertex 620.213122053206 -1348.09074177223 485.109000000001
  endloop
endfacet
facet normal 0.0 0.0 -1.0
  outer loop
    vertex 611.697577596581 -1333.56778020419 448.207466631436
    vertex 606.69757759658 -1336.7871767591 448.207466631436
    vertex 606.69757759658 -1333.56778020419 448.207466631436
  endloop
endfacet
facet normal 0.0 0.0 -1.0
  outer loop
    vertex 606.69757759658 -1336.7871767591 448.207466631436
    vertex 611.697577596581 -1333.56778020419 448.207466631436
    vertex 611.697577596581 -1336.7871767591 448.207466631436
  endloop
endfacet
facet normal -1.03398213468131e-017 -0.382683432365096 -0.923879532511284
  outer loop
    vertex 611.697577596581 -1341.59074177223 454.110279441629
    vertex 606.69757759658 -1344.2437322761 455.20918408918
    vertex 606.69757759658 -1341.59074177223 454.110279441629
  endloop
endfacet
facet normal -1.03398213468131e-017 -0.382683432365096 -0.923879532511284
  outer loop
    vertex 606.69757759658 -1344.2437322761 455.20918408918
    vertex 611.697577596581 -1341.59074177223 454.110279441629
    vertex 611.697577596581 -1344.2437322761 455.20918408918
  endloop
endfacet
facet normal 1.98287331714179e-028 0.793353340291223 0.608761429008736
  outer loop
    vertex 606.69757759658 -1337.19124683562 454.483494936612
    vertex 611.697577596581 -1334.96638611925 451.584000000001
    vertex 606.69757759658 -1334.96638611925 451.584000000001
  endloop
endfacet
facet normal 1.98287331714179e-028 0.793353340291223 0.608761429008736
  outer loop
    vertex 611.697577596581 -1334.96638611925 451.584000000001
    vertex 606.69757759658 -1337.19124683562 454.483494936612
    vertex 611.697577596581 -1337.19124683562 454.483494936612
  endloop
endfacet
facet normal 0.0 0.382683432365069 0.923879532511295
  outer loop
    vertex 611.697577596581 -1343.4672751408 458.106961568047
    vertex 606.69757759658 -1340.09074177223 456.708355652983
    vertex 606.69757759658 -1343.4672751408 458.106961568047
  endloop
endfacet
facet normal 0.0 0.382683432365069 0.923879532511295
  outer loop
    vertex 606.69757759658 -1340.09074177223 456.708355652983
    vertex 611.697577596581 -1343.4672751408 458.106961568047
    vertex 611.697577596581 -1340.09074177223 456.708355652983
  endloop
endfacet
facet normal 5.16991067373335e-018 0.923879532511291 -0.382683432365081
  outer loop
    vertex 606.69757759658 -1356.61702121386 450.084
    vertex 611.697577596581 -1357.39430678537 448.207466631436
    vertex 606.69757759658 -1357.39430678537 448.207466631436
  endloop
endfacet
facet normal 5.16991067373335e-018 0.923879532511291 -0.382683432365081
  outer loop
    vertex 611.697577596581 -1357.39430678537 448.207466631436
    vertex 606.69757759658 -1356.61702121386 450.084
    vertex 611.697577596581 -1356.61702121386 450.084
  endloop
endfacet
facet normal -6.54987745231245e-028 0.608761429008733 0.793353340291226
  outer loop
    vertex 611.697577596581 -1340.09074177223 456.708355652983
    vertex 606.69757759658 -1337.19124683562 454.483494936612
    vertex 606.69757759658 -1340.09074177223 456.708355652983
  endloop
endfacet
facet normal -6.54987745231245e-028 0.608761429008733 0.793353340291226
  outer loop
    vertex 606.69757759658 -1337.19124683562 454.483494936612
    vertex 611.697577596581 -1340.09074177223 456.708355652983
    vertex 611.697577596581 -1337.19124683562 454.483494936612
  endloop
endfacet
facet normal 5.1682616360578e-028 -0.793353340291228 -0.60876142900873
  outer loop
    vertex 611.697577596581 -1339.31256717918 452.362174593052
    vertex 606.69757759658 -1337.5644623306 450.084
    vertex 611.697577596581 -1337.5644623306 450.084
  endloop
endfacet
facet normal 5.1682616360578e-028 -0.793353340291228 -0.60876142900873
  outer loop
    vertex 606.69757759658 -1337.5644623306 450.084
    vertex 611.697577596581 -1339.31256717918 452.362174593052
    vertex 606.69757759658 -1339.31256717918 452.362174593052
  endloop
endfacet
facet normal 3.22935959368618e-028 0.130526192220051 -0.99144486137381
  outer loop
    vertex 611.697577596581 -1347.09074177223 455.584000000001
    vertex 606.69757759658 -1349.93775126836 455.20918408918
    vertex 606.69757759658 -1347.09074177223 455.584000000001
  endloop
endfacet
facet normal 3.22935959368618e-028 0.130526192220051 -0.99144486137381
  outer loop
    vertex 606.69757759658 -1349.93775126836 455.20918408918
    vertex 611.697577596581 -1347.09074177223 455.584000000001
    vertex 611.697577596581 -1349.93775126836 455.20918408918
  endloop
endfacet
facet normal -1.03398213463145e-017 0.382683432365096 -0.923879532511284
  outer loop
    vertex 611.697577596581 -1349.93775126836 455.20918408918
    vertex 606.69757759658 -1352.59074177223 454.110279441629
    vertex 606.69757759658 -1349.93775126836 455.20918408918
  endloop
endfacet
facet normal -1.03398213463145e-017 0.382683432365096 -0.923879532511284
  outer loop
    vertex 606.69757759658 -1352.59074177223 454.110279441629
    vertex 611.697577596581 -1349.93775126836 455.20918408918
    vertex 611.697577596581 -1352.59074177223 454.110279441629
  endloop
endfacet
facet normal -3.96574663428354e-028 0.60876142900873 -0.793353340291228
  outer loop
    vertex 611.697577596581 -1352.59074177223 454.110279441629
    vertex 606.69757759658 -1354.86891636528 452.362174593052
    vertex 606.69757759658 -1352.59074177223 454.110279441629
  endloop
endfacet
facet normal -3.96574663428354e-028 0.60876142900873 -0.793353340291228
  outer loop
    vertex 606.69757759658 -1354.86891636528 452.362174593052
    vertex 611.697577596581 -1352.59074177223 454.110279441629
    vertex 611.697577596581 -1354.86891636528 452.362174593052
  endloop
endfacet
facet normal -3.96574663428354e-028 -0.60876142900873 -0.793353340291228
  outer loop
    vertex 611.697577596581 -1339.31256717918 452.362174593052
    vertex 606.69757759658 -1341.59074177223 454.110279441629
    vertex 606.69757759658 -1339.31256717918 452.362174593052
  endloop
endfacet
facet normal -3.96574663428354e-028 -0.60876142900873 -0.793353340291228
  outer loop
    vertex 606.69757759658 -1341.59074177223 454.110279441629
    vertex 611.697577596581 -1339.31256717918 452.362174593052
    vertex 611.697577596581 -1341.59074177223 454.110279441629
  endloop
endfacet
facet normal -2.12408500686771e-015 -0.382683432365047 0.923879532511305
  outer loop
    vertex 611.697577596581 -1354.09074177223 456.708355652983
    vertex 606.697577596582 -1353.09074177223 457.122569215358
    vertex 606.69757759658 -1354.09074177223 456.708355652983
  endloop
endfacet
facet normal -2.12408500686771e-015 -0.382683432365047 0.923879532511305
  outer loop
    vertex 606.697577596582 -1353.09074177223 457.122569215358
    vertex 611.697577596581 -1354.09074177223 456.708355652983
    vertex 611.697577596581 -1353.09074177223 457.122569215357
  endloop
endfacet
facet normal -1.98287331714179e-028 -0.793353340291223 0.608761429008736
  outer loop
    vertex 611.697577596581 -1356.99023670884 454.483494936612
    vertex 606.69757759658 -1359.21509742521 451.584
    vertex 611.697577596581 -1359.21509742521 451.584
  endloop
endfacet
facet normal -1.98287331714179e-028 -0.793353340291223 0.608761429008736
  outer loop
    vertex 606.69757759658 -1359.21509742521 451.584
    vertex 611.697577596581 -1356.99023670884 454.483494936612
    vertex 606.69757759658 -1356.99023670884 454.483494936612
  endloop
endfacet
facet normal -1.03398213468649e-017 0.923879532511295 0.382683432365069
  outer loop
    vertex 606.69757759658 -1334.96638611925 451.584000000001
    vertex 611.697577596581 -1333.56778020419 448.207466631436
    vertex 606.69757759658 -1333.56778020419 448.207466631436
  endloop
endfacet
facet normal -1.03398213468649e-017 0.923879532511295 0.382683432365069
  outer loop
    vertex 611.697577596581 -1333.56778020419 448.207466631436
    vertex 606.69757759658 -1334.96638611925 451.584000000001
    vertex 611.697577596581 -1334.96638611925 451.584000000001
  endloop
endfacet
facet normal 3.22935959368618e-028 -0.130526192220051 -0.99144486137381
  outer loop
    vertex 611.697577596581 -1344.2437322761 455.20918408918
    vertex 606.69757759658 -1347.09074177223 455.584000000001
    vertex 606.69757759658 -1344.2437322761 455.20918408918
  endloop
endfacet
facet normal 3.22935959368618e-028 -0.130526192220051 -0.99144486137381
  outer loop
    vertex 606.69757759658 -1347.09074177223 455.584000000001
    vertex 611.697577596581 -1344.2437322761 455.20918408918
    vertex 611.697577596581 -1347.09074177223 455.584000000001
  endloop
endfacet
facet normal -1.03398213467402e-017 -0.923879532511292 0.382683432365078
  outer loop
    vertex 611.697577596581 -1359.21509742521 451.584
    vertex 606.69757759658 -1360.61370334028 448.207466631436
    vertex 611.697577596581 -1360.61370334028 448.207466631436
  endloop
endfacet
facet normal -1.03398213467402e-017 -0.923879532511292 0.382683432365078
  outer loop
    vertex 606.69757759658 -1360.61370334028 448.207466631436
    vertex 611.697577596581 -1359.21509742521 451.584
    vertex 606.69757759658 -1359.21509742521 451.584
  endloop
endfacet
facet normal 5.1682616360578e-028 0.793353340291228 -0.60876142900873
  outer loop
    vertex 606.69757759658 -1354.86891636528 452.362174593052
    vertex 611.697577596581 -1356.61702121386 450.084
    vertex 606.69757759658 -1356.61702121386 450.084
  endloop
endfacet
facet normal 5.1682616360578e-028 0.793353340291228 -0.60876142900873
  outer loop
    vertex 611.697577596581 -1356.61702121386 450.084
    vertex 606.69757759658 -1354.86891636528 452.362174593052
    vertex 611.697577596581 -1354.86891636528 452.362174593052
  endloop
endfacet
facet normal -5.16991067373335e-018 -0.923879532511291 -0.382683432365081
  outer loop
    vertex 611.697577596581 -1337.5644623306 450.084
    vertex 606.69757759658 -1336.7871767591 448.207466631436
    vertex 611.697577596581 -1336.7871767591 448.207466631436
  endloop
endfacet
facet normal -5.16991067373335e-018 -0.923879532511291 -0.382683432365081
  outer loop
    vertex 606.69757759658 -1336.7871767591 448.207466631436
    vertex 611.697577596581 -1337.5644623306 450.084
    vertex 606.69757759658 -1337.5644623306 450.084
  endloop
endfacet
facet normal 0.0 0.0 -1.0
  outer loop
    vertex 611.697577596581 -1357.39430678537 448.207466631436
    vertex 606.69757759658 -1360.61370334028 448.207466631436
    vertex 606.69757759658 -1357.39430678537 448.207466631436
  endloop
endfacet
facet normal 0.0 0.0 -1.0
  outer loop
    vertex 606.69757759658 -1360.61370334028 448.207466631436
    vertex 611.697577596581 -1357.39430678537 448.207466631436
    vertex 611.697577596581 -1360.61370334028 448.207466631436
  endloop
endfacet
facet normal -3.96574663428366e-028 -0.608761429008748 0.793353340291214
  outer loop
    vertex 611.697577596581 -1356.99023670884 454.483494936612
    vertex 606.69757759658 -1354.09074177223 456.708355652983
    vertex 606.69757759658 -1356.99023670884 454.483494936612
  endloop
endfacet
facet normal -3.96574663428366e-028 -0.608761429008748 0.793353340291214
  outer loop
    vertex 606.69757759658 -1354.09074177223 456.708355652983
    vertex 611.697577596581 -1356.99023670884 454.483494936612
    vertex 611.697577596581 -1354.09074177223 456.708355652983
  endloop
endfacet
facet normal -5.5897075410674e-014 -1.0 6.51234785190309e-015
  outer loop
    vertex 625.697577596584 -1353.09074177223 480.584
    vertex 619.572577596583 -1353.09074177223 484.468455543378
    vertex 611.697577596582 -1353.09074177223 480.584
  endloop
endfacet
facet normal -5.5897075410674e-014 -1.0 6.51234785190309e-015
  outer loop
    vertex 619.572577596583 -1353.09074177223 484.468455543378
    vertex 625.697577596584 -1353.09074177223 480.584
    vertex 619.93501446366 -1353.09074177223 484.746563132924
  endloop
endfacet
facet normal -5.5897075410674e-014 -1.0 6.51234785190309e-015
  outer loop
    vertex 619.93501446366 -1353.09074177223 484.746563132924
    vertex 625.697577596584 -1353.09074177223 480.584
    vertex 620.213122053206 -1353.09074177223 485.109000000001
  endloop
endfacet
facet normal -5.5897075410674e-014 -1.0 6.51234785190309e-015
  outer loop
    vertex 620.213122053206 -1353.09074177223 485.109000000001
    vertex 625.697577596584 -1353.09074177223 480.584
    vertex 620.387947792589 -1353.09074177223 485.531066671071
  endloop
endfacet
facet normal -5.5897075410674e-014 -1.0 6.51234785190309e-015
  outer loop
    vertex 620.387947792589 -1353.09074177223 485.531066671071
    vertex 625.697577596584 -1353.09074177223 480.584
    vertex 625.69757759658 -1353.09074177223 506.984000000001
  endloop
endfacet
facet normal -5.5897075410674e-014 -1.0 6.51234785190309e-015
  outer loop
    vertex 611.697577596582 -1353.09074177223 480.584
    vertex 619.572577596583 -1353.09074177223 484.468455543378
    vertex 619.150510925512 -1353.09074177223 484.293629803995
  endloop
endfacet
facet normal -5.5897075410674e-014 -1.0 6.51234785190309e-015
  outer loop
    vertex 611.697577596582 -1353.09074177223 480.584
    vertex 619.150510925512 -1353.09074177223 484.293629803995
    vertex 618.697577596583 -1353.09074177223 484.234000000001
  endloop
endfacet
facet normal -5.5897075410674e-014 -1.0 6.51234785190309e-015
  outer loop
    vertex 620.387947792589 -1353.09074177223 485.531066671071
    vertex 625.69757759658 -1353.09074177223 506.984000000001
    vertex 620.447577596583 -1353.09074177223 485.984000000001
  endloop
endfacet
facet normal -5.5897075410674e-014 -1.0 6.51234785190309e-015
  outer loop
    vertex 620.447577596583 -1353.09074177223 485.984000000001
    vertex 625.69757759658 -1353.09074177223 506.984000000001
    vertex 620.387947792589 -1353.09074177223 486.43693332893
  endloop
endfacet
facet normal -5.5897075410674e-014 -1.0 6.51234785190309e-015
  outer loop
    vertex 620.387947792589 -1353.09074177223 486.43693332893
    vertex 625.69757759658 -1353.09074177223 506.984000000001
    vertex 620.213122053206 -1353.09074177223 486.859
  endloop
endfacet
facet normal -5.5897075410674e-014 -1.0 6.51234785190309e-015
  outer loop
    vertex 620.213122053206 -1353.09074177223 486.859
    vertex 625.69757759658 -1353.09074177223 506.984000000001
    vertex 619.93501446366 -1353.09074177223 487.221436867077
  endloop
endfacet
facet normal -5.5897075410674e-014 -1.0 6.51234785190309e-015
  outer loop
    vertex 619.93501446366 -1353.09074177223 487.221436867077
    vertex 625.69757759658 -1353.09074177223 506.984000000001
    vertex 619.572577596583 -1353.09074177223 487.499544456623
  endloop
endfacet
facet normal -5.5897075410674e-014 -1.0 6.51234785190309e-015
  outer loop
    vertex 619.572577596583 -1353.09074177223 487.499544456623
    vertex 625.69757759658 -1353.09074177223 506.984000000001
    vertex 619.150510925512 -1353.09074177223 487.674370196006
  endloop
endfacet
facet normal -5.5897075410674e-014 -1.0 6.51234785190309e-015
  outer loop
    vertex 619.150510925512 -1353.09074177223 487.674370196006
    vertex 625.69757759658 -1353.09074177223 506.984000000001
    vertex 618.697577596583 -1353.09074177223 487.734
  endloop
endfacet
facet normal -5.5897075410674e-014 -1.0 6.51234785190309e-015
  outer loop
    vertex 618.697577596583 -1353.09074177223 487.734
    vertex 625.69757759658 -1353.09074177223 506.984000000001
    vertex 620.213122053206 -1353.09074177223 499.109000000001
  endloop
endfacet
facet normal -5.5897075410674e-014 -1.0 6.51234785190309e-015
  outer loop
    vertex 618.697577596583 -1353.09074177223 487.734
    vertex 620.213122053206 -1353.09074177223 499.109000000001
    vertex 619.93501446366 -1353.09074177223 498.746563132924
  endloop
endfacet
facet normal -5.5897075410674e-014 -1.0 6.51234785190309e-015
  outer loop
    vertex 618.697577596583 -1353.09074177223 487.734
    vertex 619.93501446366 -1353.09074177223 498.746563132924
    vertex 619.572577596583 -1353.09074177223 498.468455543378
  endloop
endfacet
facet normal -5.5897075410674e-014 -1.0 6.51234785190309e-015
  outer loop
    vertex 618.697577596583 -1353.09074177223 487.734
    vertex 619.572577596583 -1353.09074177223 498.468455543378
    vertex 619.150510925512 -1353.09074177223 498.293629803995
  endloop
endfacet
facet normal -5.5897075410674e-014 -1.0 6.51234785190309e-015
  outer loop
    vertex 618.697577596583 -1353.09074177223 487.734
    vertex 619.150510925512 -1353.09074177223 498.293629803995
    vertex 618.697577596583 -1353.09074177223 498.234000000001
  endloop
endfacet
facet normal -5.5897075410674e-014 -1.0 6.51234785190309e-015
  outer loop
    vertex 620.213122053206 -1353.09074177223 499.109000000001
    vertex 625.69757759658 -1353.09074177223 506.984000000001
    vertex 620.387947792589 -1353.09074177223 499.531066671071
  endloop
endfacet
facet normal -5.5897075410674e-014 -1.0 6.51234785190309e-015
  outer loop
    vertex 620.387947792589 -1353.09074177223 499.531066671071
    vertex 625.69757759658 -1353.09074177223 506.984000000001
    vertex 620.447577596583 -1353.09074177223 499.984
  endloop
endfacet
facet normal -5.5897075410674e-014 -1.0 6.51234785190309e-015
  outer loop
    vertex 620.447577596583 -1353.09074177223 499.984
    vertex 625.69757759658 -1353.09074177223 506.984000000001
    vertex 620.387947792589 -1353.09074177223 500.43693332893
  endloop
endfacet
facet normal -5.5897075410674e-014 -1.0 6.51234785190309e-015
  outer loop
    vertex 620.387947792589 -1353.09074177223 500.43693332893
    vertex 625.69757759658 -1353.09074177223 506.984000000001
    vertex 620.213122053206 -1353.09074177223 500.859
  endloop
endfacet
facet normal -5.5897075410674e-014 -1.0 6.51234785190309e-015
  outer loop
    vertex 620.213122053206 -1353.09074177223 500.859
    vertex 625.69757759658 -1353.09074177223 506.984000000001
    vertex 619.93501446366 -1353.09074177223 501.221436867077
  endloop
endfacet
facet normal -5.5897075410674e-014 -1.0 6.51234785190309e-015
  outer loop
    vertex 619.93501446366 -1353.09074177223 501.221436867077
    vertex 625.69757759658 -1353.09074177223 506.984000000001
    vertex 619.572577596583 -1353.09074177223 501.499544456623
  endloop
endfacet
facet normal -5.5897075410674e-014 -1.0 6.51234785190309e-015
  outer loop
    vertex 619.572577596583 -1353.09074177223 501.499544456623
    vertex 625.69757759658 -1353.09074177223 506.984000000001
    vertex 619.150510925512 -1353.09074177223 501.674370196006
  endloop
endfacet
facet normal -5.5897075410674e-014 -1.0 6.51234785190309e-015
  outer loop
    vertex 619.150510925512 -1353.09074177223 501.674370196006
    vertex 625.69757759658 -1353.09074177223 506.984000000001
    vertex 618.697577596583 -1353.09074177223 501.734
  endloop
endfacet
facet normal -5.5897075410674e-014 -1.0 6.51234785190309e-015
  outer loop
    vertex 611.697577596582 -1353.09074177223 480.584
    vertex 606.697577596582 -1353.09074177223 457.122569215358
    vertex 611.697577596581 -1353.09074177223 457.122569215357
  endloop
endfacet
facet normal -5.5897075410674e-014 -1.0 6.51234785190309e-015
  outer loop
    vertex 606.697577596582 -1353.09074177223 457.122569215358
    vertex 611.697577596582 -1353.09074177223 480.584
    vertex 606.69757759658 -1353.09074177223 506.984000000001
  endloop
endfacet
facet normal -5.5897075410674e-014 -1.0 6.51234785190309e-015
  outer loop
    vertex 606.69757759658 -1353.09074177223 506.984000000001
    vertex 611.697577596582 -1353.09074177223 480.584
    vertex 617.18203313996 -1353.09074177223 485.109000000001
  endloop
endfacet
facet normal -5.5897075410674e-014 -1.0 6.51234785190309e-015
  outer loop
    vertex 617.18203313996 -1353.09074177223 485.109000000001
    vertex 611.697577596582 -1353.09074177223 480.584
    vertex 617.460140729507 -1353.09074177223 484.746563132924
  endloop
endfacet
facet normal -5.5897075410674e-014 -1.0 6.51234785190309e-015
  outer loop
    vertex 617.460140729507 -1353.09074177223 484.746563132924
    vertex 611.697577596582 -1353.09074177223 480.584
    vertex 617.822577596583 -1353.09074177223 484.468455543378
  endloop
endfacet
facet normal -5.5897075410674e-014 -1.0 6.51234785190309e-015
  outer loop
    vertex 617.822577596583 -1353.09074177223 484.468455543378
    vertex 611.697577596582 -1353.09074177223 480.584
    vertex 618.244644267654 -1353.09074177223 484.293629803995
  endloop
endfacet
facet normal -5.5897075410674e-014 -1.0 6.51234785190309e-015
  outer loop
    vertex 618.244644267654 -1353.09074177223 484.293629803995
    vertex 611.697577596582 -1353.09074177223 480.584
    vertex 618.697577596583 -1353.09074177223 484.234000000001
  endloop
endfacet
facet normal -5.5897075410674e-014 -1.0 6.51234785190309e-015
  outer loop
    vertex 606.69757759658 -1353.09074177223 506.984000000001
    vertex 617.18203313996 -1353.09074177223 485.109000000001
    vertex 617.007207400577 -1353.09074177223 485.531066671071
  endloop
endfacet
facet normal -5.5897075410674e-014 -1.0 6.51234785190309e-015
  outer loop
    vertex 606.69757759658 -1353.09074177223 506.984000000001
    vertex 617.007207400577 -1353.09074177223 485.531066671071
    vertex 616.947577596583 -1353.09074177223 485.984000000001
  endloop
endfacet
facet normal -5.5897075410674e-014 -1.0 6.51234785190309e-015
  outer loop
    vertex 606.69757759658 -1353.09074177223 506.984000000001
    vertex 616.947577596583 -1353.09074177223 485.984000000001
    vertex 617.007207400577 -1353.09074177223 486.43693332893
  endloop
endfacet
facet normal -5.5897075410674e-014 -1.0 6.51234785190309e-015
  outer loop
    vertex 606.69757759658 -1353.09074177223 506.984000000001
    vertex 617.007207400577 -1353.09074177223 486.43693332893
    vertex 617.18203313996 -1353.09074177223 486.859
  endloop
endfacet
facet normal -5.5897075410674e-014 -1.0 6.51234785190309e-015
  outer loop
    vertex 606.69757759658 -1353.09074177223 506.984000000001
    vertex 617.18203313996 -1353.09074177223 486.859
    vertex 617.460140729507 -1353.09074177223 487.221436867077
  endloop
endfacet
facet normal -5.5897075410674e-014 -1.0 6.51234785190309e-015
  outer loop
    vertex 606.69757759658 -1353.09074177223 506.984000000001
    vertex 617.460140729507 -1353.09074177223 487.221436867077
    vertex 617.822577596583 -1353.09074177223 487.499544456623
  endloop
endfacet
facet normal -5.5897075410674e-014 -1.0 6.51234785190309e-015
  outer loop
    vertex 606.69757759658 -1353.09074177223 506.984000000001
    vertex 617.822577596583 -1353.09074177223 487.499544456623
    vertex 618.244644267654 -1353.09074177223 487.674370196006
  endloop
endfacet
facet normal -5.5897075410674e-014 -1.0 6.51234785190309e-015
  outer loop
    vertex 606.69757759658 -1353.09074177223 506.984000000001
    vertex 618.244644267654 -1353.09074177223 487.674370196006
    vertex 618.697577596583 -1353.09074177223 487.734
  endloop
endfacet
facet normal -5.5897075410674e-014 -1.0 6.51234785190309e-015
  outer loop
    vertex 606.69757759658 -1353.09074177223 506.984000000001
    vertex 618.697577596583 -1353.09074177223 487.734
    vertex 617.822577596583 -1353.09074177223 498.468455543378
  endloop
endfacet
facet normal -5.5897075410674e-014 -1.0 6.51234785190309e-015
  outer loop
    vertex 617.822577596583 -1353.09074177223 498.468455543378
    vertex 618.697577596583 -1353.09074177223 487.734
    vertex 618.244644267654 -1353.09074177223 498.293629803995
  endloop
endfacet
facet normal -5.5897075410674e-014 -1.0 6.51234785190309e-015
  outer loop
    vertex 618.244644267654 -1353.09074177223 498.293629803995
    vertex 618.697577596583 -1353.09074177223 487.734
    vertex 618.697577596583 -1353.09074177223 498.234000000001
  endloop
endfacet
facet normal -5.5897075410674e-014 -1.0 6.51234785190309e-015
  outer loop
    vertex 606.69757759658 -1353.09074177223 506.984000000001
    vertex 617.822577596583 -1353.09074177223 498.468455543378
    vertex 617.460140729507 -1353.09074177223 498.746563132924
  endloop
endfacet
facet normal -5.5897075410674e-014 -1.0 6.51234785190309e-015
  outer loop
    vertex 606.69757759658 -1353.09074177223 506.984000000001
    vertex 617.460140729507 -1353.09074177223 498.746563132924
    vertex 617.18203313996 -1353.09074177223 499.109000000001
  endloop
endfacet
facet normal -5.5897075410674e-014 -1.0 6.51234785190309e-015
  outer loop
    vertex 606.69757759658 -1353.09074177223 506.984000000001
    vertex 617.18203313996 -1353.09074177223 499.109000000001
    vertex 617.007207400577 -1353.09074177223 499.531066671071
  endloop
endfacet
facet normal -5.5897075410674e-014 -1.0 6.51234785190309e-015
  outer loop
    vertex 606.69757759658 -1353.09074177223 506.984000000001
    vertex 617.007207400577 -1353.09074177223 499.531066671071
    vertex 616.947577596583 -1353.09074177223 499.984
  endloop
endfacet
facet normal -5.5897075410674e-014 -1.0 6.51234785190309e-015
  outer loop
    vertex 606.69757759658 -1353.09074177223 506.984000000001
    vertex 616.947577596583 -1353.09074177223 499.984
    vertex 617.007207400577 -1353.09074177223 500.43693332893
  endloop
endfacet
facet normal -5.5897075410674e-014 -1.0 6.51234785190309e-015
  outer loop
    vertex 606.69757759658 -1353.09074177223 506.984000000001
    vertex 617.007207400577 -1353.09074177223 500.43693332893
    vertex 617.18203313996 -1353.09074177223 500.859
  endloop
endfacet
facet normal -5.5897075410674e-014 -1.0 6.51234785190309e-015
  outer loop
    vertex 606.69757759658 -1353.09074177223 506.984000000001
    vertex 617.18203313996 -1353.09074177223 500.859
    vertex 617.460140729507 -1353.09074177223 501.221436867077
  endloop
endfacet
facet normal -5.5897075410674e-014 -1.0 6.51234785190309e-015
  outer loop
    vertex 606.69757759658 -1353.09074177223 506.984000000001
    vertex 617.460140729507 -1353.09074177223 501.221436867077
    vertex 617.822577596583 -1353.09074177223 501.499544456623
  endloop
endfacet
facet normal -5.5897075410674e-014 -1.0 6.51234785190309e-015
  outer loop
    vertex 606.69757759658 -1353.09074177223 506.984000000001
    vertex 617.822577596583 -1353.09074177223 501.499544456623
    vertex 618.244644267654 -1353.09074177223 501.674370196006
  endloop
endfacet
facet normal -5.5897075410674e-014 -1.0 6.51234785190309e-015
  outer loop
    vertex 606.69757759658 -1353.09074177223 506.984000000001
    vertex 618.244644267654 -1353.09074177223 501.674370196006
    vertex 618.697577596583 -1353.09074177223 501.734
  endloop
endfacet
facet normal -5.5897075410674e-014 -1.0 6.51234785190309e-015
  outer loop
    vertex 606.69757759658 -1353.09074177223 506.984000000001
    vertex 618.697577596583 -1353.09074177223 501.734
    vertex 625.69757759658 -1353.09074177223 506.984000000001
  endloop
endfacet
facet normal -3.11610298166034e-015 8.96413186504778e-015 -1.0
  outer loop
    vertex 625.697577596585 -1348.09074177223 480.584
    vertex 611.697577596582 -1353.09074177223 480.584
    vertex 611.69757759658 -1348.09074177223 480.584
  endloop
endfacet
facet normal -3.11610298166034e-015 8.96413186504778e-015 -1.0
  outer loop
    vertex 611.697577596582 -1353.09074177223 480.584
    vertex 625.697577596585 -1348.09074177223 480.584
    vertex 625.697577596584 -1353.09074177223 480.584
  endloop
endfacet
facet normal 9.02389274415463e-014 1.0 1.29804683868768e-014
  outer loop
    vertex 606.69757759658 -1345.09074177223 506.984000000001
    vertex 611.697577596581 -1345.09074177223 458.320695004825
    vertex 606.697577596583 -1345.09074177223 458.320695004825
  endloop
endfacet
facet normal 9.02389274415463e-014 1.0 1.29804683868768e-014
  outer loop
    vertex 611.697577596581 -1345.09074177223 458.320695004825
    vertex 606.69757759658 -1345.09074177223 506.984000000001
    vertex 611.697577596581 -1345.09074177223 506.984000000001
  endloop
endfacet
facet normal 1.0 8.38785151472975e-015 -1.95649296399859e-015
  outer loop
    vertex 611.697577596581 -1357.39430678537 448.207466631436
    vertex 611.697577596581 -1359.21509742521 451.584
    vertex 611.697577596581 -1360.61370334028 448.207466631436
  endloop
endfacet
facet normal 1.0 8.38785151472975e-015 -1.95649296399859e-015
  outer loop
    vertex 611.697577596581 -1359.21509742521 451.584
    vertex 611.697577596581 -1357.39430678537 448.207466631436
    vertex 611.697577596581 -1356.99023670884 454.483494936612
  endloop
endfacet
facet normal 1.0 8.38785151472975e-015 -1.95649296399859e-015
  outer loop
    vertex 611.697577596581 -1356.99023670884 454.483494936612
    vertex 611.697577596581 -1357.39430678537 448.207466631436
    vertex 611.697577596581 -1356.61702121386 450.084
  endloop
endfacet
facet normal 1.0 8.38785151472975e-015 -1.95649296399859e-015
  outer loop
    vertex 611.697577596581 -1356.99023670884 454.483494936612
    vertex 611.697577596581 -1356.61702121386 450.084
    vertex 611.697577596581 -1354.09074177223 456.708355652983
  endloop
endfacet
facet normal 1.0 8.38785151472975e-015 -1.95649296399859e-015
  outer loop
    vertex 611.697577596581 -1354.09074177223 456.708355652983
    vertex 611.697577596581 -1356.61702121386 450.084
    vertex 611.697577596581 -1354.86891636528 452.362174593052
  endloop
endfacet
facet normal 1.0 8.38785151472975e-015 -1.95649296399859e-015
  outer loop
    vertex 611.697577596581 -1354.09074177223 456.708355652983
    vertex 611.697577596581 -1354.86891636528 452.362174593052
    vertex 611.697577596581 -1352.59074177223 454.110279441629
  endloop
endfacet
facet normal 1.0 8.38785151472975e-015 -1.95649296399859e-015
  outer loop
    vertex 611.697577596581 -1354.09074177223 456.708355652983
    vertex 611.697577596581 -1352.59074177223 454.110279441629
    vertex 611.697577596581 -1353.09074177223 457.122569215357
  endloop
endfacet
facet normal 1.0 8.38785151472975e-015 -1.95649296399859e-015
  outer loop
    vertex 611.697577596581 -1353.09074177223 457.122569215357
    vertex 611.69757759658 -1348.09074177223 480.584
    vertex 611.697577596582 -1353.09074177223 480.584
  endloop
endfacet
facet normal 1.0 8.38785151472975e-015 -1.95649296399859e-015
  outer loop
    vertex 611.69757759658 -1348.09074177223 480.584
    vertex 611.697577596581 -1353.09074177223 457.122569215357
    vertex 611.697577596581 -1352.59074177223 454.110279441629
  endloop
endfacet
facet normal 1.0 8.38785151472975e-015 -1.95649296399859e-015
  outer loop
    vertex 611.69757759658 -1348.09074177223 480.584
    vertex 611.697577596581 -1352.59074177223 454.110279441629
    vertex 611.697577596581 -1349.93775126836 455.20918408918
  endloop
endfacet
facet normal 1.0 8.38785151472975e-015 -1.95649296399859e-015
  outer loop
    vertex 611.69757759658 -1348.09074177223 480.584
    vertex 611.697577596581 -1349.93775126836 455.20918408918
    vertex 611.697577596581 -1347.09074177223 455.584000000001
  endloop
endfacet
facet normal 1.0 8.38785151472975e-015 -1.95649296399859e-015
  outer loop
    vertex 611.69757759658 -1348.09074177223 480.584
    vertex 611.697577596581 -1345.09074177223 506.984000000001
    vertex 611.69757759658 -1348.09074177223 506.984000000001
  endloop
endfacet
facet normal 1.0 8.38785151472975e-015 -1.95649296399859e-015
  outer loop
    vertex 611.697577596581 -1345.09074177223 506.984000000001
    vertex 611.69757759658 -1348.09074177223 480.584
    vertex 611.697577596581 -1347.09074177223 455.584000000001
  endloop
endfacet
facet normal 1.0 8.38785151472975e-015 -1.95649296399859e-015
  outer loop
    vertex 611.697577596581 -1345.09074177223 506.984000000001
    vertex 611.697577596581 -1347.09074177223 455.584000000001
    vertex 611.697577596581 -1345.09074177223 458.320695004825
  endloop
endfacet
facet normal 1.0 8.38785151472975e-015 -1.95649296399859e-015
  outer loop
    vertex 611.697577596581 -1345.09074177223 458.320695004825
    vertex 611.697577596581 -1347.09074177223 455.584000000001
    vertex 611.697577596581 -1344.2437322761 455.20918408918
  endloop
endfacet
facet normal 1.0 8.38785151472975e-015 -1.95649296399859e-015
  outer loop
    vertex 611.697577596581 -1345.09074177223 458.320695004825
    vertex 611.697577596581 -1344.2437322761 455.20918408918
    vertex 611.697577596581 -1343.4672751408 458.106961568047
  endloop
endfacet
facet normal 1.0 8.38785151472975e-015 -1.95649296399859e-015
  outer loop
    vertex 611.697577596581 -1343.4672751408 458.106961568047
    vertex 611.697577596581 -1344.2437322761 455.20918408918
    vertex 611.697577596581 -1341.59074177223 454.110279441629
  endloop
endfacet
facet normal 1.0 8.38785151472975e-015 -1.95649296399859e-015
  outer loop
    vertex 611.697577596581 -1343.4672751408 458.106961568047
    vertex 611.697577596581 -1341.59074177223 454.110279441629
    vertex 611.697577596581 -1340.09074177223 456.708355652983
  endloop
endfacet
facet normal 1.0 8.38785151472975e-015 -1.95649296399859e-015
  outer loop
    vertex 611.697577596581 -1340.09074177223 456.708355652983
    vertex 611.697577596581 -1341.59074177223 454.110279441629
    vertex 611.697577596581 -1339.31256717918 452.362174593052
  endloop
endfacet
facet normal 1.0 8.38785151472975e-015 -1.95649296399859e-015
  outer loop
    vertex 611.697577596581 -1340.09074177223 456.708355652983
    vertex 611.697577596581 -1339.31256717918 452.362174593052
    vertex 611.697577596581 -1337.19124683562 454.483494936612
  endloop
endfacet
facet normal 1.0 8.38785151472975e-015 -1.95649296399859e-015
  outer loop
    vertex 611.697577596581 -1337.19124683562 454.483494936612
    vertex 611.697577596581 -1339.31256717918 452.362174593052
    vertex 611.697577596581 -1337.5644623306 450.084
  endloop
endfacet
facet normal 1.0 8.38785151472975e-015 -1.95649296399859e-015
  outer loop
    vertex 611.697577596581 -1337.19124683562 454.483494936612
    vertex 611.697577596581 -1337.5644623306 450.084
    vertex 611.697577596581 -1336.7871767591 448.207466631436
  endloop
endfacet
facet normal 1.0 8.38785151472975e-015 -1.95649296399859e-015
  outer loop
    vertex 611.697577596581 -1337.19124683562 454.483494936612
    vertex 611.697577596581 -1336.7871767591 448.207466631436
    vertex 611.697577596581 -1334.96638611925 451.584000000001
  endloop
endfacet
facet normal 1.0 8.38785151472975e-015 -1.95649296399859e-015
  outer loop
    vertex 611.697577596581 -1334.96638611925 451.584000000001
    vertex 611.697577596581 -1336.7871767591 448.207466631436
    vertex 611.697577596581 -1333.56778020419 448.207466631436
  endloop
endfacet
facet normal 7.09020144183333e-014 1.0 1.70907059548414e-014
  outer loop
    vertex 611.69757759658 -1348.09074177223 480.584
    vertex 617.822577596584 -1348.09074177223 484.468455543378
    vertex 625.697577596585 -1348.09074177223 480.584
  endloop
endfacet
facet normal 7.09020144183333e-014 1.0 1.70907059548414e-014
  outer loop
    vertex 617.822577596584 -1348.09074177223 484.468455543378
    vertex 611.69757759658 -1348.09074177223 480.584
    vertex 617.460140729507 -1348.09074177223 484.746563132924
  endloop
endfacet
facet normal 7.09020144183333e-014 1.0 1.70907059548414e-014
  outer loop
    vertex 617.460140729507 -1348.09074177223 484.746563132924
    vertex 611.69757759658 -1348.09074177223 480.584
    vertex 617.182033139961 -1348.09074177223 485.109000000001
  endloop
endfacet
facet normal 7.09020144183333e-014 1.0 1.70907059548414e-014
  outer loop
    vertex 617.182033139961 -1348.09074177223 485.109000000001
    vertex 611.69757759658 -1348.09074177223 480.584
    vertex 617.007207400578 -1348.09074177223 485.531066671071
  endloop
endfacet
facet normal 7.09020144183333e-014 1.0 1.70907059548414e-014
  outer loop
    vertex 617.007207400578 -1348.09074177223 485.531066671071
    vertex 611.69757759658 -1348.09074177223 480.584
    vertex 611.69757759658 -1348.09074177223 506.984000000001
  endloop
endfacet
facet normal 7.09020144183333e-014 1.0 1.70907059548414e-014
  outer loop
    vertex 625.697577596585 -1348.09074177223 480.584
    vertex 617.822577596584 -1348.09074177223 484.468455543378
    vertex 618.244644267654 -1348.09074177223 484.293629803995
  endloop
endfacet
facet normal 7.09020144183333e-014 1.0 1.70907059548414e-014
  outer loop
    vertex 625.697577596585 -1348.09074177223 480.584
    vertex 618.244644267654 -1348.09074177223 484.293629803995
    vertex 618.697577596584 -1348.09074177223 484.234000000001
  endloop
endfacet
facet normal 7.09020144183333e-014 1.0 1.70907059548414e-014
  outer loop
    vertex 617.007207400578 -1348.09074177223 485.531066671071
    vertex 611.69757759658 -1348.09074177223 506.984000000001
    vertex 616.947577596584 -1348.09074177223 485.984000000001
  endloop
endfacet
facet normal 7.09020144183333e-014 1.0 1.70907059548414e-014
  outer loop
    vertex 616.947577596584 -1348.09074177223 485.984000000001
    vertex 611.69757759658 -1348.09074177223 506.984000000001
    vertex 617.007207400578 -1348.09074177223 486.43693332893
  endloop
endfacet
facet normal 7.09020144183333e-014 1.0 1.70907059548414e-014
  outer loop
    vertex 617.007207400578 -1348.09074177223 486.43693332893
    vertex 611.69757759658 -1348.09074177223 506.984000000001
    vertex 617.182033139961 -1348.09074177223 486.859000000001
  endloop
endfacet
facet normal 7.09020144183333e-014 1.0 1.70907059548414e-014
  outer loop
    vertex 617.182033139961 -1348.09074177223 486.859000000001
    vertex 611.69757759658 -1348.09074177223 506.984000000001
    vertex 617.460140729507 -1348.09074177223 487.221436867077
  endloop
endfacet
facet normal 7.09020144183333e-014 1.0 1.70907059548414e-014
  outer loop
    vertex 617.460140729507 -1348.09074177223 487.221436867077
    vertex 611.69757759658 -1348.09074177223 506.984000000001
    vertex 617.822577596584 -1348.09074177223 487.499544456623
  endloop
endfacet
facet normal 7.09020144183333e-014 1.0 1.70907059548414e-014
  outer loop
    vertex 617.822577596584 -1348.09074177223 487.499544456623
    vertex 611.69757759658 -1348.09074177223 506.984000000001
    vertex 618.244644267654 -1348.09074177223 487.674370196006
  endloop
endfacet
facet normal 7.09020144183333e-014 1.0 1.70907059548414e-014
  outer loop
    vertex 618.244644267654 -1348.09074177223 487.674370196006
    vertex 611.69757759658 -1348.09074177223 506.984000000001
    vertex 618.697577596584 -1348.09074177223 487.734000000001
  endloop
endfacet
facet normal 7.09020144183333e-014 1.0 1.70907059548414e-014
  outer loop
    vertex 618.697577596584 -1348.09074177223 487.734000000001
    vertex 611.69757759658 -1348.09074177223 506.984000000001
    vertex 617.182033139961 -1348.09074177223 499.109000000001
  endloop
endfacet
facet normal 7.09020144183333e-014 1.0 1.70907059548414e-014
  outer loop
    vertex 618.697577596584 -1348.09074177223 487.734000000001
    vertex 617.182033139961 -1348.09074177223 499.109000000001
    vertex 617.460140729507 -1348.09074177223 498.746563132924
  endloop
endfacet
facet normal 7.09020144183333e-014 1.0 1.70907059548414e-014
  outer loop
    vertex 618.697577596584 -1348.09074177223 487.734000000001
    vertex 617.460140729507 -1348.09074177223 498.746563132924
    vertex 617.822577596584 -1348.09074177223 498.468455543378
  endloop
endfacet
facet normal 7.09020144183333e-014 1.0 1.70907059548414e-014
  outer loop
    vertex 618.697577596584 -1348.09074177223 487.734000000001
    vertex 617.822577596584 -1348.09074177223 498.468455543378
    vertex 618.244644267654 -1348.09074177223 498.293629803995
  endloop
endfacet
facet normal 7.09020144183333e-014 1.0 1.70907059548414e-014
  outer loop
    vertex 618.697577596584 -1348.09074177223 487.734000000001
    vertex 618.244644267654 -1348.09074177223 498.293629803995
    vertex 618.697577596584 -1348.09074177223 498.234000000001
  endloop
endfacet
facet normal 7.09020144183333e-014 1.0 1.70907059548414e-014
  outer loop
    vertex 617.182033139961 -1348.09074177223 499.109000000001
    vertex 611.69757759658 -1348.09074177223 506.984000000001
    vertex 617.007207400578 -1348.09074177223 499.531066671071
  endloop
endfacet
facet normal 7.09020144183333e-014 1.0 1.70907059548414e-014
  outer loop
    vertex 617.007207400578 -1348.09074177223 499.531066671071
    vertex 611.69757759658 -1348.09074177223 506.984000000001
    vertex 616.947577596584 -1348.09074177223 499.984000000001
  endloop
endfacet
facet normal 7.09020144183333e-014 1.0 1.70907059548414e-014
  outer loop
    vertex 616.947577596584 -1348.09074177223 499.984000000001
    vertex 611.69757759658 -1348.09074177223 506.984000000001
    vertex 617.007207400578 -1348.09074177223 500.43693332893
  endloop
endfacet
facet normal 7.09020144183333e-014 1.0 1.70907059548414e-014
  outer loop
    vertex 617.007207400578 -1348.09074177223 500.43693332893
    vertex 611.69757759658 -1348.09074177223 506.984000000001
    vertex 617.182033139961 -1348.09074177223 500.859000000001
  endloop
endfacet
facet normal 7.09020144183333e-014 1.0 1.70907059548414e-014
  outer loop
    vertex 617.182033139961 -1348.09074177223 500.859000000001
    vertex 611.69757759658 -1348.09074177223 506.984000000001
    vertex 617.460140729507 -1348.09074177223 501.221436867077
  endloop
endfacet
facet normal 7.09020144183333e-014 1.0 1.70907059548414e-014
  outer loop
    vertex 617.460140729507 -1348.09074177223 501.221436867077
    vertex 611.69757759658 -1348.09074177223 506.984000000001
    vertex 617.822577596584 -1348.09074177223 501.499544456623
  endloop
endfacet
facet normal 7.09020144183333e-014 1.0 1.70907059548414e-014
  outer loop
    vertex 617.822577596584 -1348.09074177223 501.499544456623
    vertex 611.69757759658 -1348.09074177223 506.984000000001
    vertex 618.244644267654 -1348.09074177223 501.674370196006
  endloop
endfacet
facet normal 7.09020144183333e-014 1.0 1.70907059548414e-014
  outer loop
    vertex 618.244644267654 -1348.09074177223 501.674370196006
    vertex 611.69757759658 -1348.09074177223 506.984000000001
    vertex 618.697577596584 -1348.09074177223 501.734000000001
  endloop
endfacet
facet normal 7.09020144183333e-014 1.0 1.70907059548414e-014
  outer loop
    vertex 625.697577596585 -1348.09074177223 480.584
    vertex 620.387947792589 -1348.09074177223 485.531066671071
    vertex 625.69757759658 -1348.09074177223 506.984000000001
  endloop
endfacet
facet normal 7.09020144183333e-014 1.0 1.70907059548414e-014
  outer loop
    vertex 620.387947792589 -1348.09074177223 485.531066671071
    vertex 625.697577596585 -1348.09074177223 480.584
    vertex 620.213122053206 -1348.09074177223 485.109000000001
  endloop
endfacet
facet normal 7.09020144183333e-014 1.0 1.70907059548414e-014
  outer loop
    vertex 620.213122053206 -1348.09074177223 485.109000000001
    vertex 625.697577596585 -1348.09074177223 480.584
    vertex 619.93501446366 -1348.09074177223 484.746563132924
  endloop
endfacet
facet normal 7.09020144183333e-014 1.0 1.70907059548414e-014
  outer loop
    vertex 619.93501446366 -1348.09074177223 484.746563132924
    vertex 625.697577596585 -1348.09074177223 480.584
    vertex 619.572577596584 -1348.09074177223 484.468455543378
  endloop
endfacet
facet normal 7.09020144183333e-014 1.0 1.70907059548414e-014
  outer loop
    vertex 619.572577596584 -1348.09074177223 484.468455543378
    vertex 625.697577596585 -1348.09074177223 480.584
    vertex 619.150510925513 -1348.09074177223 484.293629803995
  endloop
endfacet
facet normal 7.09020144183333e-014 1.0 1.70907059548414e-014
  outer loop
    vertex 619.150510925513 -1348.09074177223 484.293629803995
    vertex 625.697577596585 -1348.09074177223 480.584
    vertex 618.697577596584 -1348.09074177223 484.234000000001
  endloop
endfacet
facet normal 7.09020144183333e-014 1.0 1.70907059548414e-014
  outer loop
    vertex 625.69757759658 -1348.09074177223 506.984000000001
    vertex 620.387947792589 -1348.09074177223 485.531066671071
    vertex 620.447577596584 -1348.09074177223 485.984000000001
  endloop
endfacet
facet normal 7.09020144183333e-014 1.0 1.70907059548414e-014
  outer loop
    vertex 625.69757759658 -1348.09074177223 506.984000000001
    vertex 620.447577596584 -1348.09074177223 485.984000000001
    vertex 620.387947792589 -1348.09074177223 486.43693332893
  endloop
endfacet
facet normal 7.09020144183333e-014 1.0 1.70907059548414e-014
  outer loop
    vertex 625.69757759658 -1348.09074177223 506.984000000001
    vertex 620.387947792589 -1348.09074177223 486.43693332893
    vertex 620.213122053206 -1348.09074177223 486.859000000001
  endloop
endfacet
facet normal 7.09020144183333e-014 1.0 1.70907059548414e-014
  outer loop
    vertex 625.69757759658 -1348.09074177223 506.984000000001
    vertex 620.213122053206 -1348.09074177223 486.859000000001
    vertex 619.93501446366 -1348.09074177223 487.221436867077
  endloop
endfacet
facet normal 7.09020144183333e-014 1.0 1.70907059548414e-014
  outer loop
    vertex 625.69757759658 -1348.09074177223 506.984000000001
    vertex 619.93501446366 -1348.09074177223 487.221436867077
    vertex 619.572577596584 -1348.09074177223 487.499544456623
  endloop
endfacet
facet normal 7.09020144183333e-014 1.0 1.70907059548414e-014
  outer loop
    vertex 625.69757759658 -1348.09074177223 506.984000000001
    vertex 619.572577596584 -1348.09074177223 487.499544456623
    vertex 619.150510925513 -1348.09074177223 487.674370196006
  endloop
endfacet
facet normal 7.09020144183333e-014 1.0 1.70907059548414e-014
  outer loop
    vertex 625.69757759658 -1348.09074177223 506.984000000001
    vertex 619.150510925513 -1348.09074177223 487.674370196006
    vertex 618.697577596584 -1348.09074177223 487.734000000001
  endloop
endfacet
facet normal 7.09020144183333e-014 1.0 1.70907059548414e-014
  outer loop
    vertex 625.69757759658 -1348.09074177223 506.984000000001
    vertex 618.697577596584 -1348.09074177223 487.734000000001
    vertex 620.213122053206 -1348.09074177223 499.109000000001
  endloop
endfacet
facet normal 7.09020144183333e-014 1.0 1.70907059548414e-014
  outer loop
    vertex 620.213122053206 -1348.09074177223 499.109000000001
    vertex 618.697577596584 -1348.09074177223 487.734000000001
    vertex 619.93501446366 -1348.09074177223 498.746563132924
  endloop
endfacet
facet normal 7.09020144183333e-014 1.0 1.70907059548414e-014
  outer loop
    vertex 619.93501446366 -1348.09074177223 498.746563132924
    vertex 618.697577596584 -1348.09074177223 487.734000000001
    vertex 619.572577596584 -1348.09074177223 498.468455543378
  endloop
endfacet
facet normal 7.09020144183333e-014 1.0 1.70907059548414e-014
  outer loop
    vertex 619.572577596584 -1348.09074177223 498.468455543378
    vertex 618.697577596584 -1348.09074177223 487.734000000001
    vertex 619.150510925513 -1348.09074177223 498.293629803995
  endloop
endfacet
facet normal 7.09020144183333e-014 1.0 1.70907059548414e-014
  outer loop
    vertex 619.150510925513 -1348.09074177223 498.293629803995
    vertex 618.697577596584 -1348.09074177223 487.734000000001
    vertex 618.697577596584 -1348.09074177223 498.234000000001
  endloop
endfacet
facet normal 7.09020144183333e-014 1.0 1.70907059548414e-014
  outer loop
    vertex 625.69757759658 -1348.09074177223 506.984000000001
    vertex 620.213122053206 -1348.09074177223 499.109000000001
    vertex 620.387947792589 -1348.09074177223 499.531066671071
  endloop
endfacet
facet normal 7.09020144183333e-014 1.0 1.70907059548414e-014
  outer loop
    vertex 625.69757759658 -1348.09074177223 506.984000000001
    vertex 620.387947792589 -1348.09074177223 499.531066671071
    vertex 620.447577596584 -1348.09074177223 499.984000000001
  endloop
endfacet
facet normal 7.09020144183333e-014 1.0 1.70907059548414e-014
  outer loop
    vertex 625.69757759658 -1348.09074177223 506.984000000001
    vertex 620.447577596584 -1348.09074177223 499.984000000001
    vertex 620.387947792589 -1348.09074177223 500.43693332893
  endloop
endfacet
facet normal 7.09020144183333e-014 1.0 1.70907059548414e-014
  outer loop
    vertex 625.69757759658 -1348.09074177223 506.984000000001
    vertex 620.387947792589 -1348.09074177223 500.43693332893
    vertex 620.213122053206 -1348.09074177223 500.859000000001
  endloop
endfacet
facet normal 7.09020144183333e-014 1.0 1.70907059548414e-014
  outer loop
    vertex 625.69757759658 -1348.09074177223 506.984000000001
    vertex 620.213122053206 -1348.09074177223 500.859000000001
    vertex 619.93501446366 -1348.09074177223 501.221436867077
  endloop
endfacet
facet normal 7.09020144183333e-014 1.0 1.70907059548414e-014
  outer loop
    vertex 625.69757759658 -1348.09074177223 506.984000000001
    vertex 619.93501446366 -1348.09074177223 501.221436867077
    vertex 619.572577596584 -1348.09074177223 501.499544456623
  endloop
endfacet
facet normal 7.09020144183333e-014 1.0 1.70907059548414e-014
  outer loop
    vertex 625.69757759658 -1348.09074177223 506.984000000001
    vertex 619.572577596584 -1348.09074177223 501.499544456623
    vertex 619.150510925513 -1348.09074177223 501.674370196006
  endloop
endfacet
facet normal 7.09020144183333e-014 1.0 1.70907059548414e-014
  outer loop
    vertex 625.69757759658 -1348.09074177223 506.984000000001
    vertex 619.150510925513 -1348.09074177223 501.674370196006
    vertex 618.697577596584 -1348.09074177223 501.734000000001
  endloop
endfacet
facet normal 7.09020144183333e-014 1.0 1.70907059548414e-014
  outer loop
    vertex 625.69757759658 -1348.09074177223 506.984000000001
    vertex 618.697577596584 -1348.09074177223 501.734000000001
    vertex 611.69757759658 -1348.09074177223 506.984000000001
  endloop
endfacet
facet normal 0.13052619222014 6.11477721414053e-015 -0.991444861373799
  outer loop
    vertex 618.244644267654 -1348.09074177223 501.674370196006
    vertex 618.697577596583 -1353.09074177223 501.734
    vertex 618.244644267654 -1353.09074177223 501.674370196006
  endloop
endfacet
facet normal 0.13052619222014 6.11477721414053e-015 -0.991444861373799
  outer loop
    vertex 618.697577596583 -1353.09074177223 501.734
    vertex 618.244644267654 -1348.09074177223 501.674370196006
    vertex 618.697577596584 -1348.09074177223 501.734000000001
  endloop
endfacet
facet normal -0.793353340291148 8.25770330507131e-014 -0.608761429008834
  outer loop
    vertex 619.93501446366 -1348.09074177223 501.221436867077
    vertex 620.213122053206 -1353.09074177223 500.859
    vertex 619.93501446366 -1353.09074177223 501.221436867077
  endloop
endfacet
facet normal -0.793353340291148 8.25770330507131e-014 -0.608761429008834
  outer loop
    vertex 620.213122053206 -1353.09074177223 500.859
    vertex 619.93501446366 -1348.09074177223 501.221436867077
    vertex 620.213122053206 -1348.09074177223 500.859000000001
  endloop
endfacet
facet normal -0.793353340291148 6.06047828436847e-014 0.608761429008834
  outer loop
    vertex 620.213122053206 -1348.09074177223 499.109000000001
    vertex 619.93501446366 -1353.09074177223 498.746563132924
    vertex 620.213122053206 -1353.09074177223 499.109000000001
  endloop
endfacet
facet normal -0.793353340291148 6.06047828436847e-014 0.608761429008834
  outer loop
    vertex 619.93501446366 -1353.09074177223 498.746563132924
    vertex 620.213122053206 -1348.09074177223 499.109000000001
    vertex 619.93501446366 -1348.09074177223 498.746563132924
  endloop
endfacet
facet normal 0.608761429008834 -6.92548680381129e-014 0.793353340291148
  outer loop
    vertex 617.822577596583 -1353.09074177223 498.468455543378
    vertex 617.460140729507 -1348.09074177223 498.746563132924
    vertex 617.460140729507 -1353.09074177223 498.746563132924
  endloop
endfacet
facet normal 0.608761429008834 -6.92548680381129e-014 0.793353340291148
  outer loop
    vertex 617.460140729507 -1348.09074177223 498.746563132924
    vertex 617.822577596583 -1353.09074177223 498.468455543378
    vertex 617.822577596584 -1348.09074177223 498.468455543378
  endloop
endfacet
facet normal -0.923879532511348 7.64638125623771e-014 0.382683432364942
  outer loop
    vertex 620.387947792589 -1348.09074177223 499.531066671071
    vertex 620.213122053206 -1353.09074177223 499.109000000001
    vertex 620.387947792589 -1353.09074177223 499.531066671071
  endloop
endfacet
facet normal -0.923879532511348 7.64638125623771e-014 0.382683432364942
  outer loop
    vertex 620.213122053206 -1353.09074177223 499.109000000001
    vertex 620.387947792589 -1348.09074177223 499.531066671071
    vertex 620.213122053206 -1348.09074177223 499.109000000001
  endloop
endfacet
facet normal 0.923879532511348 -9.02772171910231e-014 0.382683432364942
  outer loop
    vertex 617.182033139961 -1348.09074177223 499.109000000001
    vertex 617.007207400577 -1353.09074177223 499.531066671071
    vertex 617.18203313996 -1353.09074177223 499.109000000001
  endloop
endfacet
facet normal 0.923879532511348 -9.02772171910231e-014 0.382683432364942
  outer loop
    vertex 617.007207400577 -1353.09074177223 499.531066671071
    vertex 617.182033139961 -1348.09074177223 499.109000000001
    vertex 617.007207400578 -1348.09074177223 499.531066671071
  endloop
endfacet
facet normal 0.991444861373799 -9.18232851682824e-014 0.13052619222014
  outer loop
    vertex 617.007207400578 -1348.09074177223 499.531066671071
    vertex 616.947577596583 -1353.09074177223 499.984
    vertex 617.007207400577 -1353.09074177223 499.531066671071
  endloop
endfacet
facet normal 0.991444861373799 -9.18232851682824e-014 0.13052619222014
  outer loop
    vertex 616.947577596583 -1353.09074177223 499.984
    vertex 617.007207400578 -1348.09074177223 499.531066671071
    vertex 616.947577596584 -1348.09074177223 499.984000000001
  endloop
endfacet
facet normal 5.74304675916327e-016 -2.16773910401088e-014 1.0
  outer loop
    vertex 606.69757759658 -1353.09074177223 506.984000000001
    vertex 611.69757759658 -1348.09074177223 506.984000000001
    vertex 606.69757759658 -1345.09074177223 506.984000000001
  endloop
endfacet
facet normal 5.74304675916327e-016 -2.16773910401088e-014 1.0
  outer loop
    vertex 611.69757759658 -1348.09074177223 506.984000000001
    vertex 606.69757759658 -1353.09074177223 506.984000000001
    vertex 625.69757759658 -1353.09074177223 506.984000000001
  endloop
endfacet
facet normal 5.74304675916327e-016 -2.16773910401088e-014 1.0
  outer loop
    vertex 611.69757759658 -1348.09074177223 506.984000000001
    vertex 625.69757759658 -1353.09074177223 506.984000000001
    vertex 625.69757759658 -1348.09074177223 506.984000000001
  endloop
endfacet
facet normal 5.74304675916327e-016 -2.16773910401088e-014 1.0
  outer loop
    vertex 611.697577596581 -1345.09074177223 506.984000000001
    vertex 606.69757759658 -1345.09074177223 506.984000000001
    vertex 611.69757759658 -1348.09074177223 506.984000000001
  endloop
endfacet
facet normal -0.991444861373799 8.71114248870606e-014 0.13052619222014
  outer loop
    vertex 620.447577596584 -1348.09074177223 499.984000000001
    vertex 620.387947792589 -1353.09074177223 499.531066671071
    vertex 620.447577596583 -1353.09074177223 499.984
  endloop
endfacet
facet normal -0.991444861373799 8.71114248870606e-014 0.13052619222014
  outer loop
    vertex 620.387947792589 -1353.09074177223 499.531066671071
    vertex 620.447577596584 -1348.09074177223 499.984000000001
    vertex 620.387947792589 -1348.09074177223 499.531066671071
  endloop
endfacet
facet normal 0.991444861373799 -8.71107313873698e-014 -0.13052619222014
  outer loop
    vertex 616.947577596584 -1348.09074177223 499.984000000001
    vertex 617.007207400577 -1353.09074177223 500.43693332893
    vertex 616.947577596583 -1353.09074177223 499.984
  endloop
endfacet
facet normal 0.991444861373799 -8.71107313873698e-014 -0.13052619222014
  outer loop
    vertex 617.007207400577 -1353.09074177223 500.43693332893
    vertex 616.947577596584 -1348.09074177223 499.984000000001
    vertex 617.007207400578 -1348.09074177223 500.43693332893
  endloop
endfacet
facet normal 0.923879532511348 -7.64638125623783e-014 -0.382683432364942
  outer loop
    vertex 617.007207400578 -1348.09074177223 500.43693332893
    vertex 617.18203313996 -1353.09074177223 500.859
    vertex 617.007207400577 -1353.09074177223 500.43693332893
  endloop
endfacet
facet normal 0.923879532511348 -7.64638125623783e-014 -0.382683432364942
  outer loop
    vertex 617.18203313996 -1353.09074177223 500.859
    vertex 617.007207400578 -1348.09074177223 500.43693332893
    vertex 617.182033139961 -1348.09074177223 500.859000000001
  endloop
endfacet
facet normal -1.0 -2.15653868369268e-015 -6.4757453422479e-015
  outer loop
    vertex 606.69757759658 -1345.09074177223 506.984000000001
    vertex 606.697577596582 -1353.09074177223 457.122569215358
    vertex 606.69757759658 -1353.09074177223 506.984000000001
  endloop
endfacet
facet normal -1.0 -2.15653868369268e-015 -6.4757453422479e-015
  outer loop
    vertex 606.697577596582 -1353.09074177223 457.122569215358
    vertex 606.69757759658 -1345.09074177223 506.984000000001
    vertex 606.69757759658 -1352.59074177223 454.110279441629
  endloop
endfacet
facet normal -1.0 -2.15653868369268e-015 -6.4757453422479e-015
  outer loop
    vertex 606.69757759658 -1352.59074177223 454.110279441629
    vertex 606.69757759658 -1345.09074177223 506.984000000001
    vertex 606.69757759658 -1349.93775126836 455.20918408918
  endloop
endfacet
facet normal -1.0 -2.15653868369268e-015 -6.4757453422479e-015
  outer loop
    vertex 606.69757759658 -1349.93775126836 455.20918408918
    vertex 606.69757759658 -1345.09074177223 506.984000000001
    vertex 606.69757759658 -1347.09074177223 455.584000000001
  endloop
endfacet
facet normal -1.0 -2.15653868369268e-015 -6.4757453422479e-015
  outer loop
    vertex 606.69757759658 -1347.09074177223 455.584000000001
    vertex 606.69757759658 -1345.09074177223 506.984000000001
    vertex 606.697577596583 -1345.09074177223 458.320695004825
  endloop
endfacet
facet normal -1.0 -2.15653868369268e-015 -6.4757453422479e-015
  outer loop
    vertex 606.69757759658 -1347.09074177223 455.584000000001
    vertex 606.697577596583 -1345.09074177223 458.320695004825
    vertex 606.69757759658 -1344.2437322761 455.20918408918
  endloop
endfacet
facet normal -1.0 -2.15653868369268e-015 -6.4757453422479e-015
  outer loop
    vertex 606.69757759658 -1344.2437322761 455.20918408918
    vertex 606.697577596583 -1345.09074177223 458.320695004825
    vertex 606.69757759658 -1343.4672751408 458.106961568047
  endloop
endfacet
facet normal -1.0 -2.15653868369268e-015 -6.4757453422479e-015
  outer loop
    vertex 606.69757759658 -1344.2437322761 455.20918408918
    vertex 606.69757759658 -1343.4672751408 458.106961568047
    vertex 606.69757759658 -1341.59074177223 454.110279441629
  endloop
endfacet
facet normal -1.0 -2.15653868369268e-015 -6.4757453422479e-015
  outer loop
    vertex 606.69757759658 -1341.59074177223 454.110279441629
    vertex 606.69757759658 -1343.4672751408 458.106961568047
    vertex 606.69757759658 -1340.09074177223 456.708355652983
  endloop
endfacet
facet normal -1.0 -2.15653868369268e-015 -6.4757453422479e-015
  outer loop
    vertex 606.69757759658 -1341.59074177223 454.110279441629
    vertex 606.69757759658 -1340.09074177223 456.708355652983
    vertex 606.69757759658 -1339.31256717918 452.362174593052
  endloop
endfacet
facet normal -1.0 -2.15653868369268e-015 -6.4757453422479e-015
  outer loop
    vertex 606.69757759658 -1339.31256717918 452.362174593052
    vertex 606.69757759658 -1340.09074177223 456.708355652983
    vertex 606.69757759658 -1337.19124683562 454.483494936612
  endloop
endfacet
facet normal -1.0 -2.15653868369268e-015 -6.4757453422479e-015
  outer loop
    vertex 606.69757759658 -1339.31256717918 452.362174593052
    vertex 606.69757759658 -1337.19124683562 454.483494936612
    vertex 606.69757759658 -1337.5644623306 450.084
  endloop
endfacet
facet normal -1.0 -2.15653868369268e-015 -6.4757453422479e-015
  outer loop
    vertex 606.69757759658 -1337.5644623306 450.084
    vertex 606.69757759658 -1337.19124683562 454.483494936612
    vertex 606.69757759658 -1336.7871767591 448.207466631436
  endloop
endfacet
facet normal -1.0 -2.15653868369268e-015 -6.4757453422479e-015
  outer loop
    vertex 606.69757759658 -1336.7871767591 448.207466631436
    vertex 606.69757759658 -1337.19124683562 454.483494936612
    vertex 606.69757759658 -1334.96638611925 451.584000000001
  endloop
endfacet
facet normal -1.0 -2.15653868369268e-015 -6.4757453422479e-015
  outer loop
    vertex 606.69757759658 -1336.7871767591 448.207466631436
    vertex 606.69757759658 -1334.96638611925 451.584000000001
    vertex 606.69757759658 -1333.56778020419 448.207466631436
  endloop
endfacet
facet normal -1.0 -2.15653868369268e-015 -6.4757453422479e-015
  outer loop
    vertex 606.69757759658 -1359.21509742521 451.584
    vertex 606.69757759658 -1357.39430678537 448.207466631436
    vertex 606.69757759658 -1360.61370334028 448.207466631436
  endloop
endfacet
facet normal -1.0 -2.15653868369268e-015 -6.4757453422479e-015
  outer loop
    vertex 606.69757759658 -1357.39430678537 448.207466631436
    vertex 606.69757759658 -1359.21509742521 451.584
    vertex 606.69757759658 -1356.99023670884 454.483494936612
  endloop
endfacet
facet normal -1.0 -2.15653868369268e-015 -6.4757453422479e-015
  outer loop
    vertex 606.69757759658 -1357.39430678537 448.207466631436
    vertex 606.69757759658 -1356.99023670884 454.483494936612
    vertex 606.69757759658 -1356.61702121386 450.084
  endloop
endfacet
facet normal -1.0 -2.15653868369268e-015 -6.4757453422479e-015
  outer loop
    vertex 606.69757759658 -1356.61702121386 450.084
    vertex 606.69757759658 -1356.99023670884 454.483494936612
    vertex 606.69757759658 -1354.09074177223 456.708355652983
  endloop
endfacet
facet normal -1.0 -2.15653868369268e-015 -6.4757453422479e-015
  outer loop
    vertex 606.69757759658 -1356.61702121386 450.084
    vertex 606.69757759658 -1354.09074177223 456.708355652983
    vertex 606.69757759658 -1354.86891636528 452.362174593052
  endloop
endfacet
facet normal -1.0 -2.15653868369268e-015 -6.4757453422479e-015
  outer loop
    vertex 606.69757759658 -1354.86891636528 452.362174593052
    vertex 606.69757759658 -1354.09074177223 456.708355652983
    vertex 606.69757759658 -1352.59074177223 454.110279441629
  endloop
endfacet
facet normal -1.0 -2.15653868369268e-015 -6.4757453422479e-015
  outer loop
    vertex 606.69757759658 -1352.59074177223 454.110279441629
    vertex 606.69757759658 -1354.09074177223 456.708355652983
    vertex 606.697577596582 -1353.09074177223 457.122569215358
  endloop
endfacet
facet normal -0.13052619222014 2.96722341468975e-014 -0.991444861373799
  outer loop
    vertex 618.697577596584 -1348.09074177223 501.734000000001
    vertex 619.150510925512 -1353.09074177223 501.674370196006
    vertex 618.697577596583 -1353.09074177223 501.734
  endloop
endfacet
facet normal -0.13052619222014 2.96722341468975e-014 -0.991444861373799
  outer loop
    vertex 619.150510925512 -1353.09074177223 501.674370196006
    vertex 618.697577596584 -1348.09074177223 501.734000000001
    vertex 619.150510925513 -1348.09074177223 501.674370196006
  endloop
endfacet
facet normal -0.608761429008834 6.92509450114289e-014 -0.793353340291148
  outer loop
    vertex 619.572577596584 -1348.09074177223 501.499544456623
    vertex 619.93501446366 -1353.09074177223 501.221436867077
    vertex 619.572577596583 -1353.09074177223 501.499544456623
  endloop
endfacet
facet normal -0.608761429008834 6.92509450114289e-014 -0.793353340291148
  outer loop
    vertex 619.93501446366 -1353.09074177223 501.221436867077
    vertex 619.572577596584 -1348.09074177223 501.499544456623
    vertex 619.93501446366 -1348.09074177223 501.221436867077
  endloop
endfacet
facet normal -0.991444861373799 9.18225916685916e-014 -0.13052619222014
  outer loop
    vertex 620.387947792589 -1348.09074177223 500.43693332893
    vertex 620.447577596583 -1353.09074177223 499.984
    vertex 620.387947792589 -1353.09074177223 500.43693332893
  endloop
endfacet
facet normal -0.991444861373799 9.18225916685916e-014 -0.13052619222014
  outer loop
    vertex 620.447577596583 -1353.09074177223 499.984
    vertex 620.387947792589 -1348.09074177223 500.43693332893
    vertex 620.447577596584 -1348.09074177223 499.984000000001
  endloop
endfacet
facet normal 1.0 -9.02389274415334e-014 1.64070777166419e-013
  outer loop
    vertex 625.697577596584 -1353.09074177223 480.584
    vertex 625.69757759658 -1348.09074177223 506.984000000001
    vertex 625.69757759658 -1353.09074177223 506.984000000001
  endloop
endfacet
facet normal 1.0 -9.02389274415334e-014 1.64070777166419e-013
  outer loop
    vertex 625.69757759658 -1348.09074177223 506.984000000001
    vertex 625.697577596584 -1353.09074177223 480.584
    vertex 625.697577596585 -1348.09074177223 480.584
  endloop
endfacet
facet normal -0.608761429008834 4.06161510432217e-014 0.793353340291148
  outer loop
    vertex 619.93501446366 -1353.09074177223 498.746563132924
    vertex 619.572577596584 -1348.09074177223 498.468455543378
    vertex 619.572577596583 -1353.09074177223 498.468455543378
  endloop
endfacet
facet normal -0.608761429008834 4.06161510432217e-014 0.793353340291148
  outer loop
    vertex 619.572577596584 -1348.09074177223 498.468455543378
    vertex 619.93501446366 -1353.09074177223 498.746563132924
    vertex 619.93501446366 -1348.09074177223 498.746563132924
  endloop
endfacet
facet normal -0.382683432364942 1.78587218113145e-014 0.923879532511348
  outer loop
    vertex 619.572577596583 -1353.09074177223 498.468455543378
    vertex 619.150510925513 -1348.09074177223 498.293629803995
    vertex 619.150510925512 -1353.09074177223 498.293629803995
  endloop
endfacet
facet normal -0.382683432364942 1.78587218113145e-014 0.923879532511348
  outer loop
    vertex 619.150510925513 -1348.09074177223 498.293629803995
    vertex 619.572577596583 -1353.09074177223 498.468455543378
    vertex 619.572577596584 -1348.09074177223 498.468455543378
  endloop
endfacet
facet normal 0.13052619222014 -2.96722341468975e-014 0.991444861373799
  outer loop
    vertex 618.697577596583 -1353.09074177223 498.234000000001
    vertex 618.244644267654 -1348.09074177223 498.293629803995
    vertex 618.244644267654 -1353.09074177223 498.293629803995
  endloop
endfacet
facet normal 0.13052619222014 -2.96722341468975e-014 0.991444861373799
  outer loop
    vertex 618.244644267654 -1348.09074177223 498.293629803995
    vertex 618.697577596583 -1353.09074177223 498.234000000001
    vertex 618.697577596584 -1348.09074177223 498.234000000001
  endloop
endfacet
facet normal -0.382683432364942 5.12072306083488e-014 -0.923879532511348
  outer loop
    vertex 619.150510925513 -1348.09074177223 501.674370196006
    vertex 619.572577596583 -1353.09074177223 501.499544456623
    vertex 619.150510925512 -1353.09074177223 501.674370196006
  endloop
endfacet
facet normal -0.382683432364942 5.12072306083488e-014 -0.923879532511348
  outer loop
    vertex 619.572577596583 -1353.09074177223 501.499544456623
    vertex 619.150510925513 -1348.09074177223 501.674370196006
    vertex 619.572577596584 -1348.09074177223 501.499544456623
  endloop
endfacet
facet normal 0.382683432364942 -5.12072306083488e-014 0.923879532511348
  outer loop
    vertex 618.244644267654 -1353.09074177223 498.293629803995
    vertex 617.822577596584 -1348.09074177223 498.468455543378
    vertex 617.822577596583 -1353.09074177223 498.468455543378
  endloop
endfacet
facet normal 0.382683432364942 -5.12072306083488e-014 0.923879532511348
  outer loop
    vertex 617.822577596584 -1348.09074177223 498.468455543378
    vertex 618.244644267654 -1353.09074177223 498.293629803995
    vertex 618.244644267654 -1348.09074177223 498.293629803995
  endloop
endfacet
facet normal -0.923879532511348 9.02761464674629e-014 -0.382683432364942
  outer loop
    vertex 620.213122053206 -1348.09074177223 500.859000000001
    vertex 620.387947792589 -1353.09074177223 500.43693332893
    vertex 620.213122053206 -1353.09074177223 500.859
  endloop
endfacet
facet normal -0.923879532511348 9.02761464674629e-014 -0.382683432364942
  outer loop
    vertex 620.387947792589 -1353.09074177223 500.43693332893
    vertex 620.213122053206 -1348.09074177223 500.859000000001
    vertex 620.387947792589 -1348.09074177223 500.43693332893
  endloop
endfacet
facet normal -0.13052619222014 -6.11477721414053e-015 0.991444861373799
  outer loop
    vertex 619.150510925512 -1353.09074177223 498.293629803995
    vertex 618.697577596584 -1348.09074177223 498.234000000001
    vertex 618.697577596583 -1353.09074177223 498.234000000001
  endloop
endfacet
facet normal -0.13052619222014 -6.11477721414053e-015 0.991444861373799
  outer loop
    vertex 618.697577596584 -1348.09074177223 498.234000000001
    vertex 619.150510925512 -1353.09074177223 498.293629803995
    vertex 619.150510925513 -1348.09074177223 498.293629803995
  endloop
endfacet
facet normal 0.793353340291148 -8.25770330507141e-014 0.608761429008834
  outer loop
    vertex 617.460140729507 -1348.09074177223 498.746563132924
    vertex 617.18203313996 -1353.09074177223 499.109000000001
    vertex 617.460140729507 -1353.09074177223 498.746563132924
  endloop
endfacet
facet normal 0.793353340291148 -8.25770330507141e-014 0.608761429008834
  outer loop
    vertex 617.18203313996 -1353.09074177223 499.109000000001
    vertex 617.460140729507 -1348.09074177223 498.746563132924
    vertex 617.182033139961 -1348.09074177223 499.109000000001
  endloop
endfacet
facet normal 0.793353340291148 -6.06013762932653e-014 -0.608761429008834
  outer loop
    vertex 617.182033139961 -1348.09074177223 500.859000000001
    vertex 617.460140729507 -1353.09074177223 501.221436867077
    vertex 617.18203313996 -1353.09074177223 500.859
  endloop
endfacet
facet normal 0.793353340291148 -6.06013762932653e-014 -0.608761429008834
  outer loop
    vertex 617.460140729507 -1353.09074177223 501.221436867077
    vertex 617.182033139961 -1348.09074177223 500.859000000001
    vertex 617.460140729507 -1348.09074177223 501.221436867077
  endloop
endfacet
facet normal 0.13052619222014 -2.96718873970528e-014 0.991444861373799
  outer loop
    vertex 618.697577596583 -1353.09074177223 484.234000000001
    vertex 618.244644267654 -1348.09074177223 484.293629803995
    vertex 618.244644267654 -1353.09074177223 484.293629803995
  endloop
endfacet
facet normal 0.13052619222014 -2.96718873970528e-014 0.991444861373799
  outer loop
    vertex 618.244644267654 -1348.09074177223 484.293629803995
    vertex 618.697577596583 -1353.09074177223 484.234000000001
    vertex 618.697577596584 -1348.09074177223 484.234000000001
  endloop
endfacet
facet normal 0.608761429008834 -6.92526482866388e-014 0.793353340291148
  outer loop
    vertex 617.822577596583 -1353.09074177223 484.468455543378
    vertex 617.460140729507 -1348.09074177223 484.746563132924
    vertex 617.460140729507 -1353.09074177223 484.746563132924
  endloop
endfacet
facet normal 0.608761429008834 -6.92526482866388e-014 0.793353340291148
  outer loop
    vertex 617.460140729507 -1348.09074177223 484.746563132924
    vertex 617.822577596583 -1353.09074177223 484.468455543378
    vertex 617.822577596584 -1348.09074177223 484.468455543378
  endloop
endfacet
facet normal 0.382683432364942 -5.12072306083488e-014 0.923879532511348
  outer loop
    vertex 618.244644267654 -1353.09074177223 484.293629803995
    vertex 617.822577596584 -1348.09074177223 484.468455543378
    vertex 617.822577596583 -1353.09074177223 484.468455543378
  endloop
endfacet
facet normal 0.382683432364942 -5.12072306083488e-014 0.923879532511348
  outer loop
    vertex 617.822577596584 -1348.09074177223 484.468455543378
    vertex 618.244644267654 -1353.09074177223 484.293629803995
    vertex 618.244644267654 -1348.09074177223 484.293629803995
  endloop
endfacet
facet normal 0.793353340291148 -8.25814725536528e-014 0.608761429008834
  outer loop
    vertex 617.460140729507 -1348.09074177223 484.746563132924
    vertex 617.18203313996 -1353.09074177223 485.109000000001
    vertex 617.460140729507 -1353.09074177223 484.746563132924
  endloop
endfacet
facet normal 0.793353340291148 -8.25814725536528e-014 0.608761429008834
  outer loop
    vertex 617.18203313996 -1353.09074177223 485.109000000001
    vertex 617.460140729507 -1348.09074177223 484.746563132924
    vertex 617.182033139961 -1348.09074177223 485.109000000001
  endloop
endfacet
facet normal 0.923879532511348 -9.02761464674629e-014 0.382683432364942
  outer loop
    vertex 617.182033139961 -1348.09074177223 485.109000000001
    vertex 617.007207400577 -1353.09074177223 485.531066671071
    vertex 617.18203313996 -1353.09074177223 485.109000000001
  endloop
endfacet
facet normal 0.923879532511348 -9.02761464674629e-014 0.382683432364942
  outer loop
    vertex 617.007207400577 -1353.09074177223 485.531066671071
    vertex 617.182033139961 -1348.09074177223 485.109000000001
    vertex 617.007207400578 -1348.09074177223 485.531066671071
  endloop
endfacet
facet normal 0.991444861373799 -9.18225916685916e-014 0.13052619222014
  outer loop
    vertex 617.007207400578 -1348.09074177223 485.531066671071
    vertex 616.947577596583 -1353.09074177223 485.984000000001
    vertex 617.007207400577 -1353.09074177223 485.531066671071
  endloop
endfacet
facet normal 0.991444861373799 -9.18225916685916e-014 0.13052619222014
  outer loop
    vertex 616.947577596583 -1353.09074177223 485.984000000001
    vertex 617.007207400578 -1348.09074177223 485.531066671071
    vertex 616.947577596584 -1348.09074177223 485.984000000001
  endloop
endfacet
facet normal 0.608761429008834 -4.06139312917513e-014 -0.793353340291148
  outer loop
    vertex 617.460140729507 -1348.09074177223 501.221436867077
    vertex 617.822577596583 -1353.09074177223 501.499544456623
    vertex 617.460140729507 -1353.09074177223 501.221436867077
  endloop
endfacet
facet normal 0.608761429008834 -4.06139312917513e-014 -0.793353340291148
  outer loop
    vertex 617.822577596583 -1353.09074177223 501.499544456623
    vertex 617.460140729507 -1348.09074177223 501.221436867077
    vertex 617.822577596584 -1348.09074177223 501.499544456623
  endloop
endfacet
facet normal 0.382683432364942 -1.7858721811314e-014 -0.923879532511348
  outer loop
    vertex 617.822577596584 -1348.09074177223 501.499544456623
    vertex 618.244644267654 -1353.09074177223 501.674370196006
    vertex 617.822577596583 -1353.09074177223 501.499544456623
  endloop
endfacet
facet normal 0.382683432364942 -1.7858721811314e-014 -0.923879532511348
  outer loop
    vertex 618.244644267654 -1353.09074177223 501.674370196006
    vertex 617.822577596584 -1348.09074177223 501.499544456623
    vertex 618.244644267654 -1348.09074177223 501.674370196006
  endloop
endfacet
facet normal 0.923879532511348 -7.6462741838819e-014 -0.382683432364942
  outer loop
    vertex 617.007207400578 -1348.09074177223 486.43693332893
    vertex 617.18203313996 -1353.09074177223 486.859
    vertex 617.007207400577 -1353.09074177223 486.43693332893
  endloop
endfacet
facet normal 0.923879532511348 -7.6462741838819e-014 -0.382683432364942
  outer loop
    vertex 617.18203313996 -1353.09074177223 486.859
    vertex 617.007207400578 -1348.09074177223 486.43693332893
    vertex 617.182033139961 -1348.09074177223 486.859000000001
  endloop
endfacet
facet normal -0.382683432364942 5.12072306083488e-014 -0.923879532511348
  outer loop
    vertex 619.150510925513 -1348.09074177223 487.674370196006
    vertex 619.572577596583 -1353.09074177223 487.499544456623
    vertex 619.150510925512 -1353.09074177223 487.674370196006
  endloop
endfacet
facet normal -0.382683432364942 5.12072306083488e-014 -0.923879532511348
  outer loop
    vertex 619.572577596583 -1353.09074177223 487.499544456623
    vertex 619.150510925513 -1348.09074177223 487.674370196006
    vertex 619.572577596584 -1348.09074177223 487.499544456623
  endloop
endfacet
facet normal -0.608761429008834 6.92509450114289e-014 -0.793353340291148
  outer loop
    vertex 619.572577596584 -1348.09074177223 487.499544456623
    vertex 619.93501446366 -1353.09074177223 487.221436867077
    vertex 619.572577596583 -1353.09074177223 487.499544456623
  endloop
endfacet
facet normal -0.608761429008834 6.92509450114289e-014 -0.793353340291148
  outer loop
    vertex 619.93501446366 -1353.09074177223 487.221436867077
    vertex 619.572577596584 -1348.09074177223 487.499544456623
    vertex 619.93501446366 -1348.09074177223 487.221436867077
  endloop
endfacet
facet normal -0.13052619222014 2.96718873970528e-014 -0.991444861373799
  outer loop
    vertex 618.697577596584 -1348.09074177223 487.734000000001
    vertex 619.150510925512 -1353.09074177223 487.674370196006
    vertex 618.697577596583 -1353.09074177223 487.734
  endloop
endfacet
facet normal -0.13052619222014 2.96718873970528e-014 -0.991444861373799
  outer loop
    vertex 619.150510925512 -1353.09074177223 487.674370196006
    vertex 618.697577596584 -1348.09074177223 487.734000000001
    vertex 619.150510925513 -1348.09074177223 487.674370196006
  endloop
endfacet
facet normal -0.793353340291148 8.25736265002926e-014 -0.608761429008834
  outer loop
    vertex 619.93501446366 -1348.09074177223 487.221436867077
    vertex 620.213122053206 -1353.09074177223 486.859
    vertex 619.93501446366 -1353.09074177223 487.221436867077
  endloop
endfacet
facet normal -0.793353340291148 8.25736265002926e-014 -0.608761429008834
  outer loop
    vertex 620.213122053206 -1353.09074177223 486.859
    vertex 619.93501446366 -1348.09074177223 487.221436867077
    vertex 620.213122053206 -1348.09074177223 486.859000000001
  endloop
endfacet
facet normal -0.923879532511348 9.02761464674629e-014 -0.382683432364942
  outer loop
    vertex 620.213122053206 -1348.09074177223 486.859000000001
    vertex 620.387947792589 -1353.09074177223 486.43693332893
    vertex 620.213122053206 -1353.09074177223 486.859
  endloop
endfacet
facet normal -0.923879532511348 9.02761464674629e-014 -0.382683432364942
  outer loop
    vertex 620.387947792589 -1353.09074177223 486.43693332893
    vertex 620.213122053206 -1348.09074177223 486.859000000001
    vertex 620.387947792589 -1348.09074177223 486.43693332893
  endloop
endfacet
facet normal -0.991444861373799 9.18225916685916e-014 -0.13052619222014
  outer loop
    vertex 620.387947792589 -1348.09074177223 486.43693332893
    vertex 620.447577596583 -1353.09074177223 485.984000000001
    vertex 620.387947792589 -1353.09074177223 486.43693332893
  endloop
endfacet
facet normal -0.991444861373799 9.18225916685916e-014 -0.13052619222014
  outer loop
    vertex 620.447577596583 -1353.09074177223 485.984000000001
    vertex 620.387947792589 -1348.09074177223 486.43693332893
    vertex 620.447577596584 -1348.09074177223 485.984000000001
  endloop
endfacet
facet normal 0.608761429008834 -4.06139312917513e-014 -0.793353340291148
  outer loop
    vertex 617.460140729507 -1348.09074177223 487.221436867077
    vertex 617.822577596583 -1353.09074177223 487.499544456623
    vertex 617.460140729507 -1353.09074177223 487.221436867077
  endloop
endfacet
facet normal 0.608761429008834 -4.06139312917513e-014 -0.793353340291148
  outer loop
    vertex 617.822577596583 -1353.09074177223 487.499544456623
    vertex 617.460140729507 -1348.09074177223 487.221436867077
    vertex 617.822577596584 -1348.09074177223 487.499544456623
  endloop
endfacet
facet normal 0.793353340291148 -6.0605815796204e-014 -0.608761429008834
  outer loop
    vertex 617.182033139961 -1348.09074177223 486.859000000001
    vertex 617.460140729507 -1353.09074177223 487.221436867077
    vertex 617.18203313996 -1353.09074177223 486.859
  endloop
endfacet
facet normal 0.793353340291148 -6.0605815796204e-014 -0.608761429008834
  outer loop
    vertex 617.460140729507 -1353.09074177223 487.221436867077
    vertex 617.182033139961 -1348.09074177223 486.859000000001
    vertex 617.460140729507 -1348.09074177223 487.221436867077
  endloop
endfacet
facet normal 0.382683432364942 -1.7858721811315e-014 -0.923879532511348
  outer loop
    vertex 617.822577596584 -1348.09074177223 487.499544456623
    vertex 618.244644267654 -1353.09074177223 487.674370196006
    vertex 617.822577596583 -1353.09074177223 487.499544456623
  endloop
endfacet
facet normal 0.382683432364942 -1.7858721811315e-014 -0.923879532511348
  outer loop
    vertex 618.244644267654 -1353.09074177223 487.674370196006
    vertex 617.822577596584 -1348.09074177223 487.499544456623
    vertex 618.244644267654 -1348.09074177223 487.674370196006
  endloop
endfacet
facet normal 0.991444861373799 -8.71114248870606e-014 -0.13052619222014
  outer loop
    vertex 616.947577596584 -1348.09074177223 485.984000000001
    vertex 617.007207400577 -1353.09074177223 486.43693332893
    vertex 616.947577596583 -1353.09074177223 485.984000000001
  endloop
endfacet
facet normal 0.991444861373799 -8.71114248870606e-014 -0.13052619222014
  outer loop
    vertex 617.007207400577 -1353.09074177223 486.43693332893
    vertex 616.947577596584 -1348.09074177223 485.984000000001
    vertex 617.007207400578 -1348.09074177223 486.43693332893
  endloop
endfacet
facet normal 0.13052619222014 6.11477721414053e-015 -0.991444861373799
  outer loop
    vertex 618.244644267654 -1348.09074177223 487.674370196006
    vertex 618.697577596583 -1353.09074177223 487.734
    vertex 618.244644267654 -1353.09074177223 487.674370196006
  endloop
endfacet
facet normal 0.13052619222014 6.11477721414053e-015 -0.991444861373799
  outer loop
    vertex 618.697577596583 -1353.09074177223 487.734
    vertex 618.244644267654 -1348.09074177223 487.674370196006
    vertex 618.697577596584 -1348.09074177223 487.734000000001
  endloop
endfacet
facet normal -0.991444861373799 8.71114248870606e-014 0.13052619222014
  outer loop
    vertex 620.447577596584 -1348.09074177223 485.984000000001
    vertex 620.387947792589 -1353.09074177223 485.531066671071
    vertex 620.447577596583 -1353.09074177223 485.984000000001
  endloop
endfacet
facet normal -0.991444861373799 8.71114248870606e-014 0.13052619222014
  outer loop
    vertex 620.387947792589 -1353.09074177223 485.531066671071
    vertex 620.447577596584 -1348.09074177223 485.984000000001
    vertex 620.387947792589 -1348.09074177223 485.531066671071
  endloop
endfacet
facet normal -1.87819217087928e-015 0.130526192220058 0.99144486137381
  outer loop
    vertex 606.697577596583 -1345.09074177223 458.320695004825
    vertex 611.697577596581 -1343.4672751408 458.106961568047
    vertex 606.69757759658 -1343.4672751408 458.106961568047
  endloop
endfacet
facet normal -1.87819217087928e-015 0.130526192220058 0.99144486137381
  outer loop
    vertex 611.697577596581 -1343.4672751408 458.106961568047
    vertex 606.697577596583 -1345.09074177223 458.320695004825
    vertex 611.697577596581 -1345.09074177223 458.320695004825
  endloop
endfacet
endsolid UltraSpecial
