solid UltraSpecial
facet normal -1.0 4.51194637207668e-014 -2.85129944346503e-013
  outer loop
    vertex 527.697577596579 -1399.49074177223 506.984000000001
    vertex 527.697577596582 -1404.49074177222 492.584
    vertex 527.697577596578 -1404.49074177223 506.984000000001
  endloop
endfacet
facet normal -1.0 4.51194637207668e-014 -2.85129944346503e-013
  outer loop
    vertex 527.697577596582 -1404.49074177222 492.584
    vertex 527.697577596579 -1399.49074177223 506.984000000001
    vertex 527.697577596582 -1399.49074177222 492.584
  endloop
endfacet
facet normal 0.0 0.0 1.0
  outer loop
    vertex 541.697577596578 -1404.49074177223 506.984000000001
    vertex 527.697577596579 -1399.49074177223 506.984000000001
    vertex 527.697577596578 -1404.49074177223 506.984000000001
  endloop
endfacet
facet normal 0.0 0.0 1.0
  outer loop
    vertex 527.697577596579 -1399.49074177223 506.984000000001
    vertex 541.697577596578 -1404.49074177223 506.984000000001
    vertex 541.697577596579 -1399.49074177223 506.984000000001
  endloop
endfacet
facet normal 1.0 -8.12150346973774e-014 1.62361706570935e-013
  outer loop
    vertex 541.697577596582 -1404.49074177223 480.584
    vertex 541.697577596579 -1399.49074177223 506.984000000001
    vertex 541.697577596578 -1404.49074177223 506.984000000001
  endloop
endfacet
facet normal 1.0 -8.12150346973774e-014 1.62361706570935e-013
  outer loop
    vertex 541.697577596579 -1399.49074177223 506.984000000001
    vertex 541.697577596582 -1404.49074177223 480.584
    vertex 541.697577596583 -1399.49074177223 480.584
  endloop
endfacet
facet normal -0.793353340291148 7.15909079471989e-014 0.608761429008834
  outer loop
    vertex 536.213122053205 -1399.49074177223 485.109
    vertex 535.935014463658 -1404.49074177223 484.746563132924
    vertex 536.213122053204 -1404.49074177223 485.109
  endloop
endfacet
facet normal -0.793353340291148 7.15909079471989e-014 0.608761429008834
  outer loop
    vertex 535.935014463658 -1404.49074177223 484.746563132924
    vertex 536.213122053205 -1399.49074177223 485.109
    vertex 535.935014463658 -1399.49074177223 484.746563132924
  endloop
endfacet
facet normal -0.991444861373799 8.94669898238053e-014 -0.13052619222014
  outer loop
    vertex 536.387947792588 -1399.49074177223 486.43693332893
    vertex 536.447577596581 -1404.49074177223 485.984
    vertex 536.387947792587 -1404.49074177223 486.43693332893
  endloop
endfacet
facet normal -0.991444861373799 8.94669898238053e-014 -0.13052619222014
  outer loop
    vertex 536.447577596581 -1404.49074177223 485.984
    vertex 536.387947792588 -1399.49074177223 486.43693332893
    vertex 536.447577596582 -1399.49074177223 485.984
  endloop
endfacet
facet normal 0.13052619222014 -1.1778555091456e-014 0.991444861373799
  outer loop
    vertex 534.697577596581 -1404.49074177223 484.234
    vertex 534.244644267652 -1399.49074177223 484.293629803995
    vertex 534.244644267652 -1404.49074177223 484.293629803995
  endloop
endfacet
facet normal 0.13052619222014 -1.1778555091456e-014 0.991444861373799
  outer loop
    vertex 534.244644267652 -1399.49074177223 484.293629803995
    vertex 534.697577596581 -1404.49074177223 484.234
    vertex 534.697577596582 -1399.49074177223 484.234
  endloop
endfacet
facet normal -0.923879532511348 8.33699795149214e-014 -0.382683432364942
  outer loop
    vertex 536.213122053205 -1399.49074177223 486.859
    vertex 536.387947792587 -1404.49074177223 486.43693332893
    vertex 536.213122053204 -1404.49074177223 486.859
  endloop
endfacet
facet normal -0.923879532511348 8.33699795149214e-014 -0.382683432364942
  outer loop
    vertex 536.387947792587 -1404.49074177223 486.43693332893
    vertex 536.213122053205 -1399.49074177223 486.859
    vertex 536.387947792588 -1399.49074177223 486.43693332893
  endloop
endfacet
facet normal -0.793353340291148 7.15909079471989e-014 -0.608761429008834
  outer loop
    vertex 535.935014463658 -1399.49074177223 487.221436867077
    vertex 536.213122053204 -1404.49074177223 486.859
    vertex 535.935014463658 -1404.49074177223 487.221436867077
  endloop
endfacet
facet normal -0.793353340291148 7.15909079471989e-014 -0.608761429008834
  outer loop
    vertex 536.213122053204 -1404.49074177223 486.859
    vertex 535.935014463658 -1399.49074177223 487.221436867077
    vertex 536.213122053205 -1399.49074177223 486.859
  endloop
endfacet
facet normal -0.608761429008834 5.49335480273253e-014 -0.793353340291148
  outer loop
    vertex 535.572577596582 -1399.49074177223 487.499544456623
    vertex 535.935014463658 -1404.49074177223 487.221436867077
    vertex 535.572577596581 -1404.49074177223 487.499544456623
  endloop
endfacet
facet normal -0.608761429008834 5.49335480273253e-014 -0.793353340291148
  outer loop
    vertex 535.935014463658 -1404.49074177223 487.221436867077
    vertex 535.572577596582 -1399.49074177223 487.499544456623
    vertex 535.935014463658 -1399.49074177223 487.221436867077
  endloop
endfacet
facet normal -0.382683432364942 3.45329762098316e-014 -0.923879532511348
  outer loop
    vertex 535.150510925511 -1399.49074177223 487.674370196006
    vertex 535.572577596581 -1404.49074177223 487.499544456623
    vertex 535.150510925511 -1404.49074177223 487.674370196006
  endloop
endfacet
facet normal -0.382683432364942 3.45329762098316e-014 -0.923879532511348
  outer loop
    vertex 535.572577596581 -1404.49074177223 487.499544456623
    vertex 535.150510925511 -1399.49074177223 487.674370196006
    vertex 535.572577596582 -1399.49074177223 487.499544456623
  endloop
endfacet
facet normal -0.13052619222014 1.17785550914561e-014 -0.991444861373799
  outer loop
    vertex 534.697577596582 -1399.49074177223 487.734
    vertex 535.150510925511 -1404.49074177223 487.674370196006
    vertex 534.697577596581 -1404.49074177223 487.734
  endloop
endfacet
facet normal -0.13052619222014 1.17785550914561e-014 -0.991444861373799
  outer loop
    vertex 535.150510925511 -1404.49074177223 487.674370196006
    vertex 534.697577596582 -1399.49074177223 487.734
    vertex 535.150510925511 -1399.49074177223 487.674370196006
  endloop
endfacet
facet normal 0.13052619222014 -1.17785550914561e-014 -0.991444861373799
  outer loop
    vertex 534.244644267652 -1399.49074177223 487.674370196006
    vertex 534.697577596581 -1404.49074177223 487.734
    vertex 534.244644267652 -1404.49074177223 487.674370196006
  endloop
endfacet
facet normal 0.13052619222014 -1.17785550914561e-014 -0.991444861373799
  outer loop
    vertex 534.697577596581 -1404.49074177223 487.734
    vertex 534.244644267652 -1399.49074177223 487.674370196006
    vertex 534.697577596582 -1399.49074177223 487.734
  endloop
endfacet
facet normal 0.793353340291148 -7.15875013967784e-014 -0.608761429008834
  outer loop
    vertex 533.182033139959 -1399.49074177223 486.859
    vertex 533.460140729505 -1404.49074177223 487.221436867077
    vertex 533.182033139959 -1404.49074177223 486.859
  endloop
endfacet
facet normal 0.793353340291148 -7.15875013967784e-014 -0.608761429008834
  outer loop
    vertex 533.460140729505 -1404.49074177223 487.221436867077
    vertex 533.182033139959 -1399.49074177223 486.859
    vertex 533.460140729505 -1399.49074177223 487.221436867077
  endloop
endfacet
facet normal -0.923879532511348 8.33699795149214e-014 0.382683432364942
  outer loop
    vertex 536.387947792588 -1399.49074177223 485.531066671071
    vertex 536.213122053204 -1404.49074177223 485.109
    vertex 536.387947792587 -1404.49074177223 485.531066671071
  endloop
endfacet
facet normal -0.923879532511348 8.33699795149214e-014 0.382683432364942
  outer loop
    vertex 536.213122053204 -1404.49074177223 485.109
    vertex 536.387947792588 -1399.49074177223 485.531066671071
    vertex 536.213122053205 -1399.49074177223 485.109
  endloop
endfacet
facet normal 0.382683432364942 -3.45329762098316e-014 -0.923879532511348
  outer loop
    vertex 533.822577596582 -1399.49074177223 487.499544456623
    vertex 534.244644267652 -1404.49074177223 487.674370196006
    vertex 533.822577596581 -1404.49074177223 487.499544456623
  endloop
endfacet
facet normal 0.382683432364942 -3.45329762098316e-014 -0.923879532511348
  outer loop
    vertex 534.244644267652 -1404.49074177223 487.674370196006
    vertex 533.822577596582 -1399.49074177223 487.499544456623
    vertex 534.244644267652 -1399.49074177223 487.674370196006
  endloop
endfacet
facet normal -0.13052619222014 1.17785550914561e-014 0.991444861373799
  outer loop
    vertex 535.150510925511 -1404.49074177223 484.293629803995
    vertex 534.697577596582 -1399.49074177223 484.234
    vertex 534.697577596581 -1404.49074177223 484.234
  endloop
endfacet
facet normal -0.13052619222014 1.17785550914561e-014 0.991444861373799
  outer loop
    vertex 534.697577596582 -1399.49074177223 484.234
    vertex 535.150510925511 -1404.49074177223 484.293629803995
    vertex 535.150510925511 -1399.49074177223 484.293629803995
  endloop
endfacet
facet normal 0.608761429008834 -5.49335480273253e-014 -0.793353340291148
  outer loop
    vertex 533.460140729505 -1399.49074177223 487.221436867077
    vertex 533.822577596581 -1404.49074177223 487.499544456623
    vertex 533.460140729505 -1404.49074177223 487.221436867077
  endloop
endfacet
facet normal 0.608761429008834 -5.49335480273253e-014 -0.793353340291148
  outer loop
    vertex 533.822577596581 -1404.49074177223 487.499544456623
    vertex 533.460140729505 -1399.49074177223 487.221436867077
    vertex 533.822577596582 -1399.49074177223 487.499544456623
  endloop
endfacet
facet normal 0.923879532511348 -8.33699795149209e-014 -0.382683432364942
  outer loop
    vertex 533.007207400576 -1399.49074177223 486.43693332893
    vertex 533.182033139959 -1404.49074177223 486.859
    vertex 533.007207400576 -1404.49074177223 486.43693332893
  endloop
endfacet
facet normal 0.923879532511348 -8.33699795149209e-014 -0.382683432364942
  outer loop
    vertex 533.182033139959 -1404.49074177223 486.859
    vertex 533.007207400576 -1399.49074177223 486.43693332893
    vertex 533.182033139959 -1399.49074177223 486.859
  endloop
endfacet
facet normal 0.991444861373799 -8.9467026731847e-014 -0.13052619222014
  outer loop
    vertex 532.947577596582 -1399.49074177223 485.984
    vertex 533.007207400576 -1404.49074177223 486.43693332893
    vertex 532.947577596581 -1404.49074177223 485.984
  endloop
endfacet
facet normal 0.991444861373799 -8.9467026731847e-014 -0.13052619222014
  outer loop
    vertex 533.007207400576 -1404.49074177223 486.43693332893
    vertex 532.947577596582 -1399.49074177223 485.984
    vertex 533.007207400576 -1399.49074177223 486.43693332893
  endloop
endfacet
facet normal 0.991444861373799 -8.94677202315378e-014 0.13052619222014
  outer loop
    vertex 533.007207400576 -1399.49074177223 485.531066671071
    vertex 532.947577596581 -1404.49074177223 485.984
    vertex 533.007207400576 -1404.49074177223 485.531066671071
  endloop
endfacet
facet normal 0.991444861373799 -8.94677202315378e-014 0.13052619222014
  outer loop
    vertex 532.947577596581 -1404.49074177223 485.984
    vertex 533.007207400576 -1399.49074177223 485.531066671071
    vertex 532.947577596582 -1399.49074177223 485.984
  endloop
endfacet
facet normal -0.382683432364942 3.45329762098316e-014 0.923879532511348
  outer loop
    vertex 535.572577596581 -1404.49074177223 484.468455543378
    vertex 535.150510925511 -1399.49074177223 484.293629803995
    vertex 535.150510925511 -1404.49074177223 484.293629803995
  endloop
endfacet
facet normal -0.382683432364942 3.45329762098316e-014 0.923879532511348
  outer loop
    vertex 535.150510925511 -1399.49074177223 484.293629803995
    vertex 535.572577596581 -1404.49074177223 484.468455543378
    vertex 535.572577596582 -1399.49074177223 484.468455543378
  endloop
endfacet
facet normal -0.608761429008834 5.49335480273253e-014 0.793353340291148
  outer loop
    vertex 535.935014463658 -1404.49074177223 484.746563132924
    vertex 535.572577596582 -1399.49074177223 484.468455543378
    vertex 535.572577596581 -1404.49074177223 484.468455543378
  endloop
endfacet
facet normal -0.608761429008834 5.49335480273253e-014 0.793353340291148
  outer loop
    vertex 535.572577596582 -1399.49074177223 484.468455543378
    vertex 535.935014463658 -1404.49074177223 484.746563132924
    vertex 535.935014463658 -1399.49074177223 484.746563132924
  endloop
endfacet
facet normal -0.991444861373799 8.94662963241145e-014 0.13052619222014
  outer loop
    vertex 536.447577596582 -1399.49074177223 485.984
    vertex 536.387947792587 -1404.49074177223 485.531066671071
    vertex 536.447577596581 -1404.49074177223 485.984
  endloop
endfacet
facet normal -0.991444861373799 8.94662963241145e-014 0.13052619222014
  outer loop
    vertex 536.387947792587 -1404.49074177223 485.531066671071
    vertex 536.447577596582 -1399.49074177223 485.984
    vertex 536.387947792588 -1399.49074177223 485.531066671071
  endloop
endfacet
facet normal 0.608761429008834 -5.49335480273253e-014 0.793353340291148
  outer loop
    vertex 533.822577596581 -1404.49074177223 484.468455543378
    vertex 533.460140729505 -1399.49074177223 484.746563132924
    vertex 533.460140729505 -1404.49074177223 484.746563132924
  endloop
endfacet
facet normal 0.608761429008834 -5.49335480273253e-014 0.793353340291148
  outer loop
    vertex 533.460140729505 -1399.49074177223 484.746563132924
    vertex 533.822577596581 -1404.49074177223 484.468455543378
    vertex 533.822577596582 -1399.49074177223 484.468455543378
  endloop
endfacet
facet normal 0.923879532511348 -8.33699795149209e-014 0.382683432364942
  outer loop
    vertex 533.182033139959 -1399.49074177223 485.109
    vertex 533.007207400576 -1404.49074177223 485.531066671071
    vertex 533.182033139959 -1404.49074177223 485.109
  endloop
endfacet
facet normal 0.923879532511348 -8.33699795149209e-014 0.382683432364942
  outer loop
    vertex 533.007207400576 -1404.49074177223 485.531066671071
    vertex 533.182033139959 -1399.49074177223 485.109
    vertex 533.007207400576 -1399.49074177223 485.531066671071
  endloop
endfacet
facet normal 0.793353340291148 -7.15875013967784e-014 0.608761429008834
  outer loop
    vertex 533.460140729505 -1399.49074177223 484.746563132924
    vertex 533.182033139959 -1404.49074177223 485.109
    vertex 533.460140729505 -1404.49074177223 484.746563132924
  endloop
endfacet
facet normal 0.793353340291148 -7.15875013967784e-014 0.608761429008834
  outer loop
    vertex 533.182033139959 -1404.49074177223 485.109
    vertex 533.460140729505 -1399.49074177223 484.746563132924
    vertex 533.182033139959 -1399.49074177223 485.109
  endloop
endfacet
facet normal 0.991444861373799 -8.94669898238053e-014 0.13052619222014
  outer loop
    vertex 533.007207400576 -1399.49074177223 499.531066671071
    vertex 532.947577596581 -1404.49074177223 499.984
    vertex 533.007207400576 -1404.49074177223 499.531066671071
  endloop
endfacet
facet normal 0.991444861373799 -8.94669898238053e-014 0.13052619222014
  outer loop
    vertex 532.947577596581 -1404.49074177223 499.984
    vertex 533.007207400576 -1399.49074177223 499.531066671071
    vertex 532.947577596582 -1399.49074177223 499.984
  endloop
endfacet
facet normal 0.382683432364942 -3.45329762098316e-014 -0.923879532511348
  outer loop
    vertex 533.822577596582 -1399.49074177223 501.499544456623
    vertex 534.244644267652 -1404.49074177223 501.674370196006
    vertex 533.822577596581 -1404.49074177223 501.499544456623
  endloop
endfacet
facet normal 0.382683432364942 -3.45329762098316e-014 -0.923879532511348
  outer loop
    vertex 534.244644267652 -1404.49074177223 501.674370196006
    vertex 533.822577596582 -1399.49074177223 501.499544456623
    vertex 534.244644267652 -1399.49074177223 501.674370196006
  endloop
endfacet
facet normal -0.608761429008834 5.49335480273263e-014 0.793353340291148
  outer loop
    vertex 535.935014463658 -1404.49074177223 498.746563132924
    vertex 535.572577596582 -1399.49074177223 498.468455543378
    vertex 535.572577596581 -1404.49074177223 498.468455543378
  endloop
endfacet
facet normal -0.608761429008834 5.49335480273263e-014 0.793353340291148
  outer loop
    vertex 535.572577596582 -1399.49074177223 498.468455543378
    vertex 535.935014463658 -1404.49074177223 498.746563132924
    vertex 535.935014463658 -1399.49074177223 498.746563132924
  endloop
endfacet
facet normal 0.382683432364942 -3.45329762098316e-014 0.923879532511348
  outer loop
    vertex 534.244644267652 -1404.49074177223 484.293629803995
    vertex 533.822577596582 -1399.49074177223 484.468455543378
    vertex 533.822577596581 -1404.49074177223 484.468455543378
  endloop
endfacet
facet normal 0.382683432364942 -3.45329762098316e-014 0.923879532511348
  outer loop
    vertex 533.822577596582 -1399.49074177223 484.468455543378
    vertex 534.244644267652 -1404.49074177223 484.293629803995
    vertex 534.244644267652 -1399.49074177223 484.293629803995
  endloop
endfacet
facet normal 0.923879532511348 -8.33699795149214e-014 0.382683432364942
  outer loop
    vertex 533.182033139959 -1399.49074177223 499.109
    vertex 533.007207400576 -1404.49074177223 499.531066671071
    vertex 533.182033139959 -1404.49074177223 499.109
  endloop
endfacet
facet normal 0.923879532511348 -8.33699795149214e-014 0.382683432364942
  outer loop
    vertex 533.007207400576 -1404.49074177223 499.531066671071
    vertex 533.182033139959 -1399.49074177223 499.109
    vertex 533.007207400576 -1399.49074177223 499.531066671071
  endloop
endfacet
facet normal 0.793353340291148 -7.15909079471989e-014 0.608761429008834
  outer loop
    vertex 533.460140729505 -1399.49074177223 498.746563132924
    vertex 533.182033139959 -1404.49074177223 499.109
    vertex 533.460140729505 -1404.49074177223 498.746563132924
  endloop
endfacet
facet normal 0.793353340291148 -7.15909079471989e-014 0.608761429008834
  outer loop
    vertex 533.182033139959 -1404.49074177223 499.109
    vertex 533.460140729505 -1399.49074177223 498.746563132924
    vertex 533.182033139959 -1399.49074177223 499.109
  endloop
endfacet
facet normal -0.382683432364942 3.45329762098316e-014 0.923879532511348
  outer loop
    vertex 535.572577596581 -1404.49074177223 498.468455543378
    vertex 535.150510925511 -1399.49074177223 498.293629803995
    vertex 535.150510925511 -1404.49074177223 498.293629803995
  endloop
endfacet
facet normal -0.382683432364942 3.45329762098316e-014 0.923879532511348
  outer loop
    vertex 535.150510925511 -1399.49074177223 498.293629803995
    vertex 535.572577596581 -1404.49074177223 498.468455543378
    vertex 535.572577596582 -1399.49074177223 498.468455543378
  endloop
endfacet
facet normal -0.793353340291148 7.15909079471989e-014 0.608761429008834
  outer loop
    vertex 536.213122053205 -1399.49074177223 499.109
    vertex 535.935014463658 -1404.49074177223 498.746563132924
    vertex 536.213122053204 -1404.49074177223 499.109
  endloop
endfacet
facet normal -0.793353340291148 7.15909079471989e-014 0.608761429008834
  outer loop
    vertex 535.935014463658 -1404.49074177223 498.746563132924
    vertex 536.213122053205 -1399.49074177223 499.109
    vertex 535.935014463658 -1399.49074177223 498.746563132924
  endloop
endfacet
facet normal -0.991444861373799 8.94662963241145e-014 -0.13052619222014
  outer loop
    vertex 536.387947792588 -1399.49074177223 500.43693332893
    vertex 536.447577596581 -1404.49074177223 499.984
    vertex 536.387947792587 -1404.49074177223 500.43693332893
  endloop
endfacet
facet normal -0.991444861373799 8.94662963241145e-014 -0.13052619222014
  outer loop
    vertex 536.447577596581 -1404.49074177223 499.984
    vertex 536.387947792588 -1399.49074177223 500.43693332893
    vertex 536.447577596582 -1399.49074177223 499.984
  endloop
endfacet
facet normal -0.382683432364942 3.45329762098316e-014 -0.923879532511348
  outer loop
    vertex 535.150510925511 -1399.49074177223 501.674370196006
    vertex 535.572577596581 -1404.49074177223 501.499544456623
    vertex 535.150510925511 -1404.49074177223 501.674370196006
  endloop
endfacet
facet normal -0.382683432364942 3.45329762098316e-014 -0.923879532511348
  outer loop
    vertex 535.572577596581 -1404.49074177223 501.499544456623
    vertex 535.150510925511 -1399.49074177223 501.674370196006
    vertex 535.572577596582 -1399.49074177223 501.499544456623
  endloop
endfacet
facet normal -0.13052619222014 1.17785550914561e-014 -0.991444861373799
  outer loop
    vertex 534.697577596582 -1399.49074177223 501.734
    vertex 535.150510925511 -1404.49074177223 501.674370196006
    vertex 534.697577596581 -1404.49074177223 501.734
  endloop
endfacet
facet normal -0.13052619222014 1.17785550914561e-014 -0.991444861373799
  outer loop
    vertex 535.150510925511 -1404.49074177223 501.674370196006
    vertex 534.697577596582 -1399.49074177223 501.734
    vertex 535.150510925511 -1399.49074177223 501.674370196006
  endloop
endfacet
facet normal -0.13052619222014 1.17785550914561e-014 0.991444861373799
  outer loop
    vertex 535.150510925511 -1404.49074177223 498.293629803995
    vertex 534.697577596582 -1399.49074177223 498.234
    vertex 534.697577596581 -1404.49074177223 498.234
  endloop
endfacet
facet normal -0.13052619222014 1.17785550914561e-014 0.991444861373799
  outer loop
    vertex 534.697577596582 -1399.49074177223 498.234
    vertex 535.150510925511 -1404.49074177223 498.293629803995
    vertex 535.150510925511 -1399.49074177223 498.293629803995
  endloop
endfacet
facet normal 0.382683432364942 -3.45329762098316e-014 0.923879532511348
  outer loop
    vertex 534.244644267652 -1404.49074177223 498.293629803995
    vertex 533.822577596582 -1399.49074177223 498.468455543378
    vertex 533.822577596581 -1404.49074177223 498.468455543378
  endloop
endfacet
facet normal 0.382683432364942 -3.45329762098316e-014 0.923879532511348
  outer loop
    vertex 533.822577596582 -1399.49074177223 498.468455543378
    vertex 534.244644267652 -1404.49074177223 498.293629803995
    vertex 534.244644267652 -1399.49074177223 498.293629803995
  endloop
endfacet
facet normal 0.13052619222014 -1.17785550914561e-014 -0.991444861373799
  outer loop
    vertex 534.244644267652 -1399.49074177223 501.674370196006
    vertex 534.697577596581 -1404.49074177223 501.734
    vertex 534.244644267652 -1404.49074177223 501.674370196006
  endloop
endfacet
facet normal 0.13052619222014 -1.17785550914561e-014 -0.991444861373799
  outer loop
    vertex 534.697577596581 -1404.49074177223 501.734
    vertex 534.244644267652 -1399.49074177223 501.674370196006
    vertex 534.697577596582 -1399.49074177223 501.734
  endloop
endfacet
facet normal -0.923879532511348 8.33699795149202e-014 0.382683432364942
  outer loop
    vertex 536.387947792588 -1399.49074177223 499.531066671071
    vertex 536.213122053204 -1404.49074177223 499.109
    vertex 536.387947792587 -1404.49074177223 499.531066671071
  endloop
endfacet
facet normal -0.923879532511348 8.33699795149202e-014 0.382683432364942
  outer loop
    vertex 536.213122053204 -1404.49074177223 499.109
    vertex 536.387947792588 -1399.49074177223 499.531066671071
    vertex 536.213122053205 -1399.49074177223 499.109
  endloop
endfacet
facet normal -0.923879532511348 8.33699795149202e-014 -0.382683432364942
  outer loop
    vertex 536.213122053205 -1399.49074177223 500.859
    vertex 536.387947792587 -1404.49074177223 500.43693332893
    vertex 536.213122053204 -1404.49074177223 500.859
  endloop
endfacet
facet normal -0.923879532511348 8.33699795149202e-014 -0.382683432364942
  outer loop
    vertex 536.387947792587 -1404.49074177223 500.43693332893
    vertex 536.213122053205 -1399.49074177223 500.859
    vertex 536.387947792588 -1399.49074177223 500.43693332893
  endloop
endfacet
facet normal 0.793353340291148 -7.15909079471989e-014 -0.608761429008834
  outer loop
    vertex 533.182033139959 -1399.49074177223 500.859
    vertex 533.460140729505 -1404.49074177223 501.221436867077
    vertex 533.182033139959 -1404.49074177223 500.859
  endloop
endfacet
facet normal 0.793353340291148 -7.15909079471989e-014 -0.608761429008834
  outer loop
    vertex 533.460140729505 -1404.49074177223 501.221436867077
    vertex 533.182033139959 -1399.49074177223 500.859
    vertex 533.460140729505 -1399.49074177223 501.221436867077
  endloop
endfacet
facet normal 0.13052619222014 -1.1778555091456e-014 0.991444861373799
  outer loop
    vertex 534.697577596581 -1404.49074177223 498.234
    vertex 534.244644267652 -1399.49074177223 498.293629803995
    vertex 534.244644267652 -1404.49074177223 498.293629803995
  endloop
endfacet
facet normal 0.13052619222014 -1.1778555091456e-014 0.991444861373799
  outer loop
    vertex 534.244644267652 -1399.49074177223 498.293629803995
    vertex 534.697577596581 -1404.49074177223 498.234
    vertex 534.697577596582 -1399.49074177223 498.234
  endloop
endfacet
facet normal 0.991444861373799 -8.94662963241145e-014 -0.13052619222014
  outer loop
    vertex 532.947577596582 -1399.49074177223 499.984
    vertex 533.007207400576 -1404.49074177223 500.43693332893
    vertex 532.947577596581 -1404.49074177223 499.984
  endloop
endfacet
facet normal 0.991444861373799 -8.94662963241145e-014 -0.13052619222014
  outer loop
    vertex 533.007207400576 -1404.49074177223 500.43693332893
    vertex 532.947577596582 -1399.49074177223 499.984
    vertex 533.007207400576 -1399.49074177223 500.43693332893
  endloop
endfacet
facet normal 0.923879532511348 -8.33699795149214e-014 -0.382683432364942
  outer loop
    vertex 533.007207400576 -1399.49074177223 500.43693332893
    vertex 533.182033139959 -1404.49074177223 500.859
    vertex 533.007207400576 -1404.49074177223 500.43693332893
  endloop
endfacet
facet normal 0.923879532511348 -8.33699795149214e-014 -0.382683432364942
  outer loop
    vertex 533.182033139959 -1404.49074177223 500.859
    vertex 533.007207400576 -1399.49074177223 500.43693332893
    vertex 533.182033139959 -1399.49074177223 500.859
  endloop
endfacet
facet normal 0.608761429008834 -5.49335480273253e-014 -0.793353340291148
  outer loop
    vertex 533.460140729505 -1399.49074177223 501.221436867077
    vertex 533.822577596581 -1404.49074177223 501.499544456623
    vertex 533.460140729505 -1404.49074177223 501.221436867077
  endloop
endfacet
facet normal 0.608761429008834 -5.49335480273253e-014 -0.793353340291148
  outer loop
    vertex 533.822577596581 -1404.49074177223 501.499544456623
    vertex 533.460140729505 -1399.49074177223 501.221436867077
    vertex 533.822577596582 -1399.49074177223 501.499544456623
  endloop
endfacet
facet normal 0.608761429008834 -5.49335480273253e-014 0.793353340291148
  outer loop
    vertex 533.822577596581 -1404.49074177223 498.468455543378
    vertex 533.460140729505 -1399.49074177223 498.746563132924
    vertex 533.460140729505 -1404.49074177223 498.746563132924
  endloop
endfacet
facet normal 0.608761429008834 -5.49335480273253e-014 0.793353340291148
  outer loop
    vertex 533.460140729505 -1399.49074177223 498.746563132924
    vertex 533.822577596581 -1404.49074177223 498.468455543378
    vertex 533.822577596582 -1399.49074177223 498.468455543378
  endloop
endfacet
facet normal -0.991444861373799 8.94669898238053e-014 0.13052619222014
  outer loop
    vertex 536.447577596582 -1399.49074177223 499.984
    vertex 536.387947792587 -1404.49074177223 499.531066671071
    vertex 536.447577596581 -1404.49074177223 499.984
  endloop
endfacet
facet normal -0.991444861373799 8.94669898238053e-014 0.13052619222014
  outer loop
    vertex 536.387947792587 -1404.49074177223 499.531066671071
    vertex 536.447577596582 -1399.49074177223 499.984
    vertex 536.387947792588 -1399.49074177223 499.531066671071
  endloop
endfacet
facet normal -0.793353340291148 7.15909079471989e-014 -0.608761429008834
  outer loop
    vertex 535.935014463658 -1399.49074177223 501.221436867077
    vertex 536.213122053204 -1404.49074177223 500.859
    vertex 535.935014463658 -1404.49074177223 501.221436867077
  endloop
endfacet
facet normal -0.793353340291148 7.15909079471989e-014 -0.608761429008834
  outer loop
    vertex 536.213122053204 -1404.49074177223 500.859
    vertex 535.935014463658 -1399.49074177223 501.221436867077
    vertex 536.213122053205 -1399.49074177223 500.859
  endloop
endfacet
facet normal -0.608761429008834 5.49335480273253e-014 -0.793353340291148
  outer loop
    vertex 535.572577596582 -1399.49074177223 501.499544456623
    vertex 535.935014463658 -1404.49074177223 501.221436867077
    vertex 535.572577596581 -1404.49074177223 501.499544456623
  endloop
endfacet
facet normal -0.608761429008834 5.49335480273253e-014 -0.793353340291148
  outer loop
    vertex 535.935014463658 -1404.49074177223 501.221436867077
    vertex 535.572577596582 -1399.49074177223 501.499544456623
    vertex 535.935014463658 -1399.49074177223 501.221436867077
  endloop
endfacet
facet normal 4.88082600112323e-014 1.0 -3.67959026185881e-014
  outer loop
    vertex 529.697577596582 -1399.49074177223 469.584
    vertex 517.697577596582 -1399.49074177222 477.584
    vertex 529.697577596582 -1399.49074177223 480.584
  endloop
endfacet
facet normal 4.88082600112323e-014 1.0 -3.67959026185881e-014
  outer loop
    vertex 517.697577596582 -1399.49074177222 477.584
    vertex 529.697577596582 -1399.49074177223 469.584
    vertex 480.697577596582 -1399.49074177222 469.584
  endloop
endfacet
facet normal 4.88082600112323e-014 1.0 -3.67959026185881e-014
  outer loop
    vertex 517.697577596582 -1399.49074177222 477.584
    vertex 480.697577596582 -1399.49074177222 469.584
    vertex 480.697577596582 -1399.49074177222 477.584
  endloop
endfacet
facet normal 4.88082600112323e-014 1.0 -3.67959026185881e-014
  outer loop
    vertex 529.697577596582 -1399.49074177223 480.584
    vertex 517.697577596582 -1399.49074177222 477.584
    vertex 517.697577596582 -1399.49074177222 487.584
  endloop
endfacet
facet normal 4.88082600112323e-014 1.0 -3.67959026185881e-014
  outer loop
    vertex 529.697577596582 -1399.49074177223 480.584
    vertex 517.697577596582 -1399.49074177222 487.584
    vertex 541.697577596583 -1399.49074177223 480.584
  endloop
endfacet
facet normal 4.88082600112323e-014 1.0 -3.67959026185881e-014
  outer loop
    vertex 541.697577596583 -1399.49074177223 480.584
    vertex 517.697577596582 -1399.49074177222 487.584
    vertex 534.244644267652 -1399.49074177223 484.293629803995
  endloop
endfacet
facet normal 4.88082600112323e-014 1.0 -3.67959026185881e-014
  outer loop
    vertex 541.697577596583 -1399.49074177223 480.584
    vertex 534.244644267652 -1399.49074177223 484.293629803995
    vertex 534.697577596582 -1399.49074177223 484.234
  endloop
endfacet
facet normal 4.88082600112323e-014 1.0 -3.67959026185881e-014
  outer loop
    vertex 534.244644267652 -1399.49074177223 484.293629803995
    vertex 517.697577596582 -1399.49074177222 487.584
    vertex 533.822577596582 -1399.49074177223 484.468455543378
  endloop
endfacet
facet normal 4.88082600112323e-014 1.0 -3.67959026185881e-014
  outer loop
    vertex 533.822577596582 -1399.49074177223 484.468455543378
    vertex 517.697577596582 -1399.49074177222 487.584
    vertex 533.460140729505 -1399.49074177223 484.746563132924
  endloop
endfacet
facet normal 4.88082600112323e-014 1.0 -3.67959026185881e-014
  outer loop
    vertex 533.460140729505 -1399.49074177223 484.746563132924
    vertex 517.697577596582 -1399.49074177222 487.584
    vertex 533.182033139959 -1399.49074177223 485.109
  endloop
endfacet
facet normal 4.88082600112323e-014 1.0 -3.67959026185881e-014
  outer loop
    vertex 533.182033139959 -1399.49074177223 485.109
    vertex 517.697577596582 -1399.49074177222 487.584
    vertex 533.007207400576 -1399.49074177223 485.531066671071
  endloop
endfacet
facet normal 4.88082600112323e-014 1.0 -3.67959026185881e-014
  outer loop
    vertex 533.007207400576 -1399.49074177223 485.531066671071
    vertex 517.697577596582 -1399.49074177222 487.584
    vertex 532.947577596582 -1399.49074177223 485.984
  endloop
endfacet
facet normal 4.88082600112323e-014 1.0 -3.67959026185881e-014
  outer loop
    vertex 532.947577596582 -1399.49074177223 485.984
    vertex 517.697577596582 -1399.49074177222 487.584
    vertex 533.007207400576 -1399.49074177223 486.43693332893
  endloop
endfacet
facet normal 4.88082600112323e-014 1.0 -3.67959026185881e-014
  outer loop
    vertex 533.007207400576 -1399.49074177223 486.43693332893
    vertex 517.697577596582 -1399.49074177222 487.584
    vertex 533.182033139959 -1399.49074177223 486.859
  endloop
endfacet
facet normal 4.88082600112323e-014 1.0 -3.67959026185881e-014
  outer loop
    vertex 533.182033139959 -1399.49074177223 486.859
    vertex 517.697577596582 -1399.49074177222 487.584
    vertex 533.460140729505 -1399.49074177223 487.221436867077
  endloop
endfacet
facet normal 4.88082600112323e-014 1.0 -3.67959026185881e-014
  outer loop
    vertex 533.460140729505 -1399.49074177223 487.221436867077
    vertex 517.697577596582 -1399.49074177222 487.584
    vertex 533.822577596582 -1399.49074177223 487.499544456623
  endloop
endfacet
facet normal 4.88082600112323e-014 1.0 -3.67959026185881e-014
  outer loop
    vertex 533.822577596582 -1399.49074177223 487.499544456623
    vertex 517.697577596582 -1399.49074177222 487.584
    vertex 522.697577596582 -1399.49074177222 487.584
  endloop
endfacet
facet normal 4.88082600112323e-014 1.0 -3.67959026185881e-014
  outer loop
    vertex 533.822577596582 -1399.49074177223 487.499544456623
    vertex 522.697577596582 -1399.49074177222 487.584
    vertex 534.244644267652 -1399.49074177223 487.674370196006
  endloop
endfacet
facet normal 4.88082600112323e-014 1.0 -3.67959026185881e-014
  outer loop
    vertex 534.244644267652 -1399.49074177223 487.674370196006
    vertex 522.697577596582 -1399.49074177222 487.584
    vertex 527.697577596582 -1399.49074177222 492.584
  endloop
endfacet
facet normal 4.88082600112323e-014 1.0 -3.67959026185881e-014
  outer loop
    vertex 534.244644267652 -1399.49074177223 487.674370196006
    vertex 527.697577596582 -1399.49074177222 492.584
    vertex 534.697577596582 -1399.49074177223 487.734
  endloop
endfacet
facet normal 4.88082600112323e-014 1.0 -3.67959026185881e-014
  outer loop
    vertex 527.697577596582 -1399.49074177222 492.584
    vertex 534.244644267652 -1399.49074177223 498.293629803995
    vertex 534.697577596582 -1399.49074177223 498.234
  endloop
endfacet
facet normal 4.88082600112323e-014 1.0 -3.67959026185881e-014
  outer loop
    vertex 534.244644267652 -1399.49074177223 498.293629803995
    vertex 527.697577596582 -1399.49074177222 492.584
    vertex 533.822577596582 -1399.49074177223 498.468455543378
  endloop
endfacet
facet normal 4.88082600112323e-014 1.0 -3.67959026185881e-014
  outer loop
    vertex 533.822577596582 -1399.49074177223 498.468455543378
    vertex 527.697577596582 -1399.49074177222 492.584
    vertex 533.460140729505 -1399.49074177223 498.746563132924
  endloop
endfacet
facet normal 4.88082600112323e-014 1.0 -3.67959026185881e-014
  outer loop
    vertex 533.460140729505 -1399.49074177223 498.746563132924
    vertex 527.697577596582 -1399.49074177222 492.584
    vertex 533.182033139959 -1399.49074177223 499.109
  endloop
endfacet
facet normal 4.88082600112323e-014 1.0 -3.67959026185881e-014
  outer loop
    vertex 533.182033139959 -1399.49074177223 499.109
    vertex 527.697577596582 -1399.49074177222 492.584
    vertex 527.697577596579 -1399.49074177223 506.984000000001
  endloop
endfacet
facet normal 4.88082600112323e-014 1.0 -3.67959026185881e-014
  outer loop
    vertex 533.182033139959 -1399.49074177223 499.109
    vertex 527.697577596579 -1399.49074177223 506.984000000001
    vertex 533.007207400576 -1399.49074177223 499.531066671071
  endloop
endfacet
facet normal 4.88082600112323e-014 1.0 -3.67959026185881e-014
  outer loop
    vertex 533.007207400576 -1399.49074177223 499.531066671071
    vertex 527.697577596579 -1399.49074177223 506.984000000001
    vertex 532.947577596582 -1399.49074177223 499.984
  endloop
endfacet
facet normal 4.88082600112323e-014 1.0 -3.67959026185881e-014
  outer loop
    vertex 532.947577596582 -1399.49074177223 499.984
    vertex 527.697577596579 -1399.49074177223 506.984000000001
    vertex 533.007207400576 -1399.49074177223 500.43693332893
  endloop
endfacet
facet normal 4.88082600112323e-014 1.0 -3.67959026185881e-014
  outer loop
    vertex 533.007207400576 -1399.49074177223 500.43693332893
    vertex 527.697577596579 -1399.49074177223 506.984000000001
    vertex 533.182033139959 -1399.49074177223 500.859
  endloop
endfacet
facet normal 4.88082600112323e-014 1.0 -3.67959026185881e-014
  outer loop
    vertex 533.182033139959 -1399.49074177223 500.859
    vertex 527.697577596579 -1399.49074177223 506.984000000001
    vertex 533.460140729505 -1399.49074177223 501.221436867077
  endloop
endfacet
facet normal 4.88082600112323e-014 1.0 -3.67959026185881e-014
  outer loop
    vertex 533.460140729505 -1399.49074177223 501.221436867077
    vertex 527.697577596579 -1399.49074177223 506.984000000001
    vertex 533.822577596582 -1399.49074177223 501.499544456623
  endloop
endfacet
facet normal 4.88082600112323e-014 1.0 -3.67959026185881e-014
  outer loop
    vertex 533.822577596582 -1399.49074177223 501.499544456623
    vertex 527.697577596579 -1399.49074177223 506.984000000001
    vertex 534.244644267652 -1399.49074177223 501.674370196006
  endloop
endfacet
facet normal 4.88082600112323e-014 1.0 -3.67959026185881e-014
  outer loop
    vertex 534.244644267652 -1399.49074177223 501.674370196006
    vertex 527.697577596579 -1399.49074177223 506.984000000001
    vertex 534.697577596582 -1399.49074177223 501.734
  endloop
endfacet
facet normal 4.88082600112323e-014 1.0 -3.67959026185881e-014
  outer loop
    vertex 541.697577596583 -1399.49074177223 480.584
    vertex 536.387947792588 -1399.49074177223 485.531066671071
    vertex 541.697577596579 -1399.49074177223 506.984000000001
  endloop
endfacet
facet normal 4.88082600112323e-014 1.0 -3.67959026185881e-014
  outer loop
    vertex 536.387947792588 -1399.49074177223 485.531066671071
    vertex 541.697577596583 -1399.49074177223 480.584
    vertex 536.213122053205 -1399.49074177223 485.109
  endloop
endfacet
facet normal 4.88082600112323e-014 1.0 -3.67959026185881e-014
  outer loop
    vertex 536.213122053205 -1399.49074177223 485.109
    vertex 541.697577596583 -1399.49074177223 480.584
    vertex 535.935014463658 -1399.49074177223 484.746563132924
  endloop
endfacet
facet normal 4.88082600112323e-014 1.0 -3.67959026185881e-014
  outer loop
    vertex 535.935014463658 -1399.49074177223 484.746563132924
    vertex 541.697577596583 -1399.49074177223 480.584
    vertex 535.572577596582 -1399.49074177223 484.468455543378
  endloop
endfacet
facet normal 4.88082600112323e-014 1.0 -3.67959026185881e-014
  outer loop
    vertex 535.572577596582 -1399.49074177223 484.468455543378
    vertex 541.697577596583 -1399.49074177223 480.584
    vertex 535.150510925511 -1399.49074177223 484.293629803995
  endloop
endfacet
facet normal 4.88082600112323e-014 1.0 -3.67959026185881e-014
  outer loop
    vertex 535.150510925511 -1399.49074177223 484.293629803995
    vertex 541.697577596583 -1399.49074177223 480.584
    vertex 534.697577596582 -1399.49074177223 484.234
  endloop
endfacet
facet normal 4.88082600112323e-014 1.0 -3.67959026185881e-014
  outer loop
    vertex 541.697577596579 -1399.49074177223 506.984000000001
    vertex 536.387947792588 -1399.49074177223 485.531066671071
    vertex 536.447577596582 -1399.49074177223 485.984
  endloop
endfacet
facet normal 4.88082600112323e-014 1.0 -3.67959026185881e-014
  outer loop
    vertex 541.697577596579 -1399.49074177223 506.984000000001
    vertex 536.447577596582 -1399.49074177223 485.984
    vertex 536.387947792588 -1399.49074177223 486.43693332893
  endloop
endfacet
facet normal 4.88082600112323e-014 1.0 -3.67959026185881e-014
  outer loop
    vertex 541.697577596579 -1399.49074177223 506.984000000001
    vertex 536.387947792588 -1399.49074177223 486.43693332893
    vertex 536.213122053205 -1399.49074177223 486.859
  endloop
endfacet
facet normal 4.88082600112323e-014 1.0 -3.67959026185881e-014
  outer loop
    vertex 541.697577596579 -1399.49074177223 506.984000000001
    vertex 536.213122053205 -1399.49074177223 486.859
    vertex 535.935014463658 -1399.49074177223 487.221436867077
  endloop
endfacet
facet normal 4.88082600112323e-014 1.0 -3.67959026185881e-014
  outer loop
    vertex 541.697577596579 -1399.49074177223 506.984000000001
    vertex 535.935014463658 -1399.49074177223 487.221436867077
    vertex 535.572577596582 -1399.49074177223 487.499544456623
  endloop
endfacet
facet normal 4.88082600112323e-014 1.0 -3.67959026185881e-014
  outer loop
    vertex 541.697577596579 -1399.49074177223 506.984000000001
    vertex 535.572577596582 -1399.49074177223 487.499544456623
    vertex 535.150510925511 -1399.49074177223 487.674370196006
  endloop
endfacet
facet normal 4.88082600112323e-014 1.0 -3.67959026185881e-014
  outer loop
    vertex 541.697577596579 -1399.49074177223 506.984000000001
    vertex 535.150510925511 -1399.49074177223 487.674370196006
    vertex 534.697577596582 -1399.49074177223 487.734
  endloop
endfacet
facet normal 4.88082600112323e-014 1.0 -3.67959026185881e-014
  outer loop
    vertex 541.697577596579 -1399.49074177223 506.984000000001
    vertex 534.697577596582 -1399.49074177223 487.734
    vertex 536.213122053205 -1399.49074177223 499.109
  endloop
endfacet
facet normal 4.88082600112323e-014 1.0 -3.67959026185881e-014
  outer loop
    vertex 536.213122053205 -1399.49074177223 499.109
    vertex 534.697577596582 -1399.49074177223 487.734
    vertex 535.935014463658 -1399.49074177223 498.746563132924
  endloop
endfacet
facet normal 4.88082600112323e-014 1.0 -3.67959026185881e-014
  outer loop
    vertex 535.935014463658 -1399.49074177223 498.746563132924
    vertex 534.697577596582 -1399.49074177223 487.734
    vertex 535.572577596582 -1399.49074177223 498.468455543378
  endloop
endfacet
facet normal 4.88082600112323e-014 1.0 -3.67959026185881e-014
  outer loop
    vertex 535.572577596582 -1399.49074177223 498.468455543378
    vertex 534.697577596582 -1399.49074177223 487.734
    vertex 527.697577596582 -1399.49074177222 492.584
  endloop
endfacet
facet normal 4.88082600112323e-014 1.0 -3.67959026185881e-014
  outer loop
    vertex 535.572577596582 -1399.49074177223 498.468455543378
    vertex 527.697577596582 -1399.49074177222 492.584
    vertex 535.150510925511 -1399.49074177223 498.293629803995
  endloop
endfacet
facet normal 4.88082600112323e-014 1.0 -3.67959026185881e-014
  outer loop
    vertex 535.150510925511 -1399.49074177223 498.293629803995
    vertex 527.697577596582 -1399.49074177222 492.584
    vertex 534.697577596582 -1399.49074177223 498.234
  endloop
endfacet
facet normal 4.88082600112323e-014 1.0 -3.67959026185881e-014
  outer loop
    vertex 541.697577596579 -1399.49074177223 506.984000000001
    vertex 536.213122053205 -1399.49074177223 499.109
    vertex 536.387947792588 -1399.49074177223 499.531066671071
  endloop
endfacet
facet normal 4.88082600112323e-014 1.0 -3.67959026185881e-014
  outer loop
    vertex 541.697577596579 -1399.49074177223 506.984000000001
    vertex 536.387947792588 -1399.49074177223 499.531066671071
    vertex 536.447577596582 -1399.49074177223 499.984
  endloop
endfacet
facet normal 4.88082600112323e-014 1.0 -3.67959026185881e-014
  outer loop
    vertex 541.697577596579 -1399.49074177223 506.984000000001
    vertex 536.447577596582 -1399.49074177223 499.984
    vertex 536.387947792588 -1399.49074177223 500.43693332893
  endloop
endfacet
facet normal 4.88082600112323e-014 1.0 -3.67959026185881e-014
  outer loop
    vertex 541.697577596579 -1399.49074177223 506.984000000001
    vertex 536.387947792588 -1399.49074177223 500.43693332893
    vertex 536.213122053205 -1399.49074177223 500.859
  endloop
endfacet
facet normal 4.88082600112323e-014 1.0 -3.67959026185881e-014
  outer loop
    vertex 541.697577596579 -1399.49074177223 506.984000000001
    vertex 536.213122053205 -1399.49074177223 500.859
    vertex 535.935014463658 -1399.49074177223 501.221436867077
  endloop
endfacet
facet normal 4.88082600112323e-014 1.0 -3.67959026185881e-014
  outer loop
    vertex 541.697577596579 -1399.49074177223 506.984000000001
    vertex 535.935014463658 -1399.49074177223 501.221436867077
    vertex 535.572577596582 -1399.49074177223 501.499544456623
  endloop
endfacet
facet normal 4.88082600112323e-014 1.0 -3.67959026185881e-014
  outer loop
    vertex 541.697577596579 -1399.49074177223 506.984000000001
    vertex 535.572577596582 -1399.49074177223 501.499544456623
    vertex 535.150510925511 -1399.49074177223 501.674370196006
  endloop
endfacet
facet normal 4.88082600112323e-014 1.0 -3.67959026185881e-014
  outer loop
    vertex 541.697577596579 -1399.49074177223 506.984000000001
    vertex 535.150510925511 -1399.49074177223 501.674370196006
    vertex 534.697577596582 -1399.49074177223 501.734
  endloop
endfacet
facet normal 4.88082600112323e-014 1.0 -3.67959026185881e-014
  outer loop
    vertex 541.697577596579 -1399.49074177223 506.984000000001
    vertex 534.697577596582 -1399.49074177223 501.734
    vertex 527.697577596579 -1399.49074177223 506.984000000001
  endloop
endfacet
facet normal -1.0 0.0 0.0
  outer loop
    vertex 480.697577596582 -1399.49074177222 477.584
    vertex 480.697577596582 -1411.49074177222 469.584
    vertex 480.697577596582 -1411.49074177222 477.584
  endloop
endfacet
facet normal -1.0 0.0 0.0
  outer loop
    vertex 480.697577596582 -1411.49074177222 469.584
    vertex 480.697577596582 -1399.49074177222 477.584
    vertex 480.697577596582 -1399.49074177222 469.584
  endloop
endfacet
facet normal -1.08930210519388e-014 -1.0 1.31518966111273e-015
  outer loop
    vertex 529.697577596582 -1411.49074177222 469.584
    vertex 517.697577596582 -1411.49074177222 477.584
    vertex 480.697577596582 -1411.49074177222 469.584
  endloop
endfacet
facet normal -1.08930210519388e-014 -1.0 1.31518966111273e-015
  outer loop
    vertex 517.697577596582 -1411.49074177222 477.584
    vertex 529.697577596582 -1411.49074177222 469.584
    vertex 529.697577596582 -1411.49074177222 485.584
  endloop
endfacet
facet normal -1.08930210519388e-014 -1.0 1.31518966111273e-015
  outer loop
    vertex 517.697577596582 -1411.49074177222 477.584
    vertex 529.697577596582 -1411.49074177222 485.584
    vertex 517.697577596582 -1411.49074177222 485.584
  endloop
endfacet
facet normal -1.08930210519388e-014 -1.0 1.31518966111273e-015
  outer loop
    vertex 480.697577596582 -1411.49074177222 477.584
    vertex 480.697577596582 -1411.49074177222 469.584
    vertex 517.697577596582 -1411.49074177222 477.584
  endloop
endfacet
facet normal 0.991444861373802 -0.130526192220114 3.32150981341224e-029
  outer loop
    vertex 486.007207400577 -1405.03780844329 469.584
    vertex 485.947577596583 -1405.49074177222 477.584
    vertex 485.947577596583 -1405.49074177222 469.584
  endloop
endfacet
facet normal 0.991444861373802 -0.130526192220114 3.32150981341224e-029
  outer loop
    vertex 485.947577596583 -1405.49074177222 477.584
    vertex 486.007207400577 -1405.03780844329 469.584
    vertex 486.007207400577 -1405.03780844329 477.584
  endloop
endfacet
facet normal 0.991444861373802 0.130526192220114 3.32150981341224e-029
  outer loop
    vertex 485.947577596583 -1405.49074177222 469.584
    vertex 486.007207400577 -1405.94367510115 477.584
    vertex 486.007207400577 -1405.94367510115 469.584
  endloop
endfacet
facet normal 0.991444861373802 0.130526192220114 3.32150981341224e-029
  outer loop
    vertex 486.007207400577 -1405.94367510115 477.584
    vertex 485.947577596583 -1405.49074177222 469.584
    vertex 485.947577596583 -1405.49074177222 477.584
  endloop
endfacet
facet normal 0.923879532511319 0.382683432365012 0.0
  outer loop
    vertex 486.007207400577 -1405.94367510115 469.584
    vertex 486.18203313996 -1406.36574177222 477.584
    vertex 486.18203313996 -1406.36574177222 469.584
  endloop
endfacet
facet normal 0.923879532511319 0.382683432365012 0.0
  outer loop
    vertex 486.18203313996 -1406.36574177222 477.584
    vertex 486.007207400577 -1405.94367510115 469.584
    vertex 486.007207400577 -1405.94367510115 477.584
  endloop
endfacet
facet normal 0.793353340291221 0.608761429008739 -8.67090418227404e-019
  outer loop
    vertex 486.18203313996 -1406.36574177222 469.584
    vertex 486.460140729506 -1406.7281786393 477.584
    vertex 486.460140729506 -1406.7281786393 469.584
  endloop
endfacet
facet normal 0.793353340291221 0.608761429008739 -8.67090418227404e-019
  outer loop
    vertex 486.460140729506 -1406.7281786393 477.584
    vertex 486.18203313996 -1406.36574177222 469.584
    vertex 486.18203313996 -1406.36574177222 477.584
  endloop
endfacet
facet normal 0.60876142900871 0.793353340291243 -7.74559889508405e-029
  outer loop
    vertex 486.460140729506 -1406.7281786393 477.584
    vertex 486.822577596583 -1407.00628622885 469.584
    vertex 486.460140729506 -1406.7281786393 469.584
  endloop
endfacet
facet normal 0.60876142900871 0.793353340291243 -7.74559889508405e-029
  outer loop
    vertex 486.822577596583 -1407.00628622885 469.584
    vertex 486.460140729506 -1406.7281786393 477.584
    vertex 486.822577596583 -1407.00628622885 477.584
  endloop
endfacet
facet normal 0.382683432364942 0.923879532511348 1.00974817782707e-018
  outer loop
    vertex 486.822577596583 -1407.00628622885 477.584
    vertex 487.244644267653 -1407.18111196823 469.584
    vertex 486.822577596583 -1407.00628622885 469.584
  endloop
endfacet
facet normal 0.382683432364942 0.923879532511348 1.00974817782707e-018
  outer loop
    vertex 487.244644267653 -1407.18111196823 469.584
    vertex 486.822577596583 -1407.00628622885 477.584
    vertex 487.244644267653 -1407.18111196823 477.584
  endloop
endfacet
facet normal 0.13052619222014 0.991444861373799 -2.70898317460384e-019
  outer loop
    vertex 487.244644267653 -1407.18111196823 477.584
    vertex 487.697577596583 -1407.24074177222 469.584
    vertex 487.244644267653 -1407.18111196823 469.584
  endloop
endfacet
facet normal 0.13052619222014 0.991444861373799 -2.70898317460384e-019
  outer loop
    vertex 487.697577596583 -1407.24074177222 469.584
    vertex 487.244644267653 -1407.18111196823 477.584
    vertex 487.697577596583 -1407.24074177222 477.584
  endloop
endfacet
facet normal -0.13052619222014 0.991444861373799 -2.70898317460384e-019
  outer loop
    vertex 487.697577596583 -1407.24074177222 477.584
    vertex 488.150510925512 -1407.18111196823 469.584
    vertex 487.697577596583 -1407.24074177222 469.584
  endloop
endfacet
facet normal -0.13052619222014 0.991444861373799 -2.70898317460384e-019
  outer loop
    vertex 488.150510925512 -1407.18111196823 469.584
    vertex 487.697577596583 -1407.24074177222 477.584
    vertex 488.150510925512 -1407.18111196823 477.584
  endloop
endfacet
facet normal -0.382683432364942 0.923879532511348 -4.86908701774938e-029
  outer loop
    vertex 488.150510925512 -1407.18111196823 477.584
    vertex 488.572577596582 -1407.00628622885 469.584
    vertex 488.150510925512 -1407.18111196823 469.584
  endloop
endfacet
facet normal -0.382683432364942 0.923879532511348 -4.86908701774938e-029
  outer loop
    vertex 488.572577596582 -1407.00628622885 469.584
    vertex 488.150510925512 -1407.18111196823 477.584
    vertex 488.572577596582 -1407.00628622885 477.584
  endloop
endfacet
facet normal -0.60876142900871 0.793353340291243 -4.81226429267826e-028
  outer loop
    vertex 488.572577596582 -1407.00628622885 477.584
    vertex 488.935014463659 -1406.7281786393 469.584
    vertex 488.572577596582 -1407.00628622885 469.584
  endloop
endfacet
facet normal -0.60876142900871 0.793353340291243 -4.81226429267826e-028
  outer loop
    vertex 488.935014463659 -1406.7281786393 469.584
    vertex 488.572577596582 -1407.00628622885 477.584
    vertex 488.935014463659 -1406.7281786393 477.584
  endloop
endfacet
facet normal -0.793353340291221 0.608761429008739 -8.67090418227404e-019
  outer loop
    vertex 489.213122053205 -1406.36574177222 477.584
    vertex 488.935014463659 -1406.7281786393 469.584
    vertex 488.935014463659 -1406.7281786393 477.584
  endloop
endfacet
facet normal -0.793353340291221 0.608761429008739 -8.67090418227404e-019
  outer loop
    vertex 488.935014463659 -1406.7281786393 469.584
    vertex 489.213122053205 -1406.36574177222 477.584
    vertex 489.213122053205 -1406.36574177222 469.584
  endloop
endfacet
facet normal -0.923879532511319 0.382683432365012 0.0
  outer loop
    vertex 489.387947792588 -1405.94367510115 477.584
    vertex 489.213122053205 -1406.36574177222 469.584
    vertex 489.213122053205 -1406.36574177222 477.584
  endloop
endfacet
facet normal -0.923879532511319 0.382683432365012 0.0
  outer loop
    vertex 489.213122053205 -1406.36574177222 469.584
    vertex 489.387947792588 -1405.94367510115 477.584
    vertex 489.387947792588 -1405.94367510115 469.584
  endloop
endfacet
facet normal -0.991444861373802 0.130526192220114 3.32150981341224e-029
  outer loop
    vertex 489.447577596582 -1405.49074177222 477.584
    vertex 489.387947792588 -1405.94367510115 469.584
    vertex 489.387947792588 -1405.94367510115 477.584
  endloop
endfacet
facet normal -0.991444861373802 0.130526192220114 3.32150981341224e-029
  outer loop
    vertex 489.387947792588 -1405.94367510115 469.584
    vertex 489.447577596582 -1405.49074177222 477.584
    vertex 489.447577596582 -1405.49074177222 469.584
  endloop
endfacet
facet normal -0.991444861373802 -0.130526192220114 3.32150981341224e-029
  outer loop
    vertex 489.387947792588 -1405.03780844329 477.584
    vertex 489.447577596582 -1405.49074177222 469.584
    vertex 489.447577596582 -1405.49074177222 477.584
  endloop
endfacet
facet normal -0.991444861373802 -0.130526192220114 3.32150981341224e-029
  outer loop
    vertex 489.447577596582 -1405.49074177222 469.584
    vertex 489.387947792588 -1405.03780844329 477.584
    vertex 489.387947792588 -1405.03780844329 469.584
  endloop
endfacet
facet normal -0.923879532511319 -0.382683432365012 0.0
  outer loop
    vertex 489.213122053205 -1404.61574177222 477.584
    vertex 489.387947792588 -1405.03780844329 469.584
    vertex 489.387947792588 -1405.03780844329 477.584
  endloop
endfacet
facet normal -0.923879532511319 -0.382683432365012 0.0
  outer loop
    vertex 489.387947792588 -1405.03780844329 469.584
    vertex 489.213122053205 -1404.61574177222 477.584
    vertex 489.213122053205 -1404.61574177222 469.584
  endloop
endfacet
facet normal -0.793353340291221 -0.608761429008739 -8.67090418227404e-019
  outer loop
    vertex 488.935014463659 -1404.25330490515 477.584
    vertex 489.213122053205 -1404.61574177222 469.584
    vertex 489.213122053205 -1404.61574177222 477.584
  endloop
endfacet
facet normal -0.793353340291221 -0.608761429008739 -8.67090418227404e-019
  outer loop
    vertex 489.213122053205 -1404.61574177222 469.584
    vertex 488.935014463659 -1404.25330490515 477.584
    vertex 488.935014463659 -1404.25330490515 469.584
  endloop
endfacet
facet normal -0.60876142900871 -0.793353340291243 -4.81226429267826e-028
  outer loop
    vertex 488.935014463659 -1404.25330490515 477.584
    vertex 488.572577596582 -1403.9751973156 469.584
    vertex 488.935014463659 -1404.25330490515 469.584
  endloop
endfacet
facet normal -0.60876142900871 -0.793353340291243 -4.81226429267826e-028
  outer loop
    vertex 488.572577596582 -1403.9751973156 469.584
    vertex 488.935014463659 -1404.25330490515 477.584
    vertex 488.572577596582 -1403.9751973156 477.584
  endloop
endfacet
facet normal -0.382683432364942 -0.923879532511348 -4.86908701774938e-029
  outer loop
    vertex 488.572577596582 -1403.9751973156 477.584
    vertex 488.150510925512 -1403.80037157622 469.584
    vertex 488.572577596582 -1403.9751973156 469.584
  endloop
endfacet
facet normal -0.382683432364942 -0.923879532511348 -4.86908701774938e-029
  outer loop
    vertex 488.150510925512 -1403.80037157622 469.584
    vertex 488.572577596582 -1403.9751973156 477.584
    vertex 488.150510925512 -1403.80037157622 477.584
  endloop
endfacet
facet normal -0.13052619222014 -0.991444861373799 -2.70898317460384e-019
  outer loop
    vertex 488.150510925512 -1403.80037157622 477.584
    vertex 487.697577596583 -1403.74074177222 469.584
    vertex 488.150510925512 -1403.80037157622 469.584
  endloop
endfacet
facet normal -0.13052619222014 -0.991444861373799 -2.70898317460384e-019
  outer loop
    vertex 487.697577596583 -1403.74074177222 469.584
    vertex 488.150510925512 -1403.80037157622 477.584
    vertex 487.697577596583 -1403.74074177222 477.584
  endloop
endfacet
facet normal 0.13052619222014 -0.991444861373799 2.70898317493599e-019
  outer loop
    vertex 487.697577596583 -1403.74074177222 477.584
    vertex 487.244644267653 -1403.80037157622 469.584
    vertex 487.697577596583 -1403.74074177222 469.584
  endloop
endfacet
facet normal 0.13052619222014 -0.991444861373799 2.70898317493599e-019
  outer loop
    vertex 487.244644267653 -1403.80037157622 469.584
    vertex 487.697577596583 -1403.74074177222 477.584
    vertex 487.244644267653 -1403.80037157622 477.584
  endloop
endfacet
facet normal 0.382683432364942 -0.923879532511348 -1.00974817792445e-018
  outer loop
    vertex 487.244644267653 -1403.80037157622 477.584
    vertex 486.822577596583 -1403.9751973156 469.584
    vertex 487.244644267653 -1403.80037157622 469.584
  endloop
endfacet
facet normal 0.382683432364942 -0.923879532511348 -1.00974817792445e-018
  outer loop
    vertex 486.822577596583 -1403.9751973156 469.584
    vertex 487.244644267653 -1403.80037157622 477.584
    vertex 486.822577596583 -1403.9751973156 477.584
  endloop
endfacet
facet normal 0.60876142900871 -0.793353340291243 -7.74559889508405e-029
  outer loop
    vertex 486.822577596583 -1403.9751973156 477.584
    vertex 486.460140729506 -1404.25330490515 469.584
    vertex 486.822577596583 -1403.9751973156 469.584
  endloop
endfacet
facet normal 0.60876142900871 -0.793353340291243 -7.74559889508405e-029
  outer loop
    vertex 486.460140729506 -1404.25330490515 469.584
    vertex 486.822577596583 -1403.9751973156 477.584
    vertex 486.460140729506 -1404.25330490515 477.584
  endloop
endfacet
facet normal 0.793353340291221 -0.608761429008739 -8.67090418227404e-019
  outer loop
    vertex 486.460140729506 -1404.25330490515 469.584
    vertex 486.18203313996 -1404.61574177222 477.584
    vertex 486.18203313996 -1404.61574177222 469.584
  endloop
endfacet
facet normal 0.793353340291221 -0.608761429008739 -8.67090418227404e-019
  outer loop
    vertex 486.18203313996 -1404.61574177222 477.584
    vertex 486.460140729506 -1404.25330490515 469.584
    vertex 486.460140729506 -1404.25330490515 477.584
  endloop
endfacet
facet normal 0.923879532511319 -0.382683432365012 0.0
  outer loop
    vertex 486.18203313996 -1404.61574177222 469.584
    vertex 486.007207400577 -1405.03780844329 477.584
    vertex 486.007207400577 -1405.03780844329 469.584
  endloop
endfacet
facet normal 0.923879532511319 -0.382683432365012 0.0
  outer loop
    vertex 486.007207400577 -1405.03780844329 477.584
    vertex 486.18203313996 -1404.61574177222 469.584
    vertex 486.18203313996 -1404.61574177222 477.584
  endloop
endfacet
facet normal 0.0 0.0 1.0
  outer loop
    vertex 480.697577596582 -1411.49074177222 477.584
    vertex 486.460140729506 -1406.7281786393 477.584
    vertex 480.697577596582 -1399.49074177222 477.584
  endloop
endfacet
facet normal 0.0 0.0 1.0
  outer loop
    vertex 486.460140729506 -1406.7281786393 477.584
    vertex 480.697577596582 -1411.49074177222 477.584
    vertex 486.822577596583 -1407.00628622885 477.584
  endloop
endfacet
facet normal 0.0 0.0 1.0
  outer loop
    vertex 486.822577596583 -1407.00628622885 477.584
    vertex 480.697577596582 -1411.49074177222 477.584
    vertex 487.244644267653 -1407.18111196823 477.584
  endloop
endfacet
facet normal 0.0 0.0 1.0
  outer loop
    vertex 487.244644267653 -1407.18111196823 477.584
    vertex 480.697577596582 -1411.49074177222 477.584
    vertex 517.697577596582 -1411.49074177222 477.584
  endloop
endfacet
facet normal 0.0 0.0 1.0
  outer loop
    vertex 480.697577596582 -1399.49074177222 477.584
    vertex 486.460140729506 -1406.7281786393 477.584
    vertex 486.18203313996 -1406.36574177222 477.584
  endloop
endfacet
facet normal 0.0 0.0 1.0
  outer loop
    vertex 480.697577596582 -1399.49074177222 477.584
    vertex 486.18203313996 -1406.36574177222 477.584
    vertex 486.007207400577 -1405.94367510115 477.584
  endloop
endfacet
facet normal 0.0 0.0 1.0
  outer loop
    vertex 480.697577596582 -1399.49074177222 477.584
    vertex 486.007207400577 -1405.94367510115 477.584
    vertex 485.947577596583 -1405.49074177222 477.584
  endloop
endfacet
facet normal 0.0 0.0 1.0
  outer loop
    vertex 487.244644267653 -1407.18111196823 477.584
    vertex 517.697577596582 -1411.49074177222 477.584
    vertex 487.697577596583 -1407.24074177222 477.584
  endloop
endfacet
facet normal 0.0 0.0 1.0
  outer loop
    vertex 487.697577596583 -1407.24074177222 477.584
    vertex 517.697577596582 -1411.49074177222 477.584
    vertex 488.150510925512 -1407.18111196823 477.584
  endloop
endfacet
facet normal 0.0 0.0 1.0
  outer loop
    vertex 488.150510925512 -1407.18111196823 477.584
    vertex 517.697577596582 -1411.49074177222 477.584
    vertex 488.572577596582 -1407.00628622885 477.584
  endloop
endfacet
facet normal 0.0 0.0 1.0
  outer loop
    vertex 488.572577596582 -1407.00628622885 477.584
    vertex 517.697577596582 -1411.49074177222 477.584
    vertex 488.935014463659 -1406.7281786393 477.584
  endloop
endfacet
facet normal 0.0 0.0 1.0
  outer loop
    vertex 488.935014463659 -1406.7281786393 477.584
    vertex 517.697577596582 -1411.49074177222 477.584
    vertex 489.213122053205 -1406.36574177222 477.584
  endloop
endfacet
facet normal 0.0 0.0 1.0
  outer loop
    vertex 489.213122053205 -1406.36574177222 477.584
    vertex 517.697577596582 -1411.49074177222 477.584
    vertex 489.387947792588 -1405.94367510115 477.584
  endloop
endfacet
facet normal 0.0 0.0 1.0
  outer loop
    vertex 489.387947792588 -1405.94367510115 477.584
    vertex 517.697577596582 -1411.49074177222 477.584
    vertex 489.447577596582 -1405.49074177222 477.584
  endloop
endfacet
facet normal 0.0 0.0 1.0
  outer loop
    vertex 480.697577596582 -1399.49074177222 477.584
    vertex 487.244644267653 -1403.80037157622 477.584
    vertex 517.697577596582 -1399.49074177222 477.584
  endloop
endfacet
facet normal 0.0 0.0 1.0
  outer loop
    vertex 487.244644267653 -1403.80037157622 477.584
    vertex 480.697577596582 -1399.49074177222 477.584
    vertex 486.822577596583 -1403.9751973156 477.584
  endloop
endfacet
facet normal 0.0 0.0 1.0
  outer loop
    vertex 486.822577596583 -1403.9751973156 477.584
    vertex 480.697577596582 -1399.49074177222 477.584
    vertex 486.460140729506 -1404.25330490515 477.584
  endloop
endfacet
facet normal 0.0 0.0 1.0
  outer loop
    vertex 486.460140729506 -1404.25330490515 477.584
    vertex 480.697577596582 -1399.49074177222 477.584
    vertex 486.18203313996 -1404.61574177222 477.584
  endloop
endfacet
facet normal 0.0 0.0 1.0
  outer loop
    vertex 486.18203313996 -1404.61574177222 477.584
    vertex 480.697577596582 -1399.49074177222 477.584
    vertex 486.007207400577 -1405.03780844329 477.584
  endloop
endfacet
facet normal 0.0 0.0 1.0
  outer loop
    vertex 486.007207400577 -1405.03780844329 477.584
    vertex 480.697577596582 -1399.49074177222 477.584
    vertex 485.947577596583 -1405.49074177222 477.584
  endloop
endfacet
facet normal 0.0 0.0 1.0
  outer loop
    vertex 517.697577596582 -1399.49074177222 477.584
    vertex 487.244644267653 -1403.80037157622 477.584
    vertex 487.697577596583 -1403.74074177222 477.584
  endloop
endfacet
facet normal 0.0 0.0 1.0
  outer loop
    vertex 517.697577596582 -1399.49074177222 477.584
    vertex 487.697577596583 -1403.74074177222 477.584
    vertex 488.150510925512 -1403.80037157622 477.584
  endloop
endfacet
facet normal 0.0 0.0 1.0
  outer loop
    vertex 517.697577596582 -1399.49074177222 477.584
    vertex 488.150510925512 -1403.80037157622 477.584
    vertex 488.572577596582 -1403.9751973156 477.584
  endloop
endfacet
facet normal 0.0 0.0 1.0
  outer loop
    vertex 517.697577596582 -1399.49074177222 477.584
    vertex 488.572577596582 -1403.9751973156 477.584
    vertex 488.935014463659 -1404.25330490515 477.584
  endloop
endfacet
facet normal 0.0 0.0 1.0
  outer loop
    vertex 517.697577596582 -1399.49074177222 477.584
    vertex 488.935014463659 -1404.25330490515 477.584
    vertex 489.213122053205 -1404.61574177222 477.584
  endloop
endfacet
facet normal 0.0 0.0 1.0
  outer loop
    vertex 517.697577596582 -1399.49074177222 477.584
    vertex 489.213122053205 -1404.61574177222 477.584
    vertex 489.387947792588 -1405.03780844329 477.584
  endloop
endfacet
facet normal 0.0 0.0 1.0
  outer loop
    vertex 517.697577596582 -1399.49074177222 477.584
    vertex 489.387947792588 -1405.03780844329 477.584
    vertex 489.447577596582 -1405.49074177222 477.584
  endloop
endfacet
facet normal 0.0 0.0 1.0
  outer loop
    vertex 517.697577596582 -1399.49074177222 477.584
    vertex 489.447577596582 -1405.49074177222 477.584
    vertex 517.697577596582 -1411.49074177222 477.584
  endloop
endfacet
facet normal -1.84161076411293e-015 1.17209458624054e-031 -1.0
  outer loop
    vertex 480.697577596582 -1399.49074177222 469.584
    vertex 486.460140729506 -1404.25330490515 469.584
    vertex 480.697577596582 -1411.49074177222 469.584
  endloop
endfacet
facet normal -1.84161076411293e-015 1.17209458624054e-031 -1.0
  outer loop
    vertex 486.460140729506 -1404.25330490515 469.584
    vertex 480.697577596582 -1399.49074177222 469.584
    vertex 486.822577596583 -1403.9751973156 469.584
  endloop
endfacet
facet normal -1.84161076411293e-015 1.17209458624054e-031 -1.0
  outer loop
    vertex 486.822577596583 -1403.9751973156 469.584
    vertex 480.697577596582 -1399.49074177222 469.584
    vertex 487.244644267653 -1403.80037157622 469.584
  endloop
endfacet
facet normal -1.84161076411293e-015 1.17209458624054e-031 -1.0
  outer loop
    vertex 487.244644267653 -1403.80037157622 469.584
    vertex 480.697577596582 -1399.49074177222 469.584
    vertex 487.697577596583 -1403.74074177222 469.584
  endloop
endfacet
facet normal -1.84161076411293e-015 1.17209458624054e-031 -1.0
  outer loop
    vertex 487.697577596583 -1403.74074177222 469.584
    vertex 480.697577596582 -1399.49074177222 469.584
    vertex 529.697577596582 -1399.49074177223 469.584
  endloop
endfacet
facet normal -1.84161076411293e-015 1.17209458624054e-031 -1.0
  outer loop
    vertex 480.697577596582 -1411.49074177222 469.584
    vertex 486.460140729506 -1404.25330490515 469.584
    vertex 486.18203313996 -1404.61574177222 469.584
  endloop
endfacet
facet normal -1.84161076411293e-015 1.17209458624054e-031 -1.0
  outer loop
    vertex 480.697577596582 -1411.49074177222 469.584
    vertex 486.18203313996 -1404.61574177222 469.584
    vertex 486.007207400577 -1405.03780844329 469.584
  endloop
endfacet
facet normal -1.84161076411293e-015 1.17209458624054e-031 -1.0
  outer loop
    vertex 480.697577596582 -1411.49074177222 469.584
    vertex 486.007207400577 -1405.03780844329 469.584
    vertex 485.947577596583 -1405.49074177222 469.584
  endloop
endfacet
facet normal -1.84161076411293e-015 1.17209458624054e-031 -1.0
  outer loop
    vertex 487.697577596583 -1403.74074177222 469.584
    vertex 529.697577596582 -1399.49074177223 469.584
    vertex 488.150510925512 -1403.80037157622 469.584
  endloop
endfacet
facet normal -1.84161076411293e-015 1.17209458624054e-031 -1.0
  outer loop
    vertex 488.150510925512 -1403.80037157622 469.584
    vertex 529.697577596582 -1399.49074177223 469.584
    vertex 488.572577596582 -1403.9751973156 469.584
  endloop
endfacet
facet normal -1.84161076411293e-015 1.17209458624054e-031 -1.0
  outer loop
    vertex 488.572577596582 -1403.9751973156 469.584
    vertex 529.697577596582 -1399.49074177223 469.584
    vertex 488.935014463659 -1404.25330490515 469.584
  endloop
endfacet
facet normal -1.84161076411293e-015 1.17209458624054e-031 -1.0
  outer loop
    vertex 488.935014463659 -1404.25330490515 469.584
    vertex 529.697577596582 -1399.49074177223 469.584
    vertex 489.213122053205 -1404.61574177222 469.584
  endloop
endfacet
facet normal -1.84161076411293e-015 1.17209458624054e-031 -1.0
  outer loop
    vertex 489.213122053205 -1404.61574177222 469.584
    vertex 529.697577596582 -1399.49074177223 469.584
    vertex 489.387947792588 -1405.03780844329 469.584
  endloop
endfacet
facet normal -1.84161076411293e-015 1.17209458624054e-031 -1.0
  outer loop
    vertex 489.387947792588 -1405.03780844329 469.584
    vertex 529.697577596582 -1399.49074177223 469.584
    vertex 489.447577596582 -1405.49074177222 469.584
  endloop
endfacet
facet normal -1.84161076411293e-015 1.17209458624054e-031 -1.0
  outer loop
    vertex 480.697577596582 -1411.49074177222 469.584
    vertex 487.697577596583 -1407.24074177222 469.584
    vertex 529.697577596582 -1411.49074177222 469.584
  endloop
endfacet
facet normal -1.84161076411293e-015 1.17209458624054e-031 -1.0
  outer loop
    vertex 487.697577596583 -1407.24074177222 469.584
    vertex 480.697577596582 -1411.49074177222 469.584
    vertex 487.244644267653 -1407.18111196823 469.584
  endloop
endfacet
facet normal -1.84161076411293e-015 1.17209458624054e-031 -1.0
  outer loop
    vertex 487.244644267653 -1407.18111196823 469.584
    vertex 480.697577596582 -1411.49074177222 469.584
    vertex 486.822577596583 -1407.00628622885 469.584
  endloop
endfacet
facet normal -1.84161076411293e-015 1.17209458624054e-031 -1.0
  outer loop
    vertex 486.822577596583 -1407.00628622885 469.584
    vertex 480.697577596582 -1411.49074177222 469.584
    vertex 486.460140729506 -1406.7281786393 469.584
  endloop
endfacet
facet normal -1.84161076411293e-015 1.17209458624054e-031 -1.0
  outer loop
    vertex 486.460140729506 -1406.7281786393 469.584
    vertex 480.697577596582 -1411.49074177222 469.584
    vertex 486.18203313996 -1406.36574177222 469.584
  endloop
endfacet
facet normal -1.84161076411293e-015 1.17209458624054e-031 -1.0
  outer loop
    vertex 486.18203313996 -1406.36574177222 469.584
    vertex 480.697577596582 -1411.49074177222 469.584
    vertex 486.007207400577 -1405.94367510115 469.584
  endloop
endfacet
facet normal -1.84161076411293e-015 1.17209458624054e-031 -1.0
  outer loop
    vertex 486.007207400577 -1405.94367510115 469.584
    vertex 480.697577596582 -1411.49074177222 469.584
    vertex 485.947577596583 -1405.49074177222 469.584
  endloop
endfacet
facet normal -1.84161076411293e-015 1.17209458624054e-031 -1.0
  outer loop
    vertex 529.697577596582 -1411.49074177222 469.584
    vertex 487.697577596583 -1407.24074177222 469.584
    vertex 488.150510925512 -1407.18111196823 469.584
  endloop
endfacet
facet normal -1.84161076411293e-015 1.17209458624054e-031 -1.0
  outer loop
    vertex 529.697577596582 -1411.49074177222 469.584
    vertex 488.150510925512 -1407.18111196823 469.584
    vertex 488.572577596582 -1407.00628622885 469.584
  endloop
endfacet
facet normal -1.84161076411293e-015 1.17209458624054e-031 -1.0
  outer loop
    vertex 529.697577596582 -1411.49074177222 469.584
    vertex 488.572577596582 -1407.00628622885 469.584
    vertex 488.935014463659 -1406.7281786393 469.584
  endloop
endfacet
facet normal -1.84161076411293e-015 1.17209458624054e-031 -1.0
  outer loop
    vertex 529.697577596582 -1411.49074177222 469.584
    vertex 488.935014463659 -1406.7281786393 469.584
    vertex 489.213122053205 -1406.36574177222 469.584
  endloop
endfacet
facet normal -1.84161076411293e-015 1.17209458624054e-031 -1.0
  outer loop
    vertex 529.697577596582 -1411.49074177222 469.584
    vertex 489.213122053205 -1406.36574177222 469.584
    vertex 489.387947792588 -1405.94367510115 469.584
  endloop
endfacet
facet normal -1.84161076411293e-015 1.17209458624054e-031 -1.0
  outer loop
    vertex 529.697577596582 -1411.49074177222 469.584
    vertex 489.387947792588 -1405.94367510115 469.584
    vertex 489.447577596582 -1405.49074177222 469.584
  endloop
endfacet
facet normal -1.84161076411293e-015 1.17209458624054e-031 -1.0
  outer loop
    vertex 529.697577596582 -1411.49074177222 469.584
    vertex 489.447577596582 -1405.49074177222 469.584
    vertex 529.697577596582 -1399.49074177223 469.584
  endloop
endfacet
facet normal 3.75995531006401e-015 -9.02389274415301e-015 -1.0
  outer loop
    vertex 541.697577596583 -1399.49074177223 480.584
    vertex 529.697577596582 -1404.49074177222 480.584
    vertex 529.697577596582 -1399.49074177223 480.584
  endloop
endfacet
facet normal 3.75995531006401e-015 -9.02389274415301e-015 -1.0
  outer loop
    vertex 529.697577596582 -1404.49074177222 480.584
    vertex 541.697577596583 -1399.49074177223 480.584
    vertex 541.697577596582 -1404.49074177223 480.584
  endloop
endfacet
facet normal 1.0 1.28660301139889e-014 -1.86164541250545e-014
  outer loop
    vertex 529.697577596582 -1399.49074177223 469.584
    vertex 529.697577596582 -1411.49074177222 485.584
    vertex 529.697577596582 -1411.49074177222 469.584
  endloop
endfacet
facet normal 1.0 1.28660301139889e-014 -1.86164541250545e-014
  outer loop
    vertex 529.697577596582 -1411.49074177222 485.584
    vertex 529.697577596582 -1399.49074177223 469.584
    vertex 529.697577596582 -1409.49074177222 487.584
  endloop
endfacet
facet normal 1.0 1.28660301139889e-014 -1.86164541250545e-014
  outer loop
    vertex 529.697577596582 -1409.49074177222 487.584
    vertex 529.697577596582 -1399.49074177223 469.584
    vertex 529.697577596582 -1404.49074177222 480.584
  endloop
endfacet
facet normal 1.0 1.28660301139889e-014 -1.86164541250545e-014
  outer loop
    vertex 529.697577596582 -1404.49074177222 480.584
    vertex 529.697577596582 -1399.49074177223 469.584
    vertex 529.697577596582 -1399.49074177223 480.584
  endloop
endfacet
facet normal 1.0 1.28660301139889e-014 -1.86164541250545e-014
  outer loop
    vertex 529.697577596582 -1404.49074177222 487.584
    vertex 529.697577596582 -1409.49074177222 487.584
    vertex 529.697577596582 -1404.49074177222 480.584
  endloop
endfacet
facet normal -0.707106781186548 0.0 0.707106781186548
  outer loop
    vertex 527.697577596582 -1399.49074177222 492.584
    vertex 522.697577596582 -1404.49074177222 487.584
    vertex 527.697577596582 -1404.49074177222 492.584
  endloop
endfacet
facet normal -0.707106781186548 0.0 0.707106781186548
  outer loop
    vertex 522.697577596582 -1404.49074177222 487.584
    vertex 527.697577596582 -1399.49074177222 492.584
    vertex 522.697577596582 -1399.49074177222 487.584
  endloop
endfacet
facet normal -8.97849361427065e-014 -1.0 -3.03970685754379e-014
  outer loop
    vertex 529.697577596582 -1404.49074177222 480.584
    vertex 533.822577596581 -1404.49074177223 484.468455543378
    vertex 529.697577596582 -1404.49074177222 487.584
  endloop
endfacet
facet normal -8.97849361427065e-014 -1.0 -3.03970685754379e-014
  outer loop
    vertex 533.822577596581 -1404.49074177223 484.468455543378
    vertex 529.697577596582 -1404.49074177222 480.584
    vertex 534.244644267652 -1404.49074177223 484.293629803995
  endloop
endfacet
facet normal -8.97849361427065e-014 -1.0 -3.03970685754379e-014
  outer loop
    vertex 534.244644267652 -1404.49074177223 484.293629803995
    vertex 529.697577596582 -1404.49074177222 480.584
    vertex 534.697577596581 -1404.49074177223 484.234
  endloop
endfacet
facet normal -8.97849361427065e-014 -1.0 -3.03970685754379e-014
  outer loop
    vertex 529.697577596582 -1404.49074177222 487.584
    vertex 533.822577596581 -1404.49074177223 484.468455543378
    vertex 533.460140729505 -1404.49074177223 484.746563132924
  endloop
endfacet
facet normal -8.97849361427065e-014 -1.0 -3.03970685754379e-014
  outer loop
    vertex 529.697577596582 -1404.49074177222 487.584
    vertex 533.460140729505 -1404.49074177223 484.746563132924
    vertex 533.182033139959 -1404.49074177223 485.109
  endloop
endfacet
facet normal -8.97849361427065e-014 -1.0 -3.03970685754379e-014
  outer loop
    vertex 529.697577596582 -1404.49074177222 487.584
    vertex 533.182033139959 -1404.49074177223 485.109
    vertex 533.007207400576 -1404.49074177223 485.531066671071
  endloop
endfacet
facet normal -8.97849361427065e-014 -1.0 -3.03970685754379e-014
  outer loop
    vertex 529.697577596582 -1404.49074177222 487.584
    vertex 533.007207400576 -1404.49074177223 485.531066671071
    vertex 532.947577596581 -1404.49074177223 485.984
  endloop
endfacet
facet normal -8.97849361427065e-014 -1.0 -3.03970685754379e-014
  outer loop
    vertex 529.697577596582 -1404.49074177222 487.584
    vertex 532.947577596581 -1404.49074177223 485.984
    vertex 533.007207400576 -1404.49074177223 486.43693332893
  endloop
endfacet
facet normal -8.97849361427065e-014 -1.0 -3.03970685754379e-014
  outer loop
    vertex 529.697577596582 -1404.49074177222 487.584
    vertex 533.007207400576 -1404.49074177223 486.43693332893
    vertex 533.182033139959 -1404.49074177223 486.859
  endloop
endfacet
facet normal -8.97849361427065e-014 -1.0 -3.03970685754379e-014
  outer loop
    vertex 529.697577596582 -1404.49074177222 487.584
    vertex 533.182033139959 -1404.49074177223 486.859
    vertex 533.460140729505 -1404.49074177223 487.221436867077
  endloop
endfacet
facet normal -8.97849361427065e-014 -1.0 -3.03970685754379e-014
  outer loop
    vertex 529.697577596582 -1404.49074177222 487.584
    vertex 533.460140729505 -1404.49074177223 487.221436867077
    vertex 533.822577596581 -1404.49074177223 487.499544456623
  endloop
endfacet
facet normal -8.97849361427065e-014 -1.0 -3.03970685754379e-014
  outer loop
    vertex 529.697577596582 -1404.49074177222 487.584
    vertex 533.822577596581 -1404.49074177223 487.499544456623
    vertex 534.244644267652 -1404.49074177223 487.674370196006
  endloop
endfacet
facet normal -8.97849361427065e-014 -1.0 -3.03970685754379e-014
  outer loop
    vertex 529.697577596582 -1404.49074177222 487.584
    vertex 534.244644267652 -1404.49074177223 487.674370196006
    vertex 522.697577596582 -1404.49074177222 487.584
  endloop
endfacet
facet normal -8.97849361427065e-014 -1.0 -3.03970685754379e-014
  outer loop
    vertex 522.697577596582 -1404.49074177222 487.584
    vertex 534.244644267652 -1404.49074177223 487.674370196006
    vertex 527.697577596582 -1404.49074177222 492.584
  endloop
endfacet
facet normal -8.97849361427065e-014 -1.0 -3.03970685754379e-014
  outer loop
    vertex 527.697577596582 -1404.49074177222 492.584
    vertex 534.244644267652 -1404.49074177223 487.674370196006
    vertex 534.697577596581 -1404.49074177223 487.734
  endloop
endfacet
facet normal -8.97849361427065e-014 -1.0 -3.03970685754379e-014
  outer loop
    vertex 541.697577596582 -1404.49074177223 480.584
    vertex 535.572577596581 -1404.49074177223 484.468455543378
    vertex 529.697577596582 -1404.49074177222 480.584
  endloop
endfacet
facet normal -8.97849361427065e-014 -1.0 -3.03970685754379e-014
  outer loop
    vertex 535.572577596581 -1404.49074177223 484.468455543378
    vertex 541.697577596582 -1404.49074177223 480.584
    vertex 535.935014463658 -1404.49074177223 484.746563132924
  endloop
endfacet
facet normal -8.97849361427065e-014 -1.0 -3.03970685754379e-014
  outer loop
    vertex 535.935014463658 -1404.49074177223 484.746563132924
    vertex 541.697577596582 -1404.49074177223 480.584
    vertex 536.213122053204 -1404.49074177223 485.109
  endloop
endfacet
facet normal -8.97849361427065e-014 -1.0 -3.03970685754379e-014
  outer loop
    vertex 536.213122053204 -1404.49074177223 485.109
    vertex 541.697577596582 -1404.49074177223 480.584
    vertex 536.387947792587 -1404.49074177223 485.531066671071
  endloop
endfacet
facet normal -8.97849361427065e-014 -1.0 -3.03970685754379e-014
  outer loop
    vertex 536.387947792587 -1404.49074177223 485.531066671071
    vertex 541.697577596582 -1404.49074177223 480.584
    vertex 541.697577596578 -1404.49074177223 506.984000000001
  endloop
endfacet
facet normal -8.97849361427065e-014 -1.0 -3.03970685754379e-014
  outer loop
    vertex 529.697577596582 -1404.49074177222 480.584
    vertex 535.572577596581 -1404.49074177223 484.468455543378
    vertex 535.150510925511 -1404.49074177223 484.293629803995
  endloop
endfacet
facet normal -8.97849361427065e-014 -1.0 -3.03970685754379e-014
  outer loop
    vertex 529.697577596582 -1404.49074177222 480.584
    vertex 535.150510925511 -1404.49074177223 484.293629803995
    vertex 534.697577596581 -1404.49074177223 484.234
  endloop
endfacet
facet normal -8.97849361427065e-014 -1.0 -3.03970685754379e-014
  outer loop
    vertex 536.387947792587 -1404.49074177223 485.531066671071
    vertex 541.697577596578 -1404.49074177223 506.984000000001
    vertex 536.447577596581 -1404.49074177223 485.984
  endloop
endfacet
facet normal -8.97849361427065e-014 -1.0 -3.03970685754379e-014
  outer loop
    vertex 536.447577596581 -1404.49074177223 485.984
    vertex 541.697577596578 -1404.49074177223 506.984000000001
    vertex 536.387947792587 -1404.49074177223 486.43693332893
  endloop
endfacet
facet normal -8.97849361427065e-014 -1.0 -3.03970685754379e-014
  outer loop
    vertex 536.387947792587 -1404.49074177223 486.43693332893
    vertex 541.697577596578 -1404.49074177223 506.984000000001
    vertex 536.213122053204 -1404.49074177223 486.859
  endloop
endfacet
facet normal -8.97849361427065e-014 -1.0 -3.03970685754379e-014
  outer loop
    vertex 536.213122053204 -1404.49074177223 486.859
    vertex 541.697577596578 -1404.49074177223 506.984000000001
    vertex 535.935014463658 -1404.49074177223 487.221436867077
  endloop
endfacet
facet normal -8.97849361427065e-014 -1.0 -3.03970685754379e-014
  outer loop
    vertex 535.935014463658 -1404.49074177223 487.221436867077
    vertex 541.697577596578 -1404.49074177223 506.984000000001
    vertex 535.572577596581 -1404.49074177223 487.499544456623
  endloop
endfacet
facet normal -8.97849361427065e-014 -1.0 -3.03970685754379e-014
  outer loop
    vertex 535.572577596581 -1404.49074177223 487.499544456623
    vertex 541.697577596578 -1404.49074177223 506.984000000001
    vertex 535.150510925511 -1404.49074177223 487.674370196006
  endloop
endfacet
facet normal -8.97849361427065e-014 -1.0 -3.03970685754379e-014
  outer loop
    vertex 535.150510925511 -1404.49074177223 487.674370196006
    vertex 541.697577596578 -1404.49074177223 506.984000000001
    vertex 534.697577596581 -1404.49074177223 487.734
  endloop
endfacet
facet normal -8.97849361427065e-014 -1.0 -3.03970685754379e-014
  outer loop
    vertex 534.697577596581 -1404.49074177223 487.734
    vertex 541.697577596578 -1404.49074177223 506.984000000001
    vertex 536.213122053204 -1404.49074177223 499.109
  endloop
endfacet
facet normal -8.97849361427065e-014 -1.0 -3.03970685754379e-014
  outer loop
    vertex 534.697577596581 -1404.49074177223 487.734
    vertex 536.213122053204 -1404.49074177223 499.109
    vertex 535.935014463658 -1404.49074177223 498.746563132924
  endloop
endfacet
facet normal -8.97849361427065e-014 -1.0 -3.03970685754379e-014
  outer loop
    vertex 534.697577596581 -1404.49074177223 487.734
    vertex 535.935014463658 -1404.49074177223 498.746563132924
    vertex 535.572577596581 -1404.49074177223 498.468455543378
  endloop
endfacet
facet normal -8.97849361427065e-014 -1.0 -3.03970685754379e-014
  outer loop
    vertex 534.697577596581 -1404.49074177223 487.734
    vertex 535.572577596581 -1404.49074177223 498.468455543378
    vertex 527.697577596582 -1404.49074177222 492.584
  endloop
endfacet
facet normal -8.97849361427065e-014 -1.0 -3.03970685754379e-014
  outer loop
    vertex 527.697577596582 -1404.49074177222 492.584
    vertex 535.572577596581 -1404.49074177223 498.468455543378
    vertex 535.150510925511 -1404.49074177223 498.293629803995
  endloop
endfacet
facet normal -8.97849361427065e-014 -1.0 -3.03970685754379e-014
  outer loop
    vertex 527.697577596582 -1404.49074177222 492.584
    vertex 535.150510925511 -1404.49074177223 498.293629803995
    vertex 534.697577596581 -1404.49074177223 498.234
  endloop
endfacet
facet normal -8.97849361427065e-014 -1.0 -3.03970685754379e-014
  outer loop
    vertex 536.213122053204 -1404.49074177223 499.109
    vertex 541.697577596578 -1404.49074177223 506.984000000001
    vertex 536.387947792587 -1404.49074177223 499.531066671071
  endloop
endfacet
facet normal -8.97849361427065e-014 -1.0 -3.03970685754379e-014
  outer loop
    vertex 536.387947792587 -1404.49074177223 499.531066671071
    vertex 541.697577596578 -1404.49074177223 506.984000000001
    vertex 536.447577596581 -1404.49074177223 499.984
  endloop
endfacet
facet normal -8.97849361427065e-014 -1.0 -3.03970685754379e-014
  outer loop
    vertex 536.447577596581 -1404.49074177223 499.984
    vertex 541.697577596578 -1404.49074177223 506.984000000001
    vertex 536.387947792587 -1404.49074177223 500.43693332893
  endloop
endfacet
facet normal -8.97849361427065e-014 -1.0 -3.03970685754379e-014
  outer loop
    vertex 536.387947792587 -1404.49074177223 500.43693332893
    vertex 541.697577596578 -1404.49074177223 506.984000000001
    vertex 536.213122053204 -1404.49074177223 500.859
  endloop
endfacet
facet normal -8.97849361427065e-014 -1.0 -3.03970685754379e-014
  outer loop
    vertex 536.213122053204 -1404.49074177223 500.859
    vertex 541.697577596578 -1404.49074177223 506.984000000001
    vertex 535.935014463658 -1404.49074177223 501.221436867077
  endloop
endfacet
facet normal -8.97849361427065e-014 -1.0 -3.03970685754379e-014
  outer loop
    vertex 535.935014463658 -1404.49074177223 501.221436867077
    vertex 541.697577596578 -1404.49074177223 506.984000000001
    vertex 535.572577596581 -1404.49074177223 501.499544456623
  endloop
endfacet
facet normal -8.97849361427065e-014 -1.0 -3.03970685754379e-014
  outer loop
    vertex 535.572577596581 -1404.49074177223 501.499544456623
    vertex 541.697577596578 -1404.49074177223 506.984000000001
    vertex 535.150510925511 -1404.49074177223 501.674370196006
  endloop
endfacet
facet normal -8.97849361427065e-014 -1.0 -3.03970685754379e-014
  outer loop
    vertex 535.150510925511 -1404.49074177223 501.674370196006
    vertex 541.697577596578 -1404.49074177223 506.984000000001
    vertex 534.697577596581 -1404.49074177223 501.734
  endloop
endfacet
facet normal -8.97849361427065e-014 -1.0 -3.03970685754379e-014
  outer loop
    vertex 527.697577596582 -1404.49074177222 492.584
    vertex 533.182033139959 -1404.49074177223 499.109
    vertex 527.697577596578 -1404.49074177223 506.984000000001
  endloop
endfacet
facet normal -8.97849361427065e-014 -1.0 -3.03970685754379e-014
  outer loop
    vertex 533.182033139959 -1404.49074177223 499.109
    vertex 527.697577596582 -1404.49074177222 492.584
    vertex 533.460140729505 -1404.49074177223 498.746563132924
  endloop
endfacet
facet normal -8.97849361427065e-014 -1.0 -3.03970685754379e-014
  outer loop
    vertex 533.460140729505 -1404.49074177223 498.746563132924
    vertex 527.697577596582 -1404.49074177222 492.584
    vertex 533.822577596581 -1404.49074177223 498.468455543378
  endloop
endfacet
facet normal -8.97849361427065e-014 -1.0 -3.03970685754379e-014
  outer loop
    vertex 533.822577596581 -1404.49074177223 498.468455543378
    vertex 527.697577596582 -1404.49074177222 492.584
    vertex 534.244644267652 -1404.49074177223 498.293629803995
  endloop
endfacet
facet normal -8.97849361427065e-014 -1.0 -3.03970685754379e-014
  outer loop
    vertex 534.244644267652 -1404.49074177223 498.293629803995
    vertex 527.697577596582 -1404.49074177222 492.584
    vertex 534.697577596581 -1404.49074177223 498.234
  endloop
endfacet
facet normal -8.97849361427065e-014 -1.0 -3.03970685754379e-014
  outer loop
    vertex 527.697577596578 -1404.49074177223 506.984000000001
    vertex 533.182033139959 -1404.49074177223 499.109
    vertex 533.007207400576 -1404.49074177223 499.531066671071
  endloop
endfacet
facet normal -8.97849361427065e-014 -1.0 -3.03970685754379e-014
  outer loop
    vertex 527.697577596578 -1404.49074177223 506.984000000001
    vertex 533.007207400576 -1404.49074177223 499.531066671071
    vertex 532.947577596581 -1404.49074177223 499.984
  endloop
endfacet
facet normal -8.97849361427065e-014 -1.0 -3.03970685754379e-014
  outer loop
    vertex 527.697577596578 -1404.49074177223 506.984000000001
    vertex 532.947577596581 -1404.49074177223 499.984
    vertex 533.007207400576 -1404.49074177223 500.43693332893
  endloop
endfacet
facet normal -8.97849361427065e-014 -1.0 -3.03970685754379e-014
  outer loop
    vertex 527.697577596578 -1404.49074177223 506.984000000001
    vertex 533.007207400576 -1404.49074177223 500.43693332893
    vertex 533.182033139959 -1404.49074177223 500.859
  endloop
endfacet
facet normal -8.97849361427065e-014 -1.0 -3.03970685754379e-014
  outer loop
    vertex 527.697577596578 -1404.49074177223 506.984000000001
    vertex 533.182033139959 -1404.49074177223 500.859
    vertex 533.460140729505 -1404.49074177223 501.221436867077
  endloop
endfacet
facet normal -8.97849361427065e-014 -1.0 -3.03970685754379e-014
  outer loop
    vertex 527.697577596578 -1404.49074177223 506.984000000001
    vertex 533.460140729505 -1404.49074177223 501.221436867077
    vertex 533.822577596581 -1404.49074177223 501.499544456623
  endloop
endfacet
facet normal -8.97849361427065e-014 -1.0 -3.03970685754379e-014
  outer loop
    vertex 527.697577596578 -1404.49074177223 506.984000000001
    vertex 533.822577596581 -1404.49074177223 501.499544456623
    vertex 534.244644267652 -1404.49074177223 501.674370196006
  endloop
endfacet
facet normal -8.97849361427065e-014 -1.0 -3.03970685754379e-014
  outer loop
    vertex 527.697577596578 -1404.49074177223 506.984000000001
    vertex 534.244644267652 -1404.49074177223 501.674370196006
    vertex 534.697577596581 -1404.49074177223 501.734
  endloop
endfacet
facet normal -8.97849361427065e-014 -1.0 -3.03970685754379e-014
  outer loop
    vertex 527.697577596578 -1404.49074177223 506.984000000001
    vertex 534.697577596581 -1404.49074177223 501.734
    vertex 541.697577596578 -1404.49074177223 506.984000000001
  endloop
endfacet
facet normal -1.0 0.0 0.0
  outer loop
    vertex 517.697577596582 -1409.49074177222 487.584
    vertex 517.697577596582 -1411.49074177222 477.584
    vertex 517.697577596582 -1411.49074177222 485.584
  endloop
endfacet
facet normal -1.0 0.0 0.0
  outer loop
    vertex 517.697577596582 -1411.49074177222 477.584
    vertex 517.697577596582 -1409.49074177222 487.584
    vertex 517.697577596582 -1399.49074177222 477.584
  endloop
endfacet
facet normal -1.0 0.0 0.0
  outer loop
    vertex 517.697577596582 -1399.49074177222 477.584
    vertex 517.697577596582 -1409.49074177222 487.584
    vertex 517.697577596582 -1399.49074177222 487.584
  endloop
endfacet
facet normal 0.0 0.0 1.0
  outer loop
    vertex 517.697577596582 -1409.49074177222 487.584
    vertex 522.697577596582 -1404.49074177222 487.584
    vertex 517.697577596582 -1399.49074177222 487.584
  endloop
endfacet
facet normal 0.0 0.0 1.0
  outer loop
    vertex 522.697577596582 -1404.49074177222 487.584
    vertex 517.697577596582 -1409.49074177222 487.584
    vertex 529.697577596582 -1409.49074177222 487.584
  endloop
endfacet
facet normal 0.0 0.0 1.0
  outer loop
    vertex 522.697577596582 -1404.49074177222 487.584
    vertex 529.697577596582 -1409.49074177222 487.584
    vertex 529.697577596582 -1404.49074177222 487.584
  endloop
endfacet
facet normal 0.0 0.0 1.0
  outer loop
    vertex 522.697577596582 -1399.49074177222 487.584
    vertex 517.697577596582 -1399.49074177222 487.584
    vertex 522.697577596582 -1404.49074177222 487.584
  endloop
endfacet
facet normal -5.31980307847101e-015 -0.707106781186548 0.707106781186547
  outer loop
    vertex 529.697577596582 -1409.49074177222 487.584
    vertex 517.697577596582 -1411.49074177222 485.584
    vertex 529.697577596582 -1411.49074177222 485.584
  endloop
endfacet
facet normal -5.31980307847101e-015 -0.707106781186548 0.707106781186547
  outer loop
    vertex 517.697577596582 -1411.49074177222 485.584
    vertex 529.697577596582 -1409.49074177222 487.584
    vertex 517.697577596582 -1409.49074177222 487.584
  endloop
endfacet
endsolid UltraSpecial
