<?xml version="1.0" encoding="UTF-8" standalone="no"?>
<svg
   xmlns:dc="http://purl.org/dc/elements/1.1/"
   xmlns:cc="http://creativecommons.org/ns#"
   xmlns:rdf="http://www.w3.org/1999/02/22-rdf-syntax-ns#"
   xmlns:svg="http://www.w3.org/2000/svg"
   xmlns="http://www.w3.org/2000/svg"
   xmlns:sodipodi="http://sodipodi.sourceforge.net/DTD/sodipodi-0.dtd"
   xmlns:inkscape="http://www.inkscape.org/namespaces/inkscape"
   width="24in"
   height="17in"
   viewBox="0 0 609.6 431.80001"
   version="1.1"
   id="svg148"
   sodipodi:docname="flightsOfIdeas.svg"
   inkscape:version="0.92.4 (5da689c313, 2019-01-14)">
  <metadata
     id="metadata154">
    <rdf:RDF>
      <cc:Work
         rdf:about="">
        <dc:format>image/svg+xml</dc:format>
        <dc:type
           rdf:resource="http://purl.org/dc/dcmitype/StillImage" />
        <dc:title></dc:title>
      </cc:Work>
    </rdf:RDF>
  </metadata>
  <defs
     id="defs152" />
  <sodipodi:namedview
     pagecolor="#ffffff"
     bordercolor="#666666"
     borderopacity="1"
     objecttolerance="10"
     gridtolerance="10"
     guidetolerance="10"
     inkscape:pageopacity="0"
     inkscape:pageshadow="2"
     inkscape:window-width="1920"
     inkscape:window-height="1017"
     id="namedview150"
     showgrid="false"
     units="in"
     inkscape:zoom="0.38355527"
     inkscape:cx="1056.7505"
     inkscape:cy="678.87553"
     inkscape:window-x="-8"
     inkscape:window-y="-8"
     inkscape:window-maximized="1"
     inkscape:current-layer="svg148" />
  <desc
     id="desc2">Output from Flights of Ideas SVG Sketchup Plugin</desc>
  <g
     id="g264"
     transform="rotate(-90,272.93363,166.61614)"
     style="stroke-width:0.50000001;stroke-miterlimit:4;stroke-dasharray:none">
    <path
       inkscape:connector-curvature="0"
       d="m 249.55688,145.4331 m -139.7,0 m 0,18.976 m 26.837,0 m 85.66601,0 m 27.19699,0"
       style="fill:none;stroke:#000000;stroke-width:0.50000001;stroke-linecap:round;stroke-linejoin:round;stroke-miterlimit:4;stroke-dasharray:none"
       id="face0-cut" />
    <path
       inkscape:connector-curvature="0"
       d="m 136.52688,165.7821 m 0.167,-1.373 m -26.837,0 m 0,-18.976 m -101.5999894,0 v 26.5229 m 128.2699894,0"
       style="fill:none;stroke:#000000;stroke-width:0.50000001;stroke-linecap:round;stroke-linejoin:round;stroke-miterlimit:4;stroke-dasharray:none"
       id="face1-cut" />
    <path
       inkscape:connector-curvature="0"
       d="m 363.85688,145.4331 v -26.5229 m -355.5999894,0 v 26.5229 m 101.5999894,0 m 139.7,0"
       style="fill:none;stroke:#000000;stroke-width:0.50000001;stroke-linecap:round;stroke-linejoin:round;stroke-miterlimit:4;stroke-dasharray:none"
       id="face2-cut" />
    <path
       inkscape:connector-curvature="0"
       d="m 363.85688,145.4331 m -114.3,0 m 0,18.976 m -27.19699,0 m 0.16699,1.373 m 0,6.1739 m 141.33,0 v -24.1402 -2.3827"
       style="fill:none;stroke:#000000;stroke-width:0.50000001;stroke-linecap:round;stroke-linejoin:round;stroke-miterlimit:4;stroke-dasharray:none"
       id="face3-cut" />
    <path
       inkscape:connector-curvature="0"
       d="m 363.85688,278.0477 v -26.5229 m -114.3,0 m -139.7,0 m -101.5999894,0 v 26.5229"
       style="fill:none;stroke:#000000;stroke-width:0.50000001;stroke-linecap:round;stroke-linejoin:round;stroke-miterlimit:4;stroke-dasharray:none"
       id="face4-cut" />
    <path
       inkscape:connector-curvature="0"
       d="m 222.35989,232.5487 m -85.66601,0 m -26.837,0 m 0,18.9761 m 139.7,0 m 0,-18.9761"
       style="fill:none;stroke:#000000;stroke-width:0.50000001;stroke-linecap:round;stroke-linejoin:round;stroke-miterlimit:4;stroke-dasharray:none"
       id="face5-cut" />
    <path
       inkscape:connector-curvature="0"
       d="m 8.2568906,490.2311 m 46.5450414,0 2.001633,-6.7756 1.739576,-4.8079 10.013314,-14.9395 m -60.2995644,0 v 26.523"
       style="fill:none;stroke:#000000;stroke-width:0.50000001;stroke-linecap:round;stroke-linejoin:round;stroke-miterlimit:4;stroke-dasharray:none"
       id="face6-cut" />
    <path
       inkscape:connector-curvature="0"
       d="m 8.2568906,92.387199 m 101.5999894,0 m 0,-9.392 v -17.1309 m -101.5999894,0 v 26.5229"
       style="fill:none;stroke:#000000;stroke-width:0.50000001;stroke-linecap:round;stroke-linejoin:round;stroke-miterlimit:4;stroke-dasharray:none"
       id="face7-cut" />
    <path
       inkscape:connector-curvature="0"
       d="m 8.2568906,357.6165 m 101.5999894,0 v -26.523 m -101.5999894,0 v 26.523"
       style="fill:none;stroke:#000000;stroke-width:0.50000001;stroke-linecap:round;stroke-linejoin:round;stroke-miterlimit:4;stroke-dasharray:none"
       id="face8-cut" />
    <path
       inkscape:connector-curvature="0"
       d="m 8.2568906,384.1394 m 101.5999894,0 v -26.5229 m -101.5999894,0 v 26.5229"
       style="fill:none;stroke:#000000;stroke-width:0.50000001;stroke-linecap:round;stroke-linejoin:round;stroke-miterlimit:4;stroke-dasharray:none"
       id="face9-cut" />
    <path
       inkscape:connector-curvature="0"
       d="m 249.55688,313.9626 v -25.4 m -25.4,0 v 25.4 h 25.4"
       style="fill:none;stroke:#000000;stroke-width:0.50000001;stroke-linecap:round;stroke-linejoin:round;stroke-miterlimit:4;stroke-dasharray:none"
       id="face10-cut" />
    <path
       inkscape:connector-curvature="0"
       d="m 8.2568906,463.7081 m 60.2995644,0 12.18762,-16.3028 12.97625,-10.2201 m -85.4634344,0 v 26.5229"
       style="fill:none;stroke:#000000;stroke-width:0.50000001;stroke-linecap:round;stroke-linejoin:round;stroke-miterlimit:4;stroke-dasharray:none"
       id="face11-cut" />
    <path
       inkscape:connector-curvature="0"
       d="m 222.52688,225.0018 m 0,6.174 m -0.16699,1.3729 m 27.19699,0 m 0,18.9761 m 114.3,0 v -26.523"
       style="fill:none;stroke:#000000;stroke-width:0.50000001;stroke-linecap:round;stroke-linejoin:round;stroke-miterlimit:4;stroke-dasharray:none"
       id="face12-cut" />
    <path
       inkscape:connector-curvature="0"
       d="m 363.85688,171.956 m -141.33,0 m 0,26.5229 m 141.33,0 V 171.956"
       style="fill:none;stroke:#000000;stroke-width:0.50000001;stroke-linecap:round;stroke-linejoin:round;stroke-miterlimit:4;stroke-dasharray:none"
       id="face13-cut" />
    <path
       inkscape:connector-curvature="0"
       d="m 109.85688,288.5626 m 25.4,0 h 88.9 m 25.4,0 h 114.3 v -10.5149 m -355.5999894,0 v 26.5229 m 101.5999894,0"
       style="fill:none;stroke:#000000;stroke-width:0.50000001;stroke-linecap:round;stroke-linejoin:round;stroke-miterlimit:4;stroke-dasharray:none"
       id="face14-cut" />
    <path
       inkscape:connector-curvature="0"
       d="m 8.2568906,39.341399 m 101.5999894,0 v -26.5229 m -101.5999894,0 v 26.5229"
       style="fill:none;stroke:#000000;stroke-width:0.50000001;stroke-linecap:round;stroke-linejoin:round;stroke-miterlimit:4;stroke-dasharray:none"
       id="face15-cut" />
    <path
       inkscape:connector-curvature="0"
       d="m 8.2568906,-13.704501 m 101.5999894,0 V -27.6864 l -0.18,-0.074 -16.387635,-12.4671 m -85.0323544,0 v 26.522999"
       style="fill:none;stroke:#000000;stroke-width:0.50000001;stroke-linecap:round;stroke-linejoin:round;stroke-miterlimit:4;stroke-dasharray:none"
       id="face16-cut" />
    <path
       inkscape:connector-curvature="0"
       d="m 8.2568906,12.818499 m 101.5999894,0 v -26.523 m -101.5999894,0 v 26.523"
       style="fill:none;stroke:#000000;stroke-width:0.50000001;stroke-linecap:round;stroke-linejoin:round;stroke-miterlimit:4;stroke-dasharray:none"
       id="face17-cut" />
    <path
       inkscape:connector-curvature="0"
       d="m 8.2568906,437.1852 m 85.4634344,0 15.956555,-12.1391 0.18,-0.074 v -14.3099 m -101.5999894,0 v 26.5229"
       style="fill:none;stroke:#000000;stroke-width:0.50000001;stroke-linecap:round;stroke-linejoin:round;stroke-miterlimit:4;stroke-dasharray:none"
       id="face18-cut" />
    <path
       inkscape:connector-curvature="0"
       d="m 8.2568906,65.864299 m 101.5999894,0 v -26.5229 m -101.5999894,0 v 26.5229"
       style="fill:none;stroke:#000000;stroke-width:0.50000001;stroke-linecap:round;stroke-linejoin:round;stroke-miterlimit:4;stroke-dasharray:none"
       id="face19-cut" />
    <path
       inkscape:connector-curvature="0"
       d="m 8.2568906,-66.7503 m 60.0457544,0 -9.759504,-14.5608 -1.599305,-4.4202 -2.228032,-7.5419 m -46.4589134,0 v 26.5229"
       style="fill:none;stroke:#000000;stroke-width:0.50000001;stroke-linecap:round;stroke-linejoin:round;stroke-miterlimit:4;stroke-dasharray:none"
       id="face20-cut" />
    <path
       inkscape:connector-curvature="0"
       d="m 363.85688,108.3952 h -114.3 m -25.4,0 h -88.9 m -25.4,0 m 0,-16.008001 m -101.5999894,0 V 118.9102 m 355.5999894,0 v -10.515"
       style="fill:none;stroke:#000000;stroke-width:0.50000001;stroke-linecap:round;stroke-linejoin:round;stroke-miterlimit:4;stroke-dasharray:none"
       id="face21-cut" />
    <path
       inkscape:connector-curvature="0"
       d="M 224.15688,82.995199 V 108.3952 m 25.4,0 V 82.995199 h -25.4"
       style="fill:none;stroke:#000000;stroke-width:0.50000001;stroke-linecap:round;stroke-linejoin:round;stroke-miterlimit:4;stroke-dasharray:none"
       id="face22-cut" />
    <path
       inkscape:connector-curvature="0"
       d="m 136.52688,198.4789 m 86,0 m 0,-26.5229 m 0,-6.1739 m -0.16699,-1.373 m -85.66601,0 m -0.167,1.373 m 0,6.1739"
       style="fill:none;stroke:#000000;stroke-width:0.50000001;stroke-linecap:round;stroke-linejoin:round;stroke-miterlimit:4;stroke-dasharray:none"
       id="face23-cut" />
    <path
       inkscape:connector-curvature="0"
       d="m 136.52688,198.4789 m -128.2699894,0 v 26.5229 m 128.2699894,0"
       style="fill:none;stroke:#000000;stroke-width:0.50000001;stroke-linecap:round;stroke-linejoin:round;stroke-miterlimit:4;stroke-dasharray:none"
       id="face24-cut" />
    <path
       inkscape:connector-curvature="0"
       d="m 8.2568906,331.0935 m 101.5999894,0 v -17.1309 m 0,-9.392 m -101.5999894,0 v 26.5229"
       style="fill:none;stroke:#000000;stroke-width:0.50000001;stroke-linecap:round;stroke-linejoin:round;stroke-miterlimit:4;stroke-dasharray:none"
       id="face25-cut" />
    <path
       inkscape:connector-curvature="0"
       d="m 8.2568906,410.6623 m 101.5999894,0 v -26.5229 m -101.5999894,0 v 26.5229"
       style="fill:none;stroke:#000000;stroke-width:0.50000001;stroke-linecap:round;stroke-linejoin:round;stroke-miterlimit:4;stroke-dasharray:none"
       id="face26-cut" />
    <path
       inkscape:connector-curvature="0"
       d="m 8.2568906,-93.2732 m 46.4589134,0 -2.508818,-12.01 -1.539925,-14.2413 v -0.2716 H 8.2568906 v 26.5229"
       style="fill:none;stroke:#000000;stroke-width:0.50000001;stroke-linecap:round;stroke-linejoin:round;stroke-miterlimit:4;stroke-dasharray:none"
       id="face27-cut" />
    <path
       inkscape:connector-curvature="0"
       d="m 135.25688,313.9626 v -25.4 m -25.4,0 m 0,16.008 m 0,9.392 h 25.4"
       style="fill:none;stroke:#000000;stroke-width:0.50000001;stroke-linecap:round;stroke-linejoin:round;stroke-miterlimit:4;stroke-dasharray:none"
       id="face28-cut" />
    <path
       inkscape:connector-curvature="0"
       d="m 222.52688,198.4789 m -86,0 m 0,26.5229 m 0,6.174 m 0.167,1.3729 m 85.66601,0 m 0.16699,-1.3729 m 0,-6.174"
       style="fill:none;stroke:#000000;stroke-width:0.50000001;stroke-linecap:round;stroke-linejoin:round;stroke-miterlimit:4;stroke-dasharray:none"
       id="face29-cut" />
    <path
       inkscape:connector-curvature="0"
       d="m 109.85688,251.5248 m 0,-18.9761 m 26.837,0 m -0.167,-1.3729 m 0,-6.174 m -128.2699894,0 v 26.523"
       style="fill:none;stroke:#000000;stroke-width:0.50000001;stroke-linecap:round;stroke-linejoin:round;stroke-miterlimit:4;stroke-dasharray:none"
       id="face30-cut" />
    <path
       inkscape:connector-curvature="0"
       d="m 363.85688,198.4789 m -141.33,0 m 0,26.5229 m 141.33,0 v -26.5229"
       style="fill:none;stroke:#000000;stroke-width:0.50000001;stroke-linecap:round;stroke-linejoin:round;stroke-miterlimit:4;stroke-dasharray:none"
       id="face31-cut" />
    <path
       inkscape:connector-curvature="0"
       d="m 136.52688,171.956 m -128.2699894,0 v 26.5229 m 128.2699894,0"
       style="fill:none;stroke:#000000;stroke-width:0.50000001;stroke-linecap:round;stroke-linejoin:round;stroke-miterlimit:4;stroke-dasharray:none"
       id="face32-cut" />
    <path
       inkscape:connector-curvature="0"
       d="M 8.2568906,516.754 H 50.667061 l 1.5084,-13.9497 2.626471,-12.5732 m -46.5450414,0 v 26.5229"
       style="fill:none;stroke:#000000;stroke-width:0.50000001;stroke-linecap:round;stroke-linejoin:round;stroke-miterlimit:4;stroke-dasharray:none"
       id="face33-cut" />
    <path
       inkscape:connector-curvature="0"
       d="m 8.2568906,-40.2274 m 85.0323544,0 -12.54517,-9.8805 -12.44143,-16.6424 m -60.0457544,0 v 26.5229"
       style="fill:none;stroke:#000000;stroke-width:0.50000001;stroke-linecap:round;stroke-linejoin:round;stroke-miterlimit:4;stroke-dasharray:none"
       id="face34-cut" />
    <path
       inkscape:connector-curvature="0"
       d="M 135.25688,108.3952 V 82.995199 h -25.4 m 0,9.392 m 0,16.008001"
       style="fill:none;stroke:#000000;stroke-width:0.50000001;stroke-linecap:round;stroke-linejoin:round;stroke-miterlimit:4;stroke-dasharray:none"
       id="face35-cut" />
    <path
       inkscape:connector-curvature="0"
       d="m 249.55688,145.4331 h -139.7 v 18.976 h 26.837 85.66601 27.19699 v -18.976"
       style="fill:none;stroke:#000000;stroke-width:0.50000001;stroke-linecap:round;stroke-linejoin:round;stroke-miterlimit:4;stroke-dasharray:none"
       id="face0-interior" />
    <path
       inkscape:connector-curvature="0"
       d="m 136.52688,165.7821 0.167,-1.373 m -26.837,0 m 0,-18.976 H 8.2568906 m 0,26.5229 H 136.52688 v -6.1739"
       style="fill:none;stroke:#000000;stroke-width:0.50000001;stroke-linecap:round;stroke-linejoin:round;stroke-miterlimit:4;stroke-dasharray:none"
       id="face1-interior" />
    <path
       inkscape:connector-curvature="0"
       d="m 363.85688,145.4331 m 0,-26.5229 H 8.2568906 m 0,26.5229 m 101.5999894,0 m 139.7,0 h 114.3"
       style="fill:none;stroke:#000000;stroke-width:0.50000001;stroke-linecap:round;stroke-linejoin:round;stroke-miterlimit:4;stroke-dasharray:none"
       id="face2-interior" />
    <path
       inkscape:connector-curvature="0"
       d="m 363.85688,145.4331 m -114.3,0 m 0,18.976 m -27.19699,0 0.16699,1.373 v 6.1739 h 141.33 m 0,-24.1402"
       style="fill:none;stroke:#000000;stroke-width:0.50000001;stroke-linecap:round;stroke-linejoin:round;stroke-miterlimit:4;stroke-dasharray:none"
       id="face3-interior" />
    <path
       inkscape:connector-curvature="0"
       d="m 363.85688,278.0477 m 0,-26.5229 h -114.3 -139.7 H 8.2568906 m 0,26.5229 H 363.85688"
       style="fill:none;stroke:#000000;stroke-width:0.50000001;stroke-linecap:round;stroke-linejoin:round;stroke-miterlimit:4;stroke-dasharray:none"
       id="face4-interior" />
    <path
       inkscape:connector-curvature="0"
       d="m 222.35989,232.5487 h -85.66601 -26.837 v 18.9761 m 139.7,0 v -18.9761 h -27.19699"
       style="fill:none;stroke:#000000;stroke-width:0.50000001;stroke-linecap:round;stroke-linejoin:round;stroke-miterlimit:4;stroke-dasharray:none"
       id="face5-interior" />
    <path
       inkscape:connector-curvature="0"
       d="M 8.2568906,490.2311 H 54.801932 m 2.001633,-6.7756 m 1.739576,-4.8079 M 68.556455,463.7081 H 8.2568906"
       style="fill:none;stroke:#000000;stroke-width:0.50000001;stroke-linecap:round;stroke-linejoin:round;stroke-miterlimit:4;stroke-dasharray:none"
       id="face6-interior" />
    <path
       inkscape:connector-curvature="0"
       d="M 8.2568906,92.387199 H 109.85688 v -9.392 m 0,-17.1309 H 8.2568906"
       style="fill:none;stroke:#000000;stroke-width:0.50000001;stroke-linecap:round;stroke-linejoin:round;stroke-miterlimit:4;stroke-dasharray:none"
       id="face7-interior" />
    <path
       inkscape:connector-curvature="0"
       d="M 8.2568906,357.6165 H 109.85688 m 0,-26.523 H 8.2568906"
       style="fill:none;stroke:#000000;stroke-width:0.50000001;stroke-linecap:round;stroke-linejoin:round;stroke-miterlimit:4;stroke-dasharray:none"
       id="face8-interior" />
    <path
       inkscape:connector-curvature="0"
       d="M 8.2568906,384.1394 H 109.85688 m 0,-26.5229 m -101.5999894,0"
       style="fill:none;stroke:#000000;stroke-width:0.50000001;stroke-linecap:round;stroke-linejoin:round;stroke-miterlimit:4;stroke-dasharray:none"
       id="face9-interior" />
    <path
       inkscape:connector-curvature="0"
       d="m 249.55688,313.9626 m 0,-25.4 h -25.4 m 0,25.4"
       style="fill:none;stroke:#000000;stroke-width:0.50000001;stroke-linecap:round;stroke-linejoin:round;stroke-miterlimit:4;stroke-dasharray:none"
       id="face10-interior" />
    <path
       inkscape:connector-curvature="0"
       d="m 8.2568906,463.7081 m 60.2995644,0 m 12.18762,-16.3028 m 12.97625,-10.2201 H 8.2568906"
       style="fill:none;stroke:#000000;stroke-width:0.50000001;stroke-linecap:round;stroke-linejoin:round;stroke-miterlimit:4;stroke-dasharray:none"
       id="face11-interior" />
    <path
       inkscape:connector-curvature="0"
       d="m 222.52688,225.0018 v 6.174 l -0.16699,1.3729 m 27.19699,0 m 0,18.9761 m 114.3,0 m 0,-26.523 h -141.33"
       style="fill:none;stroke:#000000;stroke-width:0.50000001;stroke-linecap:round;stroke-linejoin:round;stroke-miterlimit:4;stroke-dasharray:none"
       id="face12-interior" />
    <path
       inkscape:connector-curvature="0"
       d="m 363.85688,171.956 m -141.33,0 v 26.5229 h 141.33"
       style="fill:none;stroke:#000000;stroke-width:0.50000001;stroke-linecap:round;stroke-linejoin:round;stroke-miterlimit:4;stroke-dasharray:none"
       id="face13-interior" />
    <path
       inkscape:connector-curvature="0"
       d="m 109.85688,288.5626 h 25.4 m 88.9,0 m 25.4,0 m 114.3,0 m 0,-10.5149 m -355.5999894,0 m 0,26.5229 H 109.85688 v -16.008"
       style="fill:none;stroke:#000000;stroke-width:0.50000001;stroke-linecap:round;stroke-linejoin:round;stroke-miterlimit:4;stroke-dasharray:none"
       id="face14-interior" />
    <path
       inkscape:connector-curvature="0"
       d="M 8.2568906,39.341399 H 109.85688 m 0,-26.5229 H 8.2568906"
       style="fill:none;stroke:#000000;stroke-width:0.50000001;stroke-linecap:round;stroke-linejoin:round;stroke-miterlimit:4;stroke-dasharray:none"
       id="face15-interior" />
    <path
       inkscape:connector-curvature="0"
       d="M 8.2568906,-13.704501 H 109.85688 m 0,-13.981899 m -0.18,-0.074 M 93.289245,-40.2275 H 8.2568906"
       style="fill:none;stroke:#000000;stroke-width:0.50000001;stroke-linecap:round;stroke-linejoin:round;stroke-miterlimit:4;stroke-dasharray:none"
       id="face16-interior" />
    <path
       inkscape:connector-curvature="0"
       d="m 8.2568906,12.818499 m 101.5999894,0 m 0,-26.523 m -101.5999894,0"
       style="fill:none;stroke:#000000;stroke-width:0.50000001;stroke-linecap:round;stroke-linejoin:round;stroke-miterlimit:4;stroke-dasharray:none"
       id="face17-interior" />
    <path
       inkscape:connector-curvature="0"
       d="m 8.2568906,437.1852 m 85.4634344,0 m 15.956555,-12.1391 m 0.18,-0.074 m 0,-14.3099 H 8.2568906"
       style="fill:none;stroke:#000000;stroke-width:0.50000001;stroke-linecap:round;stroke-linejoin:round;stroke-miterlimit:4;stroke-dasharray:none"
       id="face18-interior" />
    <path
       inkscape:connector-curvature="0"
       d="m 8.2568906,65.864299 m 101.5999894,0 m 0,-26.5229 m -101.5999894,0"
       style="fill:none;stroke:#000000;stroke-width:0.50000001;stroke-linecap:round;stroke-linejoin:round;stroke-miterlimit:4;stroke-dasharray:none"
       id="face19-interior" />
    <path
       inkscape:connector-curvature="0"
       d="M 8.2568906,-66.7503 H 68.302645 m -9.759504,-14.5608 m -1.599305,-4.4202 m -2.228032,-7.5419 H 8.2568906"
       style="fill:none;stroke:#000000;stroke-width:0.50000001;stroke-linecap:round;stroke-linejoin:round;stroke-miterlimit:4;stroke-dasharray:none"
       id="face20-interior" />
    <path
       inkscape:connector-curvature="0"
       d="m 363.85688,108.3952 m -114.3,0 h -25.4 m -88.9,0 h -25.4 V 92.387199 m -101.5999894,0 m 0,26.523001 m 355.5999894,0"
       style="fill:none;stroke:#000000;stroke-width:0.50000001;stroke-linecap:round;stroke-linejoin:round;stroke-miterlimit:4;stroke-dasharray:none"
       id="face21-interior" />
    <path
       inkscape:connector-curvature="0"
       d="m 224.15688,82.995199 m 0,25.400001 m 25.4,0 m 0,-25.400001"
       style="fill:none;stroke:#000000;stroke-width:0.50000001;stroke-linecap:round;stroke-linejoin:round;stroke-miterlimit:4;stroke-dasharray:none"
       id="face22-interior" />
    <path
       inkscape:connector-curvature="0"
       d="m 136.52688,198.4789 h 86 m 0,-26.5229 m 0,-6.1739 m -0.16699,-1.373 m -85.66601,0 m -0.167,1.373 m 0,6.1739 v 26.5229"
       style="fill:none;stroke:#000000;stroke-width:0.50000001;stroke-linecap:round;stroke-linejoin:round;stroke-miterlimit:4;stroke-dasharray:none"
       id="face23-interior" />
    <path
       inkscape:connector-curvature="0"
       d="M 136.52688,198.4789 H 8.2568906 m 0,26.5229 H 136.52688 v -26.5229"
       style="fill:none;stroke:#000000;stroke-width:0.50000001;stroke-linecap:round;stroke-linejoin:round;stroke-miterlimit:4;stroke-dasharray:none"
       id="face24-interior" />
    <path
       inkscape:connector-curvature="0"
       d="m 8.2568906,331.0935 m 101.5999894,0 m 0,-17.1309 v -9.392 m -101.5999894,0"
       style="fill:none;stroke:#000000;stroke-width:0.50000001;stroke-linecap:round;stroke-linejoin:round;stroke-miterlimit:4;stroke-dasharray:none"
       id="face25-interior" />
    <path
       inkscape:connector-curvature="0"
       d="m 8.2568906,410.6623 m 101.5999894,0 m 0,-26.5229 m -101.5999894,0"
       style="fill:none;stroke:#000000;stroke-width:0.50000001;stroke-linecap:round;stroke-linejoin:round;stroke-miterlimit:4;stroke-dasharray:none"
       id="face26-interior" />
    <path
       inkscape:connector-curvature="0"
       d="m 8.2568906,-93.2732 m 46.4589134,0 m -2.508818,-12.01 m -1.539925,-14.2413 m 0,-0.2716 m -42.4101704,0"
       style="fill:none;stroke:#000000;stroke-width:0.50000001;stroke-linecap:round;stroke-linejoin:round;stroke-miterlimit:4;stroke-dasharray:none"
       id="face27-interior" />
    <path
       inkscape:connector-curvature="0"
       d="m 135.25688,313.9626 m 0,-25.4 m -25.4,0 m 0,16.008 m 0,9.392"
       style="fill:none;stroke:#000000;stroke-width:0.50000001;stroke-linecap:round;stroke-linejoin:round;stroke-miterlimit:4;stroke-dasharray:none"
       id="face28-interior" />
    <path
       inkscape:connector-curvature="0"
       d="m 222.52688,198.4789 m -86,0 m 0,26.5229 v 6.174 l 0.167,1.3729 m 85.66601,0 m 0.16699,-1.3729 m 0,-6.174 v -26.5229"
       style="fill:none;stroke:#000000;stroke-width:0.50000001;stroke-linecap:round;stroke-linejoin:round;stroke-miterlimit:4;stroke-dasharray:none"
       id="face29-interior" />
    <path
       inkscape:connector-curvature="0"
       d="m 109.85688,251.5248 m 0,-18.9761 m 26.837,0 m -0.167,-1.3729 m 0,-6.174 m -128.2699894,0 m 0,26.523"
       style="fill:none;stroke:#000000;stroke-width:0.50000001;stroke-linecap:round;stroke-linejoin:round;stroke-miterlimit:4;stroke-dasharray:none"
       id="face30-interior" />
    <path
       inkscape:connector-curvature="0"
       d="m 363.85688,198.4789 m -141.33,0 m 0,26.5229 m 141.33,0"
       style="fill:none;stroke:#000000;stroke-width:0.50000001;stroke-linecap:round;stroke-linejoin:round;stroke-miterlimit:4;stroke-dasharray:none"
       id="face31-interior" />
    <path
       inkscape:connector-curvature="0"
       d="m 136.52688,171.956 m -128.2699894,0 m 0,26.5229 m 128.2699894,0"
       style="fill:none;stroke:#000000;stroke-width:0.50000001;stroke-linecap:round;stroke-linejoin:round;stroke-miterlimit:4;stroke-dasharray:none"
       id="face32-interior" />
    <path
       inkscape:connector-curvature="0"
       d="m 8.2568906,516.754 m 42.4101704,0 m 1.5084,-13.9497 m 2.626471,-12.5732 m -46.5450414,0"
       style="fill:none;stroke:#000000;stroke-width:0.50000001;stroke-linecap:round;stroke-linejoin:round;stroke-miterlimit:4;stroke-dasharray:none"
       id="face33-interior" />
    <path
       inkscape:connector-curvature="0"
       d="m 8.2568906,-40.2274 m 85.0323544,0 m -12.54517,-9.8805 m -12.44143,-16.6424 m -60.0457544,0"
       style="fill:none;stroke:#000000;stroke-width:0.50000001;stroke-linecap:round;stroke-linejoin:round;stroke-miterlimit:4;stroke-dasharray:none"
       id="face34-interior" />
    <path
       inkscape:connector-curvature="0"
       d="m 135.25688,108.3952 m 0,-25.400001 m -25.4,0 m 0,9.392 m 0,16.008001"
       style="fill:none;stroke:#000000;stroke-width:0.50000001;stroke-linecap:round;stroke-linejoin:round;stroke-miterlimit:4;stroke-dasharray:none"
       id="face35-interior" />
    <path
       inkscape:connector-curvature="0"
       d="m 249.55688,145.4331 m -139.7,0 m 0,18.976 m 26.837,0 m 85.66601,0 m 27.19699,0"
       style="fill:none;stroke:#000000;stroke-width:0.50000001;stroke-linecap:round;stroke-linejoin:round;stroke-miterlimit:4;stroke-dasharray:none"
       id="path76" />
    <path
       inkscape:connector-curvature="0"
       d="m 136.52688,165.7821 m 0.167,-1.373 m -26.837,0 m 0,-18.976 m -101.5999894,0 m 0,26.5229 m 128.2699894,0"
       style="fill:none;stroke:#000000;stroke-width:0.50000001;stroke-linecap:round;stroke-linejoin:round;stroke-miterlimit:4;stroke-dasharray:none"
       id="path78" />
    <path
       inkscape:connector-curvature="0"
       d="m 363.85688,145.4331 m 0,-26.5229 m -355.5999894,0 m 0,26.5229 m 101.5999894,0 m 139.7,0"
       style="fill:none;stroke:#000000;stroke-width:0.50000001;stroke-linecap:round;stroke-linejoin:round;stroke-miterlimit:4;stroke-dasharray:none"
       id="path80" />
    <path
       inkscape:connector-curvature="0"
       d="m 363.85688,145.4331 m -114.3,0 m 0,18.976 m -27.19699,0 m 0.16699,1.373 m 0,6.1739 m 141.33,0 m 0,-24.1402"
       style="fill:none;stroke:#000000;stroke-width:0.50000001;stroke-linecap:round;stroke-linejoin:round;stroke-miterlimit:4;stroke-dasharray:none"
       id="path82" />
    <path
       inkscape:connector-curvature="0"
       d="m 363.85688,278.0477 m 0,-26.5229 m -114.3,0 m -139.7,0 m -101.5999894,0 m 0,26.5229"
       style="fill:none;stroke:#000000;stroke-width:0.50000001;stroke-linecap:round;stroke-linejoin:round;stroke-miterlimit:4;stroke-dasharray:none"
       id="path84" />
    <path
       inkscape:connector-curvature="0"
       d="m 222.35989,232.5487 m -85.66601,0 m -26.837,0 m 0,18.9761 m 139.7,0 m 0,-18.9761"
       style="fill:none;stroke:#000000;stroke-width:0.50000001;stroke-linecap:round;stroke-linejoin:round;stroke-miterlimit:4;stroke-dasharray:none"
       id="path86" />
    <path
       inkscape:connector-curvature="0"
       d="m 8.2568906,490.2311 m 46.5450414,0 m 2.001633,-6.7756 m 1.739576,-4.8079 m 10.013314,-14.9395 m -60.2995644,0"
       style="fill:none;stroke:#000000;stroke-width:0.50000001;stroke-linecap:round;stroke-linejoin:round;stroke-miterlimit:4;stroke-dasharray:none"
       id="path88" />
    <path
       inkscape:connector-curvature="0"
       d="m 8.2568906,92.387199 m 101.5999894,0 m 0,-9.392 m 0,-17.1309 m -101.5999894,0"
       style="fill:none;stroke:#000000;stroke-width:0.50000001;stroke-linecap:round;stroke-linejoin:round;stroke-miterlimit:4;stroke-dasharray:none"
       id="path90" />
    <path
       inkscape:connector-curvature="0"
       d="m 8.2568906,357.6165 m 101.5999894,0 m 0,-26.523 m -101.5999894,0"
       style="fill:none;stroke:#000000;stroke-width:0.50000001;stroke-linecap:round;stroke-linejoin:round;stroke-miterlimit:4;stroke-dasharray:none"
       id="path92" />
    <path
       inkscape:connector-curvature="0"
       d="m 8.2568906,384.1394 m 101.5999894,0 m 0,-26.5229 m -101.5999894,0"
       style="fill:none;stroke:#000000;stroke-width:0.50000001;stroke-linecap:round;stroke-linejoin:round;stroke-miterlimit:4;stroke-dasharray:none"
       id="path94" />
    <path
       inkscape:connector-curvature="0"
       d="m 249.55688,313.9626 m 0,-25.4 m -25.4,0 m 0,25.4"
       style="fill:none;stroke:#000000;stroke-width:0.50000001;stroke-linecap:round;stroke-linejoin:round;stroke-miterlimit:4;stroke-dasharray:none"
       id="path96" />
    <path
       inkscape:connector-curvature="0"
       d="m 8.2568906,463.7081 m 60.2995644,0 m 12.18762,-16.3028 m 12.97625,-10.2201 m -85.4634344,0"
       style="fill:none;stroke:#000000;stroke-width:0.50000001;stroke-linecap:round;stroke-linejoin:round;stroke-miterlimit:4;stroke-dasharray:none"
       id="path98" />
    <path
       inkscape:connector-curvature="0"
       d="m 222.52688,225.0018 m 0,6.174 m -0.16699,1.3729 m 27.19699,0 m 0,18.9761 m 114.3,0 m 0,-26.523"
       style="fill:none;stroke:#000000;stroke-width:0.50000001;stroke-linecap:round;stroke-linejoin:round;stroke-miterlimit:4;stroke-dasharray:none"
       id="path100" />
    <path
       inkscape:connector-curvature="0"
       d="m 363.85688,171.956 m -141.33,0 m 0,26.5229 m 141.33,0"
       style="fill:none;stroke:#000000;stroke-width:0.50000001;stroke-linecap:round;stroke-linejoin:round;stroke-miterlimit:4;stroke-dasharray:none"
       id="path102" />
    <path
       inkscape:connector-curvature="0"
       d="m 109.85688,288.5626 m 25.4,0 m 88.9,0 m 25.4,0 m 114.3,0 m 0,-10.5149 m -355.5999894,0 m 0,26.5229 m 101.5999894,0"
       style="fill:none;stroke:#000000;stroke-width:0.50000001;stroke-linecap:round;stroke-linejoin:round;stroke-miterlimit:4;stroke-dasharray:none"
       id="path104" />
    <path
       inkscape:connector-curvature="0"
       d="m 8.2568906,39.341399 m 101.5999894,0 m 0,-26.5229 m -101.5999894,0"
       style="fill:none;stroke:#000000;stroke-width:0.50000001;stroke-linecap:round;stroke-linejoin:round;stroke-miterlimit:4;stroke-dasharray:none"
       id="path106" />
    <path
       inkscape:connector-curvature="0"
       d="m 8.2568906,-13.704501 m 101.5999894,0 m 0,-13.981899 m -0.18,-0.074 M 93.289245,-40.2275 m -85.0323544,0"
       style="fill:none;stroke:#000000;stroke-width:0.50000001;stroke-linecap:round;stroke-linejoin:round;stroke-miterlimit:4;stroke-dasharray:none"
       id="path108" />
    <path
       inkscape:connector-curvature="0"
       d="m 8.2568906,12.818499 m 101.5999894,0 m 0,-26.523 m -101.5999894,0"
       style="fill:none;stroke:#000000;stroke-width:0.50000001;stroke-linecap:round;stroke-linejoin:round;stroke-miterlimit:4;stroke-dasharray:none"
       id="path110" />
    <path
       inkscape:connector-curvature="0"
       d="m 8.2568906,437.1852 m 85.4634344,0 m 15.956555,-12.1391 m 0.18,-0.074 m 0,-14.3099 m -101.5999894,0"
       style="fill:none;stroke:#000000;stroke-width:0.50000001;stroke-linecap:round;stroke-linejoin:round;stroke-miterlimit:4;stroke-dasharray:none"
       id="path112" />
    <path
       inkscape:connector-curvature="0"
       d="m 8.2568906,65.864299 m 101.5999894,0 m 0,-26.5229 m -101.5999894,0"
       style="fill:none;stroke:#000000;stroke-width:0.50000001;stroke-linecap:round;stroke-linejoin:round;stroke-miterlimit:4;stroke-dasharray:none"
       id="path114" />
    <path
       inkscape:connector-curvature="0"
       d="m 8.2568906,-66.7503 m 60.0457544,0 m -9.759504,-14.5608 m -1.599305,-4.4202 m -2.228032,-7.5419 m -46.4589134,0"
       style="fill:none;stroke:#000000;stroke-width:0.50000001;stroke-linecap:round;stroke-linejoin:round;stroke-miterlimit:4;stroke-dasharray:none"
       id="path116" />
    <path
       inkscape:connector-curvature="0"
       d="m 363.85688,108.3952 m -114.3,0 m -25.4,0 m -88.9,0 m -25.4,0 m 0,-16.008001 m -101.5999894,0 m 0,26.523001 m 355.5999894,0"
       style="fill:none;stroke:#000000;stroke-width:0.50000001;stroke-linecap:round;stroke-linejoin:round;stroke-miterlimit:4;stroke-dasharray:none"
       id="path118" />
    <path
       inkscape:connector-curvature="0"
       d="m 224.15688,82.995199 m 0,25.400001 m 25.4,0 m 0,-25.400001"
       style="fill:none;stroke:#000000;stroke-width:0.50000001;stroke-linecap:round;stroke-linejoin:round;stroke-miterlimit:4;stroke-dasharray:none"
       id="path120" />
    <path
       inkscape:connector-curvature="0"
       d="m 136.52688,198.4789 m 86,0 m 0,-26.5229 m 0,-6.1739 m -0.16699,-1.373 m -85.66601,0 m -0.167,1.373 m 0,6.1739"
       style="fill:none;stroke:#000000;stroke-width:0.50000001;stroke-linecap:round;stroke-linejoin:round;stroke-miterlimit:4;stroke-dasharray:none"
       id="path122" />
    <path
       inkscape:connector-curvature="0"
       d="m 136.52688,198.4789 m -128.2699894,0 m 0,26.5229 m 128.2699894,0"
       style="fill:none;stroke:#000000;stroke-width:0.50000001;stroke-linecap:round;stroke-linejoin:round;stroke-miterlimit:4;stroke-dasharray:none"
       id="path124" />
    <path
       inkscape:connector-curvature="0"
       d="m 8.2568906,331.0935 m 101.5999894,0 m 0,-17.1309 m 0,-9.392 m -101.5999894,0"
       style="fill:none;stroke:#000000;stroke-width:0.50000001;stroke-linecap:round;stroke-linejoin:round;stroke-miterlimit:4;stroke-dasharray:none"
       id="path126" />
    <path
       inkscape:connector-curvature="0"
       d="m 8.2568906,410.6623 m 101.5999894,0 m 0,-26.5229 m -101.5999894,0"
       style="fill:none;stroke:#000000;stroke-width:0.50000001;stroke-linecap:round;stroke-linejoin:round;stroke-miterlimit:4;stroke-dasharray:none"
       id="path128" />
    <path
       inkscape:connector-curvature="0"
       d="m 8.2568906,-93.2732 m 46.4589134,0 m -2.508818,-12.01 m -1.539925,-14.2413 m 0,-0.2716 m -42.4101704,0"
       style="fill:none;stroke:#000000;stroke-width:0.50000001;stroke-linecap:round;stroke-linejoin:round;stroke-miterlimit:4;stroke-dasharray:none"
       id="path130" />
    <path
       inkscape:connector-curvature="0"
       d="m 135.25688,313.9626 m 0,-25.4 m -25.4,0 m 0,16.008 m 0,9.392"
       style="fill:none;stroke:#000000;stroke-width:0.50000001;stroke-linecap:round;stroke-linejoin:round;stroke-miterlimit:4;stroke-dasharray:none"
       id="path132" />
    <path
       inkscape:connector-curvature="0"
       d="m 222.52688,198.4789 m -86,0 m 0,26.5229 m 0,6.174 m 0.167,1.3729 m 85.66601,0 m 0.16699,-1.3729 m 0,-6.174"
       style="fill:none;stroke:#000000;stroke-width:0.50000001;stroke-linecap:round;stroke-linejoin:round;stroke-miterlimit:4;stroke-dasharray:none"
       id="path134" />
    <path
       inkscape:connector-curvature="0"
       d="m 109.85688,251.5248 m 0,-18.9761 m 26.837,0 m -0.167,-1.3729 m 0,-6.174 m -128.2699894,0 m 0,26.523"
       style="fill:none;stroke:#000000;stroke-width:0.50000001;stroke-linecap:round;stroke-linejoin:round;stroke-miterlimit:4;stroke-dasharray:none"
       id="path136" />
    <path
       inkscape:connector-curvature="0"
       d="m 363.85688,198.4789 m -141.33,0 m 0,26.5229 m 141.33,0"
       style="fill:none;stroke:#000000;stroke-width:0.50000001;stroke-linecap:round;stroke-linejoin:round;stroke-miterlimit:4;stroke-dasharray:none"
       id="path138" />
    <path
       inkscape:connector-curvature="0"
       d="m 136.52688,171.956 m -128.2699894,0 m 0,26.5229 m 128.2699894,0"
       style="fill:none;stroke:#000000;stroke-width:0.50000001;stroke-linecap:round;stroke-linejoin:round;stroke-miterlimit:4;stroke-dasharray:none"
       id="path140" />
    <path
       inkscape:connector-curvature="0"
       d="m 8.2568906,516.754 m 42.4101704,0 m 1.5084,-13.9497 m 2.626471,-12.5732 m -46.5450414,0"
       style="fill:none;stroke:#000000;stroke-width:0.50000001;stroke-linecap:round;stroke-linejoin:round;stroke-miterlimit:4;stroke-dasharray:none"
       id="path142" />
    <path
       inkscape:connector-curvature="0"
       d="m 8.2568906,-40.2274 m 85.0323544,0 m -12.54517,-9.8805 m -12.44143,-16.6424 m -60.0457544,0"
       style="fill:none;stroke:#000000;stroke-width:0.50000001;stroke-linecap:round;stroke-linejoin:round;stroke-miterlimit:4;stroke-dasharray:none"
       id="path144" />
    <path
       inkscape:connector-curvature="0"
       d="m 135.25688,108.3952 m 0,-25.400001 m -25.4,0 m 0,9.392 m 0,16.008001"
       style="fill:none;stroke:#000000;stroke-width:0.50000001;stroke-linecap:round;stroke-linejoin:round;stroke-miterlimit:4;stroke-dasharray:none"
       id="path146" />
  </g>
</svg>
