<?xml version="1.0" standalone="no"?>
<!DOCTYPE svg PUBLIC "-//W3C//DTD SVG 1.1//EN" "http://www.w3.org/Graphics/SVG/1.1/DTD/svg11.dtd">
<svg width="375.600000000156mm" height="387.388181024742mm"
 viewBox="0 0 375.600000000156 387.388181024742"
 xmlns="http://www.w3.org/2000/svg" version="1.1"
 xmlns:xlink="http://www.w3.org/1999/xlink">
<desc>Output from Flights of Ideas SVG Sketchup Plugin</desc>

  <path id="face0-cut"
 style="fill:none;stroke:#000000;stroke-width:1;stroke-miterlimit:4;stroke-dasharray:none;stroke-linejoin:round;stroke-linecap:round"
        d="M 139.960329135617,297.258787349904 M 187.800000000096,348.058787349904 M 187.800000000106,297.258787349904 M 163.880164567857,297.258787349904 "
  />
  <path id="face1-cut"
 style="fill:none;stroke:#000000;stroke-width:1;stroke-miterlimit:4;stroke-dasharray:none;stroke-linejoin:round;stroke-linecap:round"
        d="M 187.800000000106,297.258787349904 M 211.719835432356,297.258787349904 M 275.219835432386,255.229393675001 M 314.800000000156,213.200000000101 M 301.660675213708,213.200000000101 M 301.580664150754,213.380000000124 M 277.756129939217,242.312817331884 M 253.521781832883,259.641222535359 M 245.586257332369,264.51374890881 M 225.630646064611,271.128102967068 M 209.527691320796,275.223617286194 M 197.73951029634,277.108317177506 M 187.530646064752,277.665029514213 M 177.321781833163,277.108317177506 M 165.533600808708,275.223617286194 M 149.430646064892,271.128102967068 M 129.475034797134,264.51374890881 M 121.53951029662,259.641222535358 M 97.3051621902865,242.312817331884 M 73.4806279787498,213.380000000124 M 73.4006169158033,213.200000000105 M 60.8000000001595,213.200000000105 M 100.380164567888,255.22939367501 M 163.880164567857,297.258787349904 "
  />
  <path id="face2-cut"
 style="fill:none;stroke:#000000;stroke-width:1;stroke-miterlimit:4;stroke-dasharray:none;stroke-linejoin:round;stroke-linecap:round"
        d="M 211.719835432356,297.258787349904 M 187.800000000106,297.258787349904 M 187.800000000096,348.058787349904 M 235.639670864616,297.258787349904 "
  />
  <path id="face3-cut"
 style="fill:none;stroke:#000000;stroke-width:1;stroke-miterlimit:4;stroke-dasharray:none;stroke-linejoin:round;stroke-linecap:round"
        d="M 340.200000000156,213.200000000101 M 340.200000000156,35.4000000000995 M 266.043128277327,35.400000000101 M 275.788181024656,48.1000000000952 M 281.048693266739,60.799999999962 M 285.938063951127,72.603985017679 M 289.400000000158,98.9000000000949 M 285.938063951143,125.196014982534 M 275.788181024682,149.700000000144 M 267.076898890565,161.052763907319 M 273.131796110841,165.698849953872 M 292.370215568926,190.770846325002 M 301.660675213708,213.200000000101 M 314.800000000156,213.200000000101 "
  />
  <path id="face4-cut"
 style="fill:none;stroke:#000000;stroke-width:1;stroke-miterlimit:4;stroke-dasharray:none;stroke-linejoin:round;stroke-linecap:round"
        d="M 314.800000000076,274.735303162733 M 187.800000000096,348.058787349904 M 187.800000000105,377.388181024742 L 340.200000000136,289.400000000227 L 340.200000000156,213.200000000101 M 314.800000000156,213.200000000101 "
  />
  <path id="face5-cut"
 style="fill:none;stroke:#000000;stroke-width:1;stroke-miterlimit:4;stroke-dasharray:none;stroke-linejoin:round;stroke-linecap:round"
        d="M 35.4000000000848,213.200000000106 L 35.4000000000745,289.400000000225 L 187.800000000105,377.388181024742 M 187.800000000096,348.058787349904 M 60.8000000000734,274.735303162809 M 60.8000000001595,213.200000000105 "
  />
  <path id="face6-cut"
 style="fill:none;stroke:#000000;stroke-width:1;stroke-miterlimit:4;stroke-dasharray:none;stroke-linejoin:round;stroke-linecap:round"
        d="M 60.8000000001595,213.200000000105 M 60.8000000000734,274.735303162809 M 187.800000000096,348.058787349904 M 139.960329135617,297.258787349904 M 100.380164567888,255.22939367501 "
  />
  <path id="face7-cut"
 style="fill:none;stroke:#000000;stroke-width:1;stroke-miterlimit:4;stroke-dasharray:none;stroke-linejoin:round;stroke-linecap:round"
        d="M 275.219835432386,255.229393675001 M 235.639670864616,297.258787349904 M 187.800000000096,348.058787349904 M 314.800000000076,274.735303162733 M 314.800000000156,213.200000000101 "
  />
  <path id="face8-cut"
 style="fill:none;stroke:#000000;stroke-width:1;stroke-miterlimit:4;stroke-dasharray:none;stroke-linejoin:round;stroke-linecap:round"
        d="M 275.219835432386,255.229393675001 M 211.719835432356,297.258787349904 M 235.639670864616,297.258787349904 "
  />
  <path id="face9-cut"
 style="fill:none;stroke:#000000;stroke-width:1;stroke-miterlimit:4;stroke-dasharray:none;stroke-linejoin:round;stroke-linecap:round"
        d="M 163.880164567857,297.258787349904 M 100.380164567888,255.22939367501 M 139.960329135617,297.258787349904 "
  />
  <path id="face10-cut"
 style="fill:none;stroke:#000000;stroke-width:1;stroke-miterlimit:4;stroke-dasharray:none;stroke-linejoin:round;stroke-linecap:round"
        d="M 273.670805957161,75.8909868904921 L 276.700000000079,98.900000000104 L 273.670805957193,121.90901310972 L 264.789658396547,143.350000000112 L 257.087509515936,153.387635846738 M 267.076898890565,161.052763907319 M 275.788181024682,149.700000000144 M 285.938063951143,125.196014982534 M 289.400000000158,98.9000000000949 M 285.938063951127,72.603985017679 M 281.048693266739,60.799999999962 M 275.788181024656,48.1000000000952 M 266.043128277327,35.400000000101 M 249.830065093203,35.4000000001013 L 250.661792847519,36.0382071526381 L 264.789658396485,54.4500000001124 L 267.419914517496,60.799999999962 L 273.670805957161,75.8909868904921 "
  />
  <path id="face11-cut"
 style="fill:none;stroke:#000000;stroke-width:1;stroke-miterlimit:4;stroke-dasharray:none;stroke-linejoin:round;stroke-linecap:round"
        d="M 89.6619360490307,72.6039850178215 M 86.1999999999998,98.9000000002377 M 89.6619360490516,125.196014982672 M 99.811818975547,149.700000000268 M 108.323461102605,160.792587984778 M 118.312850477233,153.127459924196 L 110.810341603674,143.35000000022 L 101.929194042997,121.909013109841 L 98.9000000000788,98.9000000002288 L 101.929194042965,75.8909868906126 L 108.180085482653,60.7999999999654 L 110.810341603611,54.4500000002204 L 124.938207152551,36.0382071527263 L 125.769934906976,35.400000000104 M 109.556871722987,35.400000000104 M 99.8118189755004,48.1000000002373 M 94.5513067334748,60.7999999999656 "
  />
  <path id="face12-cut"
 style="fill:none;stroke:#000000;stroke-width:1;stroke-miterlimit:4;stroke-dasharray:none;stroke-linejoin:round;stroke-linecap:round"
        d="M 82.6910765605824,190.77084632501 M 73.4006169158033,213.200000000105 M 301.660675213708,213.200000000101 M 292.370215568926,190.770846325002 M 273.131796110841,165.698849953872 M 267.076898890565,161.052763907319 M 257.087509515936,153.387635846738 L 248.059799739705,146.460430495796 L 218.862841574781,134.366654443848 L 187.53064606475,130.241692650058 L 156.19845055472,134.36665444385 L 127.001492389796,146.460430495801 L 118.312850477233,153.127459924196 M 108.323461102605,160.792587984778 M 101.929496018664,165.698849953879 "
  />
  <path id="face13-cut"
 style="fill:none;stroke:#000000;stroke-width:1;stroke-miterlimit:4;stroke-dasharray:none;stroke-linejoin:round;stroke-linecap:round"
        d="M 109.556871722987,35.400000000104 M 35.3999999999994,35.4000000002438 M 35.4000000000848,213.200000000106 M 60.8000000001595,213.200000000105 M 73.4006169158033,213.200000000105 M 82.6910765605824,190.77084632501 M 101.929496018664,165.698849953879 M 108.323461102605,160.792587984778 M 99.811818975547,149.700000000268 M 89.6619360490516,125.196014982672 M 86.1999999999998,98.9000000002377 M 89.6619360490307,72.6039850178215 M 94.5513067334748,60.7999999999656 M 99.8118189755004,48.1000000002373 "
  />
  <path id="face14-cut"
 style="fill:none;stroke:#000000;stroke-width:1;stroke-miterlimit:4;stroke-dasharray:none;stroke-linejoin:round;stroke-linecap:round"
        d="M 301.580664150754,213.380000000124 M 301.660675213708,213.200000000101 M 73.4006169158033,213.200000000105 M 73.4806279787498,213.380000000124 M 97.3051621902865,242.312817331884 M 121.53951029662,259.641222535358 M 129.475034797134,264.51374890881 M 149.430646064892,271.128102967068 M 165.533600808708,275.223617286194 M 177.321781833163,277.108317177506 M 187.530646064752,277.665029514213 M 197.73951029634,277.108317177506 M 209.527691320796,275.223617286194 M 225.630646064611,271.128102967068 M 245.586257332369,264.51374890881 M 253.521781832883,259.641222535359 M 277.756129939217,242.312817331884 "
  />
  <path id="face15-cut"
 style="fill:none;stroke:#000000;stroke-width:1;stroke-miterlimit:4;stroke-dasharray:none;stroke-linejoin:round;stroke-linecap:round"
        d="M 340.200000000156,10.0000000000994 L 249.830065093204,10.0000000000578 L 249.830065093203,35.4000000001013 M 266.043128277327,35.400000000101 M 340.200000000156,35.4000000000995 L 340.200000000156,10.0000000000994 "
  />
  <path id="face16-cut"
 style="fill:none;stroke:#000000;stroke-width:1;stroke-miterlimit:4;stroke-dasharray:none;stroke-linejoin:round;stroke-linecap:round"
        d="M 340.200000000156,213.200000000101 L 365.600000000156,213.2000000001 L 365.600000000156,35.4000000000995 L 340.200000000156,35.4000000000995 "
  />
  <path id="face17-cut"
 style="fill:none;stroke:#000000;stroke-width:1;stroke-miterlimit:4;stroke-dasharray:none;stroke-linejoin:round;stroke-linecap:round"
        d="M 10.0,35.400000000097 L 10.0,213.19999999996 L 35.4000000000848,213.200000000106 M 35.3999999999994,35.4000000002438 L 10.0,35.400000000097 "
  />
  <path id="face18-cut"
 style="fill:none;stroke:#000000;stroke-width:1;stroke-miterlimit:4;stroke-dasharray:none;stroke-linejoin:round;stroke-linecap:round"
        d="M 125.769934906977,10.0 L 35.4,10.0000000000969 L 35.3999999999994,35.4000000002438 M 109.556871722987,35.400000000104 M 125.769934906976,35.400000000104 L 125.769934906977,10.0 "
  />
  <path id="face0-interior"
 style="fill:none;stroke:#000000;stroke-width:1;stroke-miterlimit:4;stroke-dasharray:none;stroke-linejoin:round;stroke-linecap:round"
        d="M 139.960329135617,297.258787349904 L 187.800000000096,348.058787349904 L 187.800000000106,297.258787349904 L 163.880164567857,297.258787349904 L 139.960329135617,297.258787349904 "
  />
  <path id="face1-interior"
 style="fill:none;stroke:#000000;stroke-width:1;stroke-miterlimit:4;stroke-dasharray:none;stroke-linejoin:round;stroke-linecap:round"
        d="M 187.800000000106,297.258787349904 L 211.719835432356,297.258787349904 L 275.219835432386,255.229393675001 L 314.800000000156,213.200000000101 L 301.660675213708,213.200000000101 L 301.580664150754,213.380000000124 L 277.756129939217,242.312817331884 L 253.521781832883,259.641222535359 L 245.586257332369,264.51374890881 L 225.630646064611,271.128102967068 L 209.527691320796,275.223617286194 L 197.73951029634,277.108317177506 L 187.530646064752,277.665029514213 L 177.321781833163,277.108317177506 L 165.533600808708,275.223617286194 L 149.430646064892,271.128102967068 L 129.475034797134,264.51374890881 L 121.53951029662,259.641222535358 L 97.3051621902865,242.312817331884 L 73.4806279787498,213.380000000124 L 73.4006169158033,213.200000000105 L 60.8000000001595,213.200000000105 L 100.380164567888,255.22939367501 L 163.880164567857,297.258787349904 "
  />
  <path id="face2-interior"
 style="fill:none;stroke:#000000;stroke-width:1;stroke-miterlimit:4;stroke-dasharray:none;stroke-linejoin:round;stroke-linecap:round"
        d="M 211.719835432356,297.258787349904 M 187.800000000106,297.258787349904 M 187.800000000096,348.058787349904 L 235.639670864616,297.258787349904 L 211.719835432356,297.258787349904 "
  />
  <path id="face3-interior"
 style="fill:none;stroke:#000000;stroke-width:1;stroke-miterlimit:4;stroke-dasharray:none;stroke-linejoin:round;stroke-linecap:round"
        d="M 340.200000000156,213.200000000101 L 340.200000000156,35.4000000000995 L 266.043128277327,35.400000000101 L 275.788181024656,48.1000000000952 L 281.048693266739,60.799999999962 L 285.938063951127,72.603985017679 L 289.400000000158,98.9000000000949 L 285.938063951143,125.196014982534 L 275.788181024682,149.700000000144 L 267.076898890565,161.052763907319 L 273.131796110841,165.698849953872 L 292.370215568926,190.770846325002 L 301.660675213708,213.200000000101 M 314.800000000156,213.200000000101 L 340.200000000156,213.200000000101 "
  />
  <path id="face4-interior"
 style="fill:none;stroke:#000000;stroke-width:1;stroke-miterlimit:4;stroke-dasharray:none;stroke-linejoin:round;stroke-linecap:round"
        d="M 314.800000000076,274.735303162733 L 187.800000000096,348.058787349904 L 187.800000000105,377.388181024742 M 340.200000000136,289.400000000227 M 340.200000000156,213.200000000101 M 314.800000000156,213.200000000101 L 314.800000000076,274.735303162733 "
  />
  <path id="face5-interior"
 style="fill:none;stroke:#000000;stroke-width:1;stroke-miterlimit:4;stroke-dasharray:none;stroke-linejoin:round;stroke-linecap:round"
        d="M 35.4000000000848,213.200000000106 M 35.4000000000745,289.400000000225 M 187.800000000105,377.388181024742 M 187.800000000096,348.058787349904 L 60.8000000000734,274.735303162809 L 60.8000000001595,213.200000000105 L 35.4000000000848,213.200000000106 "
  />
  <path id="face6-interior"
 style="fill:none;stroke:#000000;stroke-width:1;stroke-miterlimit:4;stroke-dasharray:none;stroke-linejoin:round;stroke-linecap:round"
        d="M 60.8000000001595,213.200000000105 M 60.8000000000734,274.735303162809 M 187.800000000096,348.058787349904 M 139.960329135617,297.258787349904 L 100.380164567888,255.22939367501 "
  />
  <path id="face7-interior"
 style="fill:none;stroke:#000000;stroke-width:1;stroke-miterlimit:4;stroke-dasharray:none;stroke-linejoin:round;stroke-linecap:round"
        d="M 275.219835432386,255.229393675001 L 235.639670864616,297.258787349904 M 187.800000000096,348.058787349904 M 314.800000000076,274.735303162733 M 314.800000000156,213.200000000101 "
  />
  <path id="face8-interior"
 style="fill:none;stroke:#000000;stroke-width:1;stroke-miterlimit:4;stroke-dasharray:none;stroke-linejoin:round;stroke-linecap:round"
        d="M 275.219835432386,255.229393675001 M 211.719835432356,297.258787349904 M 235.639670864616,297.258787349904 "
  />
  <path id="face9-interior"
 style="fill:none;stroke:#000000;stroke-width:1;stroke-miterlimit:4;stroke-dasharray:none;stroke-linejoin:round;stroke-linecap:round"
        d="M 163.880164567857,297.258787349904 M 100.380164567888,255.22939367501 M 139.960329135617,297.258787349904 "
  />
  <path id="face10-interior"
 style="fill:none;stroke:#000000;stroke-width:1;stroke-miterlimit:4;stroke-dasharray:none;stroke-linejoin:round;stroke-linecap:round"
        d="M 273.670805957161,75.8909868904921 M 276.700000000079,98.900000000104 M 273.670805957193,121.90901310972 M 264.789658396547,143.350000000112 M 257.087509515936,153.387635846738 L 267.076898890565,161.052763907319 M 275.788181024682,149.700000000144 M 285.938063951143,125.196014982534 M 289.400000000158,98.9000000000949 M 285.938063951127,72.603985017679 M 281.048693266739,60.799999999962 M 275.788181024656,48.1000000000952 M 266.043128277327,35.400000000101 L 249.830065093203,35.4000000001013 M 250.661792847519,36.0382071526381 M 264.789658396485,54.4500000001124 M 267.419914517496,60.799999999962 "
  />
  <path id="face11-interior"
 style="fill:none;stroke:#000000;stroke-width:1;stroke-miterlimit:4;stroke-dasharray:none;stroke-linejoin:round;stroke-linecap:round"
        d="M 89.6619360490307,72.6039850178215 L 86.1999999999998,98.9000000002377 L 89.6619360490516,125.196014982672 L 99.811818975547,149.700000000268 L 108.323461102605,160.792587984778 L 118.312850477233,153.127459924196 M 110.810341603674,143.35000000022 M 101.929194042997,121.909013109841 M 98.9000000000788,98.9000000002288 M 101.929194042965,75.8909868906126 M 108.180085482653,60.7999999999654 M 110.810341603611,54.4500000002204 M 124.938207152551,36.0382071527263 M 125.769934906976,35.400000000104 L 109.556871722987,35.400000000104 L 99.8118189755004,48.1000000002373 L 94.5513067334748,60.7999999999656 L 89.6619360490307,72.6039850178215 "
  />
  <path id="face12-interior"
 style="fill:none;stroke:#000000;stroke-width:1;stroke-miterlimit:4;stroke-dasharray:none;stroke-linejoin:round;stroke-linecap:round"
        d="M 82.6910765605824,190.77084632501 L 73.4006169158033,213.200000000105 L 301.660675213708,213.200000000101 M 292.370215568926,190.770846325002 M 273.131796110841,165.698849953872 M 267.076898890565,161.052763907319 M 257.087509515936,153.387635846738 M 248.059799739705,146.460430495796 M 218.862841574781,134.366654443848 M 187.53064606475,130.241692650058 M 156.19845055472,134.36665444385 M 127.001492389796,146.460430495801 M 118.312850477233,153.127459924196 M 108.323461102605,160.792587984778 L 101.929496018664,165.698849953879 L 82.6910765605824,190.77084632501 "
  />
  <path id="face13-interior"
 style="fill:none;stroke:#000000;stroke-width:1;stroke-miterlimit:4;stroke-dasharray:none;stroke-linejoin:round;stroke-linecap:round"
        d="M 109.556871722987,35.400000000104 L 35.3999999999994,35.4000000002438 L 35.4000000000848,213.200000000106 M 60.8000000001595,213.200000000105 M 73.4006169158033,213.200000000105 M 82.6910765605824,190.77084632501 M 101.929496018664,165.698849953879 M 108.323461102605,160.792587984778 M 99.811818975547,149.700000000268 M 89.6619360490516,125.196014982672 M 86.1999999999998,98.9000000002377 M 89.6619360490307,72.6039850178215 M 94.5513067334748,60.7999999999656 M 99.8118189755004,48.1000000002373 "
  />
  <path id="face14-interior"
 style="fill:none;stroke:#000000;stroke-width:1;stroke-miterlimit:4;stroke-dasharray:none;stroke-linejoin:round;stroke-linecap:round"
        d="M 301.580664150754,213.380000000124 M 301.660675213708,213.200000000101 M 73.4006169158033,213.200000000105 M 73.4806279787498,213.380000000124 M 97.3051621902865,242.312817331884 M 121.53951029662,259.641222535358 M 129.475034797134,264.51374890881 M 149.430646064892,271.128102967068 M 165.533600808708,275.223617286194 M 177.321781833163,277.108317177506 M 187.530646064752,277.665029514213 M 197.73951029634,277.108317177506 M 209.527691320796,275.223617286194 M 225.630646064611,271.128102967068 M 245.586257332369,264.51374890881 M 253.521781832883,259.641222535359 M 277.756129939217,242.312817331884 "
  />
  <path id="face15-interior"
 style="fill:none;stroke:#000000;stroke-width:1;stroke-miterlimit:4;stroke-dasharray:none;stroke-linejoin:round;stroke-linecap:round"
        d="M 340.200000000156,10.0000000000994 M 249.830065093204,10.0000000000578 M 249.830065093203,35.4000000001013 M 266.043128277327,35.400000000101 M 340.200000000156,35.4000000000995 "
  />
  <path id="face16-interior"
 style="fill:none;stroke:#000000;stroke-width:1;stroke-miterlimit:4;stroke-dasharray:none;stroke-linejoin:round;stroke-linecap:round"
        d="M 340.200000000156,213.200000000101 M 365.600000000156,213.2000000001 M 365.600000000156,35.4000000000995 M 340.200000000156,35.4000000000995 "
  />
  <path id="face17-interior"
 style="fill:none;stroke:#000000;stroke-width:1;stroke-miterlimit:4;stroke-dasharray:none;stroke-linejoin:round;stroke-linecap:round"
        d="M 10.0,35.400000000097 M 10.0,213.19999999996 M 35.4000000000848,213.200000000106 M 35.3999999999994,35.4000000002438 "
  />
  <path id="face18-interior"
 style="fill:none;stroke:#000000;stroke-width:1;stroke-miterlimit:4;stroke-dasharray:none;stroke-linejoin:round;stroke-linecap:round"
        d="M 125.769934906977,10.0 M 35.4,10.0000000000969 M 35.3999999999994,35.4000000002438 M 109.556871722987,35.400000000104 M 125.769934906976,35.400000000104 "
  />
  <path id="face0-interior"
 style="fill:none;stroke:#000000;stroke-width:1;stroke-miterlimit:4;stroke-dasharray:none;stroke-linejoin:round;stroke-linecap:round"
        d="M 139.960329135617,297.258787349904 M 187.800000000096,348.058787349904 M 187.800000000106,297.258787349904 M 163.880164567857,297.258787349904 "
  />
  <path id="face1-interior"
 style="fill:none;stroke:#000000;stroke-width:1;stroke-miterlimit:4;stroke-dasharray:none;stroke-linejoin:round;stroke-linecap:round"
        d="M 187.800000000106,297.258787349904 M 211.719835432356,297.258787349904 M 275.219835432386,255.229393675001 M 314.800000000156,213.200000000101 M 301.660675213708,213.200000000101 M 301.580664150754,213.380000000124 M 277.756129939217,242.312817331884 M 253.521781832883,259.641222535359 M 245.586257332369,264.51374890881 M 225.630646064611,271.128102967068 M 209.527691320796,275.223617286194 M 197.73951029634,277.108317177506 M 187.530646064752,277.665029514213 M 177.321781833163,277.108317177506 M 165.533600808708,275.223617286194 M 149.430646064892,271.128102967068 M 129.475034797134,264.51374890881 M 121.53951029662,259.641222535358 M 97.3051621902865,242.312817331884 M 73.4806279787498,213.380000000124 M 73.4006169158033,213.200000000105 M 60.8000000001595,213.200000000105 M 100.380164567888,255.22939367501 M 163.880164567857,297.258787349904 "
  />
  <path id="face2-interior"
 style="fill:none;stroke:#000000;stroke-width:1;stroke-miterlimit:4;stroke-dasharray:none;stroke-linejoin:round;stroke-linecap:round"
        d="M 211.719835432356,297.258787349904 M 187.800000000106,297.258787349904 M 187.800000000096,348.058787349904 M 235.639670864616,297.258787349904 "
  />
  <path id="face3-interior"
 style="fill:none;stroke:#000000;stroke-width:1;stroke-miterlimit:4;stroke-dasharray:none;stroke-linejoin:round;stroke-linecap:round"
        d="M 340.200000000156,213.200000000101 M 340.200000000156,35.4000000000995 M 266.043128277327,35.400000000101 M 275.788181024656,48.1000000000952 M 281.048693266739,60.799999999962 M 285.938063951127,72.603985017679 M 289.400000000158,98.9000000000949 M 285.938063951143,125.196014982534 M 275.788181024682,149.700000000144 M 267.076898890565,161.052763907319 M 273.131796110841,165.698849953872 M 292.370215568926,190.770846325002 M 301.660675213708,213.200000000101 M 314.800000000156,213.200000000101 "
  />
  <path id="face4-interior"
 style="fill:none;stroke:#000000;stroke-width:1;stroke-miterlimit:4;stroke-dasharray:none;stroke-linejoin:round;stroke-linecap:round"
        d="M 314.800000000076,274.735303162733 M 187.800000000096,348.058787349904 M 187.800000000105,377.388181024742 M 340.200000000136,289.400000000227 M 340.200000000156,213.200000000101 M 314.800000000156,213.200000000101 "
  />
  <path id="face5-interior"
 style="fill:none;stroke:#000000;stroke-width:1;stroke-miterlimit:4;stroke-dasharray:none;stroke-linejoin:round;stroke-linecap:round"
        d="M 35.4000000000848,213.200000000106 M 35.4000000000745,289.400000000225 M 187.800000000105,377.388181024742 M 187.800000000096,348.058787349904 M 60.8000000000734,274.735303162809 M 60.8000000001595,213.200000000105 "
  />
  <path id="face6-interior"
 style="fill:none;stroke:#000000;stroke-width:1;stroke-miterlimit:4;stroke-dasharray:none;stroke-linejoin:round;stroke-linecap:round"
        d="M 60.8000000001595,213.200000000105 M 60.8000000000734,274.735303162809 M 187.800000000096,348.058787349904 M 139.960329135617,297.258787349904 M 100.380164567888,255.22939367501 "
  />
  <path id="face7-interior"
 style="fill:none;stroke:#000000;stroke-width:1;stroke-miterlimit:4;stroke-dasharray:none;stroke-linejoin:round;stroke-linecap:round"
        d="M 275.219835432386,255.229393675001 M 235.639670864616,297.258787349904 M 187.800000000096,348.058787349904 M 314.800000000076,274.735303162733 M 314.800000000156,213.200000000101 "
  />
  <path id="face8-interior"
 style="fill:none;stroke:#000000;stroke-width:1;stroke-miterlimit:4;stroke-dasharray:none;stroke-linejoin:round;stroke-linecap:round"
        d="M 275.219835432386,255.229393675001 M 211.719835432356,297.258787349904 M 235.639670864616,297.258787349904 "
  />
  <path id="face9-interior"
 style="fill:none;stroke:#000000;stroke-width:1;stroke-miterlimit:4;stroke-dasharray:none;stroke-linejoin:round;stroke-linecap:round"
        d="M 163.880164567857,297.258787349904 M 100.380164567888,255.22939367501 M 139.960329135617,297.258787349904 "
  />
  <path id="face10-interior"
 style="fill:none;stroke:#000000;stroke-width:1;stroke-miterlimit:4;stroke-dasharray:none;stroke-linejoin:round;stroke-linecap:round"
        d="M 273.670805957161,75.8909868904921 M 276.700000000079,98.900000000104 M 273.670805957193,121.90901310972 M 264.789658396547,143.350000000112 M 257.087509515936,153.387635846738 M 267.076898890565,161.052763907319 M 275.788181024682,149.700000000144 M 285.938063951143,125.196014982534 M 289.400000000158,98.9000000000949 M 285.938063951127,72.603985017679 M 281.048693266739,60.799999999962 M 275.788181024656,48.1000000000952 M 266.043128277327,35.400000000101 M 249.830065093203,35.4000000001013 M 250.661792847519,36.0382071526381 M 264.789658396485,54.4500000001124 M 267.419914517496,60.799999999962 "
  />
  <path id="face11-interior"
 style="fill:none;stroke:#000000;stroke-width:1;stroke-miterlimit:4;stroke-dasharray:none;stroke-linejoin:round;stroke-linecap:round"
        d="M 89.6619360490307,72.6039850178215 M 86.1999999999998,98.9000000002377 M 89.6619360490516,125.196014982672 M 99.811818975547,149.700000000268 M 108.323461102605,160.792587984778 M 118.312850477233,153.127459924196 M 110.810341603674,143.35000000022 M 101.929194042997,121.909013109841 M 98.9000000000788,98.9000000002288 M 101.929194042965,75.8909868906126 M 108.180085482653,60.7999999999654 M 110.810341603611,54.4500000002204 M 124.938207152551,36.0382071527263 M 125.769934906976,35.400000000104 M 109.556871722987,35.400000000104 M 99.8118189755004,48.1000000002373 M 94.5513067334748,60.7999999999656 "
  />
  <path id="face12-interior"
 style="fill:none;stroke:#000000;stroke-width:1;stroke-miterlimit:4;stroke-dasharray:none;stroke-linejoin:round;stroke-linecap:round"
        d="M 82.6910765605824,190.77084632501 M 73.4006169158033,213.200000000105 M 301.660675213708,213.200000000101 M 292.370215568926,190.770846325002 M 273.131796110841,165.698849953872 M 267.076898890565,161.052763907319 M 257.087509515936,153.387635846738 M 248.059799739705,146.460430495796 M 218.862841574781,134.366654443848 M 187.53064606475,130.241692650058 M 156.19845055472,134.36665444385 M 127.001492389796,146.460430495801 M 118.312850477233,153.127459924196 M 108.323461102605,160.792587984778 M 101.929496018664,165.698849953879 "
  />
  <path id="face13-interior"
 style="fill:none;stroke:#000000;stroke-width:1;stroke-miterlimit:4;stroke-dasharray:none;stroke-linejoin:round;stroke-linecap:round"
        d="M 109.556871722987,35.400000000104 M 35.3999999999994,35.4000000002438 M 35.4000000000848,213.200000000106 M 60.8000000001595,213.200000000105 M 73.4006169158033,213.200000000105 M 82.6910765605824,190.77084632501 M 101.929496018664,165.698849953879 M 108.323461102605,160.792587984778 M 99.811818975547,149.700000000268 M 89.6619360490516,125.196014982672 M 86.1999999999998,98.9000000002377 M 89.6619360490307,72.6039850178215 M 94.5513067334748,60.7999999999656 M 99.8118189755004,48.1000000002373 "
  />
  <path id="face14-interior"
 style="fill:none;stroke:#000000;stroke-width:1;stroke-miterlimit:4;stroke-dasharray:none;stroke-linejoin:round;stroke-linecap:round"
        d="M 301.580664150754,213.380000000124 M 301.660675213708,213.200000000101 M 73.4006169158033,213.200000000105 M 73.4806279787498,213.380000000124 M 97.3051621902865,242.312817331884 M 121.53951029662,259.641222535358 M 129.475034797134,264.51374890881 M 149.430646064892,271.128102967068 M 165.533600808708,275.223617286194 M 177.321781833163,277.108317177506 M 187.530646064752,277.665029514213 M 197.73951029634,277.108317177506 M 209.527691320796,275.223617286194 M 225.630646064611,271.128102967068 M 245.586257332369,264.51374890881 M 253.521781832883,259.641222535359 M 277.756129939217,242.312817331884 "
  />
  <path id="face15-interior"
 style="fill:none;stroke:#000000;stroke-width:1;stroke-miterlimit:4;stroke-dasharray:none;stroke-linejoin:round;stroke-linecap:round"
        d="M 340.200000000156,10.0000000000994 M 249.830065093204,10.0000000000578 M 249.830065093203,35.4000000001013 M 266.043128277327,35.400000000101 M 340.200000000156,35.4000000000995 "
  />
  <path id="face16-interior"
 style="fill:none;stroke:#000000;stroke-width:1;stroke-miterlimit:4;stroke-dasharray:none;stroke-linejoin:round;stroke-linecap:round"
        d="M 340.200000000156,213.200000000101 M 365.600000000156,213.2000000001 M 365.600000000156,35.4000000000995 M 340.200000000156,35.4000000000995 "
  />
  <path id="face17-interior"
 style="fill:none;stroke:#000000;stroke-width:1;stroke-miterlimit:4;stroke-dasharray:none;stroke-linejoin:round;stroke-linecap:round"
        d="M 10.0,35.400000000097 M 10.0,213.19999999996 M 35.4000000000848,213.200000000106 M 35.3999999999994,35.4000000002438 "
  />
  <path id="face18-interior"
 style="fill:none;stroke:#000000;stroke-width:1;stroke-miterlimit:4;stroke-dasharray:none;stroke-linejoin:round;stroke-linecap:round"
        d="M 125.769934906977,10.0 M 35.4,10.0000000000969 M 35.3999999999994,35.4000000002438 M 109.556871722987,35.400000000104 M 125.769934906976,35.400000000104 "
  />
</svg>
