solid UltraSpecial
facet normal -2.57825506975843e-014 1.0 0.0
  outer loop
    vertex 533.757577596584 -1693.79074177223 480.984
    vertex 539.882577596589 -1693.79074177223 486.468455543378
    vertex 547.757577596582 -1693.79074177223 480.984
  endloop
endfacet
facet normal -2.57825506975843e-014 1.0 0.0
  outer loop
    vertex 539.882577596589 -1693.79074177223 486.468455543378
    vertex 533.757577596584 -1693.79074177223 480.984
    vertex 539.520140729512 -1693.79074177223 486.746563132924
  endloop
endfacet
facet normal -2.57825506975843e-014 1.0 0.0
  outer loop
    vertex 539.520140729512 -1693.79074177223 486.746563132924
    vertex 533.757577596584 -1693.79074177223 480.984
    vertex 539.242033139966 -1693.79074177223 487.109
  endloop
endfacet
facet normal -2.57825506975843e-014 1.0 0.0
  outer loop
    vertex 539.242033139966 -1693.79074177223 487.109
    vertex 533.757577596584 -1693.79074177223 480.984
    vertex 539.067207400583 -1693.79074177223 487.531066671071
  endloop
endfacet
facet normal -2.57825506975843e-014 1.0 0.0
  outer loop
    vertex 539.067207400583 -1693.79074177223 487.531066671071
    vertex 533.757577596584 -1693.79074177223 480.984
    vertex 536.057577596583 -1693.79074177223 501.984
  endloop
endfacet
facet normal -2.57825506975843e-014 1.0 0.0
  outer loop
    vertex 536.057577596583 -1693.79074177223 501.984
    vertex 533.757577596584 -1693.79074177223 480.984
    vertex 533.757577596584 -1693.79074177223 523.384
  endloop
endfacet
facet normal -2.57825506975843e-014 1.0 0.0
  outer loop
    vertex 547.757577596582 -1693.79074177223 480.984
    vertex 539.882577596589 -1693.79074177223 486.468455543378
    vertex 540.304644267659 -1693.79074177223 486.293629803994
  endloop
endfacet
facet normal -2.57825506975843e-014 1.0 0.0
  outer loop
    vertex 547.757577596582 -1693.79074177223 480.984
    vertex 540.304644267659 -1693.79074177223 486.293629803994
    vertex 540.757577596589 -1693.79074177223 486.234
  endloop
endfacet
facet normal -2.57825506975843e-014 1.0 0.0
  outer loop
    vertex 539.067207400583 -1693.79074177223 487.531066671071
    vertex 536.057577596583 -1693.79074177223 501.984
    vertex 539.007577596589 -1693.79074177223 487.984
  endloop
endfacet
facet normal -2.57825506975843e-014 1.0 0.0
  outer loop
    vertex 539.007577596589 -1693.79074177223 487.984
    vertex 536.057577596583 -1693.79074177223 501.984
    vertex 539.067207400583 -1693.79074177223 488.43693332893
  endloop
endfacet
facet normal -2.57825506975843e-014 1.0 0.0
  outer loop
    vertex 539.067207400583 -1693.79074177223 488.43693332893
    vertex 536.057577596583 -1693.79074177223 501.984
    vertex 539.242033139966 -1693.79074177223 488.859
  endloop
endfacet
facet normal -2.57825506975843e-014 1.0 0.0
  outer loop
    vertex 539.242033139966 -1693.79074177223 488.859
    vertex 536.057577596583 -1693.79074177223 501.984
    vertex 539.520140729512 -1693.79074177223 489.221436867077
  endloop
endfacet
facet normal -2.57825506975843e-014 1.0 0.0
  outer loop
    vertex 539.520140729512 -1693.79074177223 489.221436867077
    vertex 536.057577596583 -1693.79074177223 501.984
    vertex 539.882577596589 -1693.79074177223 489.499544456623
  endloop
endfacet
facet normal -2.57825506975843e-014 1.0 0.0
  outer loop
    vertex 539.882577596589 -1693.79074177223 489.499544456623
    vertex 536.057577596583 -1693.79074177223 501.984
    vertex 540.304644267659 -1693.79074177223 489.674370196006
  endloop
endfacet
facet normal -2.57825506975843e-014 1.0 0.0
  outer loop
    vertex 540.304644267659 -1693.79074177223 489.674370196006
    vertex 536.057577596583 -1693.79074177223 501.984
    vertex 540.757577596589 -1693.79074177223 489.734
  endloop
endfacet
facet normal -2.57825506975843e-014 1.0 0.0
  outer loop
    vertex 540.757577596589 -1693.79074177223 489.734
    vertex 536.057577596583 -1693.79074177223 501.984
    vertex 538.407577596583 -1693.79074177223 497.913680602213
  endloop
endfacet
facet normal -2.57825506975843e-014 1.0 0.0
  outer loop
    vertex 536.057577596583 -1693.79074177223 501.984
    vertex 533.757577596584 -1693.79074177223 523.384
    vertex 538.407577596583 -1693.79074177223 506.054319397787
  endloop
endfacet
facet normal -2.57825506975843e-014 1.0 0.0
  outer loop
    vertex 538.407577596583 -1693.79074177223 506.054319397787
    vertex 533.757577596584 -1693.79074177223 523.384
    vertex 543.107577596583 -1693.79074177223 506.054319397787
  endloop
endfacet
facet normal -2.57825506975843e-014 1.0 0.0
  outer loop
    vertex 547.757577596582 -1693.79074177223 480.984
    vertex 545.457577596583 -1693.79074177223 501.984
    vertex 547.757577596582 -1693.79074177223 523.384
  endloop
endfacet
facet normal -2.57825506975843e-014 1.0 0.0
  outer loop
    vertex 545.457577596583 -1693.79074177223 501.984
    vertex 547.757577596582 -1693.79074177223 480.984
    vertex 542.447947792595 -1693.79074177223 487.531066671071
  endloop
endfacet
facet normal -2.57825506975843e-014 1.0 0.0
  outer loop
    vertex 542.447947792595 -1693.79074177223 487.531066671071
    vertex 547.757577596582 -1693.79074177223 480.984
    vertex 542.273122053212 -1693.79074177223 487.109
  endloop
endfacet
facet normal -2.57825506975843e-014 1.0 0.0
  outer loop
    vertex 542.273122053212 -1693.79074177223 487.109
    vertex 547.757577596582 -1693.79074177223 480.984
    vertex 541.995014463665 -1693.79074177223 486.746563132924
  endloop
endfacet
facet normal -2.57825506975843e-014 1.0 0.0
  outer loop
    vertex 541.995014463665 -1693.79074177223 486.746563132924
    vertex 547.757577596582 -1693.79074177223 480.984
    vertex 541.632577596589 -1693.79074177223 486.468455543378
  endloop
endfacet
facet normal -2.57825506975843e-014 1.0 0.0
  outer loop
    vertex 541.632577596589 -1693.79074177223 486.468455543378
    vertex 547.757577596582 -1693.79074177223 480.984
    vertex 541.210510925518 -1693.79074177223 486.293629803994
  endloop
endfacet
facet normal -2.57825506975843e-014 1.0 0.0
  outer loop
    vertex 541.210510925518 -1693.79074177223 486.293629803994
    vertex 547.757577596582 -1693.79074177223 480.984
    vertex 540.757577596589 -1693.79074177223 486.234
  endloop
endfacet
facet normal -2.57825506975843e-014 1.0 0.0
  outer loop
    vertex 545.457577596583 -1693.79074177223 501.984
    vertex 542.447947792595 -1693.79074177223 487.531066671071
    vertex 542.507577596589 -1693.79074177223 487.984
  endloop
endfacet
facet normal -2.57825506975843e-014 1.0 0.0
  outer loop
    vertex 545.457577596583 -1693.79074177223 501.984
    vertex 542.507577596589 -1693.79074177223 487.984
    vertex 542.447947792595 -1693.79074177223 488.43693332893
  endloop
endfacet
facet normal -2.57825506975843e-014 1.0 0.0
  outer loop
    vertex 545.457577596583 -1693.79074177223 501.984
    vertex 542.447947792595 -1693.79074177223 488.43693332893
    vertex 542.273122053212 -1693.79074177223 488.859
  endloop
endfacet
facet normal -2.57825506975843e-014 1.0 0.0
  outer loop
    vertex 545.457577596583 -1693.79074177223 501.984
    vertex 542.273122053212 -1693.79074177223 488.859
    vertex 541.995014463665 -1693.79074177223 489.221436867077
  endloop
endfacet
facet normal -2.57825506975843e-014 1.0 0.0
  outer loop
    vertex 545.457577596583 -1693.79074177223 501.984
    vertex 541.995014463665 -1693.79074177223 489.221436867077
    vertex 541.632577596589 -1693.79074177223 489.499544456623
  endloop
endfacet
facet normal -2.57825506975843e-014 1.0 0.0
  outer loop
    vertex 545.457577596583 -1693.79074177223 501.984
    vertex 541.632577596589 -1693.79074177223 489.499544456623
    vertex 541.210510925518 -1693.79074177223 489.674370196006
  endloop
endfacet
facet normal -2.57825506975843e-014 1.0 0.0
  outer loop
    vertex 545.457577596583 -1693.79074177223 501.984
    vertex 541.210510925518 -1693.79074177223 489.674370196006
    vertex 540.757577596589 -1693.79074177223 489.734
  endloop
endfacet
facet normal -2.57825506975843e-014 1.0 0.0
  outer loop
    vertex 545.457577596583 -1693.79074177223 501.984
    vertex 540.757577596589 -1693.79074177223 489.734
    vertex 543.107577596583 -1693.79074177223 497.913680602213
  endloop
endfacet
facet normal -2.57825506975843e-014 1.0 0.0
  outer loop
    vertex 543.107577596583 -1693.79074177223 497.913680602213
    vertex 540.757577596589 -1693.79074177223 489.734
    vertex 538.407577596583 -1693.79074177223 497.913680602213
  endloop
endfacet
facet normal -2.57825506975843e-014 1.0 0.0
  outer loop
    vertex 547.757577596582 -1693.79074177223 523.384
    vertex 545.457577596583 -1693.79074177223 501.984
    vertex 543.107577596583 -1693.79074177223 506.054319397787
  endloop
endfacet
facet normal -2.57825506975843e-014 1.0 0.0
  outer loop
    vertex 547.757577596582 -1693.79074177223 523.384
    vertex 543.107577596583 -1693.79074177223 506.054319397787
    vertex 533.757577596584 -1693.79074177223 523.384
  endloop
endfacet
facet normal -0.866025403784437 -1.3301992097809e-013 0.500000000000003
  outer loop
    vertex 545.457577596584 -1699.79074177222 501.984
    vertex 543.107577596583 -1693.79074177223 497.913680602213
    vertex 543.107577596584 -1699.79074177223 497.913680602213
  endloop
endfacet
facet normal -0.866025403784437 -1.3301992097809e-013 0.500000000000003
  outer loop
    vertex 543.107577596583 -1693.79074177223 497.913680602213
    vertex 545.457577596584 -1699.79074177222 501.984
    vertex 545.457577596583 -1693.79074177223 501.984
  endloop
endfacet
facet normal -1.53598174368566e-013 1.0 0.0
  outer loop
    vertex 536.057577596584 -1699.79074177223 501.984
    vertex 543.107577596584 -1699.79074177223 497.913680602213
    vertex 538.407577596584 -1699.79074177223 497.913680602213
  endloop
endfacet
facet normal -1.53598174368566e-013 1.0 0.0
  outer loop
    vertex 543.107577596584 -1699.79074177223 497.913680602213
    vertex 536.057577596584 -1699.79074177223 501.984
    vertex 540.304644267655 -1699.79074177223 500.293629803994
  endloop
endfacet
facet normal -1.53598174368566e-013 1.0 0.0
  outer loop
    vertex 543.107577596584 -1699.79074177223 497.913680602213
    vertex 540.304644267655 -1699.79074177223 500.293629803994
    vertex 540.757577596584 -1699.79074177223 500.234
  endloop
endfacet
facet normal -1.53598174368566e-013 1.0 0.0
  outer loop
    vertex 540.304644267655 -1699.79074177223 500.293629803994
    vertex 536.057577596584 -1699.79074177223 501.984
    vertex 539.882577596584 -1699.79074177223 500.468455543377
  endloop
endfacet
facet normal -1.53598174368566e-013 1.0 0.0
  outer loop
    vertex 539.882577596584 -1699.79074177223 500.468455543377
    vertex 536.057577596584 -1699.79074177223 501.984
    vertex 539.520140729508 -1699.79074177223 500.746563132924
  endloop
endfacet
facet normal -1.53598174368566e-013 1.0 0.0
  outer loop
    vertex 539.520140729508 -1699.79074177223 500.746563132924
    vertex 536.057577596584 -1699.79074177223 501.984
    vertex 539.242033139962 -1699.79074177223 501.109
  endloop
endfacet
facet normal -1.53598174368566e-013 1.0 0.0
  outer loop
    vertex 539.242033139962 -1699.79074177223 501.109
    vertex 536.057577596584 -1699.79074177223 501.984
    vertex 539.067207400579 -1699.79074177223 501.531066671071
  endloop
endfacet
facet normal -1.53598174368566e-013 1.0 0.0
  outer loop
    vertex 539.067207400579 -1699.79074177223 501.531066671071
    vertex 536.057577596584 -1699.79074177223 501.984
    vertex 539.007577596584 -1699.79074177223 501.984
  endloop
endfacet
facet normal -1.53598174368566e-013 1.0 0.0
  outer loop
    vertex 539.007577596584 -1699.79074177223 501.984
    vertex 536.057577596584 -1699.79074177223 501.984
    vertex 538.407577596584 -1699.79074177223 506.054319397787
  endloop
endfacet
facet normal -1.53598174368566e-013 1.0 0.0
  outer loop
    vertex 539.007577596584 -1699.79074177223 501.984
    vertex 538.407577596584 -1699.79074177223 506.054319397787
    vertex 539.067207400579 -1699.79074177223 502.43693332893
  endloop
endfacet
facet normal -1.53598174368566e-013 1.0 0.0
  outer loop
    vertex 539.067207400579 -1699.79074177223 502.43693332893
    vertex 538.407577596584 -1699.79074177223 506.054319397787
    vertex 539.242033139962 -1699.79074177223 502.859
  endloop
endfacet
facet normal -1.53598174368566e-013 1.0 0.0
  outer loop
    vertex 539.242033139962 -1699.79074177223 502.859
    vertex 538.407577596584 -1699.79074177223 506.054319397787
    vertex 539.520140729508 -1699.79074177223 503.221436867077
  endloop
endfacet
facet normal -1.53598174368566e-013 1.0 0.0
  outer loop
    vertex 539.520140729508 -1699.79074177223 503.221436867077
    vertex 538.407577596584 -1699.79074177223 506.054319397787
    vertex 539.882577596584 -1699.79074177223 503.499544456623
  endloop
endfacet
facet normal -1.53598174368566e-013 1.0 0.0
  outer loop
    vertex 539.882577596584 -1699.79074177223 503.499544456623
    vertex 538.407577596584 -1699.79074177223 506.054319397787
    vertex 540.304644267655 -1699.79074177223 503.674370196006
  endloop
endfacet
facet normal -1.53598174368566e-013 1.0 0.0
  outer loop
    vertex 540.304644267655 -1699.79074177223 503.674370196006
    vertex 538.407577596584 -1699.79074177223 506.054319397787
    vertex 540.757577596584 -1699.79074177223 503.734
  endloop
endfacet
facet normal -1.53598174368566e-013 1.0 0.0
  outer loop
    vertex 543.107577596584 -1699.79074177223 497.913680602213
    vertex 541.210510925514 -1699.79074177223 500.293629803994
    vertex 545.457577596584 -1699.79074177222 501.984
  endloop
endfacet
facet normal -1.53598174368566e-013 1.0 0.0
  outer loop
    vertex 541.210510925514 -1699.79074177223 500.293629803994
    vertex 543.107577596584 -1699.79074177223 497.913680602213
    vertex 540.757577596584 -1699.79074177223 500.234
  endloop
endfacet
facet normal -1.53598174368566e-013 1.0 0.0
  outer loop
    vertex 545.457577596584 -1699.79074177222 501.984
    vertex 541.210510925514 -1699.79074177223 500.293629803994
    vertex 541.632577596584 -1699.79074177223 500.468455543377
  endloop
endfacet
facet normal -1.53598174368566e-013 1.0 0.0
  outer loop
    vertex 545.457577596584 -1699.79074177222 501.984
    vertex 541.632577596584 -1699.79074177223 500.468455543377
    vertex 541.995014463661 -1699.79074177223 500.746563132924
  endloop
endfacet
facet normal -1.53598174368566e-013 1.0 0.0
  outer loop
    vertex 545.457577596584 -1699.79074177222 501.984
    vertex 541.995014463661 -1699.79074177223 500.746563132924
    vertex 542.273122053207 -1699.79074177223 501.109
  endloop
endfacet
facet normal -1.53598174368566e-013 1.0 0.0
  outer loop
    vertex 545.457577596584 -1699.79074177222 501.984
    vertex 542.273122053207 -1699.79074177223 501.109
    vertex 542.44794779259 -1699.79074177223 501.531066671071
  endloop
endfacet
facet normal -1.53598174368566e-013 1.0 0.0
  outer loop
    vertex 545.457577596584 -1699.79074177222 501.984
    vertex 542.44794779259 -1699.79074177223 501.531066671071
    vertex 542.507577596584 -1699.79074177223 501.984
  endloop
endfacet
facet normal -1.53598174368566e-013 1.0 0.0
  outer loop
    vertex 545.457577596584 -1699.79074177222 501.984
    vertex 542.507577596584 -1699.79074177223 501.984
    vertex 542.44794779259 -1699.79074177223 502.43693332893
  endloop
endfacet
facet normal -1.53598174368566e-013 1.0 0.0
  outer loop
    vertex 545.457577596584 -1699.79074177222 501.984
    vertex 542.44794779259 -1699.79074177223 502.43693332893
    vertex 543.107577596584 -1699.79074177223 506.054319397787
  endloop
endfacet
facet normal -1.53598174368566e-013 1.0 0.0
  outer loop
    vertex 543.107577596584 -1699.79074177223 506.054319397787
    vertex 542.44794779259 -1699.79074177223 502.43693332893
    vertex 542.273122053207 -1699.79074177223 502.859
  endloop
endfacet
facet normal -1.53598174368566e-013 1.0 0.0
  outer loop
    vertex 543.107577596584 -1699.79074177223 506.054319397787
    vertex 542.273122053207 -1699.79074177223 502.859
    vertex 541.995014463661 -1699.79074177223 503.221436867077
  endloop
endfacet
facet normal -1.53598174368566e-013 1.0 0.0
  outer loop
    vertex 543.107577596584 -1699.79074177223 506.054319397787
    vertex 541.995014463661 -1699.79074177223 503.221436867077
    vertex 541.632577596584 -1699.79074177223 503.499544456623
  endloop
endfacet
facet normal -1.53598174368566e-013 1.0 0.0
  outer loop
    vertex 543.107577596584 -1699.79074177223 506.054319397787
    vertex 541.632577596584 -1699.79074177223 503.499544456623
    vertex 541.210510925514 -1699.79074177223 503.674370196006
  endloop
endfacet
facet normal -1.53598174368566e-013 1.0 0.0
  outer loop
    vertex 543.107577596584 -1699.79074177223 506.054319397787
    vertex 541.210510925514 -1699.79074177223 503.674370196006
    vertex 540.757577596584 -1699.79074177223 503.734
  endloop
endfacet
facet normal -1.53598174368566e-013 1.0 0.0
  outer loop
    vertex 543.107577596584 -1699.79074177223 506.054319397787
    vertex 540.757577596584 -1699.79074177223 503.734
    vertex 538.407577596584 -1699.79074177223 506.054319397787
  endloop
endfacet
facet normal 0.0 0.0 1.0
  outer loop
    vertex 538.407577596584 -1699.79074177223 497.913680602213
    vertex 543.107577596583 -1693.79074177223 497.913680602213
    vertex 538.407577596583 -1693.79074177223 497.913680602213
  endloop
endfacet
facet normal 0.0 0.0 1.0
  outer loop
    vertex 543.107577596583 -1693.79074177223 497.913680602213
    vertex 538.407577596584 -1699.79074177223 497.913680602213
    vertex 543.107577596584 -1699.79074177223 497.913680602213
  endloop
endfacet
facet normal 0.866025403784437 1.3301992097809e-013 -0.500000000000003
  outer loop
    vertex 536.057577596583 -1693.79074177223 501.984
    vertex 538.407577596584 -1699.79074177223 506.054319397787
    vertex 536.057577596584 -1699.79074177223 501.984
  endloop
endfacet
facet normal 0.866025403784437 1.3301992097809e-013 -0.500000000000003
  outer loop
    vertex 538.407577596584 -1699.79074177223 506.054319397787
    vertex 536.057577596583 -1693.79074177223 501.984
    vertex 538.407577596583 -1693.79074177223 506.054319397787
  endloop
endfacet
facet normal -0.866025403784437 -1.3301992097809e-013 -0.500000000000003
  outer loop
    vertex 543.107577596583 -1693.79074177223 506.054319397787
    vertex 545.457577596584 -1699.79074177222 501.984
    vertex 543.107577596584 -1699.79074177223 506.054319397787
  endloop
endfacet
facet normal -0.866025403784437 -1.3301992097809e-013 -0.500000000000003
  outer loop
    vertex 545.457577596584 -1699.79074177222 501.984
    vertex 543.107577596583 -1693.79074177223 506.054319397787
    vertex 545.457577596583 -1693.79074177223 501.984
  endloop
endfacet
facet normal 0.866025403784437 1.3301992097809e-013 0.500000000000003
  outer loop
    vertex 538.407577596584 -1699.79074177223 497.913680602213
    vertex 536.057577596583 -1693.79074177223 501.984
    vertex 536.057577596584 -1699.79074177223 501.984
  endloop
endfacet
facet normal 0.866025403784437 1.3301992097809e-013 0.500000000000003
  outer loop
    vertex 536.057577596583 -1693.79074177223 501.984
    vertex 538.407577596584 -1699.79074177223 497.913680602213
    vertex 538.407577596583 -1693.79074177223 497.913680602213
  endloop
endfacet
facet normal 0.0 0.0 -1.0
  outer loop
    vertex 543.107577596583 -1693.79074177223 506.054319397787
    vertex 538.407577596584 -1699.79074177223 506.054319397787
    vertex 538.407577596583 -1693.79074177223 506.054319397787
  endloop
endfacet
facet normal 0.0 0.0 -1.0
  outer loop
    vertex 538.407577596584 -1699.79074177223 506.054319397787
    vertex 543.107577596583 -1693.79074177223 506.054319397787
    vertex 543.107577596584 -1699.79074177223 506.054319397787
  endloop
endfacet
facet normal 0.0 0.0 -1.0
  outer loop
    vertex 547.757577596582 -1693.79074177223 480.984
    vertex 533.757577596584 -1702.79074177223 480.984
    vertex 533.757577596584 -1693.79074177223 480.984
  endloop
endfacet
facet normal 0.0 0.0 -1.0
  outer loop
    vertex 533.757577596584 -1702.79074177223 480.984
    vertex 547.757577596582 -1693.79074177223 480.984
    vertex 547.757577596582 -1702.79074177223 480.984
  endloop
endfacet
facet normal -2.32595679058063e-028 9.02389274415337e-015 1.0
  outer loop
    vertex 533.757577596584 -1702.79074177223 523.384
    vertex 547.757577596582 -1693.79074177223 523.384
    vertex 533.757577596584 -1693.79074177223 523.384
  endloop
endfacet
facet normal -2.32595679058063e-028 9.02389274415337e-015 1.0
  outer loop
    vertex 547.757577596582 -1693.79074177223 523.384
    vertex 533.757577596584 -1702.79074177223 523.384
    vertex 547.757577596582 -1702.79074177223 523.384
  endloop
endfacet
facet normal -0.793353340291148 0.0 -0.608761429008834
  outer loop
    vertex 541.995014463661 -1699.79074177223 503.221436867077
    vertex 542.273122053206 -1702.79074177223 502.859
    vertex 541.99501446366 -1702.79074177223 503.221436867077
  endloop
endfacet
facet normal -0.793353340291148 0.0 -0.608761429008834
  outer loop
    vertex 542.273122053206 -1702.79074177223 502.859
    vertex 541.995014463661 -1699.79074177223 503.221436867077
    vertex 542.273122053207 -1699.79074177223 502.859
  endloop
endfacet
facet normal -0.923879532511348 5.44689608210905e-019 -0.382683432364942
  outer loop
    vertex 542.273122053207 -1699.79074177223 502.859
    vertex 542.447947792589 -1702.79074177223 502.43693332893
    vertex 542.273122053206 -1702.79074177223 502.859
  endloop
endfacet
facet normal -0.923879532511348 5.44689608210905e-019 -0.382683432364942
  outer loop
    vertex 542.447947792589 -1702.79074177223 502.43693332893
    vertex 542.273122053207 -1699.79074177223 502.859
    vertex 542.44794779259 -1699.79074177223 502.43693332893
  endloop
endfacet
facet normal 0.382683432364942 0.0 0.923879532511348
  outer loop
    vertex 540.304644267654 -1702.79074177223 500.293629803994
    vertex 539.882577596584 -1699.79074177223 500.468455543377
    vertex 539.882577596583 -1702.79074177223 500.468455543377
  endloop
endfacet
facet normal 0.382683432364942 0.0 0.923879532511348
  outer loop
    vertex 539.882577596584 -1699.79074177223 500.468455543377
    vertex 540.304644267654 -1702.79074177223 500.293629803994
    vertex 540.304644267655 -1699.79074177223 500.293629803994
  endloop
endfacet
facet normal 0.991444861373799 0.0 -0.13052619222014
  outer loop
    vertex 539.007577596584 -1699.79074177223 501.984
    vertex 539.067207400577 -1702.79074177223 502.43693332893
    vertex 539.007577596583 -1702.79074177223 501.984
  endloop
endfacet
facet normal 0.991444861373799 0.0 -0.13052619222014
  outer loop
    vertex 539.067207400577 -1702.79074177223 502.43693332893
    vertex 539.007577596584 -1699.79074177223 501.984
    vertex 539.067207400579 -1699.79074177223 502.43693332893
  endloop
endfacet
facet normal -0.382683432364942 0.0 0.923879532511348
  outer loop
    vertex 541.632577596583 -1702.79074177223 500.468455543377
    vertex 541.210510925514 -1699.79074177223 500.293629803994
    vertex 541.210510925513 -1702.79074177223 500.293629803994
  endloop
endfacet
facet normal -0.382683432364942 0.0 0.923879532511348
  outer loop
    vertex 541.210510925514 -1699.79074177223 500.293629803994
    vertex 541.632577596583 -1702.79074177223 500.468455543377
    vertex 541.632577596584 -1699.79074177223 500.468455543377
  endloop
endfacet
facet normal 0.793353340291148 0.0 0.608761429008834
  outer loop
    vertex 539.520140729508 -1699.79074177223 500.746563132924
    vertex 539.24203313996 -1702.79074177223 501.109
    vertex 539.520140729507 -1702.79074177223 500.746563132924
  endloop
endfacet
facet normal 0.793353340291148 0.0 0.608761429008834
  outer loop
    vertex 539.24203313996 -1702.79074177223 501.109
    vertex 539.520140729508 -1699.79074177223 500.746563132924
    vertex 539.242033139962 -1699.79074177223 501.109
  endloop
endfacet
facet normal 0.608761429008834 0.0 0.793353340291148
  outer loop
    vertex 539.882577596583 -1702.79074177223 500.468455543377
    vertex 539.520140729508 -1699.79074177223 500.746563132924
    vertex 539.520140729507 -1702.79074177223 500.746563132924
  endloop
endfacet
facet normal 0.608761429008834 0.0 0.793353340291148
  outer loop
    vertex 539.520140729508 -1699.79074177223 500.746563132924
    vertex 539.882577596583 -1702.79074177223 500.468455543377
    vertex 539.882577596584 -1699.79074177223 500.468455543377
  endloop
endfacet
facet normal 0.793353340291148 0.0 -0.608761429008834
  outer loop
    vertex 539.242033139962 -1699.79074177223 502.859
    vertex 539.520140729507 -1702.79074177223 503.221436867077
    vertex 539.24203313996 -1702.79074177223 502.859
  endloop
endfacet
facet normal 0.793353340291148 0.0 -0.608761429008834
  outer loop
    vertex 539.520140729507 -1702.79074177223 503.221436867077
    vertex 539.242033139962 -1699.79074177223 502.859
    vertex 539.520140729508 -1699.79074177223 503.221436867077
  endloop
endfacet
facet normal -0.923879532511348 5.44689608210905e-019 0.382683432364942
  outer loop
    vertex 542.447947792589 -1702.79074177223 501.531066671071
    vertex 542.273122053207 -1699.79074177223 501.109
    vertex 542.273122053206 -1702.79074177223 501.109
  endloop
endfacet
facet normal -0.923879532511348 5.44689608210905e-019 0.382683432364942
  outer loop
    vertex 542.273122053207 -1699.79074177223 501.109
    vertex 542.447947792589 -1702.79074177223 501.531066671071
    vertex 542.44794779259 -1699.79074177223 501.531066671071
  endloop
endfacet
facet normal 0.608761429008834 0.0 -0.793353340291148
  outer loop
    vertex 539.520140729508 -1699.79074177223 503.221436867077
    vertex 539.882577596583 -1702.79074177223 503.499544456623
    vertex 539.520140729507 -1702.79074177223 503.221436867077
  endloop
endfacet
facet normal 0.608761429008834 0.0 -0.793353340291148
  outer loop
    vertex 539.882577596583 -1702.79074177223 503.499544456623
    vertex 539.520140729508 -1699.79074177223 503.221436867077
    vertex 539.882577596584 -1699.79074177223 503.499544456623
  endloop
endfacet
facet normal 0.13052619222014 0.0 -0.991444861373799
  outer loop
    vertex 540.304644267655 -1699.79074177223 503.674370196006
    vertex 540.757577596583 -1702.79074177223 503.734
    vertex 540.304644267654 -1702.79074177223 503.674370196006
  endloop
endfacet
facet normal 0.13052619222014 0.0 -0.991444861373799
  outer loop
    vertex 540.757577596583 -1702.79074177223 503.734
    vertex 540.304644267655 -1699.79074177223 503.674370196006
    vertex 540.757577596584 -1699.79074177223 503.734
  endloop
endfacet
facet normal 0.923879532511348 0.0 -0.382683432364942
  outer loop
    vertex 539.067207400579 -1699.79074177223 502.43693332893
    vertex 539.24203313996 -1702.79074177223 502.859
    vertex 539.067207400577 -1702.79074177223 502.43693332893
  endloop
endfacet
facet normal 0.923879532511348 0.0 -0.382683432364942
  outer loop
    vertex 539.24203313996 -1702.79074177223 502.859
    vertex 539.067207400579 -1699.79074177223 502.43693332893
    vertex 539.242033139962 -1699.79074177223 502.859
  endloop
endfacet
facet normal -0.13052619222014 0.0 -0.991444861373799
  outer loop
    vertex 540.757577596584 -1699.79074177223 503.734
    vertex 541.210510925513 -1702.79074177223 503.674370196006
    vertex 540.757577596583 -1702.79074177223 503.734
  endloop
endfacet
facet normal -0.13052619222014 0.0 -0.991444861373799
  outer loop
    vertex 541.210510925513 -1702.79074177223 503.674370196006
    vertex 540.757577596584 -1699.79074177223 503.734
    vertex 541.210510925514 -1699.79074177223 503.674370196006
  endloop
endfacet
facet normal -0.991444861373799 0.0 0.13052619222014
  outer loop
    vertex 542.507577596584 -1699.79074177223 501.984
    vertex 542.447947792589 -1702.79074177223 501.531066671071
    vertex 542.507577596583 -1702.79074177223 501.984
  endloop
endfacet
facet normal -0.991444861373799 0.0 0.13052619222014
  outer loop
    vertex 542.447947792589 -1702.79074177223 501.531066671071
    vertex 542.507577596584 -1699.79074177223 501.984
    vertex 542.44794779259 -1699.79074177223 501.531066671071
  endloop
endfacet
facet normal 0.991444861373799 0.0 0.13052619222014
  outer loop
    vertex 539.067207400579 -1699.79074177223 501.531066671071
    vertex 539.007577596583 -1702.79074177223 501.984
    vertex 539.067207400577 -1702.79074177223 501.531066671071
  endloop
endfacet
facet normal 0.991444861373799 0.0 0.13052619222014
  outer loop
    vertex 539.007577596583 -1702.79074177223 501.984
    vertex 539.067207400579 -1699.79074177223 501.531066671071
    vertex 539.007577596584 -1699.79074177223 501.984
  endloop
endfacet
facet normal -0.793353340291148 0.0 0.608761429008834
  outer loop
    vertex 542.273122053207 -1699.79074177223 501.109
    vertex 541.99501446366 -1702.79074177223 500.746563132924
    vertex 542.273122053206 -1702.79074177223 501.109
  endloop
endfacet
facet normal -0.793353340291148 0.0 0.608761429008834
  outer loop
    vertex 541.99501446366 -1702.79074177223 500.746563132924
    vertex 542.273122053207 -1699.79074177223 501.109
    vertex 541.995014463661 -1699.79074177223 500.746563132924
  endloop
endfacet
facet normal 0.382683432364942 0.0 -0.923879532511348
  outer loop
    vertex 539.882577596584 -1699.79074177223 503.499544456623
    vertex 540.304644267654 -1702.79074177223 503.674370196006
    vertex 539.882577596583 -1702.79074177223 503.499544456623
  endloop
endfacet
facet normal 0.382683432364942 0.0 -0.923879532511348
  outer loop
    vertex 540.304644267654 -1702.79074177223 503.674370196006
    vertex 539.882577596584 -1699.79074177223 503.499544456623
    vertex 540.304644267655 -1699.79074177223 503.674370196006
  endloop
endfacet
facet normal -0.608761429008834 0.0 0.793353340291148
  outer loop
    vertex 541.99501446366 -1702.79074177223 500.746563132924
    vertex 541.632577596584 -1699.79074177223 500.468455543377
    vertex 541.632577596583 -1702.79074177223 500.468455543377
  endloop
endfacet
facet normal -0.608761429008834 0.0 0.793353340291148
  outer loop
    vertex 541.632577596584 -1699.79074177223 500.468455543377
    vertex 541.99501446366 -1702.79074177223 500.746563132924
    vertex 541.995014463661 -1699.79074177223 500.746563132924
  endloop
endfacet
facet normal -0.13052619222014 0.0 0.991444861373799
  outer loop
    vertex 541.210510925513 -1702.79074177223 500.293629803994
    vertex 540.757577596584 -1699.79074177223 500.234
    vertex 540.757577596583 -1702.79074177223 500.234
  endloop
endfacet
facet normal -0.13052619222014 0.0 0.991444861373799
  outer loop
    vertex 540.757577596584 -1699.79074177223 500.234
    vertex 541.210510925513 -1702.79074177223 500.293629803994
    vertex 541.210510925514 -1699.79074177223 500.293629803994
  endloop
endfacet
facet normal 0.13052619222014 0.0 0.991444861373799
  outer loop
    vertex 540.757577596583 -1702.79074177223 500.234
    vertex 540.304644267655 -1699.79074177223 500.293629803994
    vertex 540.304644267654 -1702.79074177223 500.293629803994
  endloop
endfacet
facet normal 0.13052619222014 0.0 0.991444861373799
  outer loop
    vertex 540.304644267655 -1699.79074177223 500.293629803994
    vertex 540.757577596583 -1702.79074177223 500.234
    vertex 540.757577596584 -1699.79074177223 500.234
  endloop
endfacet
facet normal -0.608761429008834 0.0 -0.793353340291148
  outer loop
    vertex 541.632577596584 -1699.79074177223 503.499544456623
    vertex 541.99501446366 -1702.79074177223 503.221436867077
    vertex 541.632577596583 -1702.79074177223 503.499544456623
  endloop
endfacet
facet normal -0.608761429008834 0.0 -0.793353340291148
  outer loop
    vertex 541.99501446366 -1702.79074177223 503.221436867077
    vertex 541.632577596584 -1699.79074177223 503.499544456623
    vertex 541.995014463661 -1699.79074177223 503.221436867077
  endloop
endfacet
facet normal -0.991444861373799 0.0 -0.13052619222014
  outer loop
    vertex 542.44794779259 -1699.79074177223 502.43693332893
    vertex 542.507577596583 -1702.79074177223 501.984
    vertex 542.447947792589 -1702.79074177223 502.43693332893
  endloop
endfacet
facet normal -0.991444861373799 0.0 -0.13052619222014
  outer loop
    vertex 542.507577596583 -1702.79074177223 501.984
    vertex 542.44794779259 -1699.79074177223 502.43693332893
    vertex 542.507577596584 -1699.79074177223 501.984
  endloop
endfacet
facet normal -0.382683432364942 0.0 -0.923879532511348
  outer loop
    vertex 541.210510925514 -1699.79074177223 503.674370196006
    vertex 541.632577596583 -1702.79074177223 503.499544456623
    vertex 541.210510925513 -1702.79074177223 503.674370196006
  endloop
endfacet
facet normal -0.382683432364942 0.0 -0.923879532511348
  outer loop
    vertex 541.632577596583 -1702.79074177223 503.499544456623
    vertex 541.210510925514 -1699.79074177223 503.674370196006
    vertex 541.632577596584 -1699.79074177223 503.499544456623
  endloop
endfacet
facet normal 0.923879532511348 0.0 0.382683432364942
  outer loop
    vertex 539.242033139962 -1699.79074177223 501.109
    vertex 539.067207400577 -1702.79074177223 501.531066671071
    vertex 539.24203313996 -1702.79074177223 501.109
  endloop
endfacet
facet normal 0.923879532511348 0.0 0.382683432364942
  outer loop
    vertex 539.067207400577 -1702.79074177223 501.531066671071
    vertex 539.242033139962 -1699.79074177223 501.109
    vertex 539.067207400579 -1699.79074177223 501.531066671071
  endloop
endfacet
facet normal 2.57825506975841e-014 -1.0 1.42380751599672e-043
  outer loop
    vertex 547.757577596582 -1702.79074177223 480.984
    vertex 543.107577596589 -1702.79074177223 483.913680602213
    vertex 533.757577596584 -1702.79074177223 480.984
  endloop
endfacet
facet normal 2.57825506975841e-014 -1.0 1.42380751599672e-043
  outer loop
    vertex 543.107577596589 -1702.79074177223 483.913680602213
    vertex 547.757577596582 -1702.79074177223 480.984
    vertex 545.457577596589 -1702.79074177223 487.984
  endloop
endfacet
facet normal 2.57825506975841e-014 -1.0 1.42380751599672e-043
  outer loop
    vertex 545.457577596589 -1702.79074177223 487.984
    vertex 547.757577596582 -1702.79074177223 480.984
    vertex 547.757577596582 -1702.79074177223 523.384
  endloop
endfacet
facet normal 2.57825506975841e-014 -1.0 1.42380751599672e-043
  outer loop
    vertex 545.457577596589 -1702.79074177223 487.984
    vertex 547.757577596582 -1702.79074177223 523.384
    vertex 543.107577596589 -1702.79074177223 492.054319397787
  endloop
endfacet
facet normal 2.57825506975841e-014 -1.0 1.42380751599672e-043
  outer loop
    vertex 543.107577596589 -1702.79074177223 492.054319397787
    vertex 547.757577596582 -1702.79074177223 523.384
    vertex 542.447947792589 -1702.79074177223 501.531066671071
  endloop
endfacet
facet normal 2.57825506975841e-014 -1.0 1.42380751599672e-043
  outer loop
    vertex 543.107577596589 -1702.79074177223 492.054319397787
    vertex 542.447947792589 -1702.79074177223 501.531066671071
    vertex 542.273122053206 -1702.79074177223 501.109
  endloop
endfacet
facet normal 2.57825506975841e-014 -1.0 1.42380751599672e-043
  outer loop
    vertex 543.107577596589 -1702.79074177223 492.054319397787
    vertex 542.273122053206 -1702.79074177223 501.109
    vertex 538.407577596589 -1702.79074177223 492.054319397787
  endloop
endfacet
facet normal 2.57825506975841e-014 -1.0 1.42380751599672e-043
  outer loop
    vertex 538.407577596589 -1702.79074177223 492.054319397787
    vertex 542.273122053206 -1702.79074177223 501.109
    vertex 541.99501446366 -1702.79074177223 500.746563132924
  endloop
endfacet
facet normal 2.57825506975841e-014 -1.0 1.42380751599672e-043
  outer loop
    vertex 538.407577596589 -1702.79074177223 492.054319397787
    vertex 541.99501446366 -1702.79074177223 500.746563132924
    vertex 541.632577596583 -1702.79074177223 500.468455543377
  endloop
endfacet
facet normal 2.57825506975841e-014 -1.0 1.42380751599672e-043
  outer loop
    vertex 538.407577596589 -1702.79074177223 492.054319397787
    vertex 541.632577596583 -1702.79074177223 500.468455543377
    vertex 541.210510925513 -1702.79074177223 500.293629803994
  endloop
endfacet
facet normal 2.57825506975841e-014 -1.0 1.42380751599672e-043
  outer loop
    vertex 538.407577596589 -1702.79074177223 492.054319397787
    vertex 541.210510925513 -1702.79074177223 500.293629803994
    vertex 540.757577596583 -1702.79074177223 500.234
  endloop
endfacet
facet normal 2.57825506975841e-014 -1.0 1.42380751599672e-043
  outer loop
    vertex 542.447947792589 -1702.79074177223 501.531066671071
    vertex 547.757577596582 -1702.79074177223 523.384
    vertex 542.507577596583 -1702.79074177223 501.984
  endloop
endfacet
facet normal 2.57825506975841e-014 -1.0 1.42380751599672e-043
  outer loop
    vertex 542.507577596583 -1702.79074177223 501.984
    vertex 547.757577596582 -1702.79074177223 523.384
    vertex 542.447947792589 -1702.79074177223 502.43693332893
  endloop
endfacet
facet normal 2.57825506975841e-014 -1.0 1.42380751599672e-043
  outer loop
    vertex 542.447947792589 -1702.79074177223 502.43693332893
    vertex 547.757577596582 -1702.79074177223 523.384
    vertex 542.273122053206 -1702.79074177223 502.859
  endloop
endfacet
facet normal 2.57825506975841e-014 -1.0 1.42380751599672e-043
  outer loop
    vertex 542.273122053206 -1702.79074177223 502.859
    vertex 547.757577596582 -1702.79074177223 523.384
    vertex 541.99501446366 -1702.79074177223 503.221436867077
  endloop
endfacet
facet normal 2.57825506975841e-014 -1.0 1.42380751599672e-043
  outer loop
    vertex 541.99501446366 -1702.79074177223 503.221436867077
    vertex 547.757577596582 -1702.79074177223 523.384
    vertex 541.632577596583 -1702.79074177223 503.499544456623
  endloop
endfacet
facet normal 2.57825506975841e-014 -1.0 1.42380751599672e-043
  outer loop
    vertex 541.632577596583 -1702.79074177223 503.499544456623
    vertex 547.757577596582 -1702.79074177223 523.384
    vertex 541.210510925513 -1702.79074177223 503.674370196006
  endloop
endfacet
facet normal 2.57825506975841e-014 -1.0 1.42380751599672e-043
  outer loop
    vertex 541.210510925513 -1702.79074177223 503.674370196006
    vertex 547.757577596582 -1702.79074177223 523.384
    vertex 540.757577596583 -1702.79074177223 503.734
  endloop
endfacet
facet normal 2.57825506975841e-014 -1.0 1.42380751599672e-043
  outer loop
    vertex 533.757577596584 -1702.79074177223 480.984
    vertex 536.057577596589 -1702.79074177223 487.984
    vertex 533.757577596584 -1702.79074177223 523.384
  endloop
endfacet
facet normal 2.57825506975841e-014 -1.0 1.42380751599672e-043
  outer loop
    vertex 536.057577596589 -1702.79074177223 487.984
    vertex 533.757577596584 -1702.79074177223 480.984
    vertex 538.407577596589 -1702.79074177223 483.913680602213
  endloop
endfacet
facet normal 2.57825506975841e-014 -1.0 1.42380751599672e-043
  outer loop
    vertex 538.407577596589 -1702.79074177223 483.913680602213
    vertex 533.757577596584 -1702.79074177223 480.984
    vertex 543.107577596589 -1702.79074177223 483.913680602213
  endloop
endfacet
facet normal 2.57825506975841e-014 -1.0 1.42380751599672e-043
  outer loop
    vertex 533.757577596584 -1702.79074177223 523.384
    vertex 536.057577596589 -1702.79074177223 487.984
    vertex 538.407577596589 -1702.79074177223 492.054319397787
  endloop
endfacet
facet normal 2.57825506975841e-014 -1.0 1.42380751599672e-043
  outer loop
    vertex 533.757577596584 -1702.79074177223 523.384
    vertex 538.407577596589 -1702.79074177223 492.054319397787
    vertex 539.067207400577 -1702.79074177223 501.531066671071
  endloop
endfacet
facet normal 2.57825506975841e-014 -1.0 1.42380751599672e-043
  outer loop
    vertex 539.067207400577 -1702.79074177223 501.531066671071
    vertex 538.407577596589 -1702.79074177223 492.054319397787
    vertex 539.24203313996 -1702.79074177223 501.109
  endloop
endfacet
facet normal 2.57825506975841e-014 -1.0 1.42380751599672e-043
  outer loop
    vertex 539.24203313996 -1702.79074177223 501.109
    vertex 538.407577596589 -1702.79074177223 492.054319397787
    vertex 539.520140729507 -1702.79074177223 500.746563132924
  endloop
endfacet
facet normal 2.57825506975841e-014 -1.0 1.42380751599672e-043
  outer loop
    vertex 539.520140729507 -1702.79074177223 500.746563132924
    vertex 538.407577596589 -1702.79074177223 492.054319397787
    vertex 539.882577596583 -1702.79074177223 500.468455543377
  endloop
endfacet
facet normal 2.57825506975841e-014 -1.0 1.42380751599672e-043
  outer loop
    vertex 539.882577596583 -1702.79074177223 500.468455543377
    vertex 538.407577596589 -1702.79074177223 492.054319397787
    vertex 540.304644267654 -1702.79074177223 500.293629803994
  endloop
endfacet
facet normal 2.57825506975841e-014 -1.0 1.42380751599672e-043
  outer loop
    vertex 540.304644267654 -1702.79074177223 500.293629803994
    vertex 538.407577596589 -1702.79074177223 492.054319397787
    vertex 540.757577596583 -1702.79074177223 500.234
  endloop
endfacet
facet normal 2.57825506975841e-014 -1.0 1.42380751599672e-043
  outer loop
    vertex 533.757577596584 -1702.79074177223 523.384
    vertex 539.067207400577 -1702.79074177223 501.531066671071
    vertex 539.007577596583 -1702.79074177223 501.984
  endloop
endfacet
facet normal 2.57825506975841e-014 -1.0 1.42380751599672e-043
  outer loop
    vertex 533.757577596584 -1702.79074177223 523.384
    vertex 539.007577596583 -1702.79074177223 501.984
    vertex 539.067207400577 -1702.79074177223 502.43693332893
  endloop
endfacet
facet normal 2.57825506975841e-014 -1.0 1.42380751599672e-043
  outer loop
    vertex 533.757577596584 -1702.79074177223 523.384
    vertex 539.067207400577 -1702.79074177223 502.43693332893
    vertex 539.24203313996 -1702.79074177223 502.859
  endloop
endfacet
facet normal 2.57825506975841e-014 -1.0 1.42380751599672e-043
  outer loop
    vertex 533.757577596584 -1702.79074177223 523.384
    vertex 539.24203313996 -1702.79074177223 502.859
    vertex 539.520140729507 -1702.79074177223 503.221436867077
  endloop
endfacet
facet normal 2.57825506975841e-014 -1.0 1.42380751599672e-043
  outer loop
    vertex 533.757577596584 -1702.79074177223 523.384
    vertex 539.520140729507 -1702.79074177223 503.221436867077
    vertex 539.882577596583 -1702.79074177223 503.499544456623
  endloop
endfacet
facet normal 2.57825506975841e-014 -1.0 1.42380751599672e-043
  outer loop
    vertex 533.757577596584 -1702.79074177223 523.384
    vertex 539.882577596583 -1702.79074177223 503.499544456623
    vertex 540.304644267654 -1702.79074177223 503.674370196006
  endloop
endfacet
facet normal 2.57825506975841e-014 -1.0 1.42380751599672e-043
  outer loop
    vertex 533.757577596584 -1702.79074177223 523.384
    vertex 540.304644267654 -1702.79074177223 503.674370196006
    vertex 540.757577596583 -1702.79074177223 503.734
  endloop
endfacet
facet normal 2.57825506975841e-014 -1.0 1.42380751599672e-043
  outer loop
    vertex 533.757577596584 -1702.79074177223 523.384
    vertex 540.757577596583 -1702.79074177223 503.734
    vertex 547.757577596582 -1702.79074177223 523.384
  endloop
endfacet
facet normal -0.381917777497671 -0.897506777119264 0.220500331646536
  outer loop
    vertex 545.45757759659 -1698.79074177223 487.984
    vertex 541.632577596589 -1697.53542262329 486.468455543378
    vertex 543.10757759659 -1698.79074177223 483.913680602213
  endloop
endfacet
facet normal -0.381917777497671 -0.897506777119264 0.220500331646536
  outer loop
    vertex 541.632577596589 -1697.53542262329 486.468455543378
    vertex 545.45757759659 -1698.79074177223 487.984
    vertex 541.995014463665 -1697.62132533622 486.746563132924
  endloop
endfacet
facet normal -0.381917777497671 -0.897506777119264 0.220500331646536
  outer loop
    vertex 541.995014463665 -1697.62132533622 486.746563132924
    vertex 545.45757759659 -1698.79074177223 487.984
    vertex 542.273122053211 -1697.65062515187 487.109
  endloop
endfacet
facet normal -0.381917777497671 -0.897506777119264 0.220500331646536
  outer loop
    vertex 542.273122053211 -1697.65062515187 487.109
    vertex 545.45757759659 -1698.79074177223 487.984
    vertex 542.447947792595 -1697.62132533622 487.531066671071
  endloop
endfacet
facet normal -0.381917777497671 -0.897506777119264 0.220500331646536
  outer loop
    vertex 542.447947792595 -1697.62132533622 487.531066671071
    vertex 545.45757759659 -1698.79074177223 487.984
    vertex 542.507577596589 -1697.53542262329 487.984
  endloop
endfacet
facet normal -0.381917777497678 -0.897506777119258 -0.220500331646545
  outer loop
    vertex 543.10757759659 -1698.79074177223 492.054319397787
    vertex 542.507577596589 -1697.53542262329 487.984
    vertex 545.45757759659 -1698.79074177223 487.984
  endloop
endfacet
facet normal -0.381917777497678 -0.897506777119258 -0.220500331646545
  outer loop
    vertex 542.507577596589 -1697.53542262329 487.984
    vertex 543.10757759659 -1698.79074177223 492.054319397787
    vertex 542.447947792594 -1697.62132533622 488.436933328929
  endloop
endfacet
facet normal -0.381917777497678 -0.897506777119258 -0.220500331646545
  outer loop
    vertex 542.447947792594 -1697.62132533622 488.436933328929
    vertex 543.10757759659 -1698.79074177223 492.054319397787
    vertex 542.273122053211 -1697.65062515187 488.859
  endloop
endfacet
facet normal -0.381917777497678 -0.897506777119258 -0.220500331646545
  outer loop
    vertex 542.273122053211 -1697.65062515187 488.859
    vertex 543.10757759659 -1698.79074177223 492.054319397787
    vertex 541.995014463665 -1697.62132533622 489.221436867077
  endloop
endfacet
facet normal -0.381917777497678 -0.897506777119258 -0.220500331646545
  outer loop
    vertex 541.995014463665 -1697.62132533622 489.221436867077
    vertex 543.10757759659 -1698.79074177223 492.054319397787
    vertex 541.632577596589 -1697.53542262329 489.499544456623
  endloop
endfacet
facet normal 0.381917777497409 -0.897506777119375 0.220500331646536
  outer loop
    vertex 539.882577596589 -1697.53542262329 486.468455543377
    vertex 536.05757759659 -1698.79074177223 487.984
    vertex 538.40757759659 -1698.79074177223 483.913680602213
  endloop
endfacet
facet normal 0.381917777497409 -0.897506777119375 0.220500331646536
  outer loop
    vertex 536.05757759659 -1698.79074177223 487.984
    vertex 539.882577596589 -1697.53542262329 486.468455543377
    vertex 539.520140729512 -1697.62132533622 486.746563132924
  endloop
endfacet
facet normal 0.381917777497409 -0.897506777119375 0.220500331646536
  outer loop
    vertex 536.05757759659 -1698.79074177223 487.984
    vertex 539.520140729512 -1697.62132533622 486.746563132924
    vertex 539.242033139966 -1697.65062515187 487.109
  endloop
endfacet
facet normal 0.381917777497409 -0.897506777119375 0.220500331646536
  outer loop
    vertex 536.05757759659 -1698.79074177223 487.984
    vertex 539.242033139966 -1697.65062515187 487.109
    vertex 539.067207400583 -1697.62132533622 487.531066671071
  endloop
endfacet
facet normal 0.381917777497409 -0.897506777119375 0.220500331646536
  outer loop
    vertex 536.05757759659 -1698.79074177223 487.984
    vertex 539.067207400583 -1697.62132533622 487.531066671071
    vertex 539.007577596589 -1697.53542262329 487.984
  endloop
endfacet
facet normal -1.46000277854548e-013 -0.89750677711932 -0.441000663293028
  outer loop
    vertex 543.10757759659 -1698.79074177223 492.054319397787
    vertex 541.210510925518 -1697.62132533622 489.674370196006
    vertex 541.632577596589 -1697.53542262329 489.499544456623
  endloop
endfacet
facet normal -1.46000277854548e-013 -0.89750677711932 -0.441000663293028
  outer loop
    vertex 541.210510925518 -1697.62132533622 489.674370196006
    vertex 543.10757759659 -1698.79074177223 492.054319397787
    vertex 540.757577596589 -1697.65062515187 489.734
  endloop
endfacet
facet normal -1.46000277854548e-013 -0.89750677711932 -0.441000663293028
  outer loop
    vertex 540.304644267659 -1697.62132533622 489.674370196006
    vertex 538.40757759659 -1698.79074177223 492.054319397787
    vertex 539.882577596589 -1697.53542262329 489.499544456623
  endloop
endfacet
facet normal -1.46000277854548e-013 -0.89750677711932 -0.441000663293028
  outer loop
    vertex 538.40757759659 -1698.79074177223 492.054319397787
    vertex 540.304644267659 -1697.62132533622 489.674370196006
    vertex 540.757577596589 -1697.65062515187 489.734
  endloop
endfacet
facet normal -1.46000277854548e-013 -0.89750677711932 -0.441000663293028
  outer loop
    vertex 538.40757759659 -1698.79074177223 492.054319397787
    vertex 540.757577596589 -1697.65062515187 489.734
    vertex 543.10757759659 -1698.79074177223 492.054319397787
  endloop
endfacet
facet normal -1.44654294077458e-013 -0.897506777119352 0.441000663292963
  outer loop
    vertex 541.632577596589 -1697.53542262329 486.468455543378
    vertex 538.40757759659 -1698.79074177223 483.913680602213
    vertex 543.10757759659 -1698.79074177223 483.913680602213
  endloop
endfacet
facet normal -1.44654294077458e-013 -0.897506777119352 0.441000663292963
  outer loop
    vertex 538.40757759659 -1698.79074177223 483.913680602213
    vertex 541.632577596589 -1697.53542262329 486.468455543378
    vertex 541.210510925518 -1697.62132533622 486.293629803994
  endloop
endfacet
facet normal -1.44654294077458e-013 -0.897506777119352 0.441000663292963
  outer loop
    vertex 538.40757759659 -1698.79074177223 483.913680602213
    vertex 541.210510925518 -1697.62132533622 486.293629803994
    vertex 540.757577596589 -1697.65062515187 486.234
  endloop
endfacet
facet normal -1.44654294077458e-013 -0.897506777119352 0.441000663292963
  outer loop
    vertex 538.40757759659 -1698.79074177223 483.913680602213
    vertex 540.304644267659 -1697.62132533622 486.293629803994
    vertex 539.882577596589 -1697.53542262329 486.468455543377
  endloop
endfacet
facet normal -1.44654294077458e-013 -0.897506777119352 0.441000663292963
  outer loop
    vertex 540.304644267659 -1697.62132533622 486.293629803994
    vertex 538.40757759659 -1698.79074177223 483.913680602213
    vertex 540.757577596589 -1697.65062515187 486.234
  endloop
endfacet
facet normal 0.381917777497454 -0.897506777119356 -0.220500331646538
  outer loop
    vertex 539.067207400583 -1697.62132533622 488.43693332893
    vertex 536.05757759659 -1698.79074177223 487.984
    vertex 539.007577596589 -1697.53542262329 487.984
  endloop
endfacet
facet normal 0.381917777497454 -0.897506777119356 -0.220500331646538
  outer loop
    vertex 536.05757759659 -1698.79074177223 487.984
    vertex 539.067207400583 -1697.62132533622 488.43693332893
    vertex 538.40757759659 -1698.79074177223 492.054319397787
  endloop
endfacet
facet normal 0.381917777497454 -0.897506777119356 -0.220500331646538
  outer loop
    vertex 538.40757759659 -1698.79074177223 492.054319397787
    vertex 539.067207400583 -1697.62132533622 488.43693332893
    vertex 539.242033139966 -1697.65062515187 488.859
  endloop
endfacet
facet normal 0.381917777497454 -0.897506777119356 -0.220500331646538
  outer loop
    vertex 538.40757759659 -1698.79074177223 492.054319397787
    vertex 539.242033139966 -1697.65062515187 488.859
    vertex 539.520140729512 -1697.62132533622 489.221436867077
  endloop
endfacet
facet normal 0.381917777497454 -0.897506777119356 -0.220500331646538
  outer loop
    vertex 538.40757759659 -1698.79074177223 492.054319397787
    vertex 539.520140729512 -1697.62132533622 489.221436867077
    vertex 539.882577596589 -1697.53542262329 489.499544456623
  endloop
endfacet
facet normal -1.0 -2.70716782324601e-014 6.47152584853717e-032
  outer loop
    vertex 533.757577596584 -1693.79074177223 523.384
    vertex 533.757577596584 -1702.79074177223 480.984
    vertex 533.757577596584 -1702.79074177223 523.384
  endloop
endfacet
facet normal -1.0 -2.70716782324601e-014 6.47152584853717e-032
  outer loop
    vertex 533.757577596584 -1702.79074177223 480.984
    vertex 533.757577596584 -1693.79074177223 523.384
    vertex 533.757577596584 -1693.79074177223 480.984
  endloop
endfacet
facet normal 1.0 3.60955709766135e-014 -8.6287011313829e-032
  outer loop
    vertex 547.757577596582 -1693.79074177223 480.984
    vertex 547.757577596582 -1702.79074177223 523.384
    vertex 547.757577596582 -1702.79074177223 480.984
  endloop
endfacet
facet normal 1.0 3.60955709766135e-014 -8.6287011313829e-032
  outer loop
    vertex 547.757577596582 -1702.79074177223 523.384
    vertex 547.757577596582 -1693.79074177223 480.984
    vertex 547.757577596582 -1693.79074177223 523.384
  endloop
endfacet
facet normal 0.793353340291064 -1.65169945789019e-014 -0.608761429008943
  outer loop
    vertex 539.242033139966 -1693.79074177223 488.859
    vertex 539.520140729512 -1697.62132533622 489.221436867077
    vertex 539.242033139966 -1697.65062515187 488.859
  endloop
endfacet
facet normal 0.793353340291064 -1.65169945789019e-014 -0.608761429008943
  outer loop
    vertex 539.520140729512 -1697.62132533622 489.221436867077
    vertex 539.242033139966 -1693.79074177223 488.859
    vertex 539.520140729512 -1693.79074177223 489.221436867077
  endloop
endfacet
facet normal 0.382683432364863 -1.01075666305118e-014 -0.923879532511381
  outer loop
    vertex 540.304644267659 -1693.79074177223 489.674370196006
    vertex 539.882577596589 -1697.53542262329 489.499544456623
    vertex 539.882577596589 -1693.79074177223 489.499544456623
  endloop
endfacet
facet normal 0.382683432364863 -1.01075666305118e-014 -0.923879532511381
  outer loop
    vertex 539.882577596589 -1697.53542262329 489.499544456623
    vertex 540.304644267659 -1693.79074177223 489.674370196006
    vertex 540.304644267659 -1697.62132533622 489.674370196006
  endloop
endfacet
facet normal 0.130526192220153 -1.5375299964584e-015 -0.991444861373797
  outer loop
    vertex 540.757577596589 -1693.79074177223 489.734
    vertex 540.304644267659 -1697.62132533622 489.674370196006
    vertex 540.304644267659 -1693.79074177223 489.674370196006
  endloop
endfacet
facet normal 0.130526192220153 -1.5375299964584e-015 -0.991444861373797
  outer loop
    vertex 540.304644267659 -1697.62132533622 489.674370196006
    vertex 540.757577596589 -1693.79074177223 489.734
    vertex 540.757577596589 -1697.65062515187 489.734
  endloop
endfacet
facet normal -0.382683432364973 1.66266002011087e-014 -0.923879532511335
  outer loop
    vertex 541.632577596589 -1693.79074177223 489.499544456623
    vertex 541.210510925518 -1697.62132533622 489.674370196006
    vertex 541.210510925518 -1693.79074177223 489.674370196006
  endloop
endfacet
facet normal -0.382683432364973 1.66266002011087e-014 -0.923879532511335
  outer loop
    vertex 541.210510925518 -1697.62132533622 489.674370196006
    vertex 541.632577596589 -1693.79074177223 489.499544456623
    vertex 541.632577596589 -1697.53542262329 489.499544456623
  endloop
endfacet
facet normal 0.608761429008782 7.81512341893352e-015 -0.793353340291189
  outer loop
    vertex 539.882577596589 -1693.79074177223 489.499544456623
    vertex 539.520140729512 -1697.62132533622 489.221436867077
    vertex 539.520140729512 -1693.79074177223 489.221436867077
  endloop
endfacet
facet normal 0.608761429008782 7.81512341893352e-015 -0.793353340291189
  outer loop
    vertex 539.520140729512 -1697.62132533622 489.221436867077
    vertex 539.882577596589 -1693.79074177223 489.499544456623
    vertex 539.882577596589 -1697.53542262329 489.499544456623
  endloop
endfacet
facet normal -0.793353340291305 3.08553119558323e-014 -0.60876142900863
  outer loop
    vertex 541.995014463665 -1697.62132533622 489.221436867077
    vertex 542.273122053212 -1693.79074177223 488.859
    vertex 542.273122053211 -1697.65062515187 488.859
  endloop
endfacet
facet normal -0.793353340291305 3.08553119558323e-014 -0.60876142900863
  outer loop
    vertex 542.273122053212 -1693.79074177223 488.859
    vertex 541.995014463665 -1697.62132533622 489.221436867077
    vertex 541.995014463665 -1693.79074177223 489.221436867077
  endloop
endfacet
facet normal -0.991444861373758 3.89723034572041e-014 -0.130526192220453
  outer loop
    vertex 542.447947792595 -1693.79074177223 488.43693332893
    vertex 542.507577596589 -1697.53542262329 487.984
    vertex 542.447947792594 -1697.62132533622 488.436933328929
  endloop
endfacet
facet normal -0.991444861373758 3.89723034572041e-014 -0.130526192220453
  outer loop
    vertex 542.507577596589 -1697.53542262329 487.984
    vertex 542.447947792595 -1693.79074177223 488.43693332893
    vertex 542.507577596589 -1693.79074177223 487.984
  endloop
endfacet
facet normal -0.991444861373799 -5.79847487806166e-020 0.13052619222014
  outer loop
    vertex 542.507577596589 -1697.53542262329 487.984
    vertex 542.447947792595 -1693.79074177223 487.531066671071
    vertex 542.447947792595 -1697.62132533622 487.531066671071
  endloop
endfacet
facet normal -0.991444861373799 -5.79847487806166e-020 0.13052619222014
  outer loop
    vertex 542.447947792595 -1693.79074177223 487.531066671071
    vertex 542.507577596589 -1697.53542262329 487.984
    vertex 542.507577596589 -1693.79074177223 487.984
  endloop
endfacet
facet normal -0.923879532511313 1.08847416754574e-014 0.382683432365026
  outer loop
    vertex 542.447947792595 -1697.62132533622 487.531066671071
    vertex 542.273122053212 -1693.79074177223 487.109
    vertex 542.273122053211 -1697.65062515187 487.109
  endloop
endfacet
facet normal -0.923879532511313 1.08847416754574e-014 0.382683432365026
  outer loop
    vertex 542.273122053212 -1693.79074177223 487.109
    vertex 542.447947792595 -1697.62132533622 487.531066671071
    vertex 542.447947792595 -1693.79074177223 487.531066671071
  endloop
endfacet
facet normal -0.923879532511404 6.57466112486102e-014 -0.382683432364807
  outer loop
    vertex 542.273122053212 -1693.79074177223 488.859
    vertex 542.447947792594 -1697.62132533622 488.436933328929
    vertex 542.273122053211 -1697.65062515187 488.859
  endloop
endfacet
facet normal -0.923879532511404 6.57466112486102e-014 -0.382683432364807
  outer loop
    vertex 542.447947792594 -1697.62132533622 488.436933328929
    vertex 542.273122053212 -1693.79074177223 488.859
    vertex 542.447947792595 -1693.79074177223 488.43693332893
  endloop
endfacet
facet normal -0.130526192220212 1.16013479944029e-014 -0.991444861373789
  outer loop
    vertex 540.757577596589 -1693.79074177223 489.734
    vertex 541.210510925518 -1697.62132533622 489.674370196006
    vertex 540.757577596589 -1697.65062515187 489.734
  endloop
endfacet
facet normal -0.130526192220212 1.16013479944029e-014 -0.991444861373789
  outer loop
    vertex 541.210510925518 -1697.62132533622 489.674370196006
    vertex 540.757577596589 -1693.79074177223 489.734
    vertex 541.210510925518 -1693.79074177223 489.674370196006
  endloop
endfacet
facet normal -0.608761429008887 -7.8159929737154e-015 -0.793353340291108
  outer loop
    vertex 541.995014463665 -1693.79074177223 489.221436867077
    vertex 541.632577596589 -1697.53542262329 489.499544456623
    vertex 541.632577596589 -1693.79074177223 489.499544456623
  endloop
endfacet
facet normal -0.608761429008887 -7.8159929737154e-015 -0.793353340291108
  outer loop
    vertex 541.632577596589 -1697.53542262329 489.499544456623
    vertex 541.995014463665 -1693.79074177223 489.221436867077
    vertex 541.995014463665 -1697.62132533622 489.221436867077
  endloop
endfacet
facet normal -0.793353340291111 2.57348861281007e-014 0.608761429008883
  outer loop
    vertex 542.273122053212 -1693.79074177223 487.109
    vertex 541.995014463665 -1697.62132533622 486.746563132924
    vertex 542.273122053211 -1697.65062515187 487.109
  endloop
endfacet
facet normal -0.793353340291111 2.57348861281007e-014 0.608761429008883
  outer loop
    vertex 541.995014463665 -1697.62132533622 486.746563132924
    vertex 542.273122053212 -1693.79074177223 487.109
    vertex 541.995014463665 -1693.79074177223 486.746563132924
  endloop
endfacet
facet normal -0.608761429008995 9.07452856518994e-015 0.793353340291024
  outer loop
    vertex 541.632577596589 -1697.53542262329 486.468455543378
    vertex 541.995014463665 -1693.79074177223 486.746563132924
    vertex 541.632577596589 -1693.79074177223 486.468455543378
  endloop
endfacet
facet normal -0.608761429008995 9.07452856518994e-015 0.793353340291024
  outer loop
    vertex 541.995014463665 -1693.79074177223 486.746563132924
    vertex 541.632577596589 -1697.53542262329 486.468455543378
    vertex 541.995014463665 -1697.62132533622 486.746563132924
  endloop
endfacet
facet normal -0.38268343236507 3.58455064066067e-015 0.923879532511295
  outer loop
    vertex 541.632577596589 -1697.53542262329 486.468455543378
    vertex 541.210510925518 -1693.79074177223 486.293629803994
    vertex 541.210510925518 -1697.62132533622 486.293629803994
  endloop
endfacet
facet normal -0.38268343236507 3.58455064066067e-015 0.923879532511295
  outer loop
    vertex 541.210510925518 -1693.79074177223 486.293629803994
    vertex 541.632577596589 -1697.53542262329 486.468455543378
    vertex 541.632577596589 -1693.79074177223 486.468455543378
  endloop
endfacet
facet normal -0.130526192220127 -1.86667767731632e-014 0.991444861373801
  outer loop
    vertex 541.210510925518 -1697.62132533622 486.293629803994
    vertex 540.757577596589 -1693.79074177223 486.234
    vertex 540.757577596589 -1697.65062515187 486.234
  endloop
endfacet
facet normal -0.130526192220127 -1.86667767731632e-014 0.991444861373801
  outer loop
    vertex 540.757577596589 -1693.79074177223 486.234
    vertex 541.210510925518 -1697.62132533622 486.293629803994
    vertex 541.210510925518 -1693.79074177223 486.293629803994
  endloop
endfacet
facet normal 0.130526192220165 -2.63423434246473e-014 0.991444861373796
  outer loop
    vertex 540.757577596589 -1697.65062515187 486.234
    vertex 540.304644267659 -1693.79074177223 486.293629803994
    vertex 540.304644267659 -1697.62132533622 486.293629803994
  endloop
endfacet
facet normal 0.130526192220165 -2.63423434246473e-014 0.991444861373796
  outer loop
    vertex 540.304644267659 -1693.79074177223 486.293629803994
    vertex 540.757577596589 -1697.65062515187 486.234
    vertex 540.757577596589 -1693.79074177223 486.234
  endloop
endfacet
facet normal 0.382683432364947 -2.12358148594465e-014 0.923879532511346
  outer loop
    vertex 539.882577596589 -1697.53542262329 486.468455543377
    vertex 540.304644267659 -1693.79074177223 486.293629803994
    vertex 539.882577596589 -1693.79074177223 486.468455543378
  endloop
endfacet
facet normal 0.382683432364947 -2.12358148594465e-014 0.923879532511346
  outer loop
    vertex 540.304644267659 -1693.79074177223 486.293629803994
    vertex 539.882577596589 -1697.53542262329 486.468455543377
    vertex 540.304644267659 -1697.62132533622 486.293629803994
  endloop
endfacet
facet normal 0.793353340291139 -8.22677765073476e-014 0.608761429008846
  outer loop
    vertex 539.520140729512 -1697.62132533622 486.746563132924
    vertex 539.242033139966 -1693.79074177223 487.109
    vertex 539.242033139966 -1697.65062515187 487.109
  endloop
endfacet
facet normal 0.793353340291139 -8.22677765073476e-014 0.608761429008846
  outer loop
    vertex 539.242033139966 -1693.79074177223 487.109
    vertex 539.520140729512 -1697.62132533622 486.746563132924
    vertex 539.520140729512 -1693.79074177223 486.746563132924
  endloop
endfacet
facet normal 0.991444861373838 -3.74017575440655e-014 0.130526192219839
  outer loop
    vertex 539.067207400583 -1693.79074177223 487.531066671071
    vertex 539.007577596589 -1697.53542262329 487.984
    vertex 539.067207400583 -1697.62132533622 487.531066671071
  endloop
endfacet
facet normal 0.991444861373838 -3.74017575440655e-014 0.130526192219839
  outer loop
    vertex 539.007577596589 -1697.53542262329 487.984
    vertex 539.067207400583 -1693.79074177223 487.531066671071
    vertex 539.007577596589 -1693.79074177223 487.984
  endloop
endfacet
facet normal 0.991444861373813 -1.3515143230526e-014 -0.130526192220031
  outer loop
    vertex 539.007577596589 -1697.53542262329 487.984
    vertex 539.067207400583 -1693.79074177223 488.43693332893
    vertex 539.067207400583 -1697.62132533622 488.43693332893
  endloop
endfacet
facet normal 0.991444861373813 -1.3515143230526e-014 -0.130526192220031
  outer loop
    vertex 539.067207400583 -1693.79074177223 488.43693332893
    vertex 539.007577596589 -1697.53542262329 487.984
    vertex 539.007577596589 -1693.79074177223 487.984
  endloop
endfacet
facet normal 0.923879532511347 -3.06645511278244e-014 -0.382683432364943
  outer loop
    vertex 539.067207400583 -1697.62132533622 488.43693332893
    vertex 539.242033139966 -1693.79074177223 488.859
    vertex 539.242033139966 -1697.65062515187 488.859
  endloop
endfacet
facet normal 0.923879532511347 -3.06645511278244e-014 -0.382683432364943
  outer loop
    vertex 539.242033139966 -1693.79074177223 488.859
    vertex 539.067207400583 -1697.62132533622 488.43693332893
    vertex 539.067207400583 -1693.79074177223 488.43693332893
  endloop
endfacet
facet normal 0.608761429008503 -3.55220366360112e-014 0.793353340291402
  outer loop
    vertex 539.882577596589 -1697.53542262329 486.468455543377
    vertex 539.520140729512 -1693.79074177223 486.746563132924
    vertex 539.520140729512 -1697.62132533622 486.746563132924
  endloop
endfacet
facet normal 0.608761429008503 -3.55220366360112e-014 0.793353340291402
  outer loop
    vertex 539.520140729512 -1693.79074177223 486.746563132924
    vertex 539.882577596589 -1697.53542262329 486.468455543377
    vertex 539.882577596589 -1693.79074177223 486.468455543378
  endloop
endfacet
facet normal 0.923879532511361 -7.85326277333187e-014 0.38268343236491
  outer loop
    vertex 539.242033139966 -1693.79074177223 487.109
    vertex 539.067207400583 -1697.62132533622 487.531066671071
    vertex 539.242033139966 -1697.65062515187 487.109
  endloop
endfacet
facet normal 0.923879532511361 -7.85326277333187e-014 0.38268343236491
  outer loop
    vertex 539.067207400583 -1697.62132533622 487.531066671071
    vertex 539.242033139966 -1693.79074177223 487.109
    vertex 539.067207400583 -1693.79074177223 487.531066671071
  endloop
endfacet
facet normal -0.866025403784437 2.14900882098849e-013 0.500000000000003
  outer loop
    vertex 545.45757759659 -1698.79074177223 487.984
    vertex 543.107577596589 -1702.79074177223 483.913680602213
    vertex 545.457577596589 -1702.79074177223 487.984
  endloop
endfacet
facet normal -0.866025403784437 2.14900882098849e-013 0.500000000000003
  outer loop
    vertex 543.107577596589 -1702.79074177223 483.913680602213
    vertex 545.45757759659 -1698.79074177223 487.984
    vertex 543.10757759659 -1698.79074177223 483.913680602213
  endloop
endfacet
facet normal 0.0 0.0 1.0
  outer loop
    vertex 543.107577596589 -1702.79074177223 483.913680602213
    vertex 538.40757759659 -1698.79074177223 483.913680602213
    vertex 538.407577596589 -1702.79074177223 483.913680602213
  endloop
endfacet
facet normal 0.0 0.0 1.0
  outer loop
    vertex 538.40757759659 -1698.79074177223 483.913680602213
    vertex 543.107577596589 -1702.79074177223 483.913680602213
    vertex 543.10757759659 -1698.79074177223 483.913680602213
  endloop
endfacet
facet normal 0.866025403784437 -2.14900882098853e-013 -0.500000000000003
  outer loop
    vertex 536.057577596589 -1702.79074177223 487.984
    vertex 538.40757759659 -1698.79074177223 492.054319397787
    vertex 538.407577596589 -1702.79074177223 492.054319397787
  endloop
endfacet
facet normal 0.866025403784437 -2.14900882098853e-013 -0.500000000000003
  outer loop
    vertex 538.40757759659 -1698.79074177223 492.054319397787
    vertex 536.057577596589 -1702.79074177223 487.984
    vertex 536.05757759659 -1698.79074177223 487.984
  endloop
endfacet
facet normal -0.866025403784437 2.14900882098849e-013 -0.500000000000003
  outer loop
    vertex 543.107577596589 -1702.79074177223 492.054319397787
    vertex 545.45757759659 -1698.79074177223 487.984
    vertex 545.457577596589 -1702.79074177223 487.984
  endloop
endfacet
facet normal -0.866025403784437 2.14900882098849e-013 -0.500000000000003
  outer loop
    vertex 545.45757759659 -1698.79074177223 487.984
    vertex 543.107577596589 -1702.79074177223 492.054319397787
    vertex 543.10757759659 -1698.79074177223 492.054319397787
  endloop
endfacet
facet normal 0.866025403784437 -2.14900882098853e-013 0.500000000000003
  outer loop
    vertex 538.40757759659 -1698.79074177223 483.913680602213
    vertex 536.057577596589 -1702.79074177223 487.984
    vertex 538.407577596589 -1702.79074177223 483.913680602213
  endloop
endfacet
facet normal 0.866025403784437 -2.14900882098853e-013 0.500000000000003
  outer loop
    vertex 536.057577596589 -1702.79074177223 487.984
    vertex 538.40757759659 -1698.79074177223 483.913680602213
    vertex 536.05757759659 -1698.79074177223 487.984
  endloop
endfacet
facet normal 0.0 0.0 -1.0
  outer loop
    vertex 538.40757759659 -1698.79074177223 492.054319397787
    vertex 543.107577596589 -1702.79074177223 492.054319397787
    vertex 538.407577596589 -1702.79074177223 492.054319397787
  endloop
endfacet
facet normal 0.0 0.0 -1.0
  outer loop
    vertex 543.107577596589 -1702.79074177223 492.054319397787
    vertex 538.40757759659 -1698.79074177223 492.054319397787
    vertex 543.10757759659 -1698.79074177223 492.054319397787
  endloop
endfacet
endsolid UltraSpecial
