solid UltraSpecial
facet normal -1.92910414832005e-084 -1.0 0.0
  outer loop
    vertex 534.257577596583 -1794.19074177223 502.984000000001
    vertex 547.257577596584 -1794.19074177223 494.984
    vertex 547.257577596584 -1794.19074177223 502.984
  endloop
endfacet
facet normal -1.92910414832005e-084 -1.0 0.0
  outer loop
    vertex 547.257577596584 -1794.19074177223 494.984
    vertex 534.257577596583 -1794.19074177223 502.984000000001
    vertex 534.257577596583 -1794.19074177223 494.984
  endloop
endfacet
facet normal 6.94145595704125e-015 1.36282648715905e-029 1.0
  outer loop
    vertex 547.257577596584 -1794.19074177223 502.984
    vertex 542.273122053207 -1782.06574177223 502.984
    vertex 534.257577596583 -1794.19074177223 502.984000000001
  endloop
endfacet
facet normal 6.94145595704125e-015 1.36282648715905e-029 1.0
  outer loop
    vertex 542.273122053207 -1782.06574177223 502.984
    vertex 547.257577596584 -1794.19074177223 502.984
    vertex 542.447947792589 -1781.64367510115 502.984
  endloop
endfacet
facet normal 6.94145595704125e-015 1.36282648715905e-029 1.0
  outer loop
    vertex 542.447947792589 -1781.64367510115 502.984
    vertex 547.257577596584 -1794.19074177223 502.984
    vertex 547.257577596583 -1748.19074177223 502.984
  endloop
endfacet
facet normal 6.94145595704125e-015 1.36282648715905e-029 1.0
  outer loop
    vertex 534.257577596583 -1794.19074177223 502.984000000001
    vertex 542.273122053207 -1782.06574177223 502.984
    vertex 541.99501446366 -1782.4281786393 502.984
  endloop
endfacet
facet normal 6.94145595704125e-015 1.36282648715905e-029 1.0
  outer loop
    vertex 534.257577596583 -1794.19074177223 502.984000000001
    vertex 541.99501446366 -1782.4281786393 502.984
    vertex 541.632577596583 -1782.70628622885 502.984
  endloop
endfacet
facet normal 6.94145595704125e-015 1.36282648715905e-029 1.0
  outer loop
    vertex 534.257577596583 -1794.19074177223 502.984000000001
    vertex 541.632577596583 -1782.70628622885 502.984
    vertex 541.210510925513 -1782.88111196823 502.984
  endloop
endfacet
facet normal 6.94145595704125e-015 1.36282648715905e-029 1.0
  outer loop
    vertex 534.257577596583 -1794.19074177223 502.984000000001
    vertex 541.210510925513 -1782.88111196823 502.984
    vertex 540.757577596583 -1782.94074177223 502.984
  endloop
endfacet
facet normal 6.94145595704125e-015 1.36282648715905e-029 1.0
  outer loop
    vertex 542.447947792589 -1781.64367510115 502.984
    vertex 547.257577596583 -1748.19074177223 502.984
    vertex 542.507577596583 -1781.19074177223 502.984
  endloop
endfacet
facet normal 6.94145595704125e-015 1.36282648715905e-029 1.0
  outer loop
    vertex 542.507577596583 -1781.19074177223 502.984
    vertex 547.257577596583 -1748.19074177223 502.984
    vertex 542.447947792589 -1780.7378084433 502.984
  endloop
endfacet
facet normal 6.94145595704125e-015 1.36282648715905e-029 1.0
  outer loop
    vertex 542.447947792589 -1780.7378084433 502.984
    vertex 547.257577596583 -1748.19074177223 502.984
    vertex 542.273122053207 -1780.31574177223 502.984
  endloop
endfacet
facet normal 6.94145595704125e-015 1.36282648715905e-029 1.0
  outer loop
    vertex 542.273122053207 -1780.31574177223 502.984
    vertex 547.257577596583 -1748.19074177223 502.984
    vertex 541.99501446366 -1779.95330490515 502.984
  endloop
endfacet
facet normal 6.94145595704125e-015 1.36282648715905e-029 1.0
  outer loop
    vertex 541.99501446366 -1779.95330490515 502.984
    vertex 547.257577596583 -1748.19074177223 502.984
    vertex 541.632577596583 -1779.6751973156 502.984
  endloop
endfacet
facet normal 6.94145595704125e-015 1.36282648715905e-029 1.0
  outer loop
    vertex 541.632577596583 -1779.6751973156 502.984
    vertex 547.257577596583 -1748.19074177223 502.984
    vertex 541.210510925513 -1779.50037157622 502.984
  endloop
endfacet
facet normal 6.94145595704125e-015 1.36282648715905e-029 1.0
  outer loop
    vertex 541.210510925513 -1779.50037157622 502.984
    vertex 547.257577596583 -1748.19074177223 502.984
    vertex 540.757577596583 -1779.44074177223 502.984
  endloop
endfacet
facet normal 6.94145595704125e-015 1.36282648715905e-029 1.0
  outer loop
    vertex 534.257577596583 -1794.19074177223 502.984000000001
    vertex 539.067207400578 -1781.64367510115 502.984
    vertex 534.257577596584 -1748.19074177223 502.984000000001
  endloop
endfacet
facet normal 6.94145595704125e-015 1.36282648715905e-029 1.0
  outer loop
    vertex 539.067207400578 -1781.64367510115 502.984
    vertex 534.257577596583 -1794.19074177223 502.984000000001
    vertex 539.242033139961 -1782.06574177223 502.984
  endloop
endfacet
facet normal 6.94145595704125e-015 1.36282648715905e-029 1.0
  outer loop
    vertex 539.242033139961 -1782.06574177223 502.984
    vertex 534.257577596583 -1794.19074177223 502.984000000001
    vertex 539.520140729507 -1782.4281786393 502.984
  endloop
endfacet
facet normal 6.94145595704125e-015 1.36282648715905e-029 1.0
  outer loop
    vertex 539.520140729507 -1782.4281786393 502.984
    vertex 534.257577596583 -1794.19074177223 502.984000000001
    vertex 539.882577596584 -1782.70628622885 502.984
  endloop
endfacet
facet normal 6.94145595704125e-015 1.36282648715905e-029 1.0
  outer loop
    vertex 539.882577596584 -1782.70628622885 502.984
    vertex 534.257577596583 -1794.19074177223 502.984000000001
    vertex 540.304644267654 -1782.88111196823 502.984
  endloop
endfacet
facet normal 6.94145595704125e-015 1.36282648715905e-029 1.0
  outer loop
    vertex 540.304644267654 -1782.88111196823 502.984
    vertex 534.257577596583 -1794.19074177223 502.984000000001
    vertex 540.757577596583 -1782.94074177223 502.984
  endloop
endfacet
facet normal 6.94145595704125e-015 1.36282648715905e-029 1.0
  outer loop
    vertex 534.257577596584 -1748.19074177223 502.984000000001
    vertex 539.067207400578 -1781.64367510115 502.984
    vertex 539.007577596584 -1781.19074177223 502.984
  endloop
endfacet
facet normal 6.94145595704125e-015 1.36282648715905e-029 1.0
  outer loop
    vertex 534.257577596584 -1748.19074177223 502.984000000001
    vertex 539.007577596584 -1781.19074177223 502.984
    vertex 539.067207400578 -1780.7378084433 502.984
  endloop
endfacet
facet normal 6.94145595704125e-015 1.36282648715905e-029 1.0
  outer loop
    vertex 534.257577596584 -1748.19074177223 502.984000000001
    vertex 539.067207400578 -1780.7378084433 502.984
    vertex 539.242033139961 -1780.31574177223 502.984
  endloop
endfacet
facet normal 6.94145595704125e-015 1.36282648715905e-029 1.0
  outer loop
    vertex 534.257577596584 -1748.19074177223 502.984000000001
    vertex 539.242033139961 -1780.31574177223 502.984
    vertex 539.520140729507 -1779.95330490515 502.984
  endloop
endfacet
facet normal 6.94145595704125e-015 1.36282648715905e-029 1.0
  outer loop
    vertex 534.257577596584 -1748.19074177223 502.984000000001
    vertex 539.520140729507 -1779.95330490515 502.984
    vertex 539.882577596584 -1779.6751973156 502.984
  endloop
endfacet
facet normal 6.94145595704125e-015 1.36282648715905e-029 1.0
  outer loop
    vertex 534.257577596584 -1748.19074177223 502.984000000001
    vertex 539.882577596584 -1779.6751973156 502.984
    vertex 540.304644267654 -1779.50037157622 502.984
  endloop
endfacet
facet normal 6.94145595704125e-015 1.36282648715905e-029 1.0
  outer loop
    vertex 534.257577596584 -1748.19074177223 502.984000000001
    vertex 540.304644267654 -1779.50037157622 502.984
    vertex 540.757577596583 -1779.44074177223 502.984
  endloop
endfacet
facet normal 6.94145595704125e-015 1.36282648715905e-029 1.0
  outer loop
    vertex 534.257577596584 -1748.19074177223 502.984000000001
    vertex 540.757577596583 -1779.44074177223 502.984
    vertex 547.257577596583 -1748.19074177223 502.984
  endloop
endfacet
facet normal 0.0 0.0 -1.0
  outer loop
    vertex 536.057577596584 -1781.19074177223 497.984
    vertex 543.107577596584 -1785.26106117001 497.984
    vertex 538.407577596584 -1785.26106117001 497.984
  endloop
endfacet
facet normal 0.0 0.0 -1.0
  outer loop
    vertex 543.107577596584 -1785.26106117001 497.984
    vertex 536.057577596584 -1781.19074177223 497.984
    vertex 540.304644267654 -1782.88111196823 497.984
  endloop
endfacet
facet normal 0.0 0.0 -1.0
  outer loop
    vertex 543.107577596584 -1785.26106117001 497.984
    vertex 540.304644267654 -1782.88111196823 497.984
    vertex 540.757577596583 -1782.94074177223 497.984
  endloop
endfacet
facet normal 0.0 0.0 -1.0
  outer loop
    vertex 540.304644267654 -1782.88111196823 497.984
    vertex 536.057577596584 -1781.19074177223 497.984
    vertex 539.882577596584 -1782.70628622885 497.984
  endloop
endfacet
facet normal 0.0 0.0 -1.0
  outer loop
    vertex 539.882577596584 -1782.70628622885 497.984
    vertex 536.057577596584 -1781.19074177223 497.984
    vertex 539.520140729507 -1782.4281786393 497.984
  endloop
endfacet
facet normal 0.0 0.0 -1.0
  outer loop
    vertex 539.520140729507 -1782.4281786393 497.984
    vertex 536.057577596584 -1781.19074177223 497.984
    vertex 539.242033139961 -1782.06574177223 497.984
  endloop
endfacet
facet normal 0.0 0.0 -1.0
  outer loop
    vertex 539.242033139961 -1782.06574177223 497.984
    vertex 536.057577596584 -1781.19074177223 497.984
    vertex 539.067207400578 -1781.64367510115 497.984
  endloop
endfacet
facet normal 0.0 0.0 -1.0
  outer loop
    vertex 539.067207400578 -1781.64367510115 497.984
    vertex 536.057577596584 -1781.19074177223 497.984
    vertex 539.007577596584 -1781.19074177223 497.984
  endloop
endfacet
facet normal 0.0 0.0 -1.0
  outer loop
    vertex 539.007577596584 -1781.19074177223 497.984
    vertex 536.057577596584 -1781.19074177223 497.984
    vertex 538.407577596584 -1777.12042237444 497.984
  endloop
endfacet
facet normal 0.0 0.0 -1.0
  outer loop
    vertex 539.007577596584 -1781.19074177223 497.984
    vertex 538.407577596584 -1777.12042237444 497.984
    vertex 539.067207400578 -1780.7378084433 497.984
  endloop
endfacet
facet normal 0.0 0.0 -1.0
  outer loop
    vertex 539.067207400578 -1780.7378084433 497.984
    vertex 538.407577596584 -1777.12042237444 497.984
    vertex 539.242033139961 -1780.31574177223 497.984
  endloop
endfacet
facet normal 0.0 0.0 -1.0
  outer loop
    vertex 539.242033139961 -1780.31574177223 497.984
    vertex 538.407577596584 -1777.12042237444 497.984
    vertex 539.520140729507 -1779.95330490515 497.984
  endloop
endfacet
facet normal 0.0 0.0 -1.0
  outer loop
    vertex 539.520140729507 -1779.95330490515 497.984
    vertex 538.407577596584 -1777.12042237444 497.984
    vertex 539.882577596584 -1779.6751973156 497.984
  endloop
endfacet
facet normal 0.0 0.0 -1.0
  outer loop
    vertex 539.882577596584 -1779.6751973156 497.984
    vertex 538.407577596584 -1777.12042237444 497.984
    vertex 540.304644267654 -1779.50037157622 497.984
  endloop
endfacet
facet normal 0.0 0.0 -1.0
  outer loop
    vertex 540.304644267654 -1779.50037157622 497.984
    vertex 538.407577596584 -1777.12042237444 497.984
    vertex 540.757577596583 -1779.44074177223 497.984
  endloop
endfacet
facet normal 0.0 0.0 -1.0
  outer loop
    vertex 543.107577596584 -1785.26106117001 497.984
    vertex 541.210510925513 -1782.88111196823 497.984
    vertex 545.457577596584 -1781.19074177223 497.984
  endloop
endfacet
facet normal 0.0 0.0 -1.0
  outer loop
    vertex 541.210510925513 -1782.88111196823 497.984
    vertex 543.107577596584 -1785.26106117001 497.984
    vertex 540.757577596583 -1782.94074177223 497.984
  endloop
endfacet
facet normal 0.0 0.0 -1.0
  outer loop
    vertex 545.457577596584 -1781.19074177223 497.984
    vertex 541.210510925513 -1782.88111196823 497.984
    vertex 541.632577596583 -1782.70628622885 497.984
  endloop
endfacet
facet normal 0.0 0.0 -1.0
  outer loop
    vertex 545.457577596584 -1781.19074177223 497.984
    vertex 541.632577596583 -1782.70628622885 497.984
    vertex 541.99501446366 -1782.4281786393 497.984
  endloop
endfacet
facet normal 0.0 0.0 -1.0
  outer loop
    vertex 545.457577596584 -1781.19074177223 497.984
    vertex 541.99501446366 -1782.4281786393 497.984
    vertex 542.273122053207 -1782.06574177223 497.984
  endloop
endfacet
facet normal 0.0 0.0 -1.0
  outer loop
    vertex 545.457577596584 -1781.19074177223 497.984
    vertex 542.273122053207 -1782.06574177223 497.984
    vertex 542.447947792589 -1781.64367510115 497.984
  endloop
endfacet
facet normal 0.0 0.0 -1.0
  outer loop
    vertex 545.457577596584 -1781.19074177223 497.984
    vertex 542.447947792589 -1781.64367510115 497.984
    vertex 542.507577596583 -1781.19074177223 497.984
  endloop
endfacet
facet normal 0.0 0.0 -1.0
  outer loop
    vertex 545.457577596584 -1781.19074177223 497.984
    vertex 542.507577596583 -1781.19074177223 497.984
    vertex 542.447947792589 -1780.7378084433 497.984
  endloop
endfacet
facet normal 0.0 0.0 -1.0
  outer loop
    vertex 545.457577596584 -1781.19074177223 497.984
    vertex 542.447947792589 -1780.7378084433 497.984
    vertex 543.107577596584 -1777.12042237444 497.984
  endloop
endfacet
facet normal 0.0 0.0 -1.0
  outer loop
    vertex 543.107577596584 -1777.12042237444 497.984
    vertex 542.447947792589 -1780.7378084433 497.984
    vertex 542.273122053207 -1780.31574177223 497.984
  endloop
endfacet
facet normal 0.0 0.0 -1.0
  outer loop
    vertex 543.107577596584 -1777.12042237444 497.984
    vertex 542.273122053207 -1780.31574177223 497.984
    vertex 541.99501446366 -1779.95330490515 497.984
  endloop
endfacet
facet normal 0.0 0.0 -1.0
  outer loop
    vertex 543.107577596584 -1777.12042237444 497.984
    vertex 541.99501446366 -1779.95330490515 497.984
    vertex 541.632577596583 -1779.6751973156 497.984
  endloop
endfacet
facet normal 0.0 0.0 -1.0
  outer loop
    vertex 543.107577596584 -1777.12042237444 497.984
    vertex 541.632577596583 -1779.6751973156 497.984
    vertex 541.210510925513 -1779.50037157622 497.984
  endloop
endfacet
facet normal 0.0 0.0 -1.0
  outer loop
    vertex 543.107577596584 -1777.12042237444 497.984
    vertex 541.210510925513 -1779.50037157622 497.984
    vertex 540.757577596583 -1779.44074177223 497.984
  endloop
endfacet
facet normal 0.0 0.0 -1.0
  outer loop
    vertex 543.107577596584 -1777.12042237444 497.984
    vertex 540.757577596583 -1779.44074177223 497.984
    vertex 538.407577596584 -1777.12042237444 497.984
  endloop
endfacet
facet normal -0.866025403784446 0.499999999999986 -1.59309191113245e-058
  outer loop
    vertex 543.107577596584 -1785.26106117001 497.984
    vertex 545.457577596584 -1781.19074177223 494.984
    vertex 543.107577596584 -1785.26106117001 494.984
  endloop
endfacet
facet normal -0.866025403784446 0.499999999999986 -1.59309191113245e-058
  outer loop
    vertex 545.457577596584 -1781.19074177223 494.984
    vertex 543.107577596584 -1785.26106117001 497.984
    vertex 545.457577596584 -1781.19074177223 497.984
  endloop
endfacet
facet normal 1.92910414832005e-084 1.0 0.0
  outer loop
    vertex 538.407577596584 -1785.26106117001 494.984
    vertex 543.107577596584 -1785.26106117001 497.984
    vertex 543.107577596584 -1785.26106117001 494.984
  endloop
endfacet
facet normal 1.92910414832005e-084 1.0 0.0
  outer loop
    vertex 543.107577596584 -1785.26106117001 497.984
    vertex 538.407577596584 -1785.26106117001 494.984
    vertex 538.407577596584 -1785.26106117001 497.984
  endloop
endfacet
facet normal 0.866025403784446 0.499999999999986 -6.37236764452981e-058
  outer loop
    vertex 536.057577596584 -1781.19074177223 497.984
    vertex 538.407577596584 -1785.26106117001 494.984
    vertex 536.057577596584 -1781.19074177223 494.984
  endloop
endfacet
facet normal 0.866025403784446 0.499999999999986 -6.37236764452981e-058
  outer loop
    vertex 538.407577596584 -1785.26106117001 494.984
    vertex 536.057577596584 -1781.19074177223 497.984
    vertex 538.407577596584 -1785.26106117001 497.984
  endloop
endfacet
facet normal 0.866025403784446 -0.499999999999986 1.59309191113245e-058
  outer loop
    vertex 538.407577596584 -1777.12042237444 497.984
    vertex 536.057577596584 -1781.19074177223 494.984
    vertex 538.407577596584 -1777.12042237444 494.984
  endloop
endfacet
facet normal 0.866025403784446 -0.499999999999986 1.59309191113245e-058
  outer loop
    vertex 536.057577596584 -1781.19074177223 494.984
    vertex 538.407577596584 -1777.12042237444 497.984
    vertex 536.057577596584 -1781.19074177223 497.984
  endloop
endfacet
facet normal -1.92910414832005e-084 -1.0 0.0
  outer loop
    vertex 538.407577596584 -1777.12042237444 497.984
    vertex 543.107577596584 -1777.12042237444 494.984
    vertex 543.107577596584 -1777.12042237444 497.984
  endloop
endfacet
facet normal -1.92910414832005e-084 -1.0 0.0
  outer loop
    vertex 543.107577596584 -1777.12042237444 494.984
    vertex 538.407577596584 -1777.12042237444 497.984
    vertex 538.407577596584 -1777.12042237444 494.984
  endloop
endfacet
facet normal -0.866025403784446 -0.499999999999986 6.37236764452981e-058
  outer loop
    vertex 545.457577596584 -1781.19074177223 497.984
    vertex 543.107577596584 -1777.12042237444 494.984
    vertex 545.457577596584 -1781.19074177223 494.984
  endloop
endfacet
facet normal -0.866025403784446 -0.499999999999986 6.37236764452981e-058
  outer loop
    vertex 543.107577596584 -1777.12042237444 494.984
    vertex 545.457577596584 -1781.19074177223 497.984
    vertex 543.107577596584 -1777.12042237444 497.984
  endloop
endfacet
facet normal 3.89129251644068e-014 1.0 1.85256186875648e-014
  outer loop
    vertex 547.257577596584 -1739.19074177223 505.984
    vertex 542.447947792588 -1739.19074177223 510.931066671071
    vertex 547.25757759658 -1739.19074177223 532.384000000001
  endloop
endfacet
facet normal 3.89129251644068e-014 1.0 1.85256186875648e-014
  outer loop
    vertex 542.447947792588 -1739.19074177223 510.931066671071
    vertex 547.257577596584 -1739.19074177223 505.984
    vertex 542.273122053206 -1739.19074177223 510.509000000001
  endloop
endfacet
facet normal 3.89129251644068e-014 1.0 1.85256186875648e-014
  outer loop
    vertex 542.273122053206 -1739.19074177223 510.509000000001
    vertex 547.257577596584 -1739.19074177223 505.984
    vertex 541.99501446366 -1739.19074177223 510.146563132924
  endloop
endfacet
facet normal 3.89129251644068e-014 1.0 1.85256186875648e-014
  outer loop
    vertex 541.99501446366 -1739.19074177223 510.146563132924
    vertex 547.257577596584 -1739.19074177223 505.984
    vertex 541.632577596582 -1739.19074177223 509.868455543378
  endloop
endfacet
facet normal 3.89129251644068e-014 1.0 1.85256186875648e-014
  outer loop
    vertex 541.632577596582 -1739.19074177223 509.868455543378
    vertex 547.257577596584 -1739.19074177223 505.984
    vertex 534.257577596584 -1739.19074177223 505.984
  endloop
endfacet
facet normal 3.89129251644068e-014 1.0 1.85256186875648e-014
  outer loop
    vertex 547.25757759658 -1739.19074177223 532.384000000001
    vertex 542.447947792588 -1739.19074177223 510.931066671071
    vertex 542.507577596583 -1739.19074177223 511.384000000001
  endloop
endfacet
facet normal 3.89129251644068e-014 1.0 1.85256186875648e-014
  outer loop
    vertex 541.632577596582 -1739.19074177223 509.868455543378
    vertex 534.257577596584 -1739.19074177223 505.984
    vertex 541.210510925512 -1739.19074177223 509.693629803995
  endloop
endfacet
facet normal 3.89129251644068e-014 1.0 1.85256186875648e-014
  outer loop
    vertex 541.210510925512 -1739.19074177223 509.693629803995
    vertex 534.257577596584 -1739.19074177223 505.984
    vertex 540.757577596583 -1739.19074177223 509.634000000001
  endloop
endfacet
facet normal 3.89129251644068e-014 1.0 1.85256186875648e-014
  outer loop
    vertex 540.757577596583 -1739.19074177223 509.634000000001
    vertex 534.257577596584 -1739.19074177223 505.984
    vertex 540.304644267654 -1739.19074177223 509.693629803995
  endloop
endfacet
facet normal 3.89129251644068e-014 1.0 1.85256186875648e-014
  outer loop
    vertex 540.304644267654 -1739.19074177223 509.693629803995
    vertex 534.257577596584 -1739.19074177223 505.984
    vertex 539.882577596583 -1739.19074177223 509.868455543378
  endloop
endfacet
facet normal 3.89129251644068e-014 1.0 1.85256186875648e-014
  outer loop
    vertex 539.882577596583 -1739.19074177223 509.868455543378
    vertex 534.257577596584 -1739.19074177223 505.984
    vertex 539.520140729507 -1739.19074177223 510.146563132924
  endloop
endfacet
facet normal 3.89129251644068e-014 1.0 1.85256186875648e-014
  outer loop
    vertex 539.520140729507 -1739.19074177223 510.146563132924
    vertex 534.257577596584 -1739.19074177223 505.984
    vertex 539.24203313996 -1739.19074177223 510.509000000001
  endloop
endfacet
facet normal 3.89129251644068e-014 1.0 1.85256186875648e-014
  outer loop
    vertex 539.24203313996 -1739.19074177223 510.509000000001
    vertex 534.257577596584 -1739.19074177223 505.984
    vertex 539.067207400578 -1739.19074177223 510.931066671071
  endloop
endfacet
facet normal 3.89129251644068e-014 1.0 1.85256186875648e-014
  outer loop
    vertex 539.067207400578 -1739.19074177223 510.931066671071
    vertex 534.257577596584 -1739.19074177223 505.984
    vertex 539.007577596582 -1739.19074177223 511.384000000001
  endloop
endfacet
facet normal 3.89129251644068e-014 1.0 1.85256186875648e-014
  outer loop
    vertex 539.007577596582 -1739.19074177223 511.384000000001
    vertex 534.257577596584 -1739.19074177223 505.984
    vertex 539.007577596582 -1739.19074177223 525.384
  endloop
endfacet
facet normal 3.89129251644068e-014 1.0 1.85256186875648e-014
  outer loop
    vertex 547.25757759658 -1739.19074177223 532.384000000001
    vertex 541.632577596582 -1739.19074177223 526.899544456623
    vertex 534.257577596579 -1739.19074177223 532.384000000001
  endloop
endfacet
facet normal 3.89129251644068e-014 1.0 1.85256186875648e-014
  outer loop
    vertex 541.632577596582 -1739.19074177223 526.899544456623
    vertex 547.25757759658 -1739.19074177223 532.384000000001
    vertex 541.99501446366 -1739.19074177223 526.621436867077
  endloop
endfacet
facet normal 3.89129251644068e-014 1.0 1.85256186875648e-014
  outer loop
    vertex 541.99501446366 -1739.19074177223 526.621436867077
    vertex 547.25757759658 -1739.19074177223 532.384000000001
    vertex 542.273122053206 -1739.19074177223 526.259
  endloop
endfacet
facet normal 3.89129251644068e-014 1.0 1.85256186875648e-014
  outer loop
    vertex 542.273122053206 -1739.19074177223 526.259
    vertex 547.25757759658 -1739.19074177223 532.384000000001
    vertex 542.447947792588 -1739.19074177223 525.83693332893
  endloop
endfacet
facet normal 3.89129251644068e-014 1.0 1.85256186875648e-014
  outer loop
    vertex 542.447947792588 -1739.19074177223 525.83693332893
    vertex 547.25757759658 -1739.19074177223 532.384000000001
    vertex 542.507577596583 -1739.19074177223 525.384
  endloop
endfacet
facet normal 3.89129251644068e-014 1.0 1.85256186875648e-014
  outer loop
    vertex 542.507577596583 -1739.19074177223 525.384
    vertex 547.25757759658 -1739.19074177223 532.384000000001
    vertex 542.507577596583 -1739.19074177223 511.384000000001
  endloop
endfacet
facet normal 3.89129251644068e-014 1.0 1.85256186875648e-014
  outer loop
    vertex 534.257577596579 -1739.19074177223 532.384000000001
    vertex 541.632577596582 -1739.19074177223 526.899544456623
    vertex 541.210510925512 -1739.19074177223 527.074370196006
  endloop
endfacet
facet normal 3.89129251644068e-014 1.0 1.85256186875648e-014
  outer loop
    vertex 534.257577596579 -1739.19074177223 532.384000000001
    vertex 541.210510925512 -1739.19074177223 527.074370196006
    vertex 540.757577596583 -1739.19074177223 527.134
  endloop
endfacet
facet normal 3.89129251644068e-014 1.0 1.85256186875648e-014
  outer loop
    vertex 534.257577596579 -1739.19074177223 532.384000000001
    vertex 540.757577596583 -1739.19074177223 527.134
    vertex 540.304644267654 -1739.19074177223 527.074370196006
  endloop
endfacet
facet normal 3.89129251644068e-014 1.0 1.85256186875648e-014
  outer loop
    vertex 534.257577596579 -1739.19074177223 532.384000000001
    vertex 540.304644267654 -1739.19074177223 527.074370196006
    vertex 539.882577596583 -1739.19074177223 526.899544456623
  endloop
endfacet
facet normal 3.89129251644068e-014 1.0 1.85256186875648e-014
  outer loop
    vertex 534.257577596579 -1739.19074177223 532.384000000001
    vertex 539.882577596583 -1739.19074177223 526.899544456623
    vertex 539.520140729507 -1739.19074177223 526.621436867077
  endloop
endfacet
facet normal 3.89129251644068e-014 1.0 1.85256186875648e-014
  outer loop
    vertex 534.257577596579 -1739.19074177223 532.384000000001
    vertex 539.520140729507 -1739.19074177223 526.621436867077
    vertex 539.24203313996 -1739.19074177223 526.259
  endloop
endfacet
facet normal 3.89129251644068e-014 1.0 1.85256186875648e-014
  outer loop
    vertex 534.257577596579 -1739.19074177223 532.384000000001
    vertex 539.24203313996 -1739.19074177223 526.259
    vertex 539.067207400578 -1739.19074177223 525.83693332893
  endloop
endfacet
facet normal 3.89129251644068e-014 1.0 1.85256186875648e-014
  outer loop
    vertex 534.257577596579 -1739.19074177223 532.384000000001
    vertex 539.067207400578 -1739.19074177223 525.83693332893
    vertex 539.007577596582 -1739.19074177223 525.384
  endloop
endfacet
facet normal 3.89129251644068e-014 1.0 1.85256186875648e-014
  outer loop
    vertex 534.257577596579 -1739.19074177223 532.384000000001
    vertex 539.007577596582 -1739.19074177223 525.384
    vertex 534.257577596584 -1739.19074177223 505.984
  endloop
endfacet
facet normal 3.89129251644068e-014 1.0 1.85256186875648e-014
  outer loop
    vertex 542.447947792588 -1739.19074177223 511.83693332893
    vertex 542.507577596583 -1739.19074177223 525.384
    vertex 542.507577596583 -1739.19074177223 511.384000000001
  endloop
endfacet
facet normal 3.89129251644068e-014 1.0 1.85256186875648e-014
  outer loop
    vertex 542.507577596583 -1739.19074177223 525.384
    vertex 542.447947792588 -1739.19074177223 511.83693332893
    vertex 542.447947792588 -1739.19074177223 524.931066671071
  endloop
endfacet
facet normal 3.89129251644068e-014 1.0 1.85256186875648e-014
  outer loop
    vertex 542.447947792588 -1739.19074177223 524.931066671071
    vertex 542.447947792588 -1739.19074177223 511.83693332893
    vertex 542.273122053206 -1739.19074177223 512.259
  endloop
endfacet
facet normal 3.89129251644068e-014 1.0 1.85256186875648e-014
  outer loop
    vertex 542.447947792588 -1739.19074177223 524.931066671071
    vertex 542.273122053206 -1739.19074177223 512.259
    vertex 542.273122053206 -1739.19074177223 524.509
  endloop
endfacet
facet normal 3.89129251644068e-014 1.0 1.85256186875648e-014
  outer loop
    vertex 542.273122053206 -1739.19074177223 524.509
    vertex 542.273122053206 -1739.19074177223 512.259
    vertex 541.99501446366 -1739.19074177223 524.146563132924
  endloop
endfacet
facet normal 3.89129251644068e-014 1.0 1.85256186875648e-014
  outer loop
    vertex 541.99501446366 -1739.19074177223 524.146563132924
    vertex 542.273122053206 -1739.19074177223 512.259
    vertex 541.99501446366 -1739.19074177223 512.621436867077
  endloop
endfacet
facet normal 3.89129251644068e-014 1.0 1.85256186875648e-014
  outer loop
    vertex 541.99501446366 -1739.19074177223 524.146563132924
    vertex 541.99501446366 -1739.19074177223 512.621436867077
    vertex 541.632577596582 -1739.19074177223 512.899544456623
  endloop
endfacet
facet normal 3.89129251644068e-014 1.0 1.85256186875648e-014
  outer loop
    vertex 541.99501446366 -1739.19074177223 524.146563132924
    vertex 541.632577596582 -1739.19074177223 512.899544456623
    vertex 541.632577596582 -1739.19074177223 523.868455543378
  endloop
endfacet
facet normal 3.89129251644068e-014 1.0 1.85256186875648e-014
  outer loop
    vertex 541.632577596582 -1739.19074177223 523.868455543378
    vertex 541.632577596582 -1739.19074177223 512.899544456623
    vertex 541.210510925512 -1739.19074177223 513.074370196006
  endloop
endfacet
facet normal 3.89129251644068e-014 1.0 1.85256186875648e-014
  outer loop
    vertex 541.632577596582 -1739.19074177223 523.868455543378
    vertex 541.210510925512 -1739.19074177223 513.074370196006
    vertex 541.210510925512 -1739.19074177223 523.693629803995
  endloop
endfacet
facet normal 3.89129251644068e-014 1.0 1.85256186875648e-014
  outer loop
    vertex 541.210510925512 -1739.19074177223 523.693629803995
    vertex 541.210510925512 -1739.19074177223 513.074370196006
    vertex 540.757577596583 -1739.19074177223 513.134
  endloop
endfacet
facet normal 3.89129251644068e-014 1.0 1.85256186875648e-014
  outer loop
    vertex 541.210510925512 -1739.19074177223 523.693629803995
    vertex 540.757577596583 -1739.19074177223 513.134
    vertex 540.757577596583 -1739.19074177223 523.634000000001
  endloop
endfacet
facet normal 3.89129251644068e-014 1.0 1.85256186875648e-014
  outer loop
    vertex 540.757577596583 -1739.19074177223 523.634000000001
    vertex 540.757577596583 -1739.19074177223 513.134
    vertex 540.304644267654 -1739.19074177223 513.074370196006
  endloop
endfacet
facet normal 3.89129251644068e-014 1.0 1.85256186875648e-014
  outer loop
    vertex 540.757577596583 -1739.19074177223 523.634000000001
    vertex 540.304644267654 -1739.19074177223 513.074370196006
    vertex 540.304644267654 -1739.19074177223 523.693629803995
  endloop
endfacet
facet normal 3.89129251644068e-014 1.0 1.85256186875648e-014
  outer loop
    vertex 540.304644267654 -1739.19074177223 523.693629803995
    vertex 540.304644267654 -1739.19074177223 513.074370196006
    vertex 539.882577596583 -1739.19074177223 512.899544456623
  endloop
endfacet
facet normal 3.89129251644068e-014 1.0 1.85256186875648e-014
  outer loop
    vertex 540.304644267654 -1739.19074177223 523.693629803995
    vertex 539.882577596583 -1739.19074177223 512.899544456623
    vertex 539.882577596583 -1739.19074177223 523.868455543378
  endloop
endfacet
facet normal 3.89129251644068e-014 1.0 1.85256186875648e-014
  outer loop
    vertex 539.882577596583 -1739.19074177223 523.868455543378
    vertex 539.882577596583 -1739.19074177223 512.899544456623
    vertex 539.520140729507 -1739.19074177223 512.621436867077
  endloop
endfacet
facet normal 3.89129251644068e-014 1.0 1.85256186875648e-014
  outer loop
    vertex 539.882577596583 -1739.19074177223 523.868455543378
    vertex 539.520140729507 -1739.19074177223 512.621436867077
    vertex 539.520140729507 -1739.19074177223 524.146563132924
  endloop
endfacet
facet normal 3.89129251644068e-014 1.0 1.85256186875648e-014
  outer loop
    vertex 539.520140729507 -1739.19074177223 524.146563132924
    vertex 539.520140729507 -1739.19074177223 512.621436867077
    vertex 539.24203313996 -1739.19074177223 512.259
  endloop
endfacet
facet normal 3.89129251644068e-014 1.0 1.85256186875648e-014
  outer loop
    vertex 539.520140729507 -1739.19074177223 524.146563132924
    vertex 539.24203313996 -1739.19074177223 512.259
    vertex 539.24203313996 -1739.19074177223 524.509
  endloop
endfacet
facet normal 3.89129251644068e-014 1.0 1.85256186875648e-014
  outer loop
    vertex 539.24203313996 -1739.19074177223 524.509
    vertex 539.24203313996 -1739.19074177223 512.259
    vertex 539.067207400578 -1739.19074177223 511.83693332893
  endloop
endfacet
facet normal 3.89129251644068e-014 1.0 1.85256186875648e-014
  outer loop
    vertex 539.24203313996 -1739.19074177223 524.509
    vertex 539.067207400578 -1739.19074177223 511.83693332893
    vertex 539.067207400578 -1739.19074177223 524.931066671071
  endloop
endfacet
facet normal 3.89129251644068e-014 1.0 1.85256186875648e-014
  outer loop
    vertex 539.067207400578 -1739.19074177223 524.931066671071
    vertex 539.067207400578 -1739.19074177223 511.83693332893
    vertex 539.007577596582 -1739.19074177223 511.384000000001
  endloop
endfacet
facet normal 3.89129251644068e-014 1.0 1.85256186875648e-014
  outer loop
    vertex 539.067207400578 -1739.19074177223 524.931066671071
    vertex 539.007577596582 -1739.19074177223 511.384000000001
    vertex 539.007577596582 -1739.19074177223 525.384
  endloop
endfacet
facet normal -5.5531647656327e-014 -1.0 -2.73451295277469e-014
  outer loop
    vertex 547.257577596579 -1744.19074177223 532.384
    vertex 542.507577596582 -1744.19074177223 525.384
    vertex 542.507577596582 -1744.19074177223 511.384
  endloop
endfacet
facet normal -5.5531647656327e-014 -1.0 -2.73451295277469e-014
  outer loop
    vertex 542.507577596582 -1744.19074177223 525.384
    vertex 547.257577596579 -1744.19074177223 532.384
    vertex 542.447947792588 -1744.19074177223 525.83693332893
  endloop
endfacet
facet normal -5.5531647656327e-014 -1.0 -2.73451295277469e-014
  outer loop
    vertex 542.447947792588 -1744.19074177223 525.83693332893
    vertex 547.257577596579 -1744.19074177223 532.384
    vertex 542.273122053206 -1744.19074177223 526.259
  endloop
endfacet
facet normal -5.5531647656327e-014 -1.0 -2.73451295277469e-014
  outer loop
    vertex 542.273122053206 -1744.19074177223 526.259
    vertex 547.257577596579 -1744.19074177223 532.384
    vertex 541.995014463659 -1744.19074177223 526.621436867077
  endloop
endfacet
facet normal -5.5531647656327e-014 -1.0 -2.73451295277469e-014
  outer loop
    vertex 541.995014463659 -1744.19074177223 526.621436867077
    vertex 547.257577596579 -1744.19074177223 532.384
    vertex 541.632577596582 -1744.19074177223 526.899544456623
  endloop
endfacet
facet normal -5.5531647656327e-014 -1.0 -2.73451295277469e-014
  outer loop
    vertex 541.632577596582 -1744.19074177223 526.899544456623
    vertex 547.257577596579 -1744.19074177223 532.384
    vertex 534.257577596579 -1744.19074177223 532.384
  endloop
endfacet
facet normal -5.5531647656327e-014 -1.0 -2.73451295277469e-014
  outer loop
    vertex 541.632577596582 -1744.19074177223 526.899544456623
    vertex 534.257577596579 -1744.19074177223 532.384
    vertex 541.210510925512 -1744.19074177223 527.074370196006
  endloop
endfacet
facet normal -5.5531647656327e-014 -1.0 -2.73451295277469e-014
  outer loop
    vertex 541.210510925512 -1744.19074177223 527.074370196006
    vertex 534.257577596579 -1744.19074177223 532.384
    vertex 540.757577596583 -1744.19074177223 527.134
  endloop
endfacet
facet normal -5.5531647656327e-014 -1.0 -2.73451295277469e-014
  outer loop
    vertex 540.757577596583 -1744.19074177223 527.134
    vertex 534.257577596579 -1744.19074177223 532.384
    vertex 540.304644267654 -1744.19074177223 527.074370196006
  endloop
endfacet
facet normal -5.5531647656327e-014 -1.0 -2.73451295277469e-014
  outer loop
    vertex 540.304644267654 -1744.19074177223 527.074370196006
    vertex 534.257577596579 -1744.19074177223 532.384
    vertex 539.882577596583 -1744.19074177223 526.899544456623
  endloop
endfacet
facet normal -5.5531647656327e-014 -1.0 -2.73451295277469e-014
  outer loop
    vertex 539.882577596583 -1744.19074177223 526.899544456623
    vertex 534.257577596579 -1744.19074177223 532.384
    vertex 539.520140729507 -1744.19074177223 526.621436867077
  endloop
endfacet
facet normal -5.5531647656327e-014 -1.0 -2.73451295277469e-014
  outer loop
    vertex 539.520140729507 -1744.19074177223 526.621436867077
    vertex 534.257577596579 -1744.19074177223 532.384
    vertex 539.242033139959 -1744.19074177223 526.259
  endloop
endfacet
facet normal -5.5531647656327e-014 -1.0 -2.73451295277469e-014
  outer loop
    vertex 539.242033139959 -1744.19074177223 526.259
    vertex 534.257577596579 -1744.19074177223 532.384
    vertex 539.067207400577 -1744.19074177223 525.83693332893
  endloop
endfacet
facet normal -5.5531647656327e-014 -1.0 -2.73451295277469e-014
  outer loop
    vertex 539.067207400577 -1744.19074177223 525.83693332893
    vertex 534.257577596579 -1744.19074177223 532.384
    vertex 539.007577596582 -1744.19074177223 525.384
  endloop
endfacet
facet normal -5.5531647656327e-014 -1.0 -2.73451295277469e-014
  outer loop
    vertex 539.007577596582 -1744.19074177223 525.384
    vertex 534.257577596579 -1744.19074177223 532.384
    vertex 539.007577596582 -1744.19074177223 511.384
  endloop
endfacet
facet normal -5.5531647656327e-014 -1.0 -2.73451295277469e-014
  outer loop
    vertex 539.007577596582 -1744.19074177223 511.384
    vertex 534.257577596579 -1744.19074177223 532.384
    vertex 534.257577596584 -1744.19074177223 505.984
  endloop
endfacet
facet normal -5.5531647656327e-014 -1.0 -2.73451295277469e-014
  outer loop
    vertex 547.257577596584 -1744.19074177223 505.984
    vertex 541.632577596582 -1744.19074177223 509.868455543377
    vertex 534.257577596584 -1744.19074177223 505.984
  endloop
endfacet
facet normal -5.5531647656327e-014 -1.0 -2.73451295277469e-014
  outer loop
    vertex 541.632577596582 -1744.19074177223 509.868455543377
    vertex 547.257577596584 -1744.19074177223 505.984
    vertex 541.99501446366 -1744.19074177223 510.146563132924
  endloop
endfacet
facet normal -5.5531647656327e-014 -1.0 -2.73451295277469e-014
  outer loop
    vertex 541.99501446366 -1744.19074177223 510.146563132924
    vertex 547.257577596584 -1744.19074177223 505.984
    vertex 542.273122053205 -1744.19074177223 510.509
  endloop
endfacet
facet normal -5.5531647656327e-014 -1.0 -2.73451295277469e-014
  outer loop
    vertex 542.273122053205 -1744.19074177223 510.509
    vertex 547.257577596584 -1744.19074177223 505.984
    vertex 542.447947792588 -1744.19074177223 510.931066671071
  endloop
endfacet
facet normal -5.5531647656327e-014 -1.0 -2.73451295277469e-014
  outer loop
    vertex 542.447947792588 -1744.19074177223 510.931066671071
    vertex 547.257577596584 -1744.19074177223 505.984
    vertex 547.257577596579 -1744.19074177223 532.384
  endloop
endfacet
facet normal -5.5531647656327e-014 -1.0 -2.73451295277469e-014
  outer loop
    vertex 542.447947792588 -1744.19074177223 510.931066671071
    vertex 547.257577596579 -1744.19074177223 532.384
    vertex 542.507577596582 -1744.19074177223 511.384
  endloop
endfacet
facet normal -5.5531647656327e-014 -1.0 -2.73451295277469e-014
  outer loop
    vertex 534.257577596584 -1744.19074177223 505.984
    vertex 541.632577596582 -1744.19074177223 509.868455543377
    vertex 541.210510925512 -1744.19074177223 509.693629803994
  endloop
endfacet
facet normal -5.5531647656327e-014 -1.0 -2.73451295277469e-014
  outer loop
    vertex 534.257577596584 -1744.19074177223 505.984
    vertex 541.210510925512 -1744.19074177223 509.693629803994
    vertex 540.757577596583 -1744.19074177223 509.634
  endloop
endfacet
facet normal -5.5531647656327e-014 -1.0 -2.73451295277469e-014
  outer loop
    vertex 534.257577596584 -1744.19074177223 505.984
    vertex 540.757577596583 -1744.19074177223 509.634
    vertex 540.304644267654 -1744.19074177223 509.693629803994
  endloop
endfacet
facet normal -5.5531647656327e-014 -1.0 -2.73451295277469e-014
  outer loop
    vertex 534.257577596584 -1744.19074177223 505.984
    vertex 540.304644267654 -1744.19074177223 509.693629803994
    vertex 539.882577596583 -1744.19074177223 509.868455543377
  endloop
endfacet
facet normal -5.5531647656327e-014 -1.0 -2.73451295277469e-014
  outer loop
    vertex 534.257577596584 -1744.19074177223 505.984
    vertex 539.882577596583 -1744.19074177223 509.868455543377
    vertex 539.520140729507 -1744.19074177223 510.146563132924
  endloop
endfacet
facet normal -5.5531647656327e-014 -1.0 -2.73451295277469e-014
  outer loop
    vertex 534.257577596584 -1744.19074177223 505.984
    vertex 539.520140729507 -1744.19074177223 510.146563132924
    vertex 539.242033139959 -1744.19074177223 510.509
  endloop
endfacet
facet normal -5.5531647656327e-014 -1.0 -2.73451295277469e-014
  outer loop
    vertex 534.257577596584 -1744.19074177223 505.984
    vertex 539.242033139959 -1744.19074177223 510.509
    vertex 539.067207400577 -1744.19074177223 510.931066671071
  endloop
endfacet
facet normal -5.5531647656327e-014 -1.0 -2.73451295277469e-014
  outer loop
    vertex 534.257577596584 -1744.19074177223 505.984
    vertex 539.067207400577 -1744.19074177223 510.931066671071
    vertex 539.007577596582 -1744.19074177223 511.384
  endloop
endfacet
facet normal -5.5531647656327e-014 -1.0 -2.73451295277469e-014
  outer loop
    vertex 542.507577596582 -1744.19074177223 525.384
    vertex 542.447947792588 -1744.19074177223 511.83693332893
    vertex 542.507577596582 -1744.19074177223 511.384
  endloop
endfacet
facet normal -5.5531647656327e-014 -1.0 -2.73451295277469e-014
  outer loop
    vertex 542.447947792588 -1744.19074177223 511.83693332893
    vertex 542.507577596582 -1744.19074177223 525.384
    vertex 542.447947792588 -1744.19074177223 524.931066671071
  endloop
endfacet
facet normal -5.5531647656327e-014 -1.0 -2.73451295277469e-014
  outer loop
    vertex 542.447947792588 -1744.19074177223 511.83693332893
    vertex 542.447947792588 -1744.19074177223 524.931066671071
    vertex 542.273122053206 -1744.19074177223 524.509
  endloop
endfacet
facet normal -5.5531647656327e-014 -1.0 -2.73451295277469e-014
  outer loop
    vertex 542.447947792588 -1744.19074177223 511.83693332893
    vertex 542.273122053206 -1744.19074177223 524.509
    vertex 542.273122053205 -1744.19074177223 512.259
  endloop
endfacet
facet normal -5.5531647656327e-014 -1.0 -2.73451295277469e-014
  outer loop
    vertex 542.273122053205 -1744.19074177223 512.259
    vertex 542.273122053206 -1744.19074177223 524.509
    vertex 541.995014463659 -1744.19074177223 524.146563132924
  endloop
endfacet
facet normal -5.5531647656327e-014 -1.0 -2.73451295277469e-014
  outer loop
    vertex 542.273122053205 -1744.19074177223 512.259
    vertex 541.995014463659 -1744.19074177223 524.146563132924
    vertex 541.99501446366 -1744.19074177223 512.621436867077
  endloop
endfacet
facet normal -5.5531647656327e-014 -1.0 -2.73451295277469e-014
  outer loop
    vertex 541.99501446366 -1744.19074177223 512.621436867077
    vertex 541.995014463659 -1744.19074177223 524.146563132924
    vertex 541.632577596582 -1744.19074177223 512.899544456623
  endloop
endfacet
facet normal -5.5531647656327e-014 -1.0 -2.73451295277469e-014
  outer loop
    vertex 541.632577596582 -1744.19074177223 512.899544456623
    vertex 541.995014463659 -1744.19074177223 524.146563132924
    vertex 541.632577596582 -1744.19074177223 523.868455543377
  endloop
endfacet
facet normal -5.5531647656327e-014 -1.0 -2.73451295277469e-014
  outer loop
    vertex 541.632577596582 -1744.19074177223 512.899544456623
    vertex 541.632577596582 -1744.19074177223 523.868455543377
    vertex 541.210510925512 -1744.19074177223 523.693629803994
  endloop
endfacet
facet normal -5.5531647656327e-014 -1.0 -2.73451295277469e-014
  outer loop
    vertex 541.632577596582 -1744.19074177223 512.899544456623
    vertex 541.210510925512 -1744.19074177223 523.693629803994
    vertex 541.210510925512 -1744.19074177223 513.074370196006
  endloop
endfacet
facet normal -5.5531647656327e-014 -1.0 -2.73451295277469e-014
  outer loop
    vertex 541.210510925512 -1744.19074177223 513.074370196006
    vertex 541.210510925512 -1744.19074177223 523.693629803994
    vertex 540.757577596583 -1744.19074177223 523.634
  endloop
endfacet
facet normal -5.5531647656327e-014 -1.0 -2.73451295277469e-014
  outer loop
    vertex 541.210510925512 -1744.19074177223 513.074370196006
    vertex 540.757577596583 -1744.19074177223 523.634
    vertex 540.757577596583 -1744.19074177223 513.134
  endloop
endfacet
facet normal -5.5531647656327e-014 -1.0 -2.73451295277469e-014
  outer loop
    vertex 540.757577596583 -1744.19074177223 513.134
    vertex 540.757577596583 -1744.19074177223 523.634
    vertex 540.304644267654 -1744.19074177223 523.693629803994
  endloop
endfacet
facet normal -5.5531647656327e-014 -1.0 -2.73451295277469e-014
  outer loop
    vertex 540.757577596583 -1744.19074177223 513.134
    vertex 540.304644267654 -1744.19074177223 523.693629803994
    vertex 540.304644267654 -1744.19074177223 513.074370196006
  endloop
endfacet
facet normal -5.5531647656327e-014 -1.0 -2.73451295277469e-014
  outer loop
    vertex 540.304644267654 -1744.19074177223 513.074370196006
    vertex 540.304644267654 -1744.19074177223 523.693629803994
    vertex 539.882577596583 -1744.19074177223 523.868455543377
  endloop
endfacet
facet normal -5.5531647656327e-014 -1.0 -2.73451295277469e-014
  outer loop
    vertex 540.304644267654 -1744.19074177223 513.074370196006
    vertex 539.882577596583 -1744.19074177223 523.868455543377
    vertex 539.882577596583 -1744.19074177223 512.899544456623
  endloop
endfacet
facet normal -5.5531647656327e-014 -1.0 -2.73451295277469e-014
  outer loop
    vertex 539.882577596583 -1744.19074177223 512.899544456623
    vertex 539.882577596583 -1744.19074177223 523.868455543377
    vertex 539.520140729507 -1744.19074177223 524.146563132924
  endloop
endfacet
facet normal -5.5531647656327e-014 -1.0 -2.73451295277469e-014
  outer loop
    vertex 539.882577596583 -1744.19074177223 512.899544456623
    vertex 539.520140729507 -1744.19074177223 524.146563132924
    vertex 539.520140729507 -1744.19074177223 512.621436867077
  endloop
endfacet
facet normal -5.5531647656327e-014 -1.0 -2.73451295277469e-014
  outer loop
    vertex 539.520140729507 -1744.19074177223 512.621436867077
    vertex 539.520140729507 -1744.19074177223 524.146563132924
    vertex 539.242033139959 -1744.19074177223 524.509
  endloop
endfacet
facet normal -5.5531647656327e-014 -1.0 -2.73451295277469e-014
  outer loop
    vertex 539.520140729507 -1744.19074177223 512.621436867077
    vertex 539.242033139959 -1744.19074177223 524.509
    vertex 539.242033139959 -1744.19074177223 512.259
  endloop
endfacet
facet normal -5.5531647656327e-014 -1.0 -2.73451295277469e-014
  outer loop
    vertex 539.242033139959 -1744.19074177223 512.259
    vertex 539.242033139959 -1744.19074177223 524.509
    vertex 539.067207400577 -1744.19074177223 524.931066671071
  endloop
endfacet
facet normal -5.5531647656327e-014 -1.0 -2.73451295277469e-014
  outer loop
    vertex 539.242033139959 -1744.19074177223 512.259
    vertex 539.067207400577 -1744.19074177223 524.931066671071
    vertex 539.067207400577 -1744.19074177223 511.83693332893
  endloop
endfacet
facet normal -5.5531647656327e-014 -1.0 -2.73451295277469e-014
  outer loop
    vertex 539.067207400577 -1744.19074177223 511.83693332893
    vertex 539.067207400577 -1744.19074177223 524.931066671071
    vertex 539.007577596582 -1744.19074177223 525.384
  endloop
endfacet
facet normal -5.5531647656327e-014 -1.0 -2.73451295277469e-014
  outer loop
    vertex 539.067207400577 -1744.19074177223 511.83693332893
    vertex 539.007577596582 -1744.19074177223 525.384
    vertex 539.007577596582 -1744.19074177223 511.384
  endloop
endfacet
facet normal 1.38829119140783e-014 -5.41433564649171e-014 1.0
  outer loop
    vertex 547.25757759658 -1739.19074177223 532.384000000001
    vertex 534.257577596579 -1744.19074177223 532.384
    vertex 547.257577596579 -1744.19074177223 532.384
  endloop
endfacet
facet normal 1.38829119140783e-014 -5.41433564649171e-014 1.0
  outer loop
    vertex 534.257577596579 -1744.19074177223 532.384
    vertex 547.25757759658 -1739.19074177223 532.384000000001
    vertex 534.257577596579 -1739.19074177223 532.384000000001
  endloop
endfacet
facet normal 0.130526192220165 -6.07475521988501e-014 0.991444861373796
  outer loop
    vertex 540.757577596583 -1744.19074177223 509.634
    vertex 540.304644267654 -1739.19074177223 509.693629803995
    vertex 540.304644267654 -1744.19074177223 509.693629803994
  endloop
endfacet
facet normal 0.130526192220165 -6.07475521988501e-014 0.991444861373796
  outer loop
    vertex 540.304644267654 -1739.19074177223 509.693629803995
    vertex 540.757577596583 -1744.19074177223 509.634
    vertex 540.757577596583 -1739.19074177223 509.634000000001
  endloop
endfacet
facet normal 0.382683432364663 -7.07414484959608e-014 0.923879532511463
  outer loop
    vertex 540.304644267654 -1744.19074177223 509.693629803994
    vertex 539.882577596583 -1739.19074177223 509.868455543378
    vertex 539.882577596583 -1744.19074177223 509.868455543377
  endloop
endfacet
facet normal 0.382683432364663 -7.07414484959608e-014 0.923879532511463
  outer loop
    vertex 539.882577596583 -1739.19074177223 509.868455543378
    vertex 540.304644267654 -1744.19074177223 509.693629803994
    vertex 540.304644267654 -1739.19074177223 509.693629803995
  endloop
endfacet
facet normal 0.608761429009216 -7.59164112823558e-014 0.793353340290855
  outer loop
    vertex 539.882577596583 -1739.19074177223 509.868455543378
    vertex 539.520140729507 -1744.19074177223 510.146563132924
    vertex 539.882577596583 -1744.19074177223 509.868455543377
  endloop
endfacet
facet normal 0.608761429009216 -7.59164112823558e-014 0.793353340290855
  outer loop
    vertex 539.520140729507 -1744.19074177223 510.146563132924
    vertex 539.882577596583 -1739.19074177223 509.868455543378
    vertex 539.520140729507 -1739.19074177223 510.146563132924
  endloop
endfacet
facet normal 0.793353340289908 -7.591078498047e-014 0.60876142901045
  outer loop
    vertex 539.520140729507 -1739.19074177223 510.146563132924
    vertex 539.242033139959 -1744.19074177223 510.509
    vertex 539.520140729507 -1744.19074177223 510.146563132924
  endloop
endfacet
facet normal 0.793353340289908 -7.591078498047e-014 0.60876142901045
  outer loop
    vertex 539.242033139959 -1744.19074177223 510.509
    vertex 539.520140729507 -1739.19074177223 510.146563132924
    vertex 539.24203313996 -1739.19074177223 510.509000000001
  endloop
endfacet
facet normal 0.923879532512186 -7.07429254163411e-014 0.382683432362919
  outer loop
    vertex 539.24203313996 -1739.19074177223 510.509000000001
    vertex 539.067207400577 -1744.19074177223 510.931066671071
    vertex 539.242033139959 -1744.19074177223 510.509
  endloop
endfacet
facet normal 0.923879532512186 -7.07429254163411e-014 0.382683432362919
  outer loop
    vertex 539.067207400577 -1744.19074177223 510.931066671071
    vertex 539.24203313996 -1739.19074177223 510.509000000001
    vertex 539.067207400578 -1739.19074177223 510.931066671071
  endloop
endfacet
facet normal 0.991444861373364 -6.07472117202342e-014 0.130526192223441
  outer loop
    vertex 539.067207400578 -1739.19074177223 510.931066671071
    vertex 539.007577596582 -1744.19074177223 511.384
    vertex 539.067207400577 -1744.19074177223 510.931066671071
  endloop
endfacet
facet normal 0.991444861373364 -6.07472117202342e-014 0.130526192223441
  outer loop
    vertex 539.007577596582 -1744.19074177223 511.384
    vertex 539.067207400578 -1739.19074177223 510.931066671071
    vertex 539.007577596582 -1739.19074177223 511.384000000001
  endloop
endfacet
facet normal 0.991444861373364 -4.66130916916769e-014 -0.130526192223441
  outer loop
    vertex 539.007577596582 -1739.19074177223 511.384000000001
    vertex 539.067207400577 -1744.19074177223 511.83693332893
    vertex 539.007577596582 -1744.19074177223 511.384
  endloop
endfacet
facet normal 0.991444861373364 -4.66130916916769e-014 -0.130526192223441
  outer loop
    vertex 539.067207400577 -1744.19074177223 511.83693332893
    vertex 539.007577596582 -1739.19074177223 511.384000000001
    vertex 539.067207400578 -1739.19074177223 511.83693332893
  endloop
endfacet
facet normal 0.923879532512186 -2.93016408070716e-014 -0.382683432362919
  outer loop
    vertex 539.067207400578 -1739.19074177223 511.83693332893
    vertex 539.242033139959 -1744.19074177223 512.259
    vertex 539.067207400577 -1744.19074177223 511.83693332893
  endloop
endfacet
facet normal 0.923879532512186 -2.93016408070716e-014 -0.382683432362919
  outer loop
    vertex 539.242033139959 -1744.19074177223 512.259
    vertex 539.067207400578 -1739.19074177223 511.83693332893
    vertex 539.24203313996 -1739.19074177223 512.259
  endloop
endfacet
facet normal 0.793353340289908 -9.99233108400413e-015 -0.60876142901045
  outer loop
    vertex 539.24203313996 -1739.19074177223 512.259
    vertex 539.520140729507 -1744.19074177223 512.621436867077
    vertex 539.242033139959 -1744.19074177223 512.259
  endloop
endfacet
facet normal 0.793353340289908 -9.99233108400413e-015 -0.60876142901045
  outer loop
    vertex 539.520140729507 -1744.19074177223 512.621436867077
    vertex 539.24203313996 -1739.19074177223 512.259
    vertex 539.520140729507 -1739.19074177223 512.621436867077
  endloop
endfacet
facet normal 0.608761429009216 9.99411340038039e-015 -0.793353340290855
  outer loop
    vertex 539.520140729507 -1744.19074177223 512.621436867077
    vertex 539.882577596583 -1739.19074177223 512.899544456623
    vertex 539.882577596583 -1744.19074177223 512.899544456623
  endloop
endfacet
facet normal 0.608761429009216 9.99411340038039e-015 -0.793353340290855
  outer loop
    vertex 539.882577596583 -1739.19074177223 512.899544456623
    vertex 539.520140729507 -1744.19074177223 512.621436867077
    vertex 539.520140729507 -1739.19074177223 512.621436867077
  endloop
endfacet
facet normal 0.382683432364663 2.93025636633745e-014 -0.923879532511463
  outer loop
    vertex 539.882577596583 -1739.19074177223 512.899544456623
    vertex 540.304644267654 -1744.19074177223 513.074370196006
    vertex 539.882577596583 -1744.19074177223 512.899544456623
  endloop
endfacet
facet normal 0.382683432364663 2.93025636633745e-014 -0.923879532511463
  outer loop
    vertex 540.304644267654 -1744.19074177223 513.074370196006
    vertex 539.882577596583 -1739.19074177223 512.899544456623
    vertex 540.304644267654 -1739.19074177223 513.074370196006
  endloop
endfacet
facet normal 0.130526192220165 4.66127883845665e-014 -0.991444861373796
  outer loop
    vertex 540.304644267654 -1739.19074177223 513.074370196006
    vertex 540.757577596583 -1744.19074177223 513.134
    vertex 540.304644267654 -1744.19074177223 513.074370196006
  endloop
endfacet
facet normal 0.130526192220165 4.66127883845665e-014 -0.991444861373796
  outer loop
    vertex 540.757577596583 -1744.19074177223 513.134
    vertex 540.304644267654 -1739.19074177223 513.074370196006
    vertex 540.757577596583 -1739.19074177223 513.134
  endloop
endfacet
facet normal -0.130526192220293 6.07471435525407e-014 -0.991444861373779
  outer loop
    vertex 540.757577596583 -1744.19074177223 513.134
    vertex 541.210510925512 -1739.19074177223 513.074370196006
    vertex 541.210510925512 -1744.19074177223 513.074370196006
  endloop
endfacet
facet normal -0.130526192220293 6.07471435525407e-014 -0.991444861373779
  outer loop
    vertex 541.210510925512 -1739.19074177223 513.074370196006
    vertex 540.757577596583 -1744.19074177223 513.134
    vertex 540.757577596583 -1739.19074177223 513.134
  endloop
endfacet
facet normal -0.382683432365292 7.07406361021709e-014 -0.923879532511203
  outer loop
    vertex 541.210510925512 -1744.19074177223 513.074370196006
    vertex 541.632577596582 -1739.19074177223 512.899544456623
    vertex 541.632577596582 -1744.19074177223 512.899544456623
  endloop
endfacet
facet normal -0.382683432365292 7.07406361021709e-014 -0.923879532511203
  outer loop
    vertex 541.632577596582 -1739.19074177223 512.899544456623
    vertex 541.210510925512 -1744.19074177223 513.074370196006
    vertex 541.210510925512 -1739.19074177223 513.074370196006
  endloop
endfacet
facet normal -0.608761429007594 7.59130979427521e-014 -0.7933533402921
  outer loop
    vertex 541.632577596582 -1739.19074177223 512.899544456623
    vertex 541.99501446366 -1744.19074177223 512.621436867077
    vertex 541.632577596582 -1744.19074177223 512.899544456623
  endloop
endfacet
facet normal -0.608761429007594 7.59130979427521e-014 -0.7933533402921
  outer loop
    vertex 541.99501446366 -1744.19074177223 512.621436867077
    vertex 541.632577596582 -1739.19074177223 512.899544456623
    vertex 541.99501446366 -1739.19074177223 512.621436867077
  endloop
endfacet
facet normal -0.793353340291911 7.59165044931831e-014 -0.608761429007839
  outer loop
    vertex 541.99501446366 -1744.19074177223 512.621436867077
    vertex 542.273122053206 -1739.19074177223 512.259
    vertex 542.273122053205 -1744.19074177223 512.259
  endloop
endfacet
facet normal -0.793353340291911 7.59165044931831e-014 -0.608761429007839
  outer loop
    vertex 542.273122053206 -1739.19074177223 512.259
    vertex 541.99501446366 -1744.19074177223 512.621436867077
    vertex 541.99501446366 -1739.19074177223 512.621436867077
  endloop
endfacet
facet normal -0.923879532511418 7.07410422990619e-014 -0.382683432364774
  outer loop
    vertex 542.273122053205 -1744.19074177223 512.259
    vertex 542.447947792588 -1739.19074177223 511.83693332893
    vertex 542.447947792588 -1744.19074177223 511.83693332893
  endloop
endfacet
facet normal -0.923879532511418 7.07410422990619e-014 -0.382683432364774
  outer loop
    vertex 542.447947792588 -1739.19074177223 511.83693332893
    vertex 542.273122053205 -1744.19074177223 512.259
    vertex 542.273122053206 -1739.19074177223 512.259
  endloop
endfacet
facet normal -0.991444861373773 6.07472736166407e-014 -0.130526192220334
  outer loop
    vertex 542.447947792588 -1744.19074177223 511.83693332893
    vertex 542.507577596583 -1739.19074177223 511.384000000001
    vertex 542.507577596582 -1744.19074177223 511.384
  endloop
endfacet
facet normal -0.991444861373773 6.07472736166407e-014 -0.130526192220334
  outer loop
    vertex 542.507577596583 -1739.19074177223 511.384000000001
    vertex 542.447947792588 -1744.19074177223 511.83693332893
    vertex 542.447947792588 -1739.19074177223 511.83693332893
  endloop
endfacet
facet normal -0.991444861373773 4.66127883845536e-014 0.130526192220334
  outer loop
    vertex 542.507577596582 -1744.19074177223 511.384
    vertex 542.447947792588 -1739.19074177223 510.931066671071
    vertex 542.447947792588 -1744.19074177223 510.931066671071
  endloop
endfacet
facet normal -0.991444861373773 4.66127883845536e-014 0.130526192220334
  outer loop
    vertex 542.447947792588 -1739.19074177223 510.931066671071
    vertex 542.507577596582 -1744.19074177223 511.384
    vertex 542.507577596583 -1739.19074177223 511.384000000001
  endloop
endfacet
facet normal -0.923879532511418 2.930082841315e-014 0.382683432364774
  outer loop
    vertex 542.447947792588 -1744.19074177223 510.931066671071
    vertex 542.273122053206 -1739.19074177223 510.509000000001
    vertex 542.273122053205 -1744.19074177223 510.509
  endloop
endfacet
facet normal -0.923879532511418 2.930082841315e-014 0.382683432364774
  outer loop
    vertex 542.273122053206 -1739.19074177223 510.509000000001
    vertex 542.447947792588 -1744.19074177223 510.931066671071
    vertex 542.447947792588 -1739.19074177223 510.931066671071
  endloop
endfacet
facet normal -0.793353340291912 9.99516052283921e-015 0.608761429007839
  outer loop
    vertex 542.273122053205 -1744.19074177223 510.509
    vertex 541.99501446366 -1739.19074177223 510.146563132924
    vertex 541.99501446366 -1744.19074177223 510.146563132924
  endloop
endfacet
facet normal -0.793353340291912 9.99516052283921e-015 0.608761429007839
  outer loop
    vertex 541.99501446366 -1739.19074177223 510.146563132924
    vertex 542.273122053205 -1744.19074177223 510.509
    vertex 542.273122053206 -1739.19074177223 510.509000000001
  endloop
endfacet
facet normal -0.608761429007594 -9.99128396196662e-015 0.7933533402921
  outer loop
    vertex 541.99501446366 -1744.19074177223 510.146563132924
    vertex 541.632577596582 -1739.19074177223 509.868455543378
    vertex 541.632577596582 -1744.19074177223 509.868455543377
  endloop
endfacet
facet normal -0.608761429007594 -9.99128396196662e-015 0.7933533402921
  outer loop
    vertex 541.632577596582 -1739.19074177223 509.868455543378
    vertex 541.99501446366 -1744.19074177223 510.146563132924
    vertex 541.99501446366 -1739.19074177223 510.146563132924
  endloop
endfacet
facet normal -0.382683432365292 -2.93023053335739e-014 0.923879532511203
  outer loop
    vertex 541.632577596582 -1739.19074177223 509.868455543378
    vertex 541.210510925512 -1744.19074177223 509.693629803994
    vertex 541.632577596582 -1744.19074177223 509.868455543377
  endloop
endfacet
facet normal -0.382683432365292 -2.93023053335739e-014 0.923879532511203
  outer loop
    vertex 541.210510925512 -1744.19074177223 509.693629803994
    vertex 541.632577596582 -1739.19074177223 509.868455543378
    vertex 541.210510925512 -1739.19074177223 509.693629803995
  endloop
endfacet
facet normal -0.130526192220293 -4.66132154848916e-014 0.991444861373779
  outer loop
    vertex 541.210510925512 -1739.19074177223 509.693629803995
    vertex 540.757577596583 -1744.19074177223 509.634
    vertex 541.210510925512 -1744.19074177223 509.693629803994
  endloop
endfacet
facet normal -0.130526192220293 -4.66132154848916e-014 0.991444861373779
  outer loop
    vertex 540.757577596583 -1744.19074177223 509.634
    vertex 541.210510925512 -1739.19074177223 509.693629803995
    vertex 540.757577596583 -1739.19074177223 509.634000000001
  endloop
endfacet
facet normal 0.130526192220165 4.66127883845665e-014 -0.991444861373796
  outer loop
    vertex 540.304644267654 -1739.19074177223 527.074370196006
    vertex 540.757577596583 -1744.19074177223 527.134
    vertex 540.304644267654 -1744.19074177223 527.074370196006
  endloop
endfacet
facet normal 0.130526192220165 4.66127883845665e-014 -0.991444861373796
  outer loop
    vertex 540.757577596583 -1744.19074177223 527.134
    vertex 540.304644267654 -1739.19074177223 527.074370196006
    vertex 540.757577596583 -1739.19074177223 527.134
  endloop
endfacet
facet normal -0.130526192220293 6.07471435525407e-014 -0.991444861373779
  outer loop
    vertex 540.757577596583 -1744.19074177223 527.134
    vertex 541.210510925512 -1739.19074177223 527.074370196006
    vertex 541.210510925512 -1744.19074177223 527.074370196006
  endloop
endfacet
facet normal -0.130526192220293 6.07471435525407e-014 -0.991444861373779
  outer loop
    vertex 541.210510925512 -1739.19074177223 527.074370196006
    vertex 540.757577596583 -1744.19074177223 527.134
    vertex 540.757577596583 -1739.19074177223 527.134
  endloop
endfacet
facet normal -0.382683432365292 7.07406361021733e-014 -0.923879532511203
  outer loop
    vertex 541.210510925512 -1744.19074177223 527.074370196006
    vertex 541.632577596582 -1739.19074177223 526.899544456623
    vertex 541.632577596582 -1744.19074177223 526.899544456623
  endloop
endfacet
facet normal -0.382683432365292 7.07406361021733e-014 -0.923879532511203
  outer loop
    vertex 541.632577596582 -1739.19074177223 526.899544456623
    vertex 541.210510925512 -1744.19074177223 527.074370196006
    vertex 541.210510925512 -1739.19074177223 527.074370196006
  endloop
endfacet
facet normal -0.608761429007785 7.59138331366443e-014 -0.793353340291953
  outer loop
    vertex 541.632577596582 -1739.19074177223 526.899544456623
    vertex 541.995014463659 -1744.19074177223 526.621436867077
    vertex 541.632577596582 -1744.19074177223 526.899544456623
  endloop
endfacet
facet normal -0.608761429007785 7.59138331366443e-014 -0.793353340291953
  outer loop
    vertex 541.995014463659 -1744.19074177223 526.621436867077
    vertex 541.632577596582 -1739.19074177223 526.899544456623
    vertex 541.99501446366 -1739.19074177223 526.621436867077
  endloop
endfacet
facet normal -0.793353340291434 7.5913316660411e-014 -0.608761429008461
  outer loop
    vertex 541.995014463659 -1744.19074177223 526.621436867077
    vertex 542.273122053206 -1739.19074177223 526.259
    vertex 542.273122053206 -1744.19074177223 526.259
  endloop
endfacet
facet normal -0.793353340291434 7.5913316660411e-014 -0.608761429008461
  outer loop
    vertex 542.273122053206 -1739.19074177223 526.259
    vertex 541.995014463659 -1744.19074177223 526.621436867077
    vertex 541.99501446366 -1739.19074177223 526.621436867077
  endloop
endfacet
facet normal -0.923879532511627 7.07425192195025e-014 -0.382683432364268
  outer loop
    vertex 542.273122053206 -1744.19074177223 526.259
    vertex 542.447947792588 -1739.19074177223 525.83693332893
    vertex 542.447947792588 -1744.19074177223 525.83693332893
  endloop
endfacet
facet normal -0.923879532511627 7.07425192195025e-014 -0.382683432364268
  outer loop
    vertex 542.447947792588 -1739.19074177223 525.83693332893
    vertex 542.273122053206 -1744.19074177223 526.259
    vertex 542.273122053206 -1739.19074177223 526.259
  endloop
endfacet
facet normal -0.991444861373799 6.07472736166316e-014 -0.13052619222014
  outer loop
    vertex 542.447947792588 -1744.19074177223 525.83693332893
    vertex 542.507577596583 -1739.19074177223 525.384
    vertex 542.507577596582 -1744.19074177223 525.384
  endloop
endfacet
facet normal -0.991444861373799 6.07472736166316e-014 -0.13052619222014
  outer loop
    vertex 542.507577596583 -1739.19074177223 525.384
    vertex 542.447947792588 -1744.19074177223 525.83693332893
    vertex 542.447947792588 -1739.19074177223 525.83693332893
  endloop
endfacet
facet normal -0.991444861373799 4.66127883845681e-014 0.13052619222014
  outer loop
    vertex 542.507577596582 -1744.19074177223 525.384
    vertex 542.447947792588 -1739.19074177223 524.931066671071
    vertex 542.447947792588 -1744.19074177223 524.931066671071
  endloop
endfacet
facet normal -0.991444861373799 4.66127883845681e-014 0.13052619222014
  outer loop
    vertex 542.447947792588 -1739.19074177223 524.931066671071
    vertex 542.507577596582 -1744.19074177223 525.384
    vertex 542.507577596583 -1739.19074177223 525.384
  endloop
endfacet
facet normal -0.923879532511627 2.93023053336465e-014 0.382683432364268
  outer loop
    vertex 542.447947792588 -1744.19074177223 524.931066671071
    vertex 542.273122053206 -1739.19074177223 524.509
    vertex 542.273122053206 -1744.19074177223 524.509
  endloop
endfacet
facet normal -0.923879532511627 2.93023053336465e-014 0.382683432364268
  outer loop
    vertex 542.273122053206 -1739.19074177223 524.509
    vertex 542.447947792588 -1744.19074177223 524.931066671071
    vertex 542.447947792588 -1739.19074177223 524.931066671071
  endloop
endfacet
facet normal -0.793353340291434 9.99759899188783e-015 0.608761429008461
  outer loop
    vertex 542.273122053206 -1744.19074177223 524.509
    vertex 541.99501446366 -1739.19074177223 524.146563132924
    vertex 541.995014463659 -1744.19074177223 524.146563132924
  endloop
endfacet
facet normal -0.793353340291434 9.99759899188783e-015 0.608761429008461
  outer loop
    vertex 541.99501446366 -1739.19074177223 524.146563132924
    vertex 542.273122053206 -1744.19074177223 524.509
    vertex 542.273122053206 -1739.19074177223 524.509
  endloop
endfacet
facet normal -0.608761429007785 -9.99380147204644e-015 0.793353340291953
  outer loop
    vertex 541.995014463659 -1744.19074177223 524.146563132924
    vertex 541.632577596582 -1739.19074177223 523.868455543378
    vertex 541.632577596582 -1744.19074177223 523.868455543377
  endloop
endfacet
facet normal -0.608761429007785 -9.99380147204644e-015 0.793353340291953
  outer loop
    vertex 541.632577596582 -1739.19074177223 523.868455543378
    vertex 541.995014463659 -1744.19074177223 524.146563132924
    vertex 541.99501446366 -1739.19074177223 524.146563132924
  endloop
endfacet
facet normal -0.382683432365292 -2.93023053335763e-014 0.923879532511203
  outer loop
    vertex 541.632577596582 -1739.19074177223 523.868455543378
    vertex 541.210510925512 -1744.19074177223 523.693629803994
    vertex 541.632577596582 -1744.19074177223 523.868455543377
  endloop
endfacet
facet normal -0.382683432365292 -2.93023053335763e-014 0.923879532511203
  outer loop
    vertex 541.210510925512 -1744.19074177223 523.693629803994
    vertex 541.632577596582 -1739.19074177223 523.868455543378
    vertex 541.210510925512 -1739.19074177223 523.693629803995
  endloop
endfacet
facet normal -0.130526192220293 -4.66132154848916e-014 0.991444861373779
  outer loop
    vertex 541.210510925512 -1739.19074177223 523.693629803995
    vertex 540.757577596583 -1744.19074177223 523.634
    vertex 541.210510925512 -1744.19074177223 523.693629803994
  endloop
endfacet
facet normal -0.130526192220293 -4.66132154848916e-014 0.991444861373779
  outer loop
    vertex 540.757577596583 -1744.19074177223 523.634
    vertex 541.210510925512 -1739.19074177223 523.693629803995
    vertex 540.757577596583 -1739.19074177223 523.634000000001
  endloop
endfacet
facet normal 0.130526192220165 -6.07475521988475e-014 0.991444861373796
  outer loop
    vertex 540.757577596583 -1744.19074177223 523.634
    vertex 540.304644267654 -1739.19074177223 523.693629803995
    vertex 540.304644267654 -1744.19074177223 523.693629803994
  endloop
endfacet
facet normal 0.130526192220165 -6.07475521988475e-014 0.991444861373796
  outer loop
    vertex 540.304644267654 -1739.19074177223 523.693629803995
    vertex 540.757577596583 -1744.19074177223 523.634
    vertex 540.757577596583 -1739.19074177223 523.634000000001
  endloop
endfacet
facet normal 0.382683432364663 -7.07414484959584e-014 0.923879532511463
  outer loop
    vertex 540.304644267654 -1744.19074177223 523.693629803994
    vertex 539.882577596583 -1739.19074177223 523.868455543378
    vertex 539.882577596583 -1744.19074177223 523.868455543377
  endloop
endfacet
facet normal 0.382683432364663 -7.07414484959584e-014 0.923879532511463
  outer loop
    vertex 539.882577596583 -1739.19074177223 523.868455543378
    vertex 540.304644267654 -1744.19074177223 523.693629803994
    vertex 540.304644267654 -1739.19074177223 523.693629803995
  endloop
endfacet
facet normal 0.608761429009216 -7.59164112823558e-014 0.793353340290855
  outer loop
    vertex 539.882577596583 -1739.19074177223 523.868455543378
    vertex 539.520140729507 -1744.19074177223 524.146563132924
    vertex 539.882577596583 -1744.19074177223 523.868455543377
  endloop
endfacet
facet normal 0.608761429009216 -7.59164112823558e-014 0.793353340290855
  outer loop
    vertex 539.520140729507 -1744.19074177223 524.146563132924
    vertex 539.882577596583 -1739.19074177223 523.868455543378
    vertex 539.520140729507 -1739.19074177223 524.146563132924
  endloop
endfacet
facet normal 0.793353340289908 -7.59107849804684e-014 0.60876142901045
  outer loop
    vertex 539.520140729507 -1739.19074177223 524.146563132924
    vertex 539.242033139959 -1744.19074177223 524.509
    vertex 539.520140729507 -1744.19074177223 524.146563132924
  endloop
endfacet
facet normal 0.793353340289908 -7.59107849804684e-014 0.60876142901045
  outer loop
    vertex 539.242033139959 -1744.19074177223 524.509
    vertex 539.520140729507 -1739.19074177223 524.146563132924
    vertex 539.24203313996 -1739.19074177223 524.509
  endloop
endfacet
facet normal 0.923879532512186 -7.07429254163411e-014 0.382683432362919
  outer loop
    vertex 539.24203313996 -1739.19074177223 524.509
    vertex 539.067207400577 -1744.19074177223 524.931066671071
    vertex 539.242033139959 -1744.19074177223 524.509
  endloop
endfacet
facet normal 0.923879532512186 -7.07429254163411e-014 0.382683432362919
  outer loop
    vertex 539.067207400577 -1744.19074177223 524.931066671071
    vertex 539.24203313996 -1739.19074177223 524.509
    vertex 539.067207400578 -1739.19074177223 524.931066671071
  endloop
endfacet
facet normal 0.991444861373364 -6.07472117202342e-014 0.130526192223441
  outer loop
    vertex 539.067207400578 -1739.19074177223 524.931066671071
    vertex 539.007577596582 -1744.19074177223 525.384
    vertex 539.067207400577 -1744.19074177223 524.931066671071
  endloop
endfacet
facet normal 0.991444861373364 -6.07472117202342e-014 0.130526192223441
  outer loop
    vertex 539.007577596582 -1744.19074177223 525.384
    vertex 539.067207400578 -1739.19074177223 524.931066671071
    vertex 539.007577596582 -1739.19074177223 525.384
  endloop
endfacet
facet normal 0.991444861373364 -4.66130916916769e-014 -0.130526192223441
  outer loop
    vertex 539.007577596582 -1739.19074177223 525.384
    vertex 539.067207400577 -1744.19074177223 525.83693332893
    vertex 539.007577596582 -1744.19074177223 525.384
  endloop
endfacet
facet normal 0.991444861373364 -4.66130916916769e-014 -0.130526192223441
  outer loop
    vertex 539.067207400577 -1744.19074177223 525.83693332893
    vertex 539.007577596582 -1739.19074177223 525.384
    vertex 539.067207400578 -1739.19074177223 525.83693332893
  endloop
endfacet
facet normal 0.923879532512186 -2.93016408070716e-014 -0.382683432362919
  outer loop
    vertex 539.067207400578 -1739.19074177223 525.83693332893
    vertex 539.242033139959 -1744.19074177223 526.259
    vertex 539.067207400577 -1744.19074177223 525.83693332893
  endloop
endfacet
facet normal 0.923879532512186 -2.93016408070716e-014 -0.382683432362919
  outer loop
    vertex 539.242033139959 -1744.19074177223 526.259
    vertex 539.067207400578 -1739.19074177223 525.83693332893
    vertex 539.24203313996 -1739.19074177223 526.259
  endloop
endfacet
facet normal 0.793353340289908 -9.99403435921241e-015 -0.60876142901045
  outer loop
    vertex 539.24203313996 -1739.19074177223 526.259
    vertex 539.520140729507 -1744.19074177223 526.621436867077
    vertex 539.242033139959 -1744.19074177223 526.259
  endloop
endfacet
facet normal 0.793353340289908 -9.99403435921241e-015 -0.60876142901045
  outer loop
    vertex 539.520140729507 -1744.19074177223 526.621436867077
    vertex 539.24203313996 -1739.19074177223 526.259
    vertex 539.520140729507 -1739.19074177223 526.621436867077
  endloop
endfacet
facet normal 0.608761429009216 9.99411340038039e-015 -0.793353340290855
  outer loop
    vertex 539.520140729507 -1744.19074177223 526.621436867077
    vertex 539.882577596583 -1739.19074177223 526.899544456623
    vertex 539.882577596583 -1744.19074177223 526.899544456623
  endloop
endfacet
facet normal 0.608761429009216 9.99411340038039e-015 -0.793353340290855
  outer loop
    vertex 539.882577596583 -1739.19074177223 526.899544456623
    vertex 539.520140729507 -1744.19074177223 526.621436867077
    vertex 539.520140729507 -1739.19074177223 526.621436867077
  endloop
endfacet
facet normal 0.382683432364663 2.93025636633721e-014 -0.923879532511463
  outer loop
    vertex 539.882577596583 -1739.19074177223 526.899544456623
    vertex 540.304644267654 -1744.19074177223 527.074370196006
    vertex 539.882577596583 -1744.19074177223 526.899544456623
  endloop
endfacet
facet normal 0.382683432364663 2.93025636633721e-014 -0.923879532511463
  outer loop
    vertex 540.304644267654 -1744.19074177223 527.074370196006
    vertex 539.882577596583 -1739.19074177223 526.899544456623
    vertex 540.304644267654 -1739.19074177223 527.074370196006
  endloop
endfacet
facet normal -1.0 3.81586003462411e-014 -1.9155147490556e-013
  outer loop
    vertex 534.257577596587 -1739.19074177223 494.984
    vertex 534.257577596584 -1748.19074177223 502.984000000001
    vertex 534.257577596584 -1739.19074177223 505.984
  endloop
endfacet
facet normal -1.0 3.81586003462411e-014 -1.9155147490556e-013
  outer loop
    vertex 534.257577596584 -1748.19074177223 502.984000000001
    vertex 534.257577596587 -1739.19074177223 494.984
    vertex 534.257577596583 -1794.19074177223 494.984
  endloop
endfacet
facet normal -1.0 3.81586003462411e-014 -1.9155147490556e-013
  outer loop
    vertex 534.257577596584 -1748.19074177223 502.984000000001
    vertex 534.257577596583 -1794.19074177223 494.984
    vertex 534.257577596583 -1794.19074177223 502.984000000001
  endloop
endfacet
facet normal -1.0 3.81586003462411e-014 -1.9155147490556e-013
  outer loop
    vertex 534.257577596584 -1739.19074177223 505.984
    vertex 534.257577596584 -1748.19074177223 502.984000000001
    vertex 534.257577596584 -1744.19074177223 505.984
  endloop
endfacet
facet normal -1.0 3.81586003462411e-014 -1.9155147490556e-013
  outer loop
    vertex 534.257577596584 -1739.19074177223 505.984
    vertex 534.257577596584 -1744.19074177223 505.984
    vertex 534.257577596579 -1739.19074177223 532.384000000001
  endloop
endfacet
facet normal -1.0 3.81586003462411e-014 -1.9155147490556e-013
  outer loop
    vertex 534.257577596579 -1739.19074177223 532.384000000001
    vertex 534.257577596584 -1744.19074177223 505.984
    vertex 534.257577596579 -1744.19074177223 532.384
  endloop
endfacet
facet normal 6.34638598250304e-028 1.0 -3.28141554332854e-014
  outer loop
    vertex 534.257577596587 -1739.19074177223 494.984
    vertex 547.257577596584 -1739.19074177223 505.984
    vertex 547.257577596585 -1739.19074177223 494.984
  endloop
endfacet
facet normal 6.34638598250304e-028 1.0 -3.28141554332854e-014
  outer loop
    vertex 547.257577596584 -1739.19074177223 505.984
    vertex 534.257577596587 -1739.19074177223 494.984
    vertex 534.257577596584 -1739.19074177223 505.984
  endloop
endfacet
facet normal 1.0 -1.8228008123473e-014 1.45803799251624e-013
  outer loop
    vertex 547.257577596585 -1739.19074177223 494.984
    vertex 547.257577596583 -1748.19074177223 502.984
    vertex 547.257577596584 -1794.19074177223 494.984
  endloop
endfacet
facet normal 1.0 -1.8228008123473e-014 1.45803799251624e-013
  outer loop
    vertex 547.257577596583 -1748.19074177223 502.984
    vertex 547.257577596585 -1739.19074177223 494.984
    vertex 547.257577596584 -1739.19074177223 505.984
  endloop
endfacet
facet normal 1.0 -1.8228008123473e-014 1.45803799251624e-013
  outer loop
    vertex 547.257577596583 -1748.19074177223 502.984
    vertex 547.257577596584 -1739.19074177223 505.984
    vertex 547.257577596584 -1744.19074177223 505.984
  endloop
endfacet
facet normal 1.0 -1.8228008123473e-014 1.45803799251624e-013
  outer loop
    vertex 547.257577596584 -1744.19074177223 505.984
    vertex 547.257577596584 -1739.19074177223 505.984
    vertex 547.257577596579 -1744.19074177223 532.384
  endloop
endfacet
facet normal 1.0 -1.8228008123473e-014 1.45803799251624e-013
  outer loop
    vertex 547.257577596579 -1744.19074177223 532.384
    vertex 547.257577596584 -1739.19074177223 505.984
    vertex 547.25757759658 -1739.19074177223 532.384000000001
  endloop
endfacet
facet normal 1.0 -1.8228008123473e-014 1.45803799251624e-013
  outer loop
    vertex 547.257577596584 -1794.19074177223 502.984
    vertex 547.257577596584 -1794.19074177223 494.984
    vertex 547.257577596583 -1748.19074177223 502.984
  endloop
endfacet
facet normal -8.32824539114883e-015 -0.599999999999856 0.800000000000108
  outer loop
    vertex 547.257577596584 -1744.19074177223 505.984
    vertex 534.257577596584 -1748.19074177223 502.984000000001
    vertex 547.257577596583 -1748.19074177223 502.984
  endloop
endfacet
facet normal -8.32824539114883e-015 -0.599999999999856 0.800000000000108
  outer loop
    vertex 534.257577596584 -1748.19074177223 502.984000000001
    vertex 547.257577596584 -1744.19074177223 505.984
    vertex 534.257577596584 -1744.19074177223 505.984
  endloop
endfacet
facet normal -0.382683432365012 0.923879532511319 1.29247766707901e-018
  outer loop
    vertex 541.210510925513 -1782.88111196823 497.984
    vertex 541.632577596583 -1782.70628622885 502.984
    vertex 541.632577596583 -1782.70628622885 497.984
  endloop
endfacet
facet normal -0.382683432365012 0.923879532511319 1.29247766707901e-018
  outer loop
    vertex 541.632577596583 -1782.70628622885 502.984
    vertex 541.210510925513 -1782.88111196823 497.984
    vertex 541.210510925513 -1782.88111196823 502.984
  endloop
endfacet
facet normal 0.130526192220554 0.991444861373744 -3.4674984733932e-019
  outer loop
    vertex 540.304644267654 -1782.88111196823 497.984
    vertex 540.757577596583 -1782.94074177223 502.984
    vertex 540.757577596583 -1782.94074177223 497.984
  endloop
endfacet
facet normal 0.130526192220554 0.991444861373744 -3.4674984733932e-019
  outer loop
    vertex 540.757577596583 -1782.94074177223 502.984
    vertex 540.304644267654 -1782.88111196823 497.984
    vertex 540.304644267654 -1782.88111196823 502.984
  endloop
endfacet
facet normal -0.130526192220554 0.991444861373744 -3.4674984733932e-019
  outer loop
    vertex 540.757577596583 -1782.94074177223 497.984
    vertex 541.210510925513 -1782.88111196823 502.984
    vertex 541.210510925513 -1782.88111196823 497.984
  endloop
endfacet
facet normal -0.130526192220554 0.991444861373744 -3.4674984733932e-019
  outer loop
    vertex 541.210510925513 -1782.88111196823 502.984
    vertex 540.757577596583 -1782.94074177223 497.984
    vertex 540.757577596583 -1782.94074177223 502.984
  endloop
endfacet
facet normal -0.130526192219777 -0.991444861373847 0.0
  outer loop
    vertex 540.757577596583 -1779.44074177223 502.984
    vertex 541.210510925513 -1779.50037157622 497.984
    vertex 541.210510925513 -1779.50037157622 502.984
  endloop
endfacet
facet normal -0.130526192219777 -0.991444861373847 0.0
  outer loop
    vertex 541.210510925513 -1779.50037157622 497.984
    vertex 540.757577596583 -1779.44074177223 502.984
    vertex 540.757577596583 -1779.44074177223 497.984
  endloop
endfacet
facet normal -0.991444861373744 0.130526192220554 0.0
  outer loop
    vertex 542.447947792589 -1781.64367510115 502.984
    vertex 542.507577596583 -1781.19074177223 497.984
    vertex 542.447947792589 -1781.64367510115 497.984
  endloop
endfacet
facet normal -0.991444861373744 0.130526192220554 0.0
  outer loop
    vertex 542.507577596583 -1781.19074177223 497.984
    vertex 542.447947792589 -1781.64367510115 502.984
    vertex 542.507577596583 -1781.19074177223 502.984
  endloop
endfacet
facet normal -0.923879532511598 0.382683432364338 -4.77927573339736e-058
  outer loop
    vertex 542.273122053207 -1782.06574177223 502.984
    vertex 542.447947792589 -1781.64367510115 497.984
    vertex 542.273122053207 -1782.06574177223 497.984
  endloop
endfacet
facet normal -0.923879532511598 0.382683432364338 -4.77927573339736e-058
  outer loop
    vertex 542.447947792589 -1781.64367510115 497.984
    vertex 542.273122053207 -1782.06574177223 502.984
    vertex 542.447947792589 -1781.64367510115 502.984
  endloop
endfacet
facet normal -0.991444861373758 -0.130526192220452 3.6520386599275e-019
  outer loop
    vertex 542.507577596583 -1781.19074177223 502.984
    vertex 542.447947792589 -1780.7378084433 497.984
    vertex 542.507577596583 -1781.19074177223 497.984
  endloop
endfacet
facet normal -0.991444861373758 -0.130526192220452 3.6520386599275e-019
  outer loop
    vertex 542.447947792589 -1780.7378084433 497.984
    vertex 542.507577596583 -1781.19074177223 502.984
    vertex 542.447947792589 -1780.7378084433 502.984
  endloop
endfacet
facet normal -0.793353340290935 0.608761429009112 -4.77927573339736e-058
  outer loop
    vertex 541.99501446366 -1782.4281786393 502.984
    vertex 542.273122053207 -1782.06574177223 497.984
    vertex 541.99501446366 -1782.4281786393 497.984
  endloop
endfacet
facet normal -0.793353340290935 0.608761429009112 -4.77927573339736e-058
  outer loop
    vertex 542.273122053207 -1782.06574177223 497.984
    vertex 541.99501446366 -1782.4281786393 502.984
    vertex 542.273122053207 -1782.06574177223 502.984
  endloop
endfacet
facet normal -0.923879532511598 -0.382683432364338 -9.55855146679471e-058
  outer loop
    vertex 542.447947792589 -1780.7378084433 502.984
    vertex 542.273122053207 -1780.31574177223 497.984
    vertex 542.447947792589 -1780.7378084433 497.984
  endloop
endfacet
facet normal -0.923879532511598 -0.382683432364338 -9.55855146679471e-058
  outer loop
    vertex 542.273122053207 -1780.31574177223 497.984
    vertex 542.447947792589 -1780.7378084433 502.984
    vertex 542.273122053207 -1780.31574177223 502.984
  endloop
endfacet
facet normal -0.793353340290935 -0.608761429009112 -9.55855146679471e-058
  outer loop
    vertex 542.273122053207 -1780.31574177223 502.984
    vertex 541.99501446366 -1779.95330490515 497.984
    vertex 542.273122053207 -1780.31574177223 497.984
  endloop
endfacet
facet normal -0.793353340290935 -0.608761429009112 -9.55855146679471e-058
  outer loop
    vertex 541.99501446366 -1779.95330490515 497.984
    vertex 542.273122053207 -1780.31574177223 502.984
    vertex 541.99501446366 -1779.95330490515 502.984
  endloop
endfacet
facet normal -0.382683432365012 -0.923879532511319 -1.29247766707901e-018
  outer loop
    vertex 541.210510925513 -1779.50037157622 502.984
    vertex 541.632577596583 -1779.6751973156 497.984
    vertex 541.632577596583 -1779.6751973156 502.984
  endloop
endfacet
facet normal -0.382683432365012 -0.923879532511319 -1.29247766707901e-018
  outer loop
    vertex 541.632577596583 -1779.6751973156 497.984
    vertex 541.210510925513 -1779.50037157622 502.984
    vertex 541.210510925513 -1779.50037157622 497.984
  endloop
endfacet
facet normal 0.130526192219777 -0.991444861373847 9.55855146679471e-058
  outer loop
    vertex 540.304644267654 -1779.50037157622 502.984
    vertex 540.757577596583 -1779.44074177223 497.984
    vertex 540.757577596583 -1779.44074177223 502.984
  endloop
endfacet
facet normal 0.130526192219777 -0.991444861373847 9.55855146679471e-058
  outer loop
    vertex 540.757577596583 -1779.44074177223 497.984
    vertex 540.304644267654 -1779.50037157622 502.984
    vertex 540.304644267654 -1779.50037157622 497.984
  endloop
endfacet
facet normal 0.382683432365012 -0.923879532511319 -1.29247766707901e-018
  outer loop
    vertex 539.882577596584 -1779.6751973156 502.984
    vertex 540.304644267654 -1779.50037157622 497.984
    vertex 540.304644267654 -1779.50037157622 502.984
  endloop
endfacet
facet normal 0.382683432365012 -0.923879532511319 -1.29247766707901e-018
  outer loop
    vertex 540.304644267654 -1779.50037157622 497.984
    vertex 539.882577596584 -1779.6751973156 502.984
    vertex 539.882577596584 -1779.6751973156 497.984
  endloop
endfacet
facet normal 0.608761429008614 -0.793353340291317 2.21975146937025e-018
  outer loop
    vertex 539.520140729507 -1779.95330490515 502.984
    vertex 539.882577596584 -1779.6751973156 497.984
    vertex 539.882577596584 -1779.6751973156 502.984
  endloop
endfacet
facet normal 0.608761429008614 -0.793353340291317 2.21975146937025e-018
  outer loop
    vertex 539.882577596584 -1779.6751973156 497.984
    vertex 539.520140729507 -1779.95330490515 502.984
    vertex 539.520140729507 -1779.95330490515 497.984
  endloop
endfacet
facet normal -0.608761429008614 -0.793353340291317 2.21975146937025e-018
  outer loop
    vertex 541.632577596583 -1779.6751973156 502.984
    vertex 541.99501446366 -1779.95330490515 497.984
    vertex 541.99501446366 -1779.95330490515 502.984
  endloop
endfacet
facet normal -0.608761429008614 -0.793353340291317 2.21975146937025e-018
  outer loop
    vertex 541.99501446366 -1779.95330490515 497.984
    vertex 541.632577596583 -1779.6751973156 502.984
    vertex 541.632577596583 -1779.6751973156 497.984
  endloop
endfacet
facet normal 0.793353340290935 -0.608761429009112 4.77927573339736e-058
  outer loop
    vertex 539.520140729507 -1779.95330490515 502.984
    vertex 539.242033139961 -1780.31574177223 497.984
    vertex 539.520140729507 -1779.95330490515 497.984
  endloop
endfacet
facet normal 0.793353340290935 -0.608761429009112 4.77927573339736e-058
  outer loop
    vertex 539.242033139961 -1780.31574177223 497.984
    vertex 539.520140729507 -1779.95330490515 502.984
    vertex 539.242033139961 -1780.31574177223 502.984
  endloop
endfacet
facet normal -0.608761429008614 0.793353340291317 -2.21975146937025e-018
  outer loop
    vertex 541.632577596583 -1782.70628622885 497.984
    vertex 541.99501446366 -1782.4281786393 502.984
    vertex 541.99501446366 -1782.4281786393 497.984
  endloop
endfacet
facet normal -0.608761429008614 0.793353340291317 -2.21975146937025e-018
  outer loop
    vertex 541.99501446366 -1782.4281786393 502.984
    vertex 541.632577596583 -1782.70628622885 497.984
    vertex 541.632577596583 -1782.70628622885 502.984
  endloop
endfacet
facet normal 0.923879532511598 -0.382683432364338 4.77927573339736e-058
  outer loop
    vertex 539.242033139961 -1780.31574177223 502.984
    vertex 539.067207400578 -1780.7378084433 497.984
    vertex 539.242033139961 -1780.31574177223 497.984
  endloop
endfacet
facet normal 0.923879532511598 -0.382683432364338 4.77927573339736e-058
  outer loop
    vertex 539.067207400578 -1780.7378084433 497.984
    vertex 539.242033139961 -1780.31574177223 502.984
    vertex 539.067207400578 -1780.7378084433 502.984
  endloop
endfacet
facet normal 0.991444861373758 -0.130526192220452 3.6520386599275e-019
  outer loop
    vertex 539.067207400578 -1780.7378084433 502.984
    vertex 539.007577596584 -1781.19074177223 497.984
    vertex 539.067207400578 -1780.7378084433 497.984
  endloop
endfacet
facet normal 0.991444861373758 -0.130526192220452 3.6520386599275e-019
  outer loop
    vertex 539.007577596584 -1781.19074177223 497.984
    vertex 539.067207400578 -1780.7378084433 502.984
    vertex 539.007577596584 -1781.19074177223 502.984
  endloop
endfacet
facet normal 0.991444861373744 0.130526192220554 0.0
  outer loop
    vertex 539.007577596584 -1781.19074177223 502.984
    vertex 539.067207400578 -1781.64367510115 497.984
    vertex 539.007577596584 -1781.19074177223 497.984
  endloop
endfacet
facet normal 0.991444861373744 0.130526192220554 0.0
  outer loop
    vertex 539.067207400578 -1781.64367510115 497.984
    vertex 539.007577596584 -1781.19074177223 502.984
    vertex 539.067207400578 -1781.64367510115 502.984
  endloop
endfacet
facet normal 0.608761429008614 0.793353340291317 -2.21975146937025e-018
  outer loop
    vertex 539.520140729507 -1782.4281786393 497.984
    vertex 539.882577596584 -1782.70628622885 502.984
    vertex 539.882577596584 -1782.70628622885 497.984
  endloop
endfacet
facet normal 0.608761429008614 0.793353340291317 -2.21975146937025e-018
  outer loop
    vertex 539.882577596584 -1782.70628622885 502.984
    vertex 539.520140729507 -1782.4281786393 497.984
    vertex 539.520140729507 -1782.4281786393 502.984
  endloop
endfacet
facet normal 0.923879532511598 0.382683432364338 9.55855146679471e-058
  outer loop
    vertex 539.067207400578 -1781.64367510115 502.984
    vertex 539.242033139961 -1782.06574177223 497.984
    vertex 539.067207400578 -1781.64367510115 497.984
  endloop
endfacet
facet normal 0.923879532511598 0.382683432364338 9.55855146679471e-058
  outer loop
    vertex 539.242033139961 -1782.06574177223 497.984
    vertex 539.067207400578 -1781.64367510115 502.984
    vertex 539.242033139961 -1782.06574177223 502.984
  endloop
endfacet
facet normal 0.382683432365012 0.923879532511319 1.29247766707901e-018
  outer loop
    vertex 539.882577596584 -1782.70628622885 497.984
    vertex 540.304644267654 -1782.88111196823 502.984
    vertex 540.304644267654 -1782.88111196823 497.984
  endloop
endfacet
facet normal 0.382683432365012 0.923879532511319 1.29247766707901e-018
  outer loop
    vertex 540.304644267654 -1782.88111196823 502.984
    vertex 539.882577596584 -1782.70628622885 497.984
    vertex 539.882577596584 -1782.70628622885 502.984
  endloop
endfacet
facet normal 0.793353340290935 0.608761429009112 9.55855146679471e-058
  outer loop
    vertex 539.242033139961 -1782.06574177223 502.984
    vertex 539.520140729507 -1782.4281786393 497.984
    vertex 539.242033139961 -1782.06574177223 497.984
  endloop
endfacet
facet normal 0.793353340290935 0.608761429009112 9.55855146679471e-058
  outer loop
    vertex 539.520140729507 -1782.4281786393 497.984
    vertex 539.242033139961 -1782.06574177223 502.984
    vertex 539.520140729507 -1782.4281786393 502.984
  endloop
endfacet
facet normal -3.47072797852089e-015 -8.20353885831968e-016 -1.0
  outer loop
    vertex 534.257577596583 -1794.19074177223 494.984
    vertex 538.407577596584 -1785.26106117001 494.984
    vertex 547.257577596584 -1794.19074177223 494.984
  endloop
endfacet
facet normal -3.47072797852089e-015 -8.20353885831968e-016 -1.0
  outer loop
    vertex 538.407577596584 -1785.26106117001 494.984
    vertex 534.257577596583 -1794.19074177223 494.984
    vertex 536.057577596584 -1781.19074177223 494.984
  endloop
endfacet
facet normal -3.47072797852089e-015 -8.20353885831968e-016 -1.0
  outer loop
    vertex 536.057577596584 -1781.19074177223 494.984
    vertex 534.257577596583 -1794.19074177223 494.984
    vertex 534.257577596587 -1739.19074177223 494.984
  endloop
endfacet
facet normal -3.47072797852089e-015 -8.20353885831968e-016 -1.0
  outer loop
    vertex 536.057577596584 -1781.19074177223 494.984
    vertex 534.257577596587 -1739.19074177223 494.984
    vertex 538.407577596584 -1777.12042237444 494.984
  endloop
endfacet
facet normal -3.47072797852089e-015 -8.20353885831968e-016 -1.0
  outer loop
    vertex 538.407577596584 -1777.12042237444 494.984
    vertex 534.257577596587 -1739.19074177223 494.984
    vertex 543.107577596584 -1777.12042237444 494.984
  endloop
endfacet
facet normal -3.47072797852089e-015 -8.20353885831968e-016 -1.0
  outer loop
    vertex 547.257577596584 -1794.19074177223 494.984
    vertex 545.457577596584 -1781.19074177223 494.984
    vertex 547.257577596585 -1739.19074177223 494.984
  endloop
endfacet
facet normal -3.47072797852089e-015 -8.20353885831968e-016 -1.0
  outer loop
    vertex 545.457577596584 -1781.19074177223 494.984
    vertex 547.257577596584 -1794.19074177223 494.984
    vertex 543.107577596584 -1785.26106117001 494.984
  endloop
endfacet
facet normal -3.47072797852089e-015 -8.20353885831968e-016 -1.0
  outer loop
    vertex 543.107577596584 -1785.26106117001 494.984
    vertex 547.257577596584 -1794.19074177223 494.984
    vertex 538.407577596584 -1785.26106117001 494.984
  endloop
endfacet
facet normal -3.47072797852089e-015 -8.20353885831968e-016 -1.0
  outer loop
    vertex 547.257577596585 -1739.19074177223 494.984
    vertex 545.457577596584 -1781.19074177223 494.984
    vertex 543.107577596584 -1777.12042237444 494.984
  endloop
endfacet
facet normal -3.47072797852089e-015 -8.20353885831968e-016 -1.0
  outer loop
    vertex 547.257577596585 -1739.19074177223 494.984
    vertex 543.107577596584 -1777.12042237444 494.984
    vertex 534.257577596587 -1739.19074177223 494.984
  endloop
endfacet
endsolid UltraSpecial
